G04 #@! TF.GenerationSoftware,KiCad,Pcbnew,(5.1.4-0-10_14)*
G04 #@! TF.CreationDate,2020-11-07T23:41:15-06:00*
G04 #@! TF.ProjectId,Eurorack_PSU,4575726f-7261-4636-9b5f-5053552e6b69,rev?*
G04 #@! TF.SameCoordinates,Original*
G04 #@! TF.FileFunction,Legend,Top*
G04 #@! TF.FilePolarity,Positive*
%FSLAX46Y46*%
G04 Gerber Fmt 4.6, Leading zero omitted, Abs format (unit mm)*
G04 Created by KiCad (PCBNEW (5.1.4-0-10_14)) date 2020-11-07 23:41:15*
%MOMM*%
%LPD*%
G04 APERTURE LIST*
%ADD10C,0.120000*%
%ADD11C,0.150000*%
G04 APERTURE END LIST*
D10*
X161654000Y-103814759D02*
X161024000Y-103814759D01*
X161339000Y-103499759D02*
X161339000Y-104129759D01*
X159902000Y-110241000D02*
X159098000Y-110241000D01*
X160133000Y-110201000D02*
X158867000Y-110201000D01*
X160302000Y-110161000D02*
X158698000Y-110161000D01*
X160440000Y-110121000D02*
X158560000Y-110121000D01*
X160559000Y-110081000D02*
X158441000Y-110081000D01*
X160665000Y-110041000D02*
X158335000Y-110041000D01*
X160762000Y-110001000D02*
X158238000Y-110001000D01*
X160850000Y-109961000D02*
X158150000Y-109961000D01*
X160932000Y-109921000D02*
X158068000Y-109921000D01*
X161009000Y-109881000D02*
X157991000Y-109881000D01*
X161081000Y-109841000D02*
X157919000Y-109841000D01*
X161150000Y-109801000D02*
X157850000Y-109801000D01*
X161214000Y-109761000D02*
X157786000Y-109761000D01*
X161276000Y-109721000D02*
X157724000Y-109721000D01*
X161334000Y-109681000D02*
X157666000Y-109681000D01*
X161390000Y-109641000D02*
X157610000Y-109641000D01*
X161444000Y-109601000D02*
X157556000Y-109601000D01*
X161495000Y-109561000D02*
X157505000Y-109561000D01*
X161544000Y-109521000D02*
X157456000Y-109521000D01*
X161592000Y-109481000D02*
X157408000Y-109481000D01*
X161637000Y-109441000D02*
X157363000Y-109441000D01*
X161682000Y-109401000D02*
X157318000Y-109401000D01*
X161724000Y-109361000D02*
X157276000Y-109361000D01*
X161765000Y-109321000D02*
X157235000Y-109321000D01*
X158460000Y-109281000D02*
X157195000Y-109281000D01*
X161805000Y-109281000D02*
X160540000Y-109281000D01*
X158460000Y-109241000D02*
X157157000Y-109241000D01*
X161843000Y-109241000D02*
X160540000Y-109241000D01*
X158460000Y-109201000D02*
X157120000Y-109201000D01*
X161880000Y-109201000D02*
X160540000Y-109201000D01*
X158460000Y-109161000D02*
X157084000Y-109161000D01*
X161916000Y-109161000D02*
X160540000Y-109161000D01*
X158460000Y-109121000D02*
X157050000Y-109121000D01*
X161950000Y-109121000D02*
X160540000Y-109121000D01*
X158460000Y-109081000D02*
X157016000Y-109081000D01*
X161984000Y-109081000D02*
X160540000Y-109081000D01*
X158460000Y-109041000D02*
X156984000Y-109041000D01*
X162016000Y-109041000D02*
X160540000Y-109041000D01*
X158460000Y-109001000D02*
X156952000Y-109001000D01*
X162048000Y-109001000D02*
X160540000Y-109001000D01*
X158460000Y-108961000D02*
X156922000Y-108961000D01*
X162078000Y-108961000D02*
X160540000Y-108961000D01*
X158460000Y-108921000D02*
X156893000Y-108921000D01*
X162107000Y-108921000D02*
X160540000Y-108921000D01*
X158460000Y-108881000D02*
X156864000Y-108881000D01*
X162136000Y-108881000D02*
X160540000Y-108881000D01*
X158460000Y-108841000D02*
X156836000Y-108841000D01*
X162164000Y-108841000D02*
X160540000Y-108841000D01*
X158460000Y-108801000D02*
X156810000Y-108801000D01*
X162190000Y-108801000D02*
X160540000Y-108801000D01*
X158460000Y-108761000D02*
X156784000Y-108761000D01*
X162216000Y-108761000D02*
X160540000Y-108761000D01*
X158460000Y-108721000D02*
X156758000Y-108721000D01*
X162242000Y-108721000D02*
X160540000Y-108721000D01*
X158460000Y-108681000D02*
X156734000Y-108681000D01*
X162266000Y-108681000D02*
X160540000Y-108681000D01*
X158460000Y-108641000D02*
X156710000Y-108641000D01*
X162290000Y-108641000D02*
X160540000Y-108641000D01*
X158460000Y-108601000D02*
X156688000Y-108601000D01*
X162312000Y-108601000D02*
X160540000Y-108601000D01*
X158460000Y-108561000D02*
X156666000Y-108561000D01*
X162334000Y-108561000D02*
X160540000Y-108561000D01*
X158460000Y-108521000D02*
X156644000Y-108521000D01*
X162356000Y-108521000D02*
X160540000Y-108521000D01*
X158460000Y-108481000D02*
X156624000Y-108481000D01*
X162376000Y-108481000D02*
X160540000Y-108481000D01*
X158460000Y-108441000D02*
X156604000Y-108441000D01*
X162396000Y-108441000D02*
X160540000Y-108441000D01*
X158460000Y-108401000D02*
X156584000Y-108401000D01*
X162416000Y-108401000D02*
X160540000Y-108401000D01*
X158460000Y-108361000D02*
X156566000Y-108361000D01*
X162434000Y-108361000D02*
X160540000Y-108361000D01*
X158460000Y-108321000D02*
X156548000Y-108321000D01*
X162452000Y-108321000D02*
X160540000Y-108321000D01*
X158460000Y-108281000D02*
X156530000Y-108281000D01*
X162470000Y-108281000D02*
X160540000Y-108281000D01*
X158460000Y-108241000D02*
X156514000Y-108241000D01*
X162486000Y-108241000D02*
X160540000Y-108241000D01*
X158460000Y-108201000D02*
X156498000Y-108201000D01*
X162502000Y-108201000D02*
X160540000Y-108201000D01*
X158460000Y-108161000D02*
X156482000Y-108161000D01*
X162518000Y-108161000D02*
X160540000Y-108161000D01*
X158460000Y-108121000D02*
X156467000Y-108121000D01*
X162533000Y-108121000D02*
X160540000Y-108121000D01*
X158460000Y-108081000D02*
X156453000Y-108081000D01*
X162547000Y-108081000D02*
X160540000Y-108081000D01*
X158460000Y-108041000D02*
X156439000Y-108041000D01*
X162561000Y-108041000D02*
X160540000Y-108041000D01*
X158460000Y-108001000D02*
X156426000Y-108001000D01*
X162574000Y-108001000D02*
X160540000Y-108001000D01*
X158460000Y-107961000D02*
X156414000Y-107961000D01*
X162586000Y-107961000D02*
X160540000Y-107961000D01*
X158460000Y-107921000D02*
X156402000Y-107921000D01*
X162598000Y-107921000D02*
X160540000Y-107921000D01*
X158460000Y-107881000D02*
X156390000Y-107881000D01*
X162610000Y-107881000D02*
X160540000Y-107881000D01*
X158460000Y-107841000D02*
X156379000Y-107841000D01*
X162621000Y-107841000D02*
X160540000Y-107841000D01*
X158460000Y-107801000D02*
X156369000Y-107801000D01*
X162631000Y-107801000D02*
X160540000Y-107801000D01*
X158460000Y-107761000D02*
X156359000Y-107761000D01*
X162641000Y-107761000D02*
X160540000Y-107761000D01*
X158460000Y-107721000D02*
X156350000Y-107721000D01*
X162650000Y-107721000D02*
X160540000Y-107721000D01*
X158460000Y-107680000D02*
X156341000Y-107680000D01*
X162659000Y-107680000D02*
X160540000Y-107680000D01*
X158460000Y-107640000D02*
X156333000Y-107640000D01*
X162667000Y-107640000D02*
X160540000Y-107640000D01*
X158460000Y-107600000D02*
X156325000Y-107600000D01*
X162675000Y-107600000D02*
X160540000Y-107600000D01*
X158460000Y-107560000D02*
X156318000Y-107560000D01*
X162682000Y-107560000D02*
X160540000Y-107560000D01*
X158460000Y-107520000D02*
X156311000Y-107520000D01*
X162689000Y-107520000D02*
X160540000Y-107520000D01*
X158460000Y-107480000D02*
X156305000Y-107480000D01*
X162695000Y-107480000D02*
X160540000Y-107480000D01*
X158460000Y-107440000D02*
X156299000Y-107440000D01*
X162701000Y-107440000D02*
X160540000Y-107440000D01*
X158460000Y-107400000D02*
X156294000Y-107400000D01*
X162706000Y-107400000D02*
X160540000Y-107400000D01*
X158460000Y-107360000D02*
X156289000Y-107360000D01*
X162711000Y-107360000D02*
X160540000Y-107360000D01*
X158460000Y-107320000D02*
X156285000Y-107320000D01*
X162715000Y-107320000D02*
X160540000Y-107320000D01*
X158460000Y-107280000D02*
X156282000Y-107280000D01*
X162718000Y-107280000D02*
X160540000Y-107280000D01*
X158460000Y-107240000D02*
X156278000Y-107240000D01*
X162722000Y-107240000D02*
X160540000Y-107240000D01*
X162724000Y-107200000D02*
X156276000Y-107200000D01*
X162727000Y-107160000D02*
X156273000Y-107160000D01*
X162728000Y-107120000D02*
X156272000Y-107120000D01*
X162730000Y-107080000D02*
X156270000Y-107080000D01*
X162730000Y-107040000D02*
X156270000Y-107040000D01*
X162730000Y-107000000D02*
X156270000Y-107000000D01*
X162770000Y-107000000D02*
G75*
G03X162770000Y-107000000I-3270000J0D01*
G01*
X197654000Y-119564759D02*
X197024000Y-119564759D01*
X197339000Y-119249759D02*
X197339000Y-119879759D01*
X195902000Y-125991000D02*
X195098000Y-125991000D01*
X196133000Y-125951000D02*
X194867000Y-125951000D01*
X196302000Y-125911000D02*
X194698000Y-125911000D01*
X196440000Y-125871000D02*
X194560000Y-125871000D01*
X196559000Y-125831000D02*
X194441000Y-125831000D01*
X196665000Y-125791000D02*
X194335000Y-125791000D01*
X196762000Y-125751000D02*
X194238000Y-125751000D01*
X196850000Y-125711000D02*
X194150000Y-125711000D01*
X196932000Y-125671000D02*
X194068000Y-125671000D01*
X197009000Y-125631000D02*
X193991000Y-125631000D01*
X197081000Y-125591000D02*
X193919000Y-125591000D01*
X197150000Y-125551000D02*
X193850000Y-125551000D01*
X197214000Y-125511000D02*
X193786000Y-125511000D01*
X197276000Y-125471000D02*
X193724000Y-125471000D01*
X197334000Y-125431000D02*
X193666000Y-125431000D01*
X197390000Y-125391000D02*
X193610000Y-125391000D01*
X197444000Y-125351000D02*
X193556000Y-125351000D01*
X197495000Y-125311000D02*
X193505000Y-125311000D01*
X197544000Y-125271000D02*
X193456000Y-125271000D01*
X197592000Y-125231000D02*
X193408000Y-125231000D01*
X197637000Y-125191000D02*
X193363000Y-125191000D01*
X197682000Y-125151000D02*
X193318000Y-125151000D01*
X197724000Y-125111000D02*
X193276000Y-125111000D01*
X197765000Y-125071000D02*
X193235000Y-125071000D01*
X194460000Y-125031000D02*
X193195000Y-125031000D01*
X197805000Y-125031000D02*
X196540000Y-125031000D01*
X194460000Y-124991000D02*
X193157000Y-124991000D01*
X197843000Y-124991000D02*
X196540000Y-124991000D01*
X194460000Y-124951000D02*
X193120000Y-124951000D01*
X197880000Y-124951000D02*
X196540000Y-124951000D01*
X194460000Y-124911000D02*
X193084000Y-124911000D01*
X197916000Y-124911000D02*
X196540000Y-124911000D01*
X194460000Y-124871000D02*
X193050000Y-124871000D01*
X197950000Y-124871000D02*
X196540000Y-124871000D01*
X194460000Y-124831000D02*
X193016000Y-124831000D01*
X197984000Y-124831000D02*
X196540000Y-124831000D01*
X194460000Y-124791000D02*
X192984000Y-124791000D01*
X198016000Y-124791000D02*
X196540000Y-124791000D01*
X194460000Y-124751000D02*
X192952000Y-124751000D01*
X198048000Y-124751000D02*
X196540000Y-124751000D01*
X194460000Y-124711000D02*
X192922000Y-124711000D01*
X198078000Y-124711000D02*
X196540000Y-124711000D01*
X194460000Y-124671000D02*
X192893000Y-124671000D01*
X198107000Y-124671000D02*
X196540000Y-124671000D01*
X194460000Y-124631000D02*
X192864000Y-124631000D01*
X198136000Y-124631000D02*
X196540000Y-124631000D01*
X194460000Y-124591000D02*
X192836000Y-124591000D01*
X198164000Y-124591000D02*
X196540000Y-124591000D01*
X194460000Y-124551000D02*
X192810000Y-124551000D01*
X198190000Y-124551000D02*
X196540000Y-124551000D01*
X194460000Y-124511000D02*
X192784000Y-124511000D01*
X198216000Y-124511000D02*
X196540000Y-124511000D01*
X194460000Y-124471000D02*
X192758000Y-124471000D01*
X198242000Y-124471000D02*
X196540000Y-124471000D01*
X194460000Y-124431000D02*
X192734000Y-124431000D01*
X198266000Y-124431000D02*
X196540000Y-124431000D01*
X194460000Y-124391000D02*
X192710000Y-124391000D01*
X198290000Y-124391000D02*
X196540000Y-124391000D01*
X194460000Y-124351000D02*
X192688000Y-124351000D01*
X198312000Y-124351000D02*
X196540000Y-124351000D01*
X194460000Y-124311000D02*
X192666000Y-124311000D01*
X198334000Y-124311000D02*
X196540000Y-124311000D01*
X194460000Y-124271000D02*
X192644000Y-124271000D01*
X198356000Y-124271000D02*
X196540000Y-124271000D01*
X194460000Y-124231000D02*
X192624000Y-124231000D01*
X198376000Y-124231000D02*
X196540000Y-124231000D01*
X194460000Y-124191000D02*
X192604000Y-124191000D01*
X198396000Y-124191000D02*
X196540000Y-124191000D01*
X194460000Y-124151000D02*
X192584000Y-124151000D01*
X198416000Y-124151000D02*
X196540000Y-124151000D01*
X194460000Y-124111000D02*
X192566000Y-124111000D01*
X198434000Y-124111000D02*
X196540000Y-124111000D01*
X194460000Y-124071000D02*
X192548000Y-124071000D01*
X198452000Y-124071000D02*
X196540000Y-124071000D01*
X194460000Y-124031000D02*
X192530000Y-124031000D01*
X198470000Y-124031000D02*
X196540000Y-124031000D01*
X194460000Y-123991000D02*
X192514000Y-123991000D01*
X198486000Y-123991000D02*
X196540000Y-123991000D01*
X194460000Y-123951000D02*
X192498000Y-123951000D01*
X198502000Y-123951000D02*
X196540000Y-123951000D01*
X194460000Y-123911000D02*
X192482000Y-123911000D01*
X198518000Y-123911000D02*
X196540000Y-123911000D01*
X194460000Y-123871000D02*
X192467000Y-123871000D01*
X198533000Y-123871000D02*
X196540000Y-123871000D01*
X194460000Y-123831000D02*
X192453000Y-123831000D01*
X198547000Y-123831000D02*
X196540000Y-123831000D01*
X194460000Y-123791000D02*
X192439000Y-123791000D01*
X198561000Y-123791000D02*
X196540000Y-123791000D01*
X194460000Y-123751000D02*
X192426000Y-123751000D01*
X198574000Y-123751000D02*
X196540000Y-123751000D01*
X194460000Y-123711000D02*
X192414000Y-123711000D01*
X198586000Y-123711000D02*
X196540000Y-123711000D01*
X194460000Y-123671000D02*
X192402000Y-123671000D01*
X198598000Y-123671000D02*
X196540000Y-123671000D01*
X194460000Y-123631000D02*
X192390000Y-123631000D01*
X198610000Y-123631000D02*
X196540000Y-123631000D01*
X194460000Y-123591000D02*
X192379000Y-123591000D01*
X198621000Y-123591000D02*
X196540000Y-123591000D01*
X194460000Y-123551000D02*
X192369000Y-123551000D01*
X198631000Y-123551000D02*
X196540000Y-123551000D01*
X194460000Y-123511000D02*
X192359000Y-123511000D01*
X198641000Y-123511000D02*
X196540000Y-123511000D01*
X194460000Y-123471000D02*
X192350000Y-123471000D01*
X198650000Y-123471000D02*
X196540000Y-123471000D01*
X194460000Y-123430000D02*
X192341000Y-123430000D01*
X198659000Y-123430000D02*
X196540000Y-123430000D01*
X194460000Y-123390000D02*
X192333000Y-123390000D01*
X198667000Y-123390000D02*
X196540000Y-123390000D01*
X194460000Y-123350000D02*
X192325000Y-123350000D01*
X198675000Y-123350000D02*
X196540000Y-123350000D01*
X194460000Y-123310000D02*
X192318000Y-123310000D01*
X198682000Y-123310000D02*
X196540000Y-123310000D01*
X194460000Y-123270000D02*
X192311000Y-123270000D01*
X198689000Y-123270000D02*
X196540000Y-123270000D01*
X194460000Y-123230000D02*
X192305000Y-123230000D01*
X198695000Y-123230000D02*
X196540000Y-123230000D01*
X194460000Y-123190000D02*
X192299000Y-123190000D01*
X198701000Y-123190000D02*
X196540000Y-123190000D01*
X194460000Y-123150000D02*
X192294000Y-123150000D01*
X198706000Y-123150000D02*
X196540000Y-123150000D01*
X194460000Y-123110000D02*
X192289000Y-123110000D01*
X198711000Y-123110000D02*
X196540000Y-123110000D01*
X194460000Y-123070000D02*
X192285000Y-123070000D01*
X198715000Y-123070000D02*
X196540000Y-123070000D01*
X194460000Y-123030000D02*
X192282000Y-123030000D01*
X198718000Y-123030000D02*
X196540000Y-123030000D01*
X194460000Y-122990000D02*
X192278000Y-122990000D01*
X198722000Y-122990000D02*
X196540000Y-122990000D01*
X198724000Y-122950000D02*
X192276000Y-122950000D01*
X198727000Y-122910000D02*
X192273000Y-122910000D01*
X198728000Y-122870000D02*
X192272000Y-122870000D01*
X198730000Y-122830000D02*
X192270000Y-122830000D01*
X198730000Y-122790000D02*
X192270000Y-122790000D01*
X198730000Y-122750000D02*
X192270000Y-122750000D01*
X198770000Y-122750000D02*
G75*
G03X198770000Y-122750000I-3270000J0D01*
G01*
X197654000Y-88064759D02*
X197024000Y-88064759D01*
X197339000Y-87749759D02*
X197339000Y-88379759D01*
X195902000Y-94491000D02*
X195098000Y-94491000D01*
X196133000Y-94451000D02*
X194867000Y-94451000D01*
X196302000Y-94411000D02*
X194698000Y-94411000D01*
X196440000Y-94371000D02*
X194560000Y-94371000D01*
X196559000Y-94331000D02*
X194441000Y-94331000D01*
X196665000Y-94291000D02*
X194335000Y-94291000D01*
X196762000Y-94251000D02*
X194238000Y-94251000D01*
X196850000Y-94211000D02*
X194150000Y-94211000D01*
X196932000Y-94171000D02*
X194068000Y-94171000D01*
X197009000Y-94131000D02*
X193991000Y-94131000D01*
X197081000Y-94091000D02*
X193919000Y-94091000D01*
X197150000Y-94051000D02*
X193850000Y-94051000D01*
X197214000Y-94011000D02*
X193786000Y-94011000D01*
X197276000Y-93971000D02*
X193724000Y-93971000D01*
X197334000Y-93931000D02*
X193666000Y-93931000D01*
X197390000Y-93891000D02*
X193610000Y-93891000D01*
X197444000Y-93851000D02*
X193556000Y-93851000D01*
X197495000Y-93811000D02*
X193505000Y-93811000D01*
X197544000Y-93771000D02*
X193456000Y-93771000D01*
X197592000Y-93731000D02*
X193408000Y-93731000D01*
X197637000Y-93691000D02*
X193363000Y-93691000D01*
X197682000Y-93651000D02*
X193318000Y-93651000D01*
X197724000Y-93611000D02*
X193276000Y-93611000D01*
X197765000Y-93571000D02*
X193235000Y-93571000D01*
X194460000Y-93531000D02*
X193195000Y-93531000D01*
X197805000Y-93531000D02*
X196540000Y-93531000D01*
X194460000Y-93491000D02*
X193157000Y-93491000D01*
X197843000Y-93491000D02*
X196540000Y-93491000D01*
X194460000Y-93451000D02*
X193120000Y-93451000D01*
X197880000Y-93451000D02*
X196540000Y-93451000D01*
X194460000Y-93411000D02*
X193084000Y-93411000D01*
X197916000Y-93411000D02*
X196540000Y-93411000D01*
X194460000Y-93371000D02*
X193050000Y-93371000D01*
X197950000Y-93371000D02*
X196540000Y-93371000D01*
X194460000Y-93331000D02*
X193016000Y-93331000D01*
X197984000Y-93331000D02*
X196540000Y-93331000D01*
X194460000Y-93291000D02*
X192984000Y-93291000D01*
X198016000Y-93291000D02*
X196540000Y-93291000D01*
X194460000Y-93251000D02*
X192952000Y-93251000D01*
X198048000Y-93251000D02*
X196540000Y-93251000D01*
X194460000Y-93211000D02*
X192922000Y-93211000D01*
X198078000Y-93211000D02*
X196540000Y-93211000D01*
X194460000Y-93171000D02*
X192893000Y-93171000D01*
X198107000Y-93171000D02*
X196540000Y-93171000D01*
X194460000Y-93131000D02*
X192864000Y-93131000D01*
X198136000Y-93131000D02*
X196540000Y-93131000D01*
X194460000Y-93091000D02*
X192836000Y-93091000D01*
X198164000Y-93091000D02*
X196540000Y-93091000D01*
X194460000Y-93051000D02*
X192810000Y-93051000D01*
X198190000Y-93051000D02*
X196540000Y-93051000D01*
X194460000Y-93011000D02*
X192784000Y-93011000D01*
X198216000Y-93011000D02*
X196540000Y-93011000D01*
X194460000Y-92971000D02*
X192758000Y-92971000D01*
X198242000Y-92971000D02*
X196540000Y-92971000D01*
X194460000Y-92931000D02*
X192734000Y-92931000D01*
X198266000Y-92931000D02*
X196540000Y-92931000D01*
X194460000Y-92891000D02*
X192710000Y-92891000D01*
X198290000Y-92891000D02*
X196540000Y-92891000D01*
X194460000Y-92851000D02*
X192688000Y-92851000D01*
X198312000Y-92851000D02*
X196540000Y-92851000D01*
X194460000Y-92811000D02*
X192666000Y-92811000D01*
X198334000Y-92811000D02*
X196540000Y-92811000D01*
X194460000Y-92771000D02*
X192644000Y-92771000D01*
X198356000Y-92771000D02*
X196540000Y-92771000D01*
X194460000Y-92731000D02*
X192624000Y-92731000D01*
X198376000Y-92731000D02*
X196540000Y-92731000D01*
X194460000Y-92691000D02*
X192604000Y-92691000D01*
X198396000Y-92691000D02*
X196540000Y-92691000D01*
X194460000Y-92651000D02*
X192584000Y-92651000D01*
X198416000Y-92651000D02*
X196540000Y-92651000D01*
X194460000Y-92611000D02*
X192566000Y-92611000D01*
X198434000Y-92611000D02*
X196540000Y-92611000D01*
X194460000Y-92571000D02*
X192548000Y-92571000D01*
X198452000Y-92571000D02*
X196540000Y-92571000D01*
X194460000Y-92531000D02*
X192530000Y-92531000D01*
X198470000Y-92531000D02*
X196540000Y-92531000D01*
X194460000Y-92491000D02*
X192514000Y-92491000D01*
X198486000Y-92491000D02*
X196540000Y-92491000D01*
X194460000Y-92451000D02*
X192498000Y-92451000D01*
X198502000Y-92451000D02*
X196540000Y-92451000D01*
X194460000Y-92411000D02*
X192482000Y-92411000D01*
X198518000Y-92411000D02*
X196540000Y-92411000D01*
X194460000Y-92371000D02*
X192467000Y-92371000D01*
X198533000Y-92371000D02*
X196540000Y-92371000D01*
X194460000Y-92331000D02*
X192453000Y-92331000D01*
X198547000Y-92331000D02*
X196540000Y-92331000D01*
X194460000Y-92291000D02*
X192439000Y-92291000D01*
X198561000Y-92291000D02*
X196540000Y-92291000D01*
X194460000Y-92251000D02*
X192426000Y-92251000D01*
X198574000Y-92251000D02*
X196540000Y-92251000D01*
X194460000Y-92211000D02*
X192414000Y-92211000D01*
X198586000Y-92211000D02*
X196540000Y-92211000D01*
X194460000Y-92171000D02*
X192402000Y-92171000D01*
X198598000Y-92171000D02*
X196540000Y-92171000D01*
X194460000Y-92131000D02*
X192390000Y-92131000D01*
X198610000Y-92131000D02*
X196540000Y-92131000D01*
X194460000Y-92091000D02*
X192379000Y-92091000D01*
X198621000Y-92091000D02*
X196540000Y-92091000D01*
X194460000Y-92051000D02*
X192369000Y-92051000D01*
X198631000Y-92051000D02*
X196540000Y-92051000D01*
X194460000Y-92011000D02*
X192359000Y-92011000D01*
X198641000Y-92011000D02*
X196540000Y-92011000D01*
X194460000Y-91971000D02*
X192350000Y-91971000D01*
X198650000Y-91971000D02*
X196540000Y-91971000D01*
X194460000Y-91930000D02*
X192341000Y-91930000D01*
X198659000Y-91930000D02*
X196540000Y-91930000D01*
X194460000Y-91890000D02*
X192333000Y-91890000D01*
X198667000Y-91890000D02*
X196540000Y-91890000D01*
X194460000Y-91850000D02*
X192325000Y-91850000D01*
X198675000Y-91850000D02*
X196540000Y-91850000D01*
X194460000Y-91810000D02*
X192318000Y-91810000D01*
X198682000Y-91810000D02*
X196540000Y-91810000D01*
X194460000Y-91770000D02*
X192311000Y-91770000D01*
X198689000Y-91770000D02*
X196540000Y-91770000D01*
X194460000Y-91730000D02*
X192305000Y-91730000D01*
X198695000Y-91730000D02*
X196540000Y-91730000D01*
X194460000Y-91690000D02*
X192299000Y-91690000D01*
X198701000Y-91690000D02*
X196540000Y-91690000D01*
X194460000Y-91650000D02*
X192294000Y-91650000D01*
X198706000Y-91650000D02*
X196540000Y-91650000D01*
X194460000Y-91610000D02*
X192289000Y-91610000D01*
X198711000Y-91610000D02*
X196540000Y-91610000D01*
X194460000Y-91570000D02*
X192285000Y-91570000D01*
X198715000Y-91570000D02*
X196540000Y-91570000D01*
X194460000Y-91530000D02*
X192282000Y-91530000D01*
X198718000Y-91530000D02*
X196540000Y-91530000D01*
X194460000Y-91490000D02*
X192278000Y-91490000D01*
X198722000Y-91490000D02*
X196540000Y-91490000D01*
X198724000Y-91450000D02*
X192276000Y-91450000D01*
X198727000Y-91410000D02*
X192273000Y-91410000D01*
X198728000Y-91370000D02*
X192272000Y-91370000D01*
X198730000Y-91330000D02*
X192270000Y-91330000D01*
X198730000Y-91290000D02*
X192270000Y-91290000D01*
X198730000Y-91250000D02*
X192270000Y-91250000D01*
X198770000Y-91250000D02*
G75*
G03X198770000Y-91250000I-3270000J0D01*
G01*
X168588478Y-105161522D02*
G75*
G03X164150000Y-107000000I-1838478J-1838478D01*
G01*
X168588478Y-108838478D02*
G75*
G02X164150000Y-107000000I-1838478J1838478D01*
G01*
X168600000Y-108800000D02*
X168600000Y-105200000D01*
X166210000Y-120641000D02*
X165380000Y-120641000D01*
X168870000Y-120641000D02*
X167290000Y-120641000D01*
X165700000Y-117440000D02*
X165380000Y-117440000D01*
X168870000Y-117440000D02*
X167800000Y-117440000D01*
X168870000Y-123160000D02*
X165380000Y-123160000D01*
X168870000Y-114920000D02*
X165380000Y-114920000D01*
X165380000Y-114920000D02*
X165380000Y-123160000D01*
X168870000Y-114920000D02*
X168870000Y-123160000D01*
X166210000Y-96641000D02*
X165380000Y-96641000D01*
X168870000Y-96641000D02*
X167290000Y-96641000D01*
X165700000Y-93440000D02*
X165380000Y-93440000D01*
X168870000Y-93440000D02*
X167800000Y-93440000D01*
X168870000Y-99160000D02*
X165380000Y-99160000D01*
X168870000Y-90920000D02*
X165380000Y-90920000D01*
X165380000Y-90920000D02*
X165380000Y-99160000D01*
X168870000Y-90920000D02*
X168870000Y-99160000D01*
X191580000Y-108370000D02*
X191580000Y-108040000D01*
X185040000Y-108370000D02*
X191580000Y-108370000D01*
X185040000Y-108040000D02*
X185040000Y-108370000D01*
X191580000Y-105630000D02*
X191580000Y-105960000D01*
X185040000Y-105630000D02*
X191580000Y-105630000D01*
X185040000Y-105960000D02*
X185040000Y-105630000D01*
X184920000Y-112630000D02*
X184920000Y-112960000D01*
X191460000Y-112630000D02*
X184920000Y-112630000D01*
X191460000Y-112960000D02*
X191460000Y-112630000D01*
X184920000Y-115370000D02*
X184920000Y-115040000D01*
X191460000Y-115370000D02*
X184920000Y-115370000D01*
X191460000Y-115040000D02*
X191460000Y-115370000D01*
X191580000Y-101370000D02*
X191580000Y-101040000D01*
X185040000Y-101370000D02*
X191580000Y-101370000D01*
X185040000Y-101040000D02*
X185040000Y-101370000D01*
X191580000Y-98630000D02*
X191580000Y-98960000D01*
X185040000Y-98630000D02*
X191580000Y-98630000D01*
X185040000Y-98960000D02*
X185040000Y-98630000D01*
X105500000Y-108670000D02*
X106830000Y-108670000D01*
X106830000Y-108670000D02*
X106830000Y-110000000D01*
X106830000Y-111210000D02*
X106830000Y-111330000D01*
X104170000Y-111210000D02*
X104170000Y-111330000D01*
X104170000Y-111330000D02*
X106830000Y-111330000D01*
X105500000Y-102670000D02*
X106830000Y-102670000D01*
X106830000Y-102670000D02*
X106830000Y-104000000D01*
X106830000Y-105210000D02*
X106830000Y-105330000D01*
X104170000Y-105210000D02*
X104170000Y-105330000D01*
X104170000Y-105330000D02*
X106830000Y-105330000D01*
X194670000Y-108080000D02*
X194670000Y-108236000D01*
X194670000Y-105764000D02*
X194670000Y-105920000D01*
X197271130Y-108079837D02*
G75*
G02X195189039Y-108080000I-1041130J1079837D01*
G01*
X197271130Y-105920163D02*
G75*
G03X195189039Y-105920000I-1041130J-1079837D01*
G01*
X197902335Y-108078608D02*
G75*
G02X194670000Y-108235516I-1672335J1078608D01*
G01*
X197902335Y-105921392D02*
G75*
G03X194670000Y-105764484I-1672335J-1078608D01*
G01*
X194710000Y-115080000D02*
X194710000Y-115236000D01*
X194710000Y-112764000D02*
X194710000Y-112920000D01*
X197311130Y-115079837D02*
G75*
G02X195229039Y-115080000I-1041130J1079837D01*
G01*
X197311130Y-112920163D02*
G75*
G03X195229039Y-112920000I-1041130J-1079837D01*
G01*
X197942335Y-115078608D02*
G75*
G02X194710000Y-115235516I-1672335J1078608D01*
G01*
X197942335Y-112921392D02*
G75*
G03X194710000Y-112764484I-1672335J-1078608D01*
G01*
X194710000Y-101080000D02*
X194710000Y-101236000D01*
X194710000Y-98764000D02*
X194710000Y-98920000D01*
X197311130Y-101079837D02*
G75*
G02X195229039Y-101080000I-1041130J1079837D01*
G01*
X197311130Y-98920163D02*
G75*
G03X195229039Y-98920000I-1041130J-1079837D01*
G01*
X197942335Y-101078608D02*
G75*
G02X194710000Y-101235516I-1672335J1078608D01*
G01*
X197942335Y-98921392D02*
G75*
G03X194710000Y-98764484I-1672335J-1078608D01*
G01*
X190620000Y-120290000D02*
X188380000Y-120290000D01*
X190620000Y-120530000D02*
X188380000Y-120530000D01*
X190620000Y-120410000D02*
X188380000Y-120410000D01*
X189500000Y-124580000D02*
X189500000Y-123930000D01*
X189500000Y-119040000D02*
X189500000Y-119690000D01*
X190620000Y-123930000D02*
X190620000Y-119690000D01*
X188380000Y-123930000D02*
X190620000Y-123930000D01*
X188380000Y-119690000D02*
X188380000Y-123930000D01*
X190620000Y-119690000D02*
X188380000Y-119690000D01*
X190620000Y-90790000D02*
X188380000Y-90790000D01*
X190620000Y-91030000D02*
X188380000Y-91030000D01*
X190620000Y-90910000D02*
X188380000Y-90910000D01*
X189500000Y-95080000D02*
X189500000Y-94430000D01*
X189500000Y-89540000D02*
X189500000Y-90190000D01*
X190620000Y-94430000D02*
X190620000Y-90190000D01*
X188380000Y-94430000D02*
X190620000Y-94430000D01*
X188380000Y-90190000D02*
X188380000Y-94430000D01*
X190620000Y-90190000D02*
X188380000Y-90190000D01*
X164870000Y-116290000D02*
X162630000Y-116290000D01*
X164870000Y-116530000D02*
X162630000Y-116530000D01*
X164870000Y-116410000D02*
X162630000Y-116410000D01*
X163750000Y-120580000D02*
X163750000Y-119930000D01*
X163750000Y-115040000D02*
X163750000Y-115690000D01*
X164870000Y-119930000D02*
X164870000Y-115690000D01*
X162630000Y-119930000D02*
X164870000Y-119930000D01*
X162630000Y-115690000D02*
X162630000Y-119930000D01*
X164870000Y-115690000D02*
X162630000Y-115690000D01*
X164870000Y-94790000D02*
X162630000Y-94790000D01*
X164870000Y-95030000D02*
X162630000Y-95030000D01*
X164870000Y-94910000D02*
X162630000Y-94910000D01*
X163750000Y-99080000D02*
X163750000Y-98430000D01*
X163750000Y-93540000D02*
X163750000Y-94190000D01*
X164870000Y-98430000D02*
X164870000Y-94190000D01*
X162630000Y-98430000D02*
X164870000Y-98430000D01*
X162630000Y-94190000D02*
X162630000Y-98430000D01*
X164870000Y-94190000D02*
X162630000Y-94190000D01*
X112690000Y-107880000D02*
X112690000Y-110120000D01*
X112930000Y-107880000D02*
X112930000Y-110120000D01*
X112810000Y-107880000D02*
X112810000Y-110120000D01*
X116980000Y-109000000D02*
X116330000Y-109000000D01*
X111440000Y-109000000D02*
X112090000Y-109000000D01*
X116330000Y-107880000D02*
X112090000Y-107880000D01*
X116330000Y-110120000D02*
X116330000Y-107880000D01*
X112090000Y-110120000D02*
X116330000Y-110120000D01*
X112090000Y-107880000D02*
X112090000Y-110120000D01*
X115710000Y-106120000D02*
X115710000Y-103880000D01*
X115470000Y-106120000D02*
X115470000Y-103880000D01*
X115590000Y-106120000D02*
X115590000Y-103880000D01*
X111420000Y-105000000D02*
X112070000Y-105000000D01*
X116960000Y-105000000D02*
X116310000Y-105000000D01*
X112070000Y-106120000D02*
X116310000Y-106120000D01*
X112070000Y-103880000D02*
X112070000Y-106120000D01*
X116310000Y-103880000D02*
X112070000Y-103880000D01*
X116310000Y-106120000D02*
X116310000Y-103880000D01*
X126620000Y-108555000D02*
X126620000Y-108870000D01*
X126620000Y-106130000D02*
X126620000Y-106445000D01*
X121380000Y-108555000D02*
X121380000Y-108870000D01*
X121380000Y-106130000D02*
X121380000Y-106445000D01*
X121380000Y-108870000D02*
X126620000Y-108870000D01*
X121380000Y-106130000D02*
X126620000Y-106130000D01*
X146620000Y-108555000D02*
X146620000Y-108870000D01*
X146620000Y-106130000D02*
X146620000Y-106445000D01*
X141380000Y-108555000D02*
X141380000Y-108870000D01*
X141380000Y-106130000D02*
X141380000Y-106445000D01*
X141380000Y-108870000D02*
X146620000Y-108870000D01*
X141380000Y-106130000D02*
X146620000Y-106130000D01*
X159355000Y-111360509D02*
X157755000Y-111360509D01*
X158555000Y-110560509D02*
X158555000Y-112160509D01*
X154765000Y-127331000D02*
X153235000Y-127331000D01*
X155098000Y-127291000D02*
X152902000Y-127291000D01*
X155351000Y-127251000D02*
X152649000Y-127251000D01*
X155564000Y-127211000D02*
X152436000Y-127211000D01*
X155752000Y-127171000D02*
X152248000Y-127171000D01*
X155920000Y-127131000D02*
X152080000Y-127131000D01*
X156074000Y-127091000D02*
X151926000Y-127091000D01*
X156218000Y-127051000D02*
X151782000Y-127051000D01*
X156351000Y-127011000D02*
X151649000Y-127011000D01*
X156478000Y-126971000D02*
X151522000Y-126971000D01*
X156597000Y-126931000D02*
X151403000Y-126931000D01*
X156711000Y-126891000D02*
X151289000Y-126891000D01*
X156820000Y-126851000D02*
X151180000Y-126851000D01*
X156924000Y-126811000D02*
X151076000Y-126811000D01*
X157024000Y-126771000D02*
X150976000Y-126771000D01*
X157120000Y-126731000D02*
X150880000Y-126731000D01*
X157213000Y-126691000D02*
X150787000Y-126691000D01*
X157303000Y-126651000D02*
X150697000Y-126651000D01*
X157390000Y-126611000D02*
X150610000Y-126611000D01*
X157475000Y-126571000D02*
X150525000Y-126571000D01*
X157557000Y-126531000D02*
X150443000Y-126531000D01*
X157637000Y-126491000D02*
X150363000Y-126491000D01*
X157715000Y-126451000D02*
X150285000Y-126451000D01*
X157790000Y-126411000D02*
X150210000Y-126411000D01*
X157864000Y-126371000D02*
X150136000Y-126371000D01*
X157936000Y-126331000D02*
X150064000Y-126331000D01*
X158007000Y-126291000D02*
X149993000Y-126291000D01*
X158076000Y-126251000D02*
X149924000Y-126251000D01*
X158143000Y-126211000D02*
X149857000Y-126211000D01*
X158209000Y-126171000D02*
X149791000Y-126171000D01*
X158273000Y-126131000D02*
X149727000Y-126131000D01*
X158336000Y-126091000D02*
X149664000Y-126091000D01*
X158398000Y-126051000D02*
X149602000Y-126051000D01*
X158459000Y-126011000D02*
X149541000Y-126011000D01*
X158519000Y-125971000D02*
X149481000Y-125971000D01*
X158577000Y-125931000D02*
X149423000Y-125931000D01*
X158634000Y-125891000D02*
X149366000Y-125891000D01*
X158691000Y-125851000D02*
X149309000Y-125851000D01*
X158746000Y-125811000D02*
X149254000Y-125811000D01*
X158800000Y-125771000D02*
X149200000Y-125771000D01*
X158854000Y-125731000D02*
X149146000Y-125731000D01*
X158906000Y-125691000D02*
X149094000Y-125691000D01*
X158958000Y-125651000D02*
X149042000Y-125651000D01*
X159009000Y-125611000D02*
X148991000Y-125611000D01*
X159059000Y-125571000D02*
X148941000Y-125571000D01*
X159108000Y-125531000D02*
X148892000Y-125531000D01*
X159156000Y-125491000D02*
X148844000Y-125491000D01*
X159204000Y-125451000D02*
X148796000Y-125451000D01*
X159251000Y-125411000D02*
X148749000Y-125411000D01*
X159297000Y-125371000D02*
X148703000Y-125371000D01*
X159343000Y-125331000D02*
X148657000Y-125331000D01*
X159388000Y-125291000D02*
X148612000Y-125291000D01*
X159432000Y-125251000D02*
X148568000Y-125251000D01*
X159475000Y-125211000D02*
X148525000Y-125211000D01*
X159518000Y-125171000D02*
X148482000Y-125171000D01*
X159560000Y-125131000D02*
X148440000Y-125131000D01*
X159602000Y-125091000D02*
X148398000Y-125091000D01*
X159643000Y-125051000D02*
X148357000Y-125051000D01*
X159684000Y-125011000D02*
X148316000Y-125011000D01*
X159724000Y-124971000D02*
X148276000Y-124971000D01*
X159763000Y-124931000D02*
X148237000Y-124931000D01*
X159802000Y-124891000D02*
X148198000Y-124891000D01*
X159840000Y-124851000D02*
X148160000Y-124851000D01*
X159878000Y-124811000D02*
X148122000Y-124811000D01*
X159916000Y-124771000D02*
X148084000Y-124771000D01*
X159952000Y-124731000D02*
X148048000Y-124731000D01*
X159989000Y-124691000D02*
X148011000Y-124691000D01*
X160025000Y-124651000D02*
X147975000Y-124651000D01*
X160060000Y-124611000D02*
X147940000Y-124611000D01*
X160095000Y-124571000D02*
X147905000Y-124571000D01*
X160129000Y-124531000D02*
X147871000Y-124531000D01*
X160163000Y-124491000D02*
X147837000Y-124491000D01*
X160197000Y-124451000D02*
X147803000Y-124451000D01*
X152560000Y-124411000D02*
X147770000Y-124411000D01*
X160230000Y-124411000D02*
X155440000Y-124411000D01*
X152560000Y-124371000D02*
X147737000Y-124371000D01*
X160263000Y-124371000D02*
X155440000Y-124371000D01*
X152560000Y-124331000D02*
X147705000Y-124331000D01*
X160295000Y-124331000D02*
X155440000Y-124331000D01*
X152560000Y-124291000D02*
X147673000Y-124291000D01*
X160327000Y-124291000D02*
X155440000Y-124291000D01*
X152560000Y-124251000D02*
X147642000Y-124251000D01*
X160358000Y-124251000D02*
X155440000Y-124251000D01*
X152560000Y-124211000D02*
X147610000Y-124211000D01*
X160390000Y-124211000D02*
X155440000Y-124211000D01*
X152560000Y-124171000D02*
X147580000Y-124171000D01*
X160420000Y-124171000D02*
X155440000Y-124171000D01*
X152560000Y-124131000D02*
X147550000Y-124131000D01*
X160450000Y-124131000D02*
X155440000Y-124131000D01*
X152560000Y-124091000D02*
X147520000Y-124091000D01*
X160480000Y-124091000D02*
X155440000Y-124091000D01*
X152560000Y-124051000D02*
X147490000Y-124051000D01*
X160510000Y-124051000D02*
X155440000Y-124051000D01*
X152560000Y-124011000D02*
X147461000Y-124011000D01*
X160539000Y-124011000D02*
X155440000Y-124011000D01*
X152560000Y-123971000D02*
X147432000Y-123971000D01*
X160568000Y-123971000D02*
X155440000Y-123971000D01*
X152560000Y-123931000D02*
X147404000Y-123931000D01*
X160596000Y-123931000D02*
X155440000Y-123931000D01*
X152560000Y-123891000D02*
X147376000Y-123891000D01*
X160624000Y-123891000D02*
X155440000Y-123891000D01*
X152560000Y-123851000D02*
X147348000Y-123851000D01*
X160652000Y-123851000D02*
X155440000Y-123851000D01*
X152560000Y-123811000D02*
X147321000Y-123811000D01*
X160679000Y-123811000D02*
X155440000Y-123811000D01*
X152560000Y-123771000D02*
X147294000Y-123771000D01*
X160706000Y-123771000D02*
X155440000Y-123771000D01*
X152560000Y-123731000D02*
X147267000Y-123731000D01*
X160733000Y-123731000D02*
X155440000Y-123731000D01*
X152560000Y-123691000D02*
X147241000Y-123691000D01*
X160759000Y-123691000D02*
X155440000Y-123691000D01*
X152560000Y-123651000D02*
X147215000Y-123651000D01*
X160785000Y-123651000D02*
X155440000Y-123651000D01*
X152560000Y-123611000D02*
X147189000Y-123611000D01*
X160811000Y-123611000D02*
X155440000Y-123611000D01*
X152560000Y-123571000D02*
X147164000Y-123571000D01*
X160836000Y-123571000D02*
X155440000Y-123571000D01*
X152560000Y-123531000D02*
X147139000Y-123531000D01*
X160861000Y-123531000D02*
X155440000Y-123531000D01*
X152560000Y-123491000D02*
X147114000Y-123491000D01*
X160886000Y-123491000D02*
X155440000Y-123491000D01*
X152560000Y-123451000D02*
X147090000Y-123451000D01*
X160910000Y-123451000D02*
X155440000Y-123451000D01*
X152560000Y-123411000D02*
X147066000Y-123411000D01*
X160934000Y-123411000D02*
X155440000Y-123411000D01*
X152560000Y-123371000D02*
X147042000Y-123371000D01*
X160958000Y-123371000D02*
X155440000Y-123371000D01*
X152560000Y-123331000D02*
X147019000Y-123331000D01*
X160981000Y-123331000D02*
X155440000Y-123331000D01*
X152560000Y-123291000D02*
X146996000Y-123291000D01*
X161004000Y-123291000D02*
X155440000Y-123291000D01*
X152560000Y-123251000D02*
X146973000Y-123251000D01*
X161027000Y-123251000D02*
X155440000Y-123251000D01*
X152560000Y-123211000D02*
X146951000Y-123211000D01*
X161049000Y-123211000D02*
X155440000Y-123211000D01*
X152560000Y-123171000D02*
X146928000Y-123171000D01*
X161072000Y-123171000D02*
X155440000Y-123171000D01*
X152560000Y-123131000D02*
X146906000Y-123131000D01*
X161094000Y-123131000D02*
X155440000Y-123131000D01*
X152560000Y-123091000D02*
X146885000Y-123091000D01*
X161115000Y-123091000D02*
X155440000Y-123091000D01*
X152560000Y-123051000D02*
X146864000Y-123051000D01*
X161136000Y-123051000D02*
X155440000Y-123051000D01*
X152560000Y-123011000D02*
X146843000Y-123011000D01*
X161157000Y-123011000D02*
X155440000Y-123011000D01*
X152560000Y-122971000D02*
X146822000Y-122971000D01*
X161178000Y-122971000D02*
X155440000Y-122971000D01*
X152560000Y-122931000D02*
X146801000Y-122931000D01*
X161199000Y-122931000D02*
X155440000Y-122931000D01*
X152560000Y-122891000D02*
X146781000Y-122891000D01*
X161219000Y-122891000D02*
X155440000Y-122891000D01*
X152560000Y-122851000D02*
X146761000Y-122851000D01*
X161239000Y-122851000D02*
X155440000Y-122851000D01*
X152560000Y-122811000D02*
X146742000Y-122811000D01*
X161258000Y-122811000D02*
X155440000Y-122811000D01*
X152560000Y-122771000D02*
X146722000Y-122771000D01*
X161278000Y-122771000D02*
X155440000Y-122771000D01*
X152560000Y-122731000D02*
X146703000Y-122731000D01*
X161297000Y-122731000D02*
X155440000Y-122731000D01*
X152560000Y-122691000D02*
X146684000Y-122691000D01*
X161316000Y-122691000D02*
X155440000Y-122691000D01*
X152560000Y-122651000D02*
X146666000Y-122651000D01*
X161334000Y-122651000D02*
X155440000Y-122651000D01*
X152560000Y-122611000D02*
X146647000Y-122611000D01*
X161353000Y-122611000D02*
X155440000Y-122611000D01*
X152560000Y-122571000D02*
X146629000Y-122571000D01*
X161371000Y-122571000D02*
X155440000Y-122571000D01*
X152560000Y-122531000D02*
X146611000Y-122531000D01*
X161389000Y-122531000D02*
X155440000Y-122531000D01*
X152560000Y-122491000D02*
X146594000Y-122491000D01*
X161406000Y-122491000D02*
X155440000Y-122491000D01*
X152560000Y-122451000D02*
X146577000Y-122451000D01*
X161423000Y-122451000D02*
X155440000Y-122451000D01*
X152560000Y-122411000D02*
X146560000Y-122411000D01*
X161440000Y-122411000D02*
X155440000Y-122411000D01*
X152560000Y-122371000D02*
X146543000Y-122371000D01*
X161457000Y-122371000D02*
X155440000Y-122371000D01*
X152560000Y-122331000D02*
X146526000Y-122331000D01*
X161474000Y-122331000D02*
X155440000Y-122331000D01*
X152560000Y-122291000D02*
X146510000Y-122291000D01*
X161490000Y-122291000D02*
X155440000Y-122291000D01*
X152560000Y-122251000D02*
X146494000Y-122251000D01*
X161506000Y-122251000D02*
X155440000Y-122251000D01*
X152560000Y-122211000D02*
X146478000Y-122211000D01*
X161522000Y-122211000D02*
X155440000Y-122211000D01*
X152560000Y-122171000D02*
X146463000Y-122171000D01*
X161537000Y-122171000D02*
X155440000Y-122171000D01*
X152560000Y-122131000D02*
X146447000Y-122131000D01*
X161553000Y-122131000D02*
X155440000Y-122131000D01*
X152560000Y-122091000D02*
X146432000Y-122091000D01*
X161568000Y-122091000D02*
X155440000Y-122091000D01*
X152560000Y-122051000D02*
X146418000Y-122051000D01*
X161582000Y-122051000D02*
X155440000Y-122051000D01*
X152560000Y-122011000D02*
X146403000Y-122011000D01*
X161597000Y-122011000D02*
X155440000Y-122011000D01*
X152560000Y-121971000D02*
X146389000Y-121971000D01*
X161611000Y-121971000D02*
X155440000Y-121971000D01*
X152560000Y-121931000D02*
X146375000Y-121931000D01*
X161625000Y-121931000D02*
X155440000Y-121931000D01*
X152560000Y-121891000D02*
X146361000Y-121891000D01*
X161639000Y-121891000D02*
X155440000Y-121891000D01*
X152560000Y-121851000D02*
X146347000Y-121851000D01*
X161653000Y-121851000D02*
X155440000Y-121851000D01*
X152560000Y-121811000D02*
X146334000Y-121811000D01*
X161666000Y-121811000D02*
X155440000Y-121811000D01*
X152560000Y-121771000D02*
X146320000Y-121771000D01*
X161680000Y-121771000D02*
X155440000Y-121771000D01*
X152560000Y-121731000D02*
X146307000Y-121731000D01*
X161693000Y-121731000D02*
X155440000Y-121731000D01*
X152560000Y-121691000D02*
X146295000Y-121691000D01*
X161705000Y-121691000D02*
X155440000Y-121691000D01*
X152560000Y-121651000D02*
X146282000Y-121651000D01*
X161718000Y-121651000D02*
X155440000Y-121651000D01*
X152560000Y-121611000D02*
X146270000Y-121611000D01*
X161730000Y-121611000D02*
X155440000Y-121611000D01*
X152560000Y-121571000D02*
X146258000Y-121571000D01*
X161742000Y-121571000D02*
X155440000Y-121571000D01*
X161754000Y-121531000D02*
X146246000Y-121531000D01*
X161765000Y-121491000D02*
X146235000Y-121491000D01*
X161777000Y-121451000D02*
X146223000Y-121451000D01*
X161788000Y-121411000D02*
X146212000Y-121411000D01*
X161799000Y-121371000D02*
X146201000Y-121371000D01*
X161810000Y-121331000D02*
X146190000Y-121331000D01*
X161820000Y-121291000D02*
X146180000Y-121291000D01*
X161830000Y-121251000D02*
X146170000Y-121251000D01*
X161840000Y-121211000D02*
X146160000Y-121211000D01*
X161850000Y-121171000D02*
X146150000Y-121171000D01*
X161860000Y-121131000D02*
X146140000Y-121131000D01*
X161869000Y-121091000D02*
X146131000Y-121091000D01*
X161878000Y-121051000D02*
X146122000Y-121051000D01*
X161887000Y-121011000D02*
X146113000Y-121011000D01*
X161896000Y-120971000D02*
X146104000Y-120971000D01*
X161905000Y-120931000D02*
X146095000Y-120931000D01*
X161913000Y-120891000D02*
X146087000Y-120891000D01*
X161921000Y-120851000D02*
X146079000Y-120851000D01*
X161929000Y-120811000D02*
X146071000Y-120811000D01*
X161937000Y-120771000D02*
X146063000Y-120771000D01*
X161944000Y-120731000D02*
X146056000Y-120731000D01*
X161952000Y-120691000D02*
X146048000Y-120691000D01*
X161959000Y-120651000D02*
X146041000Y-120651000D01*
X161966000Y-120611000D02*
X146034000Y-120611000D01*
X161972000Y-120571000D02*
X146028000Y-120571000D01*
X161979000Y-120531000D02*
X146021000Y-120531000D01*
X161985000Y-120491000D02*
X146015000Y-120491000D01*
X161991000Y-120451000D02*
X146009000Y-120451000D01*
X161997000Y-120411000D02*
X146003000Y-120411000D01*
X162003000Y-120371000D02*
X145997000Y-120371000D01*
X162008000Y-120331000D02*
X145992000Y-120331000D01*
X162014000Y-120291000D02*
X145986000Y-120291000D01*
X162019000Y-120251000D02*
X145981000Y-120251000D01*
X162024000Y-120211000D02*
X145976000Y-120211000D01*
X162028000Y-120171000D02*
X145972000Y-120171000D01*
X162033000Y-120131000D02*
X145967000Y-120131000D01*
X162037000Y-120091000D02*
X145963000Y-120091000D01*
X162041000Y-120051000D02*
X145959000Y-120051000D01*
X162045000Y-120011000D02*
X145955000Y-120011000D01*
X162049000Y-119971000D02*
X145951000Y-119971000D01*
X162052000Y-119930000D02*
X145948000Y-119930000D01*
X162055000Y-119890000D02*
X145945000Y-119890000D01*
X162058000Y-119850000D02*
X145942000Y-119850000D01*
X162061000Y-119810000D02*
X145939000Y-119810000D01*
X162064000Y-119770000D02*
X145936000Y-119770000D01*
X162066000Y-119730000D02*
X145934000Y-119730000D01*
X162069000Y-119690000D02*
X145931000Y-119690000D01*
X162071000Y-119650000D02*
X145929000Y-119650000D01*
X162073000Y-119610000D02*
X145927000Y-119610000D01*
X162074000Y-119570000D02*
X145926000Y-119570000D01*
X162076000Y-119530000D02*
X145924000Y-119530000D01*
X162077000Y-119490000D02*
X145923000Y-119490000D01*
X162078000Y-119450000D02*
X145922000Y-119450000D01*
X162079000Y-119410000D02*
X145921000Y-119410000D01*
X162080000Y-119370000D02*
X145920000Y-119370000D01*
X162080000Y-119330000D02*
X145920000Y-119330000D01*
X162080000Y-119290000D02*
X145920000Y-119290000D01*
X162081000Y-119250000D02*
X145919000Y-119250000D01*
X162120000Y-119250000D02*
G75*
G03X162120000Y-119250000I-8120000J0D01*
G01*
X159355000Y-86860509D02*
X157755000Y-86860509D01*
X158555000Y-86060509D02*
X158555000Y-87660509D01*
X154765000Y-102831000D02*
X153235000Y-102831000D01*
X155098000Y-102791000D02*
X152902000Y-102791000D01*
X155351000Y-102751000D02*
X152649000Y-102751000D01*
X155564000Y-102711000D02*
X152436000Y-102711000D01*
X155752000Y-102671000D02*
X152248000Y-102671000D01*
X155920000Y-102631000D02*
X152080000Y-102631000D01*
X156074000Y-102591000D02*
X151926000Y-102591000D01*
X156218000Y-102551000D02*
X151782000Y-102551000D01*
X156351000Y-102511000D02*
X151649000Y-102511000D01*
X156478000Y-102471000D02*
X151522000Y-102471000D01*
X156597000Y-102431000D02*
X151403000Y-102431000D01*
X156711000Y-102391000D02*
X151289000Y-102391000D01*
X156820000Y-102351000D02*
X151180000Y-102351000D01*
X156924000Y-102311000D02*
X151076000Y-102311000D01*
X157024000Y-102271000D02*
X150976000Y-102271000D01*
X157120000Y-102231000D02*
X150880000Y-102231000D01*
X157213000Y-102191000D02*
X150787000Y-102191000D01*
X157303000Y-102151000D02*
X150697000Y-102151000D01*
X157390000Y-102111000D02*
X150610000Y-102111000D01*
X157475000Y-102071000D02*
X150525000Y-102071000D01*
X157557000Y-102031000D02*
X150443000Y-102031000D01*
X157637000Y-101991000D02*
X150363000Y-101991000D01*
X157715000Y-101951000D02*
X150285000Y-101951000D01*
X157790000Y-101911000D02*
X150210000Y-101911000D01*
X157864000Y-101871000D02*
X150136000Y-101871000D01*
X157936000Y-101831000D02*
X150064000Y-101831000D01*
X158007000Y-101791000D02*
X149993000Y-101791000D01*
X158076000Y-101751000D02*
X149924000Y-101751000D01*
X158143000Y-101711000D02*
X149857000Y-101711000D01*
X158209000Y-101671000D02*
X149791000Y-101671000D01*
X158273000Y-101631000D02*
X149727000Y-101631000D01*
X158336000Y-101591000D02*
X149664000Y-101591000D01*
X158398000Y-101551000D02*
X149602000Y-101551000D01*
X158459000Y-101511000D02*
X149541000Y-101511000D01*
X158519000Y-101471000D02*
X149481000Y-101471000D01*
X158577000Y-101431000D02*
X149423000Y-101431000D01*
X158634000Y-101391000D02*
X149366000Y-101391000D01*
X158691000Y-101351000D02*
X149309000Y-101351000D01*
X158746000Y-101311000D02*
X149254000Y-101311000D01*
X158800000Y-101271000D02*
X149200000Y-101271000D01*
X158854000Y-101231000D02*
X149146000Y-101231000D01*
X158906000Y-101191000D02*
X149094000Y-101191000D01*
X158958000Y-101151000D02*
X149042000Y-101151000D01*
X159009000Y-101111000D02*
X148991000Y-101111000D01*
X159059000Y-101071000D02*
X148941000Y-101071000D01*
X159108000Y-101031000D02*
X148892000Y-101031000D01*
X159156000Y-100991000D02*
X148844000Y-100991000D01*
X159204000Y-100951000D02*
X148796000Y-100951000D01*
X159251000Y-100911000D02*
X148749000Y-100911000D01*
X159297000Y-100871000D02*
X148703000Y-100871000D01*
X159343000Y-100831000D02*
X148657000Y-100831000D01*
X159388000Y-100791000D02*
X148612000Y-100791000D01*
X159432000Y-100751000D02*
X148568000Y-100751000D01*
X159475000Y-100711000D02*
X148525000Y-100711000D01*
X159518000Y-100671000D02*
X148482000Y-100671000D01*
X159560000Y-100631000D02*
X148440000Y-100631000D01*
X159602000Y-100591000D02*
X148398000Y-100591000D01*
X159643000Y-100551000D02*
X148357000Y-100551000D01*
X159684000Y-100511000D02*
X148316000Y-100511000D01*
X159724000Y-100471000D02*
X148276000Y-100471000D01*
X159763000Y-100431000D02*
X148237000Y-100431000D01*
X159802000Y-100391000D02*
X148198000Y-100391000D01*
X159840000Y-100351000D02*
X148160000Y-100351000D01*
X159878000Y-100311000D02*
X148122000Y-100311000D01*
X159916000Y-100271000D02*
X148084000Y-100271000D01*
X159952000Y-100231000D02*
X148048000Y-100231000D01*
X159989000Y-100191000D02*
X148011000Y-100191000D01*
X160025000Y-100151000D02*
X147975000Y-100151000D01*
X160060000Y-100111000D02*
X147940000Y-100111000D01*
X160095000Y-100071000D02*
X147905000Y-100071000D01*
X160129000Y-100031000D02*
X147871000Y-100031000D01*
X160163000Y-99991000D02*
X147837000Y-99991000D01*
X160197000Y-99951000D02*
X147803000Y-99951000D01*
X152560000Y-99911000D02*
X147770000Y-99911000D01*
X160230000Y-99911000D02*
X155440000Y-99911000D01*
X152560000Y-99871000D02*
X147737000Y-99871000D01*
X160263000Y-99871000D02*
X155440000Y-99871000D01*
X152560000Y-99831000D02*
X147705000Y-99831000D01*
X160295000Y-99831000D02*
X155440000Y-99831000D01*
X152560000Y-99791000D02*
X147673000Y-99791000D01*
X160327000Y-99791000D02*
X155440000Y-99791000D01*
X152560000Y-99751000D02*
X147642000Y-99751000D01*
X160358000Y-99751000D02*
X155440000Y-99751000D01*
X152560000Y-99711000D02*
X147610000Y-99711000D01*
X160390000Y-99711000D02*
X155440000Y-99711000D01*
X152560000Y-99671000D02*
X147580000Y-99671000D01*
X160420000Y-99671000D02*
X155440000Y-99671000D01*
X152560000Y-99631000D02*
X147550000Y-99631000D01*
X160450000Y-99631000D02*
X155440000Y-99631000D01*
X152560000Y-99591000D02*
X147520000Y-99591000D01*
X160480000Y-99591000D02*
X155440000Y-99591000D01*
X152560000Y-99551000D02*
X147490000Y-99551000D01*
X160510000Y-99551000D02*
X155440000Y-99551000D01*
X152560000Y-99511000D02*
X147461000Y-99511000D01*
X160539000Y-99511000D02*
X155440000Y-99511000D01*
X152560000Y-99471000D02*
X147432000Y-99471000D01*
X160568000Y-99471000D02*
X155440000Y-99471000D01*
X152560000Y-99431000D02*
X147404000Y-99431000D01*
X160596000Y-99431000D02*
X155440000Y-99431000D01*
X152560000Y-99391000D02*
X147376000Y-99391000D01*
X160624000Y-99391000D02*
X155440000Y-99391000D01*
X152560000Y-99351000D02*
X147348000Y-99351000D01*
X160652000Y-99351000D02*
X155440000Y-99351000D01*
X152560000Y-99311000D02*
X147321000Y-99311000D01*
X160679000Y-99311000D02*
X155440000Y-99311000D01*
X152560000Y-99271000D02*
X147294000Y-99271000D01*
X160706000Y-99271000D02*
X155440000Y-99271000D01*
X152560000Y-99231000D02*
X147267000Y-99231000D01*
X160733000Y-99231000D02*
X155440000Y-99231000D01*
X152560000Y-99191000D02*
X147241000Y-99191000D01*
X160759000Y-99191000D02*
X155440000Y-99191000D01*
X152560000Y-99151000D02*
X147215000Y-99151000D01*
X160785000Y-99151000D02*
X155440000Y-99151000D01*
X152560000Y-99111000D02*
X147189000Y-99111000D01*
X160811000Y-99111000D02*
X155440000Y-99111000D01*
X152560000Y-99071000D02*
X147164000Y-99071000D01*
X160836000Y-99071000D02*
X155440000Y-99071000D01*
X152560000Y-99031000D02*
X147139000Y-99031000D01*
X160861000Y-99031000D02*
X155440000Y-99031000D01*
X152560000Y-98991000D02*
X147114000Y-98991000D01*
X160886000Y-98991000D02*
X155440000Y-98991000D01*
X152560000Y-98951000D02*
X147090000Y-98951000D01*
X160910000Y-98951000D02*
X155440000Y-98951000D01*
X152560000Y-98911000D02*
X147066000Y-98911000D01*
X160934000Y-98911000D02*
X155440000Y-98911000D01*
X152560000Y-98871000D02*
X147042000Y-98871000D01*
X160958000Y-98871000D02*
X155440000Y-98871000D01*
X152560000Y-98831000D02*
X147019000Y-98831000D01*
X160981000Y-98831000D02*
X155440000Y-98831000D01*
X152560000Y-98791000D02*
X146996000Y-98791000D01*
X161004000Y-98791000D02*
X155440000Y-98791000D01*
X152560000Y-98751000D02*
X146973000Y-98751000D01*
X161027000Y-98751000D02*
X155440000Y-98751000D01*
X152560000Y-98711000D02*
X146951000Y-98711000D01*
X161049000Y-98711000D02*
X155440000Y-98711000D01*
X152560000Y-98671000D02*
X146928000Y-98671000D01*
X161072000Y-98671000D02*
X155440000Y-98671000D01*
X152560000Y-98631000D02*
X146906000Y-98631000D01*
X161094000Y-98631000D02*
X155440000Y-98631000D01*
X152560000Y-98591000D02*
X146885000Y-98591000D01*
X161115000Y-98591000D02*
X155440000Y-98591000D01*
X152560000Y-98551000D02*
X146864000Y-98551000D01*
X161136000Y-98551000D02*
X155440000Y-98551000D01*
X152560000Y-98511000D02*
X146843000Y-98511000D01*
X161157000Y-98511000D02*
X155440000Y-98511000D01*
X152560000Y-98471000D02*
X146822000Y-98471000D01*
X161178000Y-98471000D02*
X155440000Y-98471000D01*
X152560000Y-98431000D02*
X146801000Y-98431000D01*
X161199000Y-98431000D02*
X155440000Y-98431000D01*
X152560000Y-98391000D02*
X146781000Y-98391000D01*
X161219000Y-98391000D02*
X155440000Y-98391000D01*
X152560000Y-98351000D02*
X146761000Y-98351000D01*
X161239000Y-98351000D02*
X155440000Y-98351000D01*
X152560000Y-98311000D02*
X146742000Y-98311000D01*
X161258000Y-98311000D02*
X155440000Y-98311000D01*
X152560000Y-98271000D02*
X146722000Y-98271000D01*
X161278000Y-98271000D02*
X155440000Y-98271000D01*
X152560000Y-98231000D02*
X146703000Y-98231000D01*
X161297000Y-98231000D02*
X155440000Y-98231000D01*
X152560000Y-98191000D02*
X146684000Y-98191000D01*
X161316000Y-98191000D02*
X155440000Y-98191000D01*
X152560000Y-98151000D02*
X146666000Y-98151000D01*
X161334000Y-98151000D02*
X155440000Y-98151000D01*
X152560000Y-98111000D02*
X146647000Y-98111000D01*
X161353000Y-98111000D02*
X155440000Y-98111000D01*
X152560000Y-98071000D02*
X146629000Y-98071000D01*
X161371000Y-98071000D02*
X155440000Y-98071000D01*
X152560000Y-98031000D02*
X146611000Y-98031000D01*
X161389000Y-98031000D02*
X155440000Y-98031000D01*
X152560000Y-97991000D02*
X146594000Y-97991000D01*
X161406000Y-97991000D02*
X155440000Y-97991000D01*
X152560000Y-97951000D02*
X146577000Y-97951000D01*
X161423000Y-97951000D02*
X155440000Y-97951000D01*
X152560000Y-97911000D02*
X146560000Y-97911000D01*
X161440000Y-97911000D02*
X155440000Y-97911000D01*
X152560000Y-97871000D02*
X146543000Y-97871000D01*
X161457000Y-97871000D02*
X155440000Y-97871000D01*
X152560000Y-97831000D02*
X146526000Y-97831000D01*
X161474000Y-97831000D02*
X155440000Y-97831000D01*
X152560000Y-97791000D02*
X146510000Y-97791000D01*
X161490000Y-97791000D02*
X155440000Y-97791000D01*
X152560000Y-97751000D02*
X146494000Y-97751000D01*
X161506000Y-97751000D02*
X155440000Y-97751000D01*
X152560000Y-97711000D02*
X146478000Y-97711000D01*
X161522000Y-97711000D02*
X155440000Y-97711000D01*
X152560000Y-97671000D02*
X146463000Y-97671000D01*
X161537000Y-97671000D02*
X155440000Y-97671000D01*
X152560000Y-97631000D02*
X146447000Y-97631000D01*
X161553000Y-97631000D02*
X155440000Y-97631000D01*
X152560000Y-97591000D02*
X146432000Y-97591000D01*
X161568000Y-97591000D02*
X155440000Y-97591000D01*
X152560000Y-97551000D02*
X146418000Y-97551000D01*
X161582000Y-97551000D02*
X155440000Y-97551000D01*
X152560000Y-97511000D02*
X146403000Y-97511000D01*
X161597000Y-97511000D02*
X155440000Y-97511000D01*
X152560000Y-97471000D02*
X146389000Y-97471000D01*
X161611000Y-97471000D02*
X155440000Y-97471000D01*
X152560000Y-97431000D02*
X146375000Y-97431000D01*
X161625000Y-97431000D02*
X155440000Y-97431000D01*
X152560000Y-97391000D02*
X146361000Y-97391000D01*
X161639000Y-97391000D02*
X155440000Y-97391000D01*
X152560000Y-97351000D02*
X146347000Y-97351000D01*
X161653000Y-97351000D02*
X155440000Y-97351000D01*
X152560000Y-97311000D02*
X146334000Y-97311000D01*
X161666000Y-97311000D02*
X155440000Y-97311000D01*
X152560000Y-97271000D02*
X146320000Y-97271000D01*
X161680000Y-97271000D02*
X155440000Y-97271000D01*
X152560000Y-97231000D02*
X146307000Y-97231000D01*
X161693000Y-97231000D02*
X155440000Y-97231000D01*
X152560000Y-97191000D02*
X146295000Y-97191000D01*
X161705000Y-97191000D02*
X155440000Y-97191000D01*
X152560000Y-97151000D02*
X146282000Y-97151000D01*
X161718000Y-97151000D02*
X155440000Y-97151000D01*
X152560000Y-97111000D02*
X146270000Y-97111000D01*
X161730000Y-97111000D02*
X155440000Y-97111000D01*
X152560000Y-97071000D02*
X146258000Y-97071000D01*
X161742000Y-97071000D02*
X155440000Y-97071000D01*
X161754000Y-97031000D02*
X146246000Y-97031000D01*
X161765000Y-96991000D02*
X146235000Y-96991000D01*
X161777000Y-96951000D02*
X146223000Y-96951000D01*
X161788000Y-96911000D02*
X146212000Y-96911000D01*
X161799000Y-96871000D02*
X146201000Y-96871000D01*
X161810000Y-96831000D02*
X146190000Y-96831000D01*
X161820000Y-96791000D02*
X146180000Y-96791000D01*
X161830000Y-96751000D02*
X146170000Y-96751000D01*
X161840000Y-96711000D02*
X146160000Y-96711000D01*
X161850000Y-96671000D02*
X146150000Y-96671000D01*
X161860000Y-96631000D02*
X146140000Y-96631000D01*
X161869000Y-96591000D02*
X146131000Y-96591000D01*
X161878000Y-96551000D02*
X146122000Y-96551000D01*
X161887000Y-96511000D02*
X146113000Y-96511000D01*
X161896000Y-96471000D02*
X146104000Y-96471000D01*
X161905000Y-96431000D02*
X146095000Y-96431000D01*
X161913000Y-96391000D02*
X146087000Y-96391000D01*
X161921000Y-96351000D02*
X146079000Y-96351000D01*
X161929000Y-96311000D02*
X146071000Y-96311000D01*
X161937000Y-96271000D02*
X146063000Y-96271000D01*
X161944000Y-96231000D02*
X146056000Y-96231000D01*
X161952000Y-96191000D02*
X146048000Y-96191000D01*
X161959000Y-96151000D02*
X146041000Y-96151000D01*
X161966000Y-96111000D02*
X146034000Y-96111000D01*
X161972000Y-96071000D02*
X146028000Y-96071000D01*
X161979000Y-96031000D02*
X146021000Y-96031000D01*
X161985000Y-95991000D02*
X146015000Y-95991000D01*
X161991000Y-95951000D02*
X146009000Y-95951000D01*
X161997000Y-95911000D02*
X146003000Y-95911000D01*
X162003000Y-95871000D02*
X145997000Y-95871000D01*
X162008000Y-95831000D02*
X145992000Y-95831000D01*
X162014000Y-95791000D02*
X145986000Y-95791000D01*
X162019000Y-95751000D02*
X145981000Y-95751000D01*
X162024000Y-95711000D02*
X145976000Y-95711000D01*
X162028000Y-95671000D02*
X145972000Y-95671000D01*
X162033000Y-95631000D02*
X145967000Y-95631000D01*
X162037000Y-95591000D02*
X145963000Y-95591000D01*
X162041000Y-95551000D02*
X145959000Y-95551000D01*
X162045000Y-95511000D02*
X145955000Y-95511000D01*
X162049000Y-95471000D02*
X145951000Y-95471000D01*
X162052000Y-95430000D02*
X145948000Y-95430000D01*
X162055000Y-95390000D02*
X145945000Y-95390000D01*
X162058000Y-95350000D02*
X145942000Y-95350000D01*
X162061000Y-95310000D02*
X145939000Y-95310000D01*
X162064000Y-95270000D02*
X145936000Y-95270000D01*
X162066000Y-95230000D02*
X145934000Y-95230000D01*
X162069000Y-95190000D02*
X145931000Y-95190000D01*
X162071000Y-95150000D02*
X145929000Y-95150000D01*
X162073000Y-95110000D02*
X145927000Y-95110000D01*
X162074000Y-95070000D02*
X145926000Y-95070000D01*
X162076000Y-95030000D02*
X145924000Y-95030000D01*
X162077000Y-94990000D02*
X145923000Y-94990000D01*
X162078000Y-94950000D02*
X145922000Y-94950000D01*
X162079000Y-94910000D02*
X145921000Y-94910000D01*
X162080000Y-94870000D02*
X145920000Y-94870000D01*
X162080000Y-94830000D02*
X145920000Y-94830000D01*
X162080000Y-94790000D02*
X145920000Y-94790000D01*
X162081000Y-94750000D02*
X145919000Y-94750000D01*
X162120000Y-94750000D02*
G75*
G03X162120000Y-94750000I-8120000J0D01*
G01*
X139355000Y-111360509D02*
X137755000Y-111360509D01*
X138555000Y-110560509D02*
X138555000Y-112160509D01*
X134765000Y-127331000D02*
X133235000Y-127331000D01*
X135098000Y-127291000D02*
X132902000Y-127291000D01*
X135351000Y-127251000D02*
X132649000Y-127251000D01*
X135564000Y-127211000D02*
X132436000Y-127211000D01*
X135752000Y-127171000D02*
X132248000Y-127171000D01*
X135920000Y-127131000D02*
X132080000Y-127131000D01*
X136074000Y-127091000D02*
X131926000Y-127091000D01*
X136218000Y-127051000D02*
X131782000Y-127051000D01*
X136351000Y-127011000D02*
X131649000Y-127011000D01*
X136478000Y-126971000D02*
X131522000Y-126971000D01*
X136597000Y-126931000D02*
X131403000Y-126931000D01*
X136711000Y-126891000D02*
X131289000Y-126891000D01*
X136820000Y-126851000D02*
X131180000Y-126851000D01*
X136924000Y-126811000D02*
X131076000Y-126811000D01*
X137024000Y-126771000D02*
X130976000Y-126771000D01*
X137120000Y-126731000D02*
X130880000Y-126731000D01*
X137213000Y-126691000D02*
X130787000Y-126691000D01*
X137303000Y-126651000D02*
X130697000Y-126651000D01*
X137390000Y-126611000D02*
X130610000Y-126611000D01*
X137475000Y-126571000D02*
X130525000Y-126571000D01*
X137557000Y-126531000D02*
X130443000Y-126531000D01*
X137637000Y-126491000D02*
X130363000Y-126491000D01*
X137715000Y-126451000D02*
X130285000Y-126451000D01*
X137790000Y-126411000D02*
X130210000Y-126411000D01*
X137864000Y-126371000D02*
X130136000Y-126371000D01*
X137936000Y-126331000D02*
X130064000Y-126331000D01*
X138007000Y-126291000D02*
X129993000Y-126291000D01*
X138076000Y-126251000D02*
X129924000Y-126251000D01*
X138143000Y-126211000D02*
X129857000Y-126211000D01*
X138209000Y-126171000D02*
X129791000Y-126171000D01*
X138273000Y-126131000D02*
X129727000Y-126131000D01*
X138336000Y-126091000D02*
X129664000Y-126091000D01*
X138398000Y-126051000D02*
X129602000Y-126051000D01*
X138459000Y-126011000D02*
X129541000Y-126011000D01*
X138519000Y-125971000D02*
X129481000Y-125971000D01*
X138577000Y-125931000D02*
X129423000Y-125931000D01*
X138634000Y-125891000D02*
X129366000Y-125891000D01*
X138691000Y-125851000D02*
X129309000Y-125851000D01*
X138746000Y-125811000D02*
X129254000Y-125811000D01*
X138800000Y-125771000D02*
X129200000Y-125771000D01*
X138854000Y-125731000D02*
X129146000Y-125731000D01*
X138906000Y-125691000D02*
X129094000Y-125691000D01*
X138958000Y-125651000D02*
X129042000Y-125651000D01*
X139009000Y-125611000D02*
X128991000Y-125611000D01*
X139059000Y-125571000D02*
X128941000Y-125571000D01*
X139108000Y-125531000D02*
X128892000Y-125531000D01*
X139156000Y-125491000D02*
X128844000Y-125491000D01*
X139204000Y-125451000D02*
X128796000Y-125451000D01*
X139251000Y-125411000D02*
X128749000Y-125411000D01*
X139297000Y-125371000D02*
X128703000Y-125371000D01*
X139343000Y-125331000D02*
X128657000Y-125331000D01*
X139388000Y-125291000D02*
X128612000Y-125291000D01*
X139432000Y-125251000D02*
X128568000Y-125251000D01*
X139475000Y-125211000D02*
X128525000Y-125211000D01*
X139518000Y-125171000D02*
X128482000Y-125171000D01*
X139560000Y-125131000D02*
X128440000Y-125131000D01*
X139602000Y-125091000D02*
X128398000Y-125091000D01*
X139643000Y-125051000D02*
X128357000Y-125051000D01*
X139684000Y-125011000D02*
X128316000Y-125011000D01*
X139724000Y-124971000D02*
X128276000Y-124971000D01*
X139763000Y-124931000D02*
X128237000Y-124931000D01*
X139802000Y-124891000D02*
X128198000Y-124891000D01*
X139840000Y-124851000D02*
X128160000Y-124851000D01*
X139878000Y-124811000D02*
X128122000Y-124811000D01*
X139916000Y-124771000D02*
X128084000Y-124771000D01*
X139952000Y-124731000D02*
X128048000Y-124731000D01*
X139989000Y-124691000D02*
X128011000Y-124691000D01*
X140025000Y-124651000D02*
X127975000Y-124651000D01*
X140060000Y-124611000D02*
X127940000Y-124611000D01*
X140095000Y-124571000D02*
X127905000Y-124571000D01*
X140129000Y-124531000D02*
X127871000Y-124531000D01*
X140163000Y-124491000D02*
X127837000Y-124491000D01*
X140197000Y-124451000D02*
X127803000Y-124451000D01*
X132560000Y-124411000D02*
X127770000Y-124411000D01*
X140230000Y-124411000D02*
X135440000Y-124411000D01*
X132560000Y-124371000D02*
X127737000Y-124371000D01*
X140263000Y-124371000D02*
X135440000Y-124371000D01*
X132560000Y-124331000D02*
X127705000Y-124331000D01*
X140295000Y-124331000D02*
X135440000Y-124331000D01*
X132560000Y-124291000D02*
X127673000Y-124291000D01*
X140327000Y-124291000D02*
X135440000Y-124291000D01*
X132560000Y-124251000D02*
X127642000Y-124251000D01*
X140358000Y-124251000D02*
X135440000Y-124251000D01*
X132560000Y-124211000D02*
X127610000Y-124211000D01*
X140390000Y-124211000D02*
X135440000Y-124211000D01*
X132560000Y-124171000D02*
X127580000Y-124171000D01*
X140420000Y-124171000D02*
X135440000Y-124171000D01*
X132560000Y-124131000D02*
X127550000Y-124131000D01*
X140450000Y-124131000D02*
X135440000Y-124131000D01*
X132560000Y-124091000D02*
X127520000Y-124091000D01*
X140480000Y-124091000D02*
X135440000Y-124091000D01*
X132560000Y-124051000D02*
X127490000Y-124051000D01*
X140510000Y-124051000D02*
X135440000Y-124051000D01*
X132560000Y-124011000D02*
X127461000Y-124011000D01*
X140539000Y-124011000D02*
X135440000Y-124011000D01*
X132560000Y-123971000D02*
X127432000Y-123971000D01*
X140568000Y-123971000D02*
X135440000Y-123971000D01*
X132560000Y-123931000D02*
X127404000Y-123931000D01*
X140596000Y-123931000D02*
X135440000Y-123931000D01*
X132560000Y-123891000D02*
X127376000Y-123891000D01*
X140624000Y-123891000D02*
X135440000Y-123891000D01*
X132560000Y-123851000D02*
X127348000Y-123851000D01*
X140652000Y-123851000D02*
X135440000Y-123851000D01*
X132560000Y-123811000D02*
X127321000Y-123811000D01*
X140679000Y-123811000D02*
X135440000Y-123811000D01*
X132560000Y-123771000D02*
X127294000Y-123771000D01*
X140706000Y-123771000D02*
X135440000Y-123771000D01*
X132560000Y-123731000D02*
X127267000Y-123731000D01*
X140733000Y-123731000D02*
X135440000Y-123731000D01*
X132560000Y-123691000D02*
X127241000Y-123691000D01*
X140759000Y-123691000D02*
X135440000Y-123691000D01*
X132560000Y-123651000D02*
X127215000Y-123651000D01*
X140785000Y-123651000D02*
X135440000Y-123651000D01*
X132560000Y-123611000D02*
X127189000Y-123611000D01*
X140811000Y-123611000D02*
X135440000Y-123611000D01*
X132560000Y-123571000D02*
X127164000Y-123571000D01*
X140836000Y-123571000D02*
X135440000Y-123571000D01*
X132560000Y-123531000D02*
X127139000Y-123531000D01*
X140861000Y-123531000D02*
X135440000Y-123531000D01*
X132560000Y-123491000D02*
X127114000Y-123491000D01*
X140886000Y-123491000D02*
X135440000Y-123491000D01*
X132560000Y-123451000D02*
X127090000Y-123451000D01*
X140910000Y-123451000D02*
X135440000Y-123451000D01*
X132560000Y-123411000D02*
X127066000Y-123411000D01*
X140934000Y-123411000D02*
X135440000Y-123411000D01*
X132560000Y-123371000D02*
X127042000Y-123371000D01*
X140958000Y-123371000D02*
X135440000Y-123371000D01*
X132560000Y-123331000D02*
X127019000Y-123331000D01*
X140981000Y-123331000D02*
X135440000Y-123331000D01*
X132560000Y-123291000D02*
X126996000Y-123291000D01*
X141004000Y-123291000D02*
X135440000Y-123291000D01*
X132560000Y-123251000D02*
X126973000Y-123251000D01*
X141027000Y-123251000D02*
X135440000Y-123251000D01*
X132560000Y-123211000D02*
X126951000Y-123211000D01*
X141049000Y-123211000D02*
X135440000Y-123211000D01*
X132560000Y-123171000D02*
X126928000Y-123171000D01*
X141072000Y-123171000D02*
X135440000Y-123171000D01*
X132560000Y-123131000D02*
X126906000Y-123131000D01*
X141094000Y-123131000D02*
X135440000Y-123131000D01*
X132560000Y-123091000D02*
X126885000Y-123091000D01*
X141115000Y-123091000D02*
X135440000Y-123091000D01*
X132560000Y-123051000D02*
X126864000Y-123051000D01*
X141136000Y-123051000D02*
X135440000Y-123051000D01*
X132560000Y-123011000D02*
X126843000Y-123011000D01*
X141157000Y-123011000D02*
X135440000Y-123011000D01*
X132560000Y-122971000D02*
X126822000Y-122971000D01*
X141178000Y-122971000D02*
X135440000Y-122971000D01*
X132560000Y-122931000D02*
X126801000Y-122931000D01*
X141199000Y-122931000D02*
X135440000Y-122931000D01*
X132560000Y-122891000D02*
X126781000Y-122891000D01*
X141219000Y-122891000D02*
X135440000Y-122891000D01*
X132560000Y-122851000D02*
X126761000Y-122851000D01*
X141239000Y-122851000D02*
X135440000Y-122851000D01*
X132560000Y-122811000D02*
X126742000Y-122811000D01*
X141258000Y-122811000D02*
X135440000Y-122811000D01*
X132560000Y-122771000D02*
X126722000Y-122771000D01*
X141278000Y-122771000D02*
X135440000Y-122771000D01*
X132560000Y-122731000D02*
X126703000Y-122731000D01*
X141297000Y-122731000D02*
X135440000Y-122731000D01*
X132560000Y-122691000D02*
X126684000Y-122691000D01*
X141316000Y-122691000D02*
X135440000Y-122691000D01*
X132560000Y-122651000D02*
X126666000Y-122651000D01*
X141334000Y-122651000D02*
X135440000Y-122651000D01*
X132560000Y-122611000D02*
X126647000Y-122611000D01*
X141353000Y-122611000D02*
X135440000Y-122611000D01*
X132560000Y-122571000D02*
X126629000Y-122571000D01*
X141371000Y-122571000D02*
X135440000Y-122571000D01*
X132560000Y-122531000D02*
X126611000Y-122531000D01*
X141389000Y-122531000D02*
X135440000Y-122531000D01*
X132560000Y-122491000D02*
X126594000Y-122491000D01*
X141406000Y-122491000D02*
X135440000Y-122491000D01*
X132560000Y-122451000D02*
X126577000Y-122451000D01*
X141423000Y-122451000D02*
X135440000Y-122451000D01*
X132560000Y-122411000D02*
X126560000Y-122411000D01*
X141440000Y-122411000D02*
X135440000Y-122411000D01*
X132560000Y-122371000D02*
X126543000Y-122371000D01*
X141457000Y-122371000D02*
X135440000Y-122371000D01*
X132560000Y-122331000D02*
X126526000Y-122331000D01*
X141474000Y-122331000D02*
X135440000Y-122331000D01*
X132560000Y-122291000D02*
X126510000Y-122291000D01*
X141490000Y-122291000D02*
X135440000Y-122291000D01*
X132560000Y-122251000D02*
X126494000Y-122251000D01*
X141506000Y-122251000D02*
X135440000Y-122251000D01*
X132560000Y-122211000D02*
X126478000Y-122211000D01*
X141522000Y-122211000D02*
X135440000Y-122211000D01*
X132560000Y-122171000D02*
X126463000Y-122171000D01*
X141537000Y-122171000D02*
X135440000Y-122171000D01*
X132560000Y-122131000D02*
X126447000Y-122131000D01*
X141553000Y-122131000D02*
X135440000Y-122131000D01*
X132560000Y-122091000D02*
X126432000Y-122091000D01*
X141568000Y-122091000D02*
X135440000Y-122091000D01*
X132560000Y-122051000D02*
X126418000Y-122051000D01*
X141582000Y-122051000D02*
X135440000Y-122051000D01*
X132560000Y-122011000D02*
X126403000Y-122011000D01*
X141597000Y-122011000D02*
X135440000Y-122011000D01*
X132560000Y-121971000D02*
X126389000Y-121971000D01*
X141611000Y-121971000D02*
X135440000Y-121971000D01*
X132560000Y-121931000D02*
X126375000Y-121931000D01*
X141625000Y-121931000D02*
X135440000Y-121931000D01*
X132560000Y-121891000D02*
X126361000Y-121891000D01*
X141639000Y-121891000D02*
X135440000Y-121891000D01*
X132560000Y-121851000D02*
X126347000Y-121851000D01*
X141653000Y-121851000D02*
X135440000Y-121851000D01*
X132560000Y-121811000D02*
X126334000Y-121811000D01*
X141666000Y-121811000D02*
X135440000Y-121811000D01*
X132560000Y-121771000D02*
X126320000Y-121771000D01*
X141680000Y-121771000D02*
X135440000Y-121771000D01*
X132560000Y-121731000D02*
X126307000Y-121731000D01*
X141693000Y-121731000D02*
X135440000Y-121731000D01*
X132560000Y-121691000D02*
X126295000Y-121691000D01*
X141705000Y-121691000D02*
X135440000Y-121691000D01*
X132560000Y-121651000D02*
X126282000Y-121651000D01*
X141718000Y-121651000D02*
X135440000Y-121651000D01*
X132560000Y-121611000D02*
X126270000Y-121611000D01*
X141730000Y-121611000D02*
X135440000Y-121611000D01*
X132560000Y-121571000D02*
X126258000Y-121571000D01*
X141742000Y-121571000D02*
X135440000Y-121571000D01*
X141754000Y-121531000D02*
X126246000Y-121531000D01*
X141765000Y-121491000D02*
X126235000Y-121491000D01*
X141777000Y-121451000D02*
X126223000Y-121451000D01*
X141788000Y-121411000D02*
X126212000Y-121411000D01*
X141799000Y-121371000D02*
X126201000Y-121371000D01*
X141810000Y-121331000D02*
X126190000Y-121331000D01*
X141820000Y-121291000D02*
X126180000Y-121291000D01*
X141830000Y-121251000D02*
X126170000Y-121251000D01*
X141840000Y-121211000D02*
X126160000Y-121211000D01*
X141850000Y-121171000D02*
X126150000Y-121171000D01*
X141860000Y-121131000D02*
X126140000Y-121131000D01*
X141869000Y-121091000D02*
X126131000Y-121091000D01*
X141878000Y-121051000D02*
X126122000Y-121051000D01*
X141887000Y-121011000D02*
X126113000Y-121011000D01*
X141896000Y-120971000D02*
X126104000Y-120971000D01*
X141905000Y-120931000D02*
X126095000Y-120931000D01*
X141913000Y-120891000D02*
X126087000Y-120891000D01*
X141921000Y-120851000D02*
X126079000Y-120851000D01*
X141929000Y-120811000D02*
X126071000Y-120811000D01*
X141937000Y-120771000D02*
X126063000Y-120771000D01*
X141944000Y-120731000D02*
X126056000Y-120731000D01*
X141952000Y-120691000D02*
X126048000Y-120691000D01*
X141959000Y-120651000D02*
X126041000Y-120651000D01*
X141966000Y-120611000D02*
X126034000Y-120611000D01*
X141972000Y-120571000D02*
X126028000Y-120571000D01*
X141979000Y-120531000D02*
X126021000Y-120531000D01*
X141985000Y-120491000D02*
X126015000Y-120491000D01*
X141991000Y-120451000D02*
X126009000Y-120451000D01*
X141997000Y-120411000D02*
X126003000Y-120411000D01*
X142003000Y-120371000D02*
X125997000Y-120371000D01*
X142008000Y-120331000D02*
X125992000Y-120331000D01*
X142014000Y-120291000D02*
X125986000Y-120291000D01*
X142019000Y-120251000D02*
X125981000Y-120251000D01*
X142024000Y-120211000D02*
X125976000Y-120211000D01*
X142028000Y-120171000D02*
X125972000Y-120171000D01*
X142033000Y-120131000D02*
X125967000Y-120131000D01*
X142037000Y-120091000D02*
X125963000Y-120091000D01*
X142041000Y-120051000D02*
X125959000Y-120051000D01*
X142045000Y-120011000D02*
X125955000Y-120011000D01*
X142049000Y-119971000D02*
X125951000Y-119971000D01*
X142052000Y-119930000D02*
X125948000Y-119930000D01*
X142055000Y-119890000D02*
X125945000Y-119890000D01*
X142058000Y-119850000D02*
X125942000Y-119850000D01*
X142061000Y-119810000D02*
X125939000Y-119810000D01*
X142064000Y-119770000D02*
X125936000Y-119770000D01*
X142066000Y-119730000D02*
X125934000Y-119730000D01*
X142069000Y-119690000D02*
X125931000Y-119690000D01*
X142071000Y-119650000D02*
X125929000Y-119650000D01*
X142073000Y-119610000D02*
X125927000Y-119610000D01*
X142074000Y-119570000D02*
X125926000Y-119570000D01*
X142076000Y-119530000D02*
X125924000Y-119530000D01*
X142077000Y-119490000D02*
X125923000Y-119490000D01*
X142078000Y-119450000D02*
X125922000Y-119450000D01*
X142079000Y-119410000D02*
X125921000Y-119410000D01*
X142080000Y-119370000D02*
X125920000Y-119370000D01*
X142080000Y-119330000D02*
X125920000Y-119330000D01*
X142080000Y-119290000D02*
X125920000Y-119290000D01*
X142081000Y-119250000D02*
X125919000Y-119250000D01*
X142120000Y-119250000D02*
G75*
G03X142120000Y-119250000I-8120000J0D01*
G01*
X139355000Y-86860509D02*
X137755000Y-86860509D01*
X138555000Y-86060509D02*
X138555000Y-87660509D01*
X134765000Y-102831000D02*
X133235000Y-102831000D01*
X135098000Y-102791000D02*
X132902000Y-102791000D01*
X135351000Y-102751000D02*
X132649000Y-102751000D01*
X135564000Y-102711000D02*
X132436000Y-102711000D01*
X135752000Y-102671000D02*
X132248000Y-102671000D01*
X135920000Y-102631000D02*
X132080000Y-102631000D01*
X136074000Y-102591000D02*
X131926000Y-102591000D01*
X136218000Y-102551000D02*
X131782000Y-102551000D01*
X136351000Y-102511000D02*
X131649000Y-102511000D01*
X136478000Y-102471000D02*
X131522000Y-102471000D01*
X136597000Y-102431000D02*
X131403000Y-102431000D01*
X136711000Y-102391000D02*
X131289000Y-102391000D01*
X136820000Y-102351000D02*
X131180000Y-102351000D01*
X136924000Y-102311000D02*
X131076000Y-102311000D01*
X137024000Y-102271000D02*
X130976000Y-102271000D01*
X137120000Y-102231000D02*
X130880000Y-102231000D01*
X137213000Y-102191000D02*
X130787000Y-102191000D01*
X137303000Y-102151000D02*
X130697000Y-102151000D01*
X137390000Y-102111000D02*
X130610000Y-102111000D01*
X137475000Y-102071000D02*
X130525000Y-102071000D01*
X137557000Y-102031000D02*
X130443000Y-102031000D01*
X137637000Y-101991000D02*
X130363000Y-101991000D01*
X137715000Y-101951000D02*
X130285000Y-101951000D01*
X137790000Y-101911000D02*
X130210000Y-101911000D01*
X137864000Y-101871000D02*
X130136000Y-101871000D01*
X137936000Y-101831000D02*
X130064000Y-101831000D01*
X138007000Y-101791000D02*
X129993000Y-101791000D01*
X138076000Y-101751000D02*
X129924000Y-101751000D01*
X138143000Y-101711000D02*
X129857000Y-101711000D01*
X138209000Y-101671000D02*
X129791000Y-101671000D01*
X138273000Y-101631000D02*
X129727000Y-101631000D01*
X138336000Y-101591000D02*
X129664000Y-101591000D01*
X138398000Y-101551000D02*
X129602000Y-101551000D01*
X138459000Y-101511000D02*
X129541000Y-101511000D01*
X138519000Y-101471000D02*
X129481000Y-101471000D01*
X138577000Y-101431000D02*
X129423000Y-101431000D01*
X138634000Y-101391000D02*
X129366000Y-101391000D01*
X138691000Y-101351000D02*
X129309000Y-101351000D01*
X138746000Y-101311000D02*
X129254000Y-101311000D01*
X138800000Y-101271000D02*
X129200000Y-101271000D01*
X138854000Y-101231000D02*
X129146000Y-101231000D01*
X138906000Y-101191000D02*
X129094000Y-101191000D01*
X138958000Y-101151000D02*
X129042000Y-101151000D01*
X139009000Y-101111000D02*
X128991000Y-101111000D01*
X139059000Y-101071000D02*
X128941000Y-101071000D01*
X139108000Y-101031000D02*
X128892000Y-101031000D01*
X139156000Y-100991000D02*
X128844000Y-100991000D01*
X139204000Y-100951000D02*
X128796000Y-100951000D01*
X139251000Y-100911000D02*
X128749000Y-100911000D01*
X139297000Y-100871000D02*
X128703000Y-100871000D01*
X139343000Y-100831000D02*
X128657000Y-100831000D01*
X139388000Y-100791000D02*
X128612000Y-100791000D01*
X139432000Y-100751000D02*
X128568000Y-100751000D01*
X139475000Y-100711000D02*
X128525000Y-100711000D01*
X139518000Y-100671000D02*
X128482000Y-100671000D01*
X139560000Y-100631000D02*
X128440000Y-100631000D01*
X139602000Y-100591000D02*
X128398000Y-100591000D01*
X139643000Y-100551000D02*
X128357000Y-100551000D01*
X139684000Y-100511000D02*
X128316000Y-100511000D01*
X139724000Y-100471000D02*
X128276000Y-100471000D01*
X139763000Y-100431000D02*
X128237000Y-100431000D01*
X139802000Y-100391000D02*
X128198000Y-100391000D01*
X139840000Y-100351000D02*
X128160000Y-100351000D01*
X139878000Y-100311000D02*
X128122000Y-100311000D01*
X139916000Y-100271000D02*
X128084000Y-100271000D01*
X139952000Y-100231000D02*
X128048000Y-100231000D01*
X139989000Y-100191000D02*
X128011000Y-100191000D01*
X140025000Y-100151000D02*
X127975000Y-100151000D01*
X140060000Y-100111000D02*
X127940000Y-100111000D01*
X140095000Y-100071000D02*
X127905000Y-100071000D01*
X140129000Y-100031000D02*
X127871000Y-100031000D01*
X140163000Y-99991000D02*
X127837000Y-99991000D01*
X140197000Y-99951000D02*
X127803000Y-99951000D01*
X132560000Y-99911000D02*
X127770000Y-99911000D01*
X140230000Y-99911000D02*
X135440000Y-99911000D01*
X132560000Y-99871000D02*
X127737000Y-99871000D01*
X140263000Y-99871000D02*
X135440000Y-99871000D01*
X132560000Y-99831000D02*
X127705000Y-99831000D01*
X140295000Y-99831000D02*
X135440000Y-99831000D01*
X132560000Y-99791000D02*
X127673000Y-99791000D01*
X140327000Y-99791000D02*
X135440000Y-99791000D01*
X132560000Y-99751000D02*
X127642000Y-99751000D01*
X140358000Y-99751000D02*
X135440000Y-99751000D01*
X132560000Y-99711000D02*
X127610000Y-99711000D01*
X140390000Y-99711000D02*
X135440000Y-99711000D01*
X132560000Y-99671000D02*
X127580000Y-99671000D01*
X140420000Y-99671000D02*
X135440000Y-99671000D01*
X132560000Y-99631000D02*
X127550000Y-99631000D01*
X140450000Y-99631000D02*
X135440000Y-99631000D01*
X132560000Y-99591000D02*
X127520000Y-99591000D01*
X140480000Y-99591000D02*
X135440000Y-99591000D01*
X132560000Y-99551000D02*
X127490000Y-99551000D01*
X140510000Y-99551000D02*
X135440000Y-99551000D01*
X132560000Y-99511000D02*
X127461000Y-99511000D01*
X140539000Y-99511000D02*
X135440000Y-99511000D01*
X132560000Y-99471000D02*
X127432000Y-99471000D01*
X140568000Y-99471000D02*
X135440000Y-99471000D01*
X132560000Y-99431000D02*
X127404000Y-99431000D01*
X140596000Y-99431000D02*
X135440000Y-99431000D01*
X132560000Y-99391000D02*
X127376000Y-99391000D01*
X140624000Y-99391000D02*
X135440000Y-99391000D01*
X132560000Y-99351000D02*
X127348000Y-99351000D01*
X140652000Y-99351000D02*
X135440000Y-99351000D01*
X132560000Y-99311000D02*
X127321000Y-99311000D01*
X140679000Y-99311000D02*
X135440000Y-99311000D01*
X132560000Y-99271000D02*
X127294000Y-99271000D01*
X140706000Y-99271000D02*
X135440000Y-99271000D01*
X132560000Y-99231000D02*
X127267000Y-99231000D01*
X140733000Y-99231000D02*
X135440000Y-99231000D01*
X132560000Y-99191000D02*
X127241000Y-99191000D01*
X140759000Y-99191000D02*
X135440000Y-99191000D01*
X132560000Y-99151000D02*
X127215000Y-99151000D01*
X140785000Y-99151000D02*
X135440000Y-99151000D01*
X132560000Y-99111000D02*
X127189000Y-99111000D01*
X140811000Y-99111000D02*
X135440000Y-99111000D01*
X132560000Y-99071000D02*
X127164000Y-99071000D01*
X140836000Y-99071000D02*
X135440000Y-99071000D01*
X132560000Y-99031000D02*
X127139000Y-99031000D01*
X140861000Y-99031000D02*
X135440000Y-99031000D01*
X132560000Y-98991000D02*
X127114000Y-98991000D01*
X140886000Y-98991000D02*
X135440000Y-98991000D01*
X132560000Y-98951000D02*
X127090000Y-98951000D01*
X140910000Y-98951000D02*
X135440000Y-98951000D01*
X132560000Y-98911000D02*
X127066000Y-98911000D01*
X140934000Y-98911000D02*
X135440000Y-98911000D01*
X132560000Y-98871000D02*
X127042000Y-98871000D01*
X140958000Y-98871000D02*
X135440000Y-98871000D01*
X132560000Y-98831000D02*
X127019000Y-98831000D01*
X140981000Y-98831000D02*
X135440000Y-98831000D01*
X132560000Y-98791000D02*
X126996000Y-98791000D01*
X141004000Y-98791000D02*
X135440000Y-98791000D01*
X132560000Y-98751000D02*
X126973000Y-98751000D01*
X141027000Y-98751000D02*
X135440000Y-98751000D01*
X132560000Y-98711000D02*
X126951000Y-98711000D01*
X141049000Y-98711000D02*
X135440000Y-98711000D01*
X132560000Y-98671000D02*
X126928000Y-98671000D01*
X141072000Y-98671000D02*
X135440000Y-98671000D01*
X132560000Y-98631000D02*
X126906000Y-98631000D01*
X141094000Y-98631000D02*
X135440000Y-98631000D01*
X132560000Y-98591000D02*
X126885000Y-98591000D01*
X141115000Y-98591000D02*
X135440000Y-98591000D01*
X132560000Y-98551000D02*
X126864000Y-98551000D01*
X141136000Y-98551000D02*
X135440000Y-98551000D01*
X132560000Y-98511000D02*
X126843000Y-98511000D01*
X141157000Y-98511000D02*
X135440000Y-98511000D01*
X132560000Y-98471000D02*
X126822000Y-98471000D01*
X141178000Y-98471000D02*
X135440000Y-98471000D01*
X132560000Y-98431000D02*
X126801000Y-98431000D01*
X141199000Y-98431000D02*
X135440000Y-98431000D01*
X132560000Y-98391000D02*
X126781000Y-98391000D01*
X141219000Y-98391000D02*
X135440000Y-98391000D01*
X132560000Y-98351000D02*
X126761000Y-98351000D01*
X141239000Y-98351000D02*
X135440000Y-98351000D01*
X132560000Y-98311000D02*
X126742000Y-98311000D01*
X141258000Y-98311000D02*
X135440000Y-98311000D01*
X132560000Y-98271000D02*
X126722000Y-98271000D01*
X141278000Y-98271000D02*
X135440000Y-98271000D01*
X132560000Y-98231000D02*
X126703000Y-98231000D01*
X141297000Y-98231000D02*
X135440000Y-98231000D01*
X132560000Y-98191000D02*
X126684000Y-98191000D01*
X141316000Y-98191000D02*
X135440000Y-98191000D01*
X132560000Y-98151000D02*
X126666000Y-98151000D01*
X141334000Y-98151000D02*
X135440000Y-98151000D01*
X132560000Y-98111000D02*
X126647000Y-98111000D01*
X141353000Y-98111000D02*
X135440000Y-98111000D01*
X132560000Y-98071000D02*
X126629000Y-98071000D01*
X141371000Y-98071000D02*
X135440000Y-98071000D01*
X132560000Y-98031000D02*
X126611000Y-98031000D01*
X141389000Y-98031000D02*
X135440000Y-98031000D01*
X132560000Y-97991000D02*
X126594000Y-97991000D01*
X141406000Y-97991000D02*
X135440000Y-97991000D01*
X132560000Y-97951000D02*
X126577000Y-97951000D01*
X141423000Y-97951000D02*
X135440000Y-97951000D01*
X132560000Y-97911000D02*
X126560000Y-97911000D01*
X141440000Y-97911000D02*
X135440000Y-97911000D01*
X132560000Y-97871000D02*
X126543000Y-97871000D01*
X141457000Y-97871000D02*
X135440000Y-97871000D01*
X132560000Y-97831000D02*
X126526000Y-97831000D01*
X141474000Y-97831000D02*
X135440000Y-97831000D01*
X132560000Y-97791000D02*
X126510000Y-97791000D01*
X141490000Y-97791000D02*
X135440000Y-97791000D01*
X132560000Y-97751000D02*
X126494000Y-97751000D01*
X141506000Y-97751000D02*
X135440000Y-97751000D01*
X132560000Y-97711000D02*
X126478000Y-97711000D01*
X141522000Y-97711000D02*
X135440000Y-97711000D01*
X132560000Y-97671000D02*
X126463000Y-97671000D01*
X141537000Y-97671000D02*
X135440000Y-97671000D01*
X132560000Y-97631000D02*
X126447000Y-97631000D01*
X141553000Y-97631000D02*
X135440000Y-97631000D01*
X132560000Y-97591000D02*
X126432000Y-97591000D01*
X141568000Y-97591000D02*
X135440000Y-97591000D01*
X132560000Y-97551000D02*
X126418000Y-97551000D01*
X141582000Y-97551000D02*
X135440000Y-97551000D01*
X132560000Y-97511000D02*
X126403000Y-97511000D01*
X141597000Y-97511000D02*
X135440000Y-97511000D01*
X132560000Y-97471000D02*
X126389000Y-97471000D01*
X141611000Y-97471000D02*
X135440000Y-97471000D01*
X132560000Y-97431000D02*
X126375000Y-97431000D01*
X141625000Y-97431000D02*
X135440000Y-97431000D01*
X132560000Y-97391000D02*
X126361000Y-97391000D01*
X141639000Y-97391000D02*
X135440000Y-97391000D01*
X132560000Y-97351000D02*
X126347000Y-97351000D01*
X141653000Y-97351000D02*
X135440000Y-97351000D01*
X132560000Y-97311000D02*
X126334000Y-97311000D01*
X141666000Y-97311000D02*
X135440000Y-97311000D01*
X132560000Y-97271000D02*
X126320000Y-97271000D01*
X141680000Y-97271000D02*
X135440000Y-97271000D01*
X132560000Y-97231000D02*
X126307000Y-97231000D01*
X141693000Y-97231000D02*
X135440000Y-97231000D01*
X132560000Y-97191000D02*
X126295000Y-97191000D01*
X141705000Y-97191000D02*
X135440000Y-97191000D01*
X132560000Y-97151000D02*
X126282000Y-97151000D01*
X141718000Y-97151000D02*
X135440000Y-97151000D01*
X132560000Y-97111000D02*
X126270000Y-97111000D01*
X141730000Y-97111000D02*
X135440000Y-97111000D01*
X132560000Y-97071000D02*
X126258000Y-97071000D01*
X141742000Y-97071000D02*
X135440000Y-97071000D01*
X141754000Y-97031000D02*
X126246000Y-97031000D01*
X141765000Y-96991000D02*
X126235000Y-96991000D01*
X141777000Y-96951000D02*
X126223000Y-96951000D01*
X141788000Y-96911000D02*
X126212000Y-96911000D01*
X141799000Y-96871000D02*
X126201000Y-96871000D01*
X141810000Y-96831000D02*
X126190000Y-96831000D01*
X141820000Y-96791000D02*
X126180000Y-96791000D01*
X141830000Y-96751000D02*
X126170000Y-96751000D01*
X141840000Y-96711000D02*
X126160000Y-96711000D01*
X141850000Y-96671000D02*
X126150000Y-96671000D01*
X141860000Y-96631000D02*
X126140000Y-96631000D01*
X141869000Y-96591000D02*
X126131000Y-96591000D01*
X141878000Y-96551000D02*
X126122000Y-96551000D01*
X141887000Y-96511000D02*
X126113000Y-96511000D01*
X141896000Y-96471000D02*
X126104000Y-96471000D01*
X141905000Y-96431000D02*
X126095000Y-96431000D01*
X141913000Y-96391000D02*
X126087000Y-96391000D01*
X141921000Y-96351000D02*
X126079000Y-96351000D01*
X141929000Y-96311000D02*
X126071000Y-96311000D01*
X141937000Y-96271000D02*
X126063000Y-96271000D01*
X141944000Y-96231000D02*
X126056000Y-96231000D01*
X141952000Y-96191000D02*
X126048000Y-96191000D01*
X141959000Y-96151000D02*
X126041000Y-96151000D01*
X141966000Y-96111000D02*
X126034000Y-96111000D01*
X141972000Y-96071000D02*
X126028000Y-96071000D01*
X141979000Y-96031000D02*
X126021000Y-96031000D01*
X141985000Y-95991000D02*
X126015000Y-95991000D01*
X141991000Y-95951000D02*
X126009000Y-95951000D01*
X141997000Y-95911000D02*
X126003000Y-95911000D01*
X142003000Y-95871000D02*
X125997000Y-95871000D01*
X142008000Y-95831000D02*
X125992000Y-95831000D01*
X142014000Y-95791000D02*
X125986000Y-95791000D01*
X142019000Y-95751000D02*
X125981000Y-95751000D01*
X142024000Y-95711000D02*
X125976000Y-95711000D01*
X142028000Y-95671000D02*
X125972000Y-95671000D01*
X142033000Y-95631000D02*
X125967000Y-95631000D01*
X142037000Y-95591000D02*
X125963000Y-95591000D01*
X142041000Y-95551000D02*
X125959000Y-95551000D01*
X142045000Y-95511000D02*
X125955000Y-95511000D01*
X142049000Y-95471000D02*
X125951000Y-95471000D01*
X142052000Y-95430000D02*
X125948000Y-95430000D01*
X142055000Y-95390000D02*
X125945000Y-95390000D01*
X142058000Y-95350000D02*
X125942000Y-95350000D01*
X142061000Y-95310000D02*
X125939000Y-95310000D01*
X142064000Y-95270000D02*
X125936000Y-95270000D01*
X142066000Y-95230000D02*
X125934000Y-95230000D01*
X142069000Y-95190000D02*
X125931000Y-95190000D01*
X142071000Y-95150000D02*
X125929000Y-95150000D01*
X142073000Y-95110000D02*
X125927000Y-95110000D01*
X142074000Y-95070000D02*
X125926000Y-95070000D01*
X142076000Y-95030000D02*
X125924000Y-95030000D01*
X142077000Y-94990000D02*
X125923000Y-94990000D01*
X142078000Y-94950000D02*
X125922000Y-94950000D01*
X142079000Y-94910000D02*
X125921000Y-94910000D01*
X142080000Y-94870000D02*
X125920000Y-94870000D01*
X142080000Y-94830000D02*
X125920000Y-94830000D01*
X142080000Y-94790000D02*
X125920000Y-94790000D01*
X142081000Y-94750000D02*
X125919000Y-94750000D01*
X142120000Y-94750000D02*
G75*
G03X142120000Y-94750000I-8120000J0D01*
G01*
X119355000Y-111360509D02*
X117755000Y-111360509D01*
X118555000Y-110560509D02*
X118555000Y-112160509D01*
X114765000Y-127331000D02*
X113235000Y-127331000D01*
X115098000Y-127291000D02*
X112902000Y-127291000D01*
X115351000Y-127251000D02*
X112649000Y-127251000D01*
X115564000Y-127211000D02*
X112436000Y-127211000D01*
X115752000Y-127171000D02*
X112248000Y-127171000D01*
X115920000Y-127131000D02*
X112080000Y-127131000D01*
X116074000Y-127091000D02*
X111926000Y-127091000D01*
X116218000Y-127051000D02*
X111782000Y-127051000D01*
X116351000Y-127011000D02*
X111649000Y-127011000D01*
X116478000Y-126971000D02*
X111522000Y-126971000D01*
X116597000Y-126931000D02*
X111403000Y-126931000D01*
X116711000Y-126891000D02*
X111289000Y-126891000D01*
X116820000Y-126851000D02*
X111180000Y-126851000D01*
X116924000Y-126811000D02*
X111076000Y-126811000D01*
X117024000Y-126771000D02*
X110976000Y-126771000D01*
X117120000Y-126731000D02*
X110880000Y-126731000D01*
X117213000Y-126691000D02*
X110787000Y-126691000D01*
X117303000Y-126651000D02*
X110697000Y-126651000D01*
X117390000Y-126611000D02*
X110610000Y-126611000D01*
X117475000Y-126571000D02*
X110525000Y-126571000D01*
X117557000Y-126531000D02*
X110443000Y-126531000D01*
X117637000Y-126491000D02*
X110363000Y-126491000D01*
X117715000Y-126451000D02*
X110285000Y-126451000D01*
X117790000Y-126411000D02*
X110210000Y-126411000D01*
X117864000Y-126371000D02*
X110136000Y-126371000D01*
X117936000Y-126331000D02*
X110064000Y-126331000D01*
X118007000Y-126291000D02*
X109993000Y-126291000D01*
X118076000Y-126251000D02*
X109924000Y-126251000D01*
X118143000Y-126211000D02*
X109857000Y-126211000D01*
X118209000Y-126171000D02*
X109791000Y-126171000D01*
X118273000Y-126131000D02*
X109727000Y-126131000D01*
X118336000Y-126091000D02*
X109664000Y-126091000D01*
X118398000Y-126051000D02*
X109602000Y-126051000D01*
X118459000Y-126011000D02*
X109541000Y-126011000D01*
X118519000Y-125971000D02*
X109481000Y-125971000D01*
X118577000Y-125931000D02*
X109423000Y-125931000D01*
X118634000Y-125891000D02*
X109366000Y-125891000D01*
X118691000Y-125851000D02*
X109309000Y-125851000D01*
X118746000Y-125811000D02*
X109254000Y-125811000D01*
X118800000Y-125771000D02*
X109200000Y-125771000D01*
X118854000Y-125731000D02*
X109146000Y-125731000D01*
X118906000Y-125691000D02*
X109094000Y-125691000D01*
X118958000Y-125651000D02*
X109042000Y-125651000D01*
X119009000Y-125611000D02*
X108991000Y-125611000D01*
X119059000Y-125571000D02*
X108941000Y-125571000D01*
X119108000Y-125531000D02*
X108892000Y-125531000D01*
X119156000Y-125491000D02*
X108844000Y-125491000D01*
X119204000Y-125451000D02*
X108796000Y-125451000D01*
X119251000Y-125411000D02*
X108749000Y-125411000D01*
X119297000Y-125371000D02*
X108703000Y-125371000D01*
X119343000Y-125331000D02*
X108657000Y-125331000D01*
X119388000Y-125291000D02*
X108612000Y-125291000D01*
X119432000Y-125251000D02*
X108568000Y-125251000D01*
X119475000Y-125211000D02*
X108525000Y-125211000D01*
X119518000Y-125171000D02*
X108482000Y-125171000D01*
X119560000Y-125131000D02*
X108440000Y-125131000D01*
X119602000Y-125091000D02*
X108398000Y-125091000D01*
X119643000Y-125051000D02*
X108357000Y-125051000D01*
X119684000Y-125011000D02*
X108316000Y-125011000D01*
X119724000Y-124971000D02*
X108276000Y-124971000D01*
X119763000Y-124931000D02*
X108237000Y-124931000D01*
X119802000Y-124891000D02*
X108198000Y-124891000D01*
X119840000Y-124851000D02*
X108160000Y-124851000D01*
X119878000Y-124811000D02*
X108122000Y-124811000D01*
X119916000Y-124771000D02*
X108084000Y-124771000D01*
X119952000Y-124731000D02*
X108048000Y-124731000D01*
X119989000Y-124691000D02*
X108011000Y-124691000D01*
X120025000Y-124651000D02*
X107975000Y-124651000D01*
X120060000Y-124611000D02*
X107940000Y-124611000D01*
X120095000Y-124571000D02*
X107905000Y-124571000D01*
X120129000Y-124531000D02*
X107871000Y-124531000D01*
X120163000Y-124491000D02*
X107837000Y-124491000D01*
X120197000Y-124451000D02*
X107803000Y-124451000D01*
X112560000Y-124411000D02*
X107770000Y-124411000D01*
X120230000Y-124411000D02*
X115440000Y-124411000D01*
X112560000Y-124371000D02*
X107737000Y-124371000D01*
X120263000Y-124371000D02*
X115440000Y-124371000D01*
X112560000Y-124331000D02*
X107705000Y-124331000D01*
X120295000Y-124331000D02*
X115440000Y-124331000D01*
X112560000Y-124291000D02*
X107673000Y-124291000D01*
X120327000Y-124291000D02*
X115440000Y-124291000D01*
X112560000Y-124251000D02*
X107642000Y-124251000D01*
X120358000Y-124251000D02*
X115440000Y-124251000D01*
X112560000Y-124211000D02*
X107610000Y-124211000D01*
X120390000Y-124211000D02*
X115440000Y-124211000D01*
X112560000Y-124171000D02*
X107580000Y-124171000D01*
X120420000Y-124171000D02*
X115440000Y-124171000D01*
X112560000Y-124131000D02*
X107550000Y-124131000D01*
X120450000Y-124131000D02*
X115440000Y-124131000D01*
X112560000Y-124091000D02*
X107520000Y-124091000D01*
X120480000Y-124091000D02*
X115440000Y-124091000D01*
X112560000Y-124051000D02*
X107490000Y-124051000D01*
X120510000Y-124051000D02*
X115440000Y-124051000D01*
X112560000Y-124011000D02*
X107461000Y-124011000D01*
X120539000Y-124011000D02*
X115440000Y-124011000D01*
X112560000Y-123971000D02*
X107432000Y-123971000D01*
X120568000Y-123971000D02*
X115440000Y-123971000D01*
X112560000Y-123931000D02*
X107404000Y-123931000D01*
X120596000Y-123931000D02*
X115440000Y-123931000D01*
X112560000Y-123891000D02*
X107376000Y-123891000D01*
X120624000Y-123891000D02*
X115440000Y-123891000D01*
X112560000Y-123851000D02*
X107348000Y-123851000D01*
X120652000Y-123851000D02*
X115440000Y-123851000D01*
X112560000Y-123811000D02*
X107321000Y-123811000D01*
X120679000Y-123811000D02*
X115440000Y-123811000D01*
X112560000Y-123771000D02*
X107294000Y-123771000D01*
X120706000Y-123771000D02*
X115440000Y-123771000D01*
X112560000Y-123731000D02*
X107267000Y-123731000D01*
X120733000Y-123731000D02*
X115440000Y-123731000D01*
X112560000Y-123691000D02*
X107241000Y-123691000D01*
X120759000Y-123691000D02*
X115440000Y-123691000D01*
X112560000Y-123651000D02*
X107215000Y-123651000D01*
X120785000Y-123651000D02*
X115440000Y-123651000D01*
X112560000Y-123611000D02*
X107189000Y-123611000D01*
X120811000Y-123611000D02*
X115440000Y-123611000D01*
X112560000Y-123571000D02*
X107164000Y-123571000D01*
X120836000Y-123571000D02*
X115440000Y-123571000D01*
X112560000Y-123531000D02*
X107139000Y-123531000D01*
X120861000Y-123531000D02*
X115440000Y-123531000D01*
X112560000Y-123491000D02*
X107114000Y-123491000D01*
X120886000Y-123491000D02*
X115440000Y-123491000D01*
X112560000Y-123451000D02*
X107090000Y-123451000D01*
X120910000Y-123451000D02*
X115440000Y-123451000D01*
X112560000Y-123411000D02*
X107066000Y-123411000D01*
X120934000Y-123411000D02*
X115440000Y-123411000D01*
X112560000Y-123371000D02*
X107042000Y-123371000D01*
X120958000Y-123371000D02*
X115440000Y-123371000D01*
X112560000Y-123331000D02*
X107019000Y-123331000D01*
X120981000Y-123331000D02*
X115440000Y-123331000D01*
X112560000Y-123291000D02*
X106996000Y-123291000D01*
X121004000Y-123291000D02*
X115440000Y-123291000D01*
X112560000Y-123251000D02*
X106973000Y-123251000D01*
X121027000Y-123251000D02*
X115440000Y-123251000D01*
X112560000Y-123211000D02*
X106951000Y-123211000D01*
X121049000Y-123211000D02*
X115440000Y-123211000D01*
X112560000Y-123171000D02*
X106928000Y-123171000D01*
X121072000Y-123171000D02*
X115440000Y-123171000D01*
X112560000Y-123131000D02*
X106906000Y-123131000D01*
X121094000Y-123131000D02*
X115440000Y-123131000D01*
X112560000Y-123091000D02*
X106885000Y-123091000D01*
X121115000Y-123091000D02*
X115440000Y-123091000D01*
X112560000Y-123051000D02*
X106864000Y-123051000D01*
X121136000Y-123051000D02*
X115440000Y-123051000D01*
X112560000Y-123011000D02*
X106843000Y-123011000D01*
X121157000Y-123011000D02*
X115440000Y-123011000D01*
X112560000Y-122971000D02*
X106822000Y-122971000D01*
X121178000Y-122971000D02*
X115440000Y-122971000D01*
X112560000Y-122931000D02*
X106801000Y-122931000D01*
X121199000Y-122931000D02*
X115440000Y-122931000D01*
X112560000Y-122891000D02*
X106781000Y-122891000D01*
X121219000Y-122891000D02*
X115440000Y-122891000D01*
X112560000Y-122851000D02*
X106761000Y-122851000D01*
X121239000Y-122851000D02*
X115440000Y-122851000D01*
X112560000Y-122811000D02*
X106742000Y-122811000D01*
X121258000Y-122811000D02*
X115440000Y-122811000D01*
X112560000Y-122771000D02*
X106722000Y-122771000D01*
X121278000Y-122771000D02*
X115440000Y-122771000D01*
X112560000Y-122731000D02*
X106703000Y-122731000D01*
X121297000Y-122731000D02*
X115440000Y-122731000D01*
X112560000Y-122691000D02*
X106684000Y-122691000D01*
X121316000Y-122691000D02*
X115440000Y-122691000D01*
X112560000Y-122651000D02*
X106666000Y-122651000D01*
X121334000Y-122651000D02*
X115440000Y-122651000D01*
X112560000Y-122611000D02*
X106647000Y-122611000D01*
X121353000Y-122611000D02*
X115440000Y-122611000D01*
X112560000Y-122571000D02*
X106629000Y-122571000D01*
X121371000Y-122571000D02*
X115440000Y-122571000D01*
X112560000Y-122531000D02*
X106611000Y-122531000D01*
X121389000Y-122531000D02*
X115440000Y-122531000D01*
X112560000Y-122491000D02*
X106594000Y-122491000D01*
X121406000Y-122491000D02*
X115440000Y-122491000D01*
X112560000Y-122451000D02*
X106577000Y-122451000D01*
X121423000Y-122451000D02*
X115440000Y-122451000D01*
X112560000Y-122411000D02*
X106560000Y-122411000D01*
X121440000Y-122411000D02*
X115440000Y-122411000D01*
X112560000Y-122371000D02*
X106543000Y-122371000D01*
X121457000Y-122371000D02*
X115440000Y-122371000D01*
X112560000Y-122331000D02*
X106526000Y-122331000D01*
X121474000Y-122331000D02*
X115440000Y-122331000D01*
X112560000Y-122291000D02*
X106510000Y-122291000D01*
X121490000Y-122291000D02*
X115440000Y-122291000D01*
X112560000Y-122251000D02*
X106494000Y-122251000D01*
X121506000Y-122251000D02*
X115440000Y-122251000D01*
X112560000Y-122211000D02*
X106478000Y-122211000D01*
X121522000Y-122211000D02*
X115440000Y-122211000D01*
X112560000Y-122171000D02*
X106463000Y-122171000D01*
X121537000Y-122171000D02*
X115440000Y-122171000D01*
X112560000Y-122131000D02*
X106447000Y-122131000D01*
X121553000Y-122131000D02*
X115440000Y-122131000D01*
X112560000Y-122091000D02*
X106432000Y-122091000D01*
X121568000Y-122091000D02*
X115440000Y-122091000D01*
X112560000Y-122051000D02*
X106418000Y-122051000D01*
X121582000Y-122051000D02*
X115440000Y-122051000D01*
X112560000Y-122011000D02*
X106403000Y-122011000D01*
X121597000Y-122011000D02*
X115440000Y-122011000D01*
X112560000Y-121971000D02*
X106389000Y-121971000D01*
X121611000Y-121971000D02*
X115440000Y-121971000D01*
X112560000Y-121931000D02*
X106375000Y-121931000D01*
X121625000Y-121931000D02*
X115440000Y-121931000D01*
X112560000Y-121891000D02*
X106361000Y-121891000D01*
X121639000Y-121891000D02*
X115440000Y-121891000D01*
X112560000Y-121851000D02*
X106347000Y-121851000D01*
X121653000Y-121851000D02*
X115440000Y-121851000D01*
X112560000Y-121811000D02*
X106334000Y-121811000D01*
X121666000Y-121811000D02*
X115440000Y-121811000D01*
X112560000Y-121771000D02*
X106320000Y-121771000D01*
X121680000Y-121771000D02*
X115440000Y-121771000D01*
X112560000Y-121731000D02*
X106307000Y-121731000D01*
X121693000Y-121731000D02*
X115440000Y-121731000D01*
X112560000Y-121691000D02*
X106295000Y-121691000D01*
X121705000Y-121691000D02*
X115440000Y-121691000D01*
X112560000Y-121651000D02*
X106282000Y-121651000D01*
X121718000Y-121651000D02*
X115440000Y-121651000D01*
X112560000Y-121611000D02*
X106270000Y-121611000D01*
X121730000Y-121611000D02*
X115440000Y-121611000D01*
X112560000Y-121571000D02*
X106258000Y-121571000D01*
X121742000Y-121571000D02*
X115440000Y-121571000D01*
X121754000Y-121531000D02*
X106246000Y-121531000D01*
X121765000Y-121491000D02*
X106235000Y-121491000D01*
X121777000Y-121451000D02*
X106223000Y-121451000D01*
X121788000Y-121411000D02*
X106212000Y-121411000D01*
X121799000Y-121371000D02*
X106201000Y-121371000D01*
X121810000Y-121331000D02*
X106190000Y-121331000D01*
X121820000Y-121291000D02*
X106180000Y-121291000D01*
X121830000Y-121251000D02*
X106170000Y-121251000D01*
X121840000Y-121211000D02*
X106160000Y-121211000D01*
X121850000Y-121171000D02*
X106150000Y-121171000D01*
X121860000Y-121131000D02*
X106140000Y-121131000D01*
X121869000Y-121091000D02*
X106131000Y-121091000D01*
X121878000Y-121051000D02*
X106122000Y-121051000D01*
X121887000Y-121011000D02*
X106113000Y-121011000D01*
X121896000Y-120971000D02*
X106104000Y-120971000D01*
X121905000Y-120931000D02*
X106095000Y-120931000D01*
X121913000Y-120891000D02*
X106087000Y-120891000D01*
X121921000Y-120851000D02*
X106079000Y-120851000D01*
X121929000Y-120811000D02*
X106071000Y-120811000D01*
X121937000Y-120771000D02*
X106063000Y-120771000D01*
X121944000Y-120731000D02*
X106056000Y-120731000D01*
X121952000Y-120691000D02*
X106048000Y-120691000D01*
X121959000Y-120651000D02*
X106041000Y-120651000D01*
X121966000Y-120611000D02*
X106034000Y-120611000D01*
X121972000Y-120571000D02*
X106028000Y-120571000D01*
X121979000Y-120531000D02*
X106021000Y-120531000D01*
X121985000Y-120491000D02*
X106015000Y-120491000D01*
X121991000Y-120451000D02*
X106009000Y-120451000D01*
X121997000Y-120411000D02*
X106003000Y-120411000D01*
X122003000Y-120371000D02*
X105997000Y-120371000D01*
X122008000Y-120331000D02*
X105992000Y-120331000D01*
X122014000Y-120291000D02*
X105986000Y-120291000D01*
X122019000Y-120251000D02*
X105981000Y-120251000D01*
X122024000Y-120211000D02*
X105976000Y-120211000D01*
X122028000Y-120171000D02*
X105972000Y-120171000D01*
X122033000Y-120131000D02*
X105967000Y-120131000D01*
X122037000Y-120091000D02*
X105963000Y-120091000D01*
X122041000Y-120051000D02*
X105959000Y-120051000D01*
X122045000Y-120011000D02*
X105955000Y-120011000D01*
X122049000Y-119971000D02*
X105951000Y-119971000D01*
X122052000Y-119930000D02*
X105948000Y-119930000D01*
X122055000Y-119890000D02*
X105945000Y-119890000D01*
X122058000Y-119850000D02*
X105942000Y-119850000D01*
X122061000Y-119810000D02*
X105939000Y-119810000D01*
X122064000Y-119770000D02*
X105936000Y-119770000D01*
X122066000Y-119730000D02*
X105934000Y-119730000D01*
X122069000Y-119690000D02*
X105931000Y-119690000D01*
X122071000Y-119650000D02*
X105929000Y-119650000D01*
X122073000Y-119610000D02*
X105927000Y-119610000D01*
X122074000Y-119570000D02*
X105926000Y-119570000D01*
X122076000Y-119530000D02*
X105924000Y-119530000D01*
X122077000Y-119490000D02*
X105923000Y-119490000D01*
X122078000Y-119450000D02*
X105922000Y-119450000D01*
X122079000Y-119410000D02*
X105921000Y-119410000D01*
X122080000Y-119370000D02*
X105920000Y-119370000D01*
X122080000Y-119330000D02*
X105920000Y-119330000D01*
X122080000Y-119290000D02*
X105920000Y-119290000D01*
X122081000Y-119250000D02*
X105919000Y-119250000D01*
X122120000Y-119250000D02*
G75*
G03X122120000Y-119250000I-8120000J0D01*
G01*
X119355000Y-86860509D02*
X117755000Y-86860509D01*
X118555000Y-86060509D02*
X118555000Y-87660509D01*
X114765000Y-102831000D02*
X113235000Y-102831000D01*
X115098000Y-102791000D02*
X112902000Y-102791000D01*
X115351000Y-102751000D02*
X112649000Y-102751000D01*
X115564000Y-102711000D02*
X112436000Y-102711000D01*
X115752000Y-102671000D02*
X112248000Y-102671000D01*
X115920000Y-102631000D02*
X112080000Y-102631000D01*
X116074000Y-102591000D02*
X111926000Y-102591000D01*
X116218000Y-102551000D02*
X111782000Y-102551000D01*
X116351000Y-102511000D02*
X111649000Y-102511000D01*
X116478000Y-102471000D02*
X111522000Y-102471000D01*
X116597000Y-102431000D02*
X111403000Y-102431000D01*
X116711000Y-102391000D02*
X111289000Y-102391000D01*
X116820000Y-102351000D02*
X111180000Y-102351000D01*
X116924000Y-102311000D02*
X111076000Y-102311000D01*
X117024000Y-102271000D02*
X110976000Y-102271000D01*
X117120000Y-102231000D02*
X110880000Y-102231000D01*
X117213000Y-102191000D02*
X110787000Y-102191000D01*
X117303000Y-102151000D02*
X110697000Y-102151000D01*
X117390000Y-102111000D02*
X110610000Y-102111000D01*
X117475000Y-102071000D02*
X110525000Y-102071000D01*
X117557000Y-102031000D02*
X110443000Y-102031000D01*
X117637000Y-101991000D02*
X110363000Y-101991000D01*
X117715000Y-101951000D02*
X110285000Y-101951000D01*
X117790000Y-101911000D02*
X110210000Y-101911000D01*
X117864000Y-101871000D02*
X110136000Y-101871000D01*
X117936000Y-101831000D02*
X110064000Y-101831000D01*
X118007000Y-101791000D02*
X109993000Y-101791000D01*
X118076000Y-101751000D02*
X109924000Y-101751000D01*
X118143000Y-101711000D02*
X109857000Y-101711000D01*
X118209000Y-101671000D02*
X109791000Y-101671000D01*
X118273000Y-101631000D02*
X109727000Y-101631000D01*
X118336000Y-101591000D02*
X109664000Y-101591000D01*
X118398000Y-101551000D02*
X109602000Y-101551000D01*
X118459000Y-101511000D02*
X109541000Y-101511000D01*
X118519000Y-101471000D02*
X109481000Y-101471000D01*
X118577000Y-101431000D02*
X109423000Y-101431000D01*
X118634000Y-101391000D02*
X109366000Y-101391000D01*
X118691000Y-101351000D02*
X109309000Y-101351000D01*
X118746000Y-101311000D02*
X109254000Y-101311000D01*
X118800000Y-101271000D02*
X109200000Y-101271000D01*
X118854000Y-101231000D02*
X109146000Y-101231000D01*
X118906000Y-101191000D02*
X109094000Y-101191000D01*
X118958000Y-101151000D02*
X109042000Y-101151000D01*
X119009000Y-101111000D02*
X108991000Y-101111000D01*
X119059000Y-101071000D02*
X108941000Y-101071000D01*
X119108000Y-101031000D02*
X108892000Y-101031000D01*
X119156000Y-100991000D02*
X108844000Y-100991000D01*
X119204000Y-100951000D02*
X108796000Y-100951000D01*
X119251000Y-100911000D02*
X108749000Y-100911000D01*
X119297000Y-100871000D02*
X108703000Y-100871000D01*
X119343000Y-100831000D02*
X108657000Y-100831000D01*
X119388000Y-100791000D02*
X108612000Y-100791000D01*
X119432000Y-100751000D02*
X108568000Y-100751000D01*
X119475000Y-100711000D02*
X108525000Y-100711000D01*
X119518000Y-100671000D02*
X108482000Y-100671000D01*
X119560000Y-100631000D02*
X108440000Y-100631000D01*
X119602000Y-100591000D02*
X108398000Y-100591000D01*
X119643000Y-100551000D02*
X108357000Y-100551000D01*
X119684000Y-100511000D02*
X108316000Y-100511000D01*
X119724000Y-100471000D02*
X108276000Y-100471000D01*
X119763000Y-100431000D02*
X108237000Y-100431000D01*
X119802000Y-100391000D02*
X108198000Y-100391000D01*
X119840000Y-100351000D02*
X108160000Y-100351000D01*
X119878000Y-100311000D02*
X108122000Y-100311000D01*
X119916000Y-100271000D02*
X108084000Y-100271000D01*
X119952000Y-100231000D02*
X108048000Y-100231000D01*
X119989000Y-100191000D02*
X108011000Y-100191000D01*
X120025000Y-100151000D02*
X107975000Y-100151000D01*
X120060000Y-100111000D02*
X107940000Y-100111000D01*
X120095000Y-100071000D02*
X107905000Y-100071000D01*
X120129000Y-100031000D02*
X107871000Y-100031000D01*
X120163000Y-99991000D02*
X107837000Y-99991000D01*
X120197000Y-99951000D02*
X107803000Y-99951000D01*
X112560000Y-99911000D02*
X107770000Y-99911000D01*
X120230000Y-99911000D02*
X115440000Y-99911000D01*
X112560000Y-99871000D02*
X107737000Y-99871000D01*
X120263000Y-99871000D02*
X115440000Y-99871000D01*
X112560000Y-99831000D02*
X107705000Y-99831000D01*
X120295000Y-99831000D02*
X115440000Y-99831000D01*
X112560000Y-99791000D02*
X107673000Y-99791000D01*
X120327000Y-99791000D02*
X115440000Y-99791000D01*
X112560000Y-99751000D02*
X107642000Y-99751000D01*
X120358000Y-99751000D02*
X115440000Y-99751000D01*
X112560000Y-99711000D02*
X107610000Y-99711000D01*
X120390000Y-99711000D02*
X115440000Y-99711000D01*
X112560000Y-99671000D02*
X107580000Y-99671000D01*
X120420000Y-99671000D02*
X115440000Y-99671000D01*
X112560000Y-99631000D02*
X107550000Y-99631000D01*
X120450000Y-99631000D02*
X115440000Y-99631000D01*
X112560000Y-99591000D02*
X107520000Y-99591000D01*
X120480000Y-99591000D02*
X115440000Y-99591000D01*
X112560000Y-99551000D02*
X107490000Y-99551000D01*
X120510000Y-99551000D02*
X115440000Y-99551000D01*
X112560000Y-99511000D02*
X107461000Y-99511000D01*
X120539000Y-99511000D02*
X115440000Y-99511000D01*
X112560000Y-99471000D02*
X107432000Y-99471000D01*
X120568000Y-99471000D02*
X115440000Y-99471000D01*
X112560000Y-99431000D02*
X107404000Y-99431000D01*
X120596000Y-99431000D02*
X115440000Y-99431000D01*
X112560000Y-99391000D02*
X107376000Y-99391000D01*
X120624000Y-99391000D02*
X115440000Y-99391000D01*
X112560000Y-99351000D02*
X107348000Y-99351000D01*
X120652000Y-99351000D02*
X115440000Y-99351000D01*
X112560000Y-99311000D02*
X107321000Y-99311000D01*
X120679000Y-99311000D02*
X115440000Y-99311000D01*
X112560000Y-99271000D02*
X107294000Y-99271000D01*
X120706000Y-99271000D02*
X115440000Y-99271000D01*
X112560000Y-99231000D02*
X107267000Y-99231000D01*
X120733000Y-99231000D02*
X115440000Y-99231000D01*
X112560000Y-99191000D02*
X107241000Y-99191000D01*
X120759000Y-99191000D02*
X115440000Y-99191000D01*
X112560000Y-99151000D02*
X107215000Y-99151000D01*
X120785000Y-99151000D02*
X115440000Y-99151000D01*
X112560000Y-99111000D02*
X107189000Y-99111000D01*
X120811000Y-99111000D02*
X115440000Y-99111000D01*
X112560000Y-99071000D02*
X107164000Y-99071000D01*
X120836000Y-99071000D02*
X115440000Y-99071000D01*
X112560000Y-99031000D02*
X107139000Y-99031000D01*
X120861000Y-99031000D02*
X115440000Y-99031000D01*
X112560000Y-98991000D02*
X107114000Y-98991000D01*
X120886000Y-98991000D02*
X115440000Y-98991000D01*
X112560000Y-98951000D02*
X107090000Y-98951000D01*
X120910000Y-98951000D02*
X115440000Y-98951000D01*
X112560000Y-98911000D02*
X107066000Y-98911000D01*
X120934000Y-98911000D02*
X115440000Y-98911000D01*
X112560000Y-98871000D02*
X107042000Y-98871000D01*
X120958000Y-98871000D02*
X115440000Y-98871000D01*
X112560000Y-98831000D02*
X107019000Y-98831000D01*
X120981000Y-98831000D02*
X115440000Y-98831000D01*
X112560000Y-98791000D02*
X106996000Y-98791000D01*
X121004000Y-98791000D02*
X115440000Y-98791000D01*
X112560000Y-98751000D02*
X106973000Y-98751000D01*
X121027000Y-98751000D02*
X115440000Y-98751000D01*
X112560000Y-98711000D02*
X106951000Y-98711000D01*
X121049000Y-98711000D02*
X115440000Y-98711000D01*
X112560000Y-98671000D02*
X106928000Y-98671000D01*
X121072000Y-98671000D02*
X115440000Y-98671000D01*
X112560000Y-98631000D02*
X106906000Y-98631000D01*
X121094000Y-98631000D02*
X115440000Y-98631000D01*
X112560000Y-98591000D02*
X106885000Y-98591000D01*
X121115000Y-98591000D02*
X115440000Y-98591000D01*
X112560000Y-98551000D02*
X106864000Y-98551000D01*
X121136000Y-98551000D02*
X115440000Y-98551000D01*
X112560000Y-98511000D02*
X106843000Y-98511000D01*
X121157000Y-98511000D02*
X115440000Y-98511000D01*
X112560000Y-98471000D02*
X106822000Y-98471000D01*
X121178000Y-98471000D02*
X115440000Y-98471000D01*
X112560000Y-98431000D02*
X106801000Y-98431000D01*
X121199000Y-98431000D02*
X115440000Y-98431000D01*
X112560000Y-98391000D02*
X106781000Y-98391000D01*
X121219000Y-98391000D02*
X115440000Y-98391000D01*
X112560000Y-98351000D02*
X106761000Y-98351000D01*
X121239000Y-98351000D02*
X115440000Y-98351000D01*
X112560000Y-98311000D02*
X106742000Y-98311000D01*
X121258000Y-98311000D02*
X115440000Y-98311000D01*
X112560000Y-98271000D02*
X106722000Y-98271000D01*
X121278000Y-98271000D02*
X115440000Y-98271000D01*
X112560000Y-98231000D02*
X106703000Y-98231000D01*
X121297000Y-98231000D02*
X115440000Y-98231000D01*
X112560000Y-98191000D02*
X106684000Y-98191000D01*
X121316000Y-98191000D02*
X115440000Y-98191000D01*
X112560000Y-98151000D02*
X106666000Y-98151000D01*
X121334000Y-98151000D02*
X115440000Y-98151000D01*
X112560000Y-98111000D02*
X106647000Y-98111000D01*
X121353000Y-98111000D02*
X115440000Y-98111000D01*
X112560000Y-98071000D02*
X106629000Y-98071000D01*
X121371000Y-98071000D02*
X115440000Y-98071000D01*
X112560000Y-98031000D02*
X106611000Y-98031000D01*
X121389000Y-98031000D02*
X115440000Y-98031000D01*
X112560000Y-97991000D02*
X106594000Y-97991000D01*
X121406000Y-97991000D02*
X115440000Y-97991000D01*
X112560000Y-97951000D02*
X106577000Y-97951000D01*
X121423000Y-97951000D02*
X115440000Y-97951000D01*
X112560000Y-97911000D02*
X106560000Y-97911000D01*
X121440000Y-97911000D02*
X115440000Y-97911000D01*
X112560000Y-97871000D02*
X106543000Y-97871000D01*
X121457000Y-97871000D02*
X115440000Y-97871000D01*
X112560000Y-97831000D02*
X106526000Y-97831000D01*
X121474000Y-97831000D02*
X115440000Y-97831000D01*
X112560000Y-97791000D02*
X106510000Y-97791000D01*
X121490000Y-97791000D02*
X115440000Y-97791000D01*
X112560000Y-97751000D02*
X106494000Y-97751000D01*
X121506000Y-97751000D02*
X115440000Y-97751000D01*
X112560000Y-97711000D02*
X106478000Y-97711000D01*
X121522000Y-97711000D02*
X115440000Y-97711000D01*
X112560000Y-97671000D02*
X106463000Y-97671000D01*
X121537000Y-97671000D02*
X115440000Y-97671000D01*
X112560000Y-97631000D02*
X106447000Y-97631000D01*
X121553000Y-97631000D02*
X115440000Y-97631000D01*
X112560000Y-97591000D02*
X106432000Y-97591000D01*
X121568000Y-97591000D02*
X115440000Y-97591000D01*
X112560000Y-97551000D02*
X106418000Y-97551000D01*
X121582000Y-97551000D02*
X115440000Y-97551000D01*
X112560000Y-97511000D02*
X106403000Y-97511000D01*
X121597000Y-97511000D02*
X115440000Y-97511000D01*
X112560000Y-97471000D02*
X106389000Y-97471000D01*
X121611000Y-97471000D02*
X115440000Y-97471000D01*
X112560000Y-97431000D02*
X106375000Y-97431000D01*
X121625000Y-97431000D02*
X115440000Y-97431000D01*
X112560000Y-97391000D02*
X106361000Y-97391000D01*
X121639000Y-97391000D02*
X115440000Y-97391000D01*
X112560000Y-97351000D02*
X106347000Y-97351000D01*
X121653000Y-97351000D02*
X115440000Y-97351000D01*
X112560000Y-97311000D02*
X106334000Y-97311000D01*
X121666000Y-97311000D02*
X115440000Y-97311000D01*
X112560000Y-97271000D02*
X106320000Y-97271000D01*
X121680000Y-97271000D02*
X115440000Y-97271000D01*
X112560000Y-97231000D02*
X106307000Y-97231000D01*
X121693000Y-97231000D02*
X115440000Y-97231000D01*
X112560000Y-97191000D02*
X106295000Y-97191000D01*
X121705000Y-97191000D02*
X115440000Y-97191000D01*
X112560000Y-97151000D02*
X106282000Y-97151000D01*
X121718000Y-97151000D02*
X115440000Y-97151000D01*
X112560000Y-97111000D02*
X106270000Y-97111000D01*
X121730000Y-97111000D02*
X115440000Y-97111000D01*
X112560000Y-97071000D02*
X106258000Y-97071000D01*
X121742000Y-97071000D02*
X115440000Y-97071000D01*
X121754000Y-97031000D02*
X106246000Y-97031000D01*
X121765000Y-96991000D02*
X106235000Y-96991000D01*
X121777000Y-96951000D02*
X106223000Y-96951000D01*
X121788000Y-96911000D02*
X106212000Y-96911000D01*
X121799000Y-96871000D02*
X106201000Y-96871000D01*
X121810000Y-96831000D02*
X106190000Y-96831000D01*
X121820000Y-96791000D02*
X106180000Y-96791000D01*
X121830000Y-96751000D02*
X106170000Y-96751000D01*
X121840000Y-96711000D02*
X106160000Y-96711000D01*
X121850000Y-96671000D02*
X106150000Y-96671000D01*
X121860000Y-96631000D02*
X106140000Y-96631000D01*
X121869000Y-96591000D02*
X106131000Y-96591000D01*
X121878000Y-96551000D02*
X106122000Y-96551000D01*
X121887000Y-96511000D02*
X106113000Y-96511000D01*
X121896000Y-96471000D02*
X106104000Y-96471000D01*
X121905000Y-96431000D02*
X106095000Y-96431000D01*
X121913000Y-96391000D02*
X106087000Y-96391000D01*
X121921000Y-96351000D02*
X106079000Y-96351000D01*
X121929000Y-96311000D02*
X106071000Y-96311000D01*
X121937000Y-96271000D02*
X106063000Y-96271000D01*
X121944000Y-96231000D02*
X106056000Y-96231000D01*
X121952000Y-96191000D02*
X106048000Y-96191000D01*
X121959000Y-96151000D02*
X106041000Y-96151000D01*
X121966000Y-96111000D02*
X106034000Y-96111000D01*
X121972000Y-96071000D02*
X106028000Y-96071000D01*
X121979000Y-96031000D02*
X106021000Y-96031000D01*
X121985000Y-95991000D02*
X106015000Y-95991000D01*
X121991000Y-95951000D02*
X106009000Y-95951000D01*
X121997000Y-95911000D02*
X106003000Y-95911000D01*
X122003000Y-95871000D02*
X105997000Y-95871000D01*
X122008000Y-95831000D02*
X105992000Y-95831000D01*
X122014000Y-95791000D02*
X105986000Y-95791000D01*
X122019000Y-95751000D02*
X105981000Y-95751000D01*
X122024000Y-95711000D02*
X105976000Y-95711000D01*
X122028000Y-95671000D02*
X105972000Y-95671000D01*
X122033000Y-95631000D02*
X105967000Y-95631000D01*
X122037000Y-95591000D02*
X105963000Y-95591000D01*
X122041000Y-95551000D02*
X105959000Y-95551000D01*
X122045000Y-95511000D02*
X105955000Y-95511000D01*
X122049000Y-95471000D02*
X105951000Y-95471000D01*
X122052000Y-95430000D02*
X105948000Y-95430000D01*
X122055000Y-95390000D02*
X105945000Y-95390000D01*
X122058000Y-95350000D02*
X105942000Y-95350000D01*
X122061000Y-95310000D02*
X105939000Y-95310000D01*
X122064000Y-95270000D02*
X105936000Y-95270000D01*
X122066000Y-95230000D02*
X105934000Y-95230000D01*
X122069000Y-95190000D02*
X105931000Y-95190000D01*
X122071000Y-95150000D02*
X105929000Y-95150000D01*
X122073000Y-95110000D02*
X105927000Y-95110000D01*
X122074000Y-95070000D02*
X105926000Y-95070000D01*
X122076000Y-95030000D02*
X105924000Y-95030000D01*
X122077000Y-94990000D02*
X105923000Y-94990000D01*
X122078000Y-94950000D02*
X105922000Y-94950000D01*
X122079000Y-94910000D02*
X105921000Y-94910000D01*
X122080000Y-94870000D02*
X105920000Y-94870000D01*
X122080000Y-94830000D02*
X105920000Y-94830000D01*
X122080000Y-94790000D02*
X105920000Y-94790000D01*
X122081000Y-94750000D02*
X105919000Y-94750000D01*
X122120000Y-94750000D02*
G75*
G03X122120000Y-94750000I-8120000J0D01*
G01*
X204000000Y-96670000D02*
X205330000Y-96670000D01*
X205330000Y-96670000D02*
X205330000Y-98000000D01*
X202730000Y-96670000D02*
X202730000Y-99270000D01*
X202730000Y-99270000D02*
X205330000Y-99270000D01*
X205330000Y-99270000D02*
X205330000Y-117110000D01*
X200130000Y-117110000D02*
X205330000Y-117110000D01*
X200130000Y-96670000D02*
X200130000Y-117110000D01*
X200130000Y-96670000D02*
X202730000Y-96670000D01*
D11*
X153857142Y-107857142D02*
X153809523Y-107904761D01*
X153666666Y-107952380D01*
X153571428Y-107952380D01*
X153428571Y-107904761D01*
X153333333Y-107809523D01*
X153285714Y-107714285D01*
X153238095Y-107523809D01*
X153238095Y-107380952D01*
X153285714Y-107190476D01*
X153333333Y-107095238D01*
X153428571Y-107000000D01*
X153571428Y-106952380D01*
X153666666Y-106952380D01*
X153809523Y-107000000D01*
X153857142Y-107047619D01*
X154809523Y-107952380D02*
X154238095Y-107952380D01*
X154523809Y-107952380D02*
X154523809Y-106952380D01*
X154428571Y-107095238D01*
X154333333Y-107190476D01*
X154238095Y-107238095D01*
X155761904Y-107952380D02*
X155190476Y-107952380D01*
X155476190Y-107952380D02*
X155476190Y-106952380D01*
X155380952Y-107095238D01*
X155285714Y-107190476D01*
X155190476Y-107238095D01*
X152452380Y-109702380D02*
X151880952Y-109702380D01*
X152166666Y-109702380D02*
X152166666Y-108702380D01*
X152071428Y-108845238D01*
X151976190Y-108940476D01*
X151880952Y-108988095D01*
X153071428Y-108702380D02*
X153166666Y-108702380D01*
X153261904Y-108750000D01*
X153309523Y-108797619D01*
X153357142Y-108892857D01*
X153404761Y-109083333D01*
X153404761Y-109321428D01*
X153357142Y-109511904D01*
X153309523Y-109607142D01*
X153261904Y-109654761D01*
X153166666Y-109702380D01*
X153071428Y-109702380D01*
X152976190Y-109654761D01*
X152928571Y-109607142D01*
X152880952Y-109511904D01*
X152833333Y-109321428D01*
X152833333Y-109083333D01*
X152880952Y-108892857D01*
X152928571Y-108797619D01*
X152976190Y-108750000D01*
X153071428Y-108702380D01*
X154023809Y-108702380D02*
X154119047Y-108702380D01*
X154214285Y-108750000D01*
X154261904Y-108797619D01*
X154309523Y-108892857D01*
X154357142Y-109083333D01*
X154357142Y-109321428D01*
X154309523Y-109511904D01*
X154261904Y-109607142D01*
X154214285Y-109654761D01*
X154119047Y-109702380D01*
X154023809Y-109702380D01*
X153928571Y-109654761D01*
X153880952Y-109607142D01*
X153833333Y-109511904D01*
X153785714Y-109321428D01*
X153785714Y-109083333D01*
X153833333Y-108892857D01*
X153880952Y-108797619D01*
X153928571Y-108750000D01*
X154023809Y-108702380D01*
X155214285Y-109035714D02*
X155214285Y-109702380D01*
X154785714Y-109035714D02*
X154785714Y-109559523D01*
X154833333Y-109654761D01*
X154928571Y-109702380D01*
X155071428Y-109702380D01*
X155166666Y-109654761D01*
X155214285Y-109607142D01*
X156023809Y-109178571D02*
X155690476Y-109178571D01*
X155690476Y-109702380D02*
X155690476Y-108702380D01*
X156166666Y-108702380D01*
X199857142Y-124357142D02*
X199809523Y-124404761D01*
X199666666Y-124452380D01*
X199571428Y-124452380D01*
X199428571Y-124404761D01*
X199333333Y-124309523D01*
X199285714Y-124214285D01*
X199238095Y-124023809D01*
X199238095Y-123880952D01*
X199285714Y-123690476D01*
X199333333Y-123595238D01*
X199428571Y-123500000D01*
X199571428Y-123452380D01*
X199666666Y-123452380D01*
X199809523Y-123500000D01*
X199857142Y-123547619D01*
X200809523Y-124452380D02*
X200238095Y-124452380D01*
X200523809Y-124452380D02*
X200523809Y-123452380D01*
X200428571Y-123595238D01*
X200333333Y-123690476D01*
X200238095Y-123738095D01*
X201428571Y-123452380D02*
X201523809Y-123452380D01*
X201619047Y-123500000D01*
X201666666Y-123547619D01*
X201714285Y-123642857D01*
X201761904Y-123833333D01*
X201761904Y-124071428D01*
X201714285Y-124261904D01*
X201666666Y-124357142D01*
X201619047Y-124404761D01*
X201523809Y-124452380D01*
X201428571Y-124452380D01*
X201333333Y-124404761D01*
X201285714Y-124357142D01*
X201238095Y-124261904D01*
X201190476Y-124071428D01*
X201190476Y-123833333D01*
X201238095Y-123642857D01*
X201285714Y-123547619D01*
X201333333Y-123500000D01*
X201428571Y-123452380D01*
X198702380Y-126202380D02*
X198130952Y-126202380D01*
X198416666Y-126202380D02*
X198416666Y-125202380D01*
X198321428Y-125345238D01*
X198226190Y-125440476D01*
X198130952Y-125488095D01*
X199321428Y-125202380D02*
X199416666Y-125202380D01*
X199511904Y-125250000D01*
X199559523Y-125297619D01*
X199607142Y-125392857D01*
X199654761Y-125583333D01*
X199654761Y-125821428D01*
X199607142Y-126011904D01*
X199559523Y-126107142D01*
X199511904Y-126154761D01*
X199416666Y-126202380D01*
X199321428Y-126202380D01*
X199226190Y-126154761D01*
X199178571Y-126107142D01*
X199130952Y-126011904D01*
X199083333Y-125821428D01*
X199083333Y-125583333D01*
X199130952Y-125392857D01*
X199178571Y-125297619D01*
X199226190Y-125250000D01*
X199321428Y-125202380D01*
X200273809Y-125202380D02*
X200369047Y-125202380D01*
X200464285Y-125250000D01*
X200511904Y-125297619D01*
X200559523Y-125392857D01*
X200607142Y-125583333D01*
X200607142Y-125821428D01*
X200559523Y-126011904D01*
X200511904Y-126107142D01*
X200464285Y-126154761D01*
X200369047Y-126202380D01*
X200273809Y-126202380D01*
X200178571Y-126154761D01*
X200130952Y-126107142D01*
X200083333Y-126011904D01*
X200035714Y-125821428D01*
X200035714Y-125583333D01*
X200083333Y-125392857D01*
X200130952Y-125297619D01*
X200178571Y-125250000D01*
X200273809Y-125202380D01*
X201464285Y-125535714D02*
X201464285Y-126202380D01*
X201035714Y-125535714D02*
X201035714Y-126059523D01*
X201083333Y-126154761D01*
X201178571Y-126202380D01*
X201321428Y-126202380D01*
X201416666Y-126154761D01*
X201464285Y-126107142D01*
X202273809Y-125678571D02*
X201940476Y-125678571D01*
X201940476Y-126202380D02*
X201940476Y-125202380D01*
X202416666Y-125202380D01*
X199833333Y-92107142D02*
X199785714Y-92154761D01*
X199642857Y-92202380D01*
X199547619Y-92202380D01*
X199404761Y-92154761D01*
X199309523Y-92059523D01*
X199261904Y-91964285D01*
X199214285Y-91773809D01*
X199214285Y-91630952D01*
X199261904Y-91440476D01*
X199309523Y-91345238D01*
X199404761Y-91250000D01*
X199547619Y-91202380D01*
X199642857Y-91202380D01*
X199785714Y-91250000D01*
X199833333Y-91297619D01*
X200309523Y-92202380D02*
X200500000Y-92202380D01*
X200595238Y-92154761D01*
X200642857Y-92107142D01*
X200738095Y-91964285D01*
X200785714Y-91773809D01*
X200785714Y-91392857D01*
X200738095Y-91297619D01*
X200690476Y-91250000D01*
X200595238Y-91202380D01*
X200404761Y-91202380D01*
X200309523Y-91250000D01*
X200261904Y-91297619D01*
X200214285Y-91392857D01*
X200214285Y-91630952D01*
X200261904Y-91726190D01*
X200309523Y-91773809D01*
X200404761Y-91821428D01*
X200595238Y-91821428D01*
X200690476Y-91773809D01*
X200738095Y-91726190D01*
X200785714Y-91630952D01*
X199452380Y-93952380D02*
X198880952Y-93952380D01*
X199166666Y-93952380D02*
X199166666Y-92952380D01*
X199071428Y-93095238D01*
X198976190Y-93190476D01*
X198880952Y-93238095D01*
X200071428Y-92952380D02*
X200166666Y-92952380D01*
X200261904Y-93000000D01*
X200309523Y-93047619D01*
X200357142Y-93142857D01*
X200404761Y-93333333D01*
X200404761Y-93571428D01*
X200357142Y-93761904D01*
X200309523Y-93857142D01*
X200261904Y-93904761D01*
X200166666Y-93952380D01*
X200071428Y-93952380D01*
X199976190Y-93904761D01*
X199928571Y-93857142D01*
X199880952Y-93761904D01*
X199833333Y-93571428D01*
X199833333Y-93333333D01*
X199880952Y-93142857D01*
X199928571Y-93047619D01*
X199976190Y-93000000D01*
X200071428Y-92952380D01*
X201023809Y-92952380D02*
X201119047Y-92952380D01*
X201214285Y-93000000D01*
X201261904Y-93047619D01*
X201309523Y-93142857D01*
X201357142Y-93333333D01*
X201357142Y-93571428D01*
X201309523Y-93761904D01*
X201261904Y-93857142D01*
X201214285Y-93904761D01*
X201119047Y-93952380D01*
X201023809Y-93952380D01*
X200928571Y-93904761D01*
X200880952Y-93857142D01*
X200833333Y-93761904D01*
X200785714Y-93571428D01*
X200785714Y-93333333D01*
X200833333Y-93142857D01*
X200880952Y-93047619D01*
X200928571Y-93000000D01*
X201023809Y-92952380D01*
X202214285Y-93285714D02*
X202214285Y-93952380D01*
X201785714Y-93285714D02*
X201785714Y-93809523D01*
X201833333Y-93904761D01*
X201928571Y-93952380D01*
X202071428Y-93952380D01*
X202166666Y-93904761D01*
X202214285Y-93857142D01*
X203023809Y-93428571D02*
X202690476Y-93428571D01*
X202690476Y-93952380D02*
X202690476Y-92952380D01*
X203166666Y-92952380D01*
X165988095Y-102952380D02*
X165988095Y-103761904D01*
X166035714Y-103857142D01*
X166083333Y-103904761D01*
X166178571Y-103952380D01*
X166369047Y-103952380D01*
X166464285Y-103904761D01*
X166511904Y-103857142D01*
X166559523Y-103761904D01*
X166559523Y-102952380D01*
X166940476Y-102952380D02*
X167559523Y-102952380D01*
X167226190Y-103333333D01*
X167369047Y-103333333D01*
X167464285Y-103380952D01*
X167511904Y-103428571D01*
X167559523Y-103523809D01*
X167559523Y-103761904D01*
X167511904Y-103857142D01*
X167464285Y-103904761D01*
X167369047Y-103952380D01*
X167083333Y-103952380D01*
X166988095Y-103904761D01*
X166940476Y-103857142D01*
X168992380Y-109166666D02*
X168992380Y-108500000D01*
X169992380Y-108928571D01*
X169420952Y-107976190D02*
X169373333Y-108071428D01*
X169325714Y-108119047D01*
X169230476Y-108166666D01*
X169182857Y-108166666D01*
X169087619Y-108119047D01*
X169040000Y-108071428D01*
X168992380Y-107976190D01*
X168992380Y-107785714D01*
X169040000Y-107690476D01*
X169087619Y-107642857D01*
X169182857Y-107595238D01*
X169230476Y-107595238D01*
X169325714Y-107642857D01*
X169373333Y-107690476D01*
X169420952Y-107785714D01*
X169420952Y-107976190D01*
X169468571Y-108071428D01*
X169516190Y-108119047D01*
X169611428Y-108166666D01*
X169801904Y-108166666D01*
X169897142Y-108119047D01*
X169944761Y-108071428D01*
X169992380Y-107976190D01*
X169992380Y-107785714D01*
X169944761Y-107690476D01*
X169897142Y-107642857D01*
X169801904Y-107595238D01*
X169611428Y-107595238D01*
X169516190Y-107642857D01*
X169468571Y-107690476D01*
X169420952Y-107785714D01*
X169992380Y-106690476D02*
X169992380Y-107166666D01*
X168992380Y-107166666D01*
X168992380Y-106166666D02*
X168992380Y-106071428D01*
X169040000Y-105976190D01*
X169087619Y-105928571D01*
X169182857Y-105880952D01*
X169373333Y-105833333D01*
X169611428Y-105833333D01*
X169801904Y-105880952D01*
X169897142Y-105928571D01*
X169944761Y-105976190D01*
X169992380Y-106071428D01*
X169992380Y-106166666D01*
X169944761Y-106261904D01*
X169897142Y-106309523D01*
X169801904Y-106357142D01*
X169611428Y-106404761D01*
X169373333Y-106404761D01*
X169182857Y-106357142D01*
X169087619Y-106309523D01*
X169040000Y-106261904D01*
X168992380Y-106166666D01*
X168992380Y-104928571D02*
X168992380Y-105404761D01*
X169468571Y-105452380D01*
X169420952Y-105404761D01*
X169373333Y-105309523D01*
X169373333Y-105071428D01*
X169420952Y-104976190D01*
X169468571Y-104928571D01*
X169563809Y-104880952D01*
X169801904Y-104880952D01*
X169897142Y-104928571D01*
X169944761Y-104976190D01*
X169992380Y-105071428D01*
X169992380Y-105309523D01*
X169944761Y-105404761D01*
X169897142Y-105452380D01*
X165988095Y-123702380D02*
X165988095Y-124511904D01*
X166035714Y-124607142D01*
X166083333Y-124654761D01*
X166178571Y-124702380D01*
X166369047Y-124702380D01*
X166464285Y-124654761D01*
X166511904Y-124607142D01*
X166559523Y-124511904D01*
X166559523Y-123702380D01*
X166988095Y-123797619D02*
X167035714Y-123750000D01*
X167130952Y-123702380D01*
X167369047Y-123702380D01*
X167464285Y-123750000D01*
X167511904Y-123797619D01*
X167559523Y-123892857D01*
X167559523Y-123988095D01*
X167511904Y-124130952D01*
X166940476Y-124702380D01*
X167559523Y-124702380D01*
X169452380Y-120761904D02*
X169452380Y-120095238D01*
X170452380Y-120523809D01*
X170452380Y-119666666D02*
X170452380Y-119476190D01*
X170404761Y-119380952D01*
X170357142Y-119333333D01*
X170214285Y-119238095D01*
X170023809Y-119190476D01*
X169642857Y-119190476D01*
X169547619Y-119238095D01*
X169500000Y-119285714D01*
X169452380Y-119380952D01*
X169452380Y-119571428D01*
X169500000Y-119666666D01*
X169547619Y-119714285D01*
X169642857Y-119761904D01*
X169880952Y-119761904D01*
X169976190Y-119714285D01*
X170023809Y-119666666D01*
X170071428Y-119571428D01*
X170071428Y-119380952D01*
X170023809Y-119285714D01*
X169976190Y-119238095D01*
X169880952Y-119190476D01*
X170452380Y-118238095D02*
X170452380Y-118809523D01*
X170452380Y-118523809D02*
X169452380Y-118523809D01*
X169595238Y-118619047D01*
X169690476Y-118714285D01*
X169738095Y-118809523D01*
X169547619Y-117857142D02*
X169500000Y-117809523D01*
X169452380Y-117714285D01*
X169452380Y-117476190D01*
X169500000Y-117380952D01*
X169547619Y-117333333D01*
X169642857Y-117285714D01*
X169738095Y-117285714D01*
X169880952Y-117333333D01*
X170452380Y-117904761D01*
X170452380Y-117285714D01*
X165988095Y-99702380D02*
X165988095Y-100511904D01*
X166035714Y-100607142D01*
X166083333Y-100654761D01*
X166178571Y-100702380D01*
X166369047Y-100702380D01*
X166464285Y-100654761D01*
X166511904Y-100607142D01*
X166559523Y-100511904D01*
X166559523Y-99702380D01*
X167559523Y-100702380D02*
X166988095Y-100702380D01*
X167273809Y-100702380D02*
X167273809Y-99702380D01*
X167178571Y-99845238D01*
X167083333Y-99940476D01*
X166988095Y-99988095D01*
X169452380Y-97011904D02*
X169452380Y-96345238D01*
X170452380Y-96773809D01*
X169880952Y-95821428D02*
X169833333Y-95916666D01*
X169785714Y-95964285D01*
X169690476Y-96011904D01*
X169642857Y-96011904D01*
X169547619Y-95964285D01*
X169500000Y-95916666D01*
X169452380Y-95821428D01*
X169452380Y-95630952D01*
X169500000Y-95535714D01*
X169547619Y-95488095D01*
X169642857Y-95440476D01*
X169690476Y-95440476D01*
X169785714Y-95488095D01*
X169833333Y-95535714D01*
X169880952Y-95630952D01*
X169880952Y-95821428D01*
X169928571Y-95916666D01*
X169976190Y-95964285D01*
X170071428Y-96011904D01*
X170261904Y-96011904D01*
X170357142Y-95964285D01*
X170404761Y-95916666D01*
X170452380Y-95821428D01*
X170452380Y-95630952D01*
X170404761Y-95535714D01*
X170357142Y-95488095D01*
X170261904Y-95440476D01*
X170071428Y-95440476D01*
X169976190Y-95488095D01*
X169928571Y-95535714D01*
X169880952Y-95630952D01*
X170452380Y-94488095D02*
X170452380Y-95059523D01*
X170452380Y-94773809D02*
X169452380Y-94773809D01*
X169595238Y-94869047D01*
X169690476Y-94964285D01*
X169738095Y-95059523D01*
X169547619Y-94107142D02*
X169500000Y-94059523D01*
X169452380Y-93964285D01*
X169452380Y-93726190D01*
X169500000Y-93630952D01*
X169547619Y-93583333D01*
X169642857Y-93535714D01*
X169738095Y-93535714D01*
X169880952Y-93583333D01*
X170452380Y-94154761D01*
X170452380Y-93535714D01*
X188083333Y-107452380D02*
X187750000Y-106976190D01*
X187511904Y-107452380D02*
X187511904Y-106452380D01*
X187892857Y-106452380D01*
X187988095Y-106500000D01*
X188035714Y-106547619D01*
X188083333Y-106642857D01*
X188083333Y-106785714D01*
X188035714Y-106880952D01*
X187988095Y-106928571D01*
X187892857Y-106976190D01*
X187511904Y-106976190D01*
X188416666Y-106452380D02*
X189035714Y-106452380D01*
X188702380Y-106833333D01*
X188845238Y-106833333D01*
X188940476Y-106880952D01*
X188988095Y-106928571D01*
X189035714Y-107023809D01*
X189035714Y-107261904D01*
X188988095Y-107357142D01*
X188940476Y-107404761D01*
X188845238Y-107452380D01*
X188559523Y-107452380D01*
X188464285Y-107404761D01*
X188416666Y-107357142D01*
X182130952Y-107452380D02*
X181559523Y-107452380D01*
X181845238Y-107452380D02*
X181845238Y-106452380D01*
X181750000Y-106595238D01*
X181654761Y-106690476D01*
X181559523Y-106738095D01*
X182559523Y-107452380D02*
X182559523Y-106452380D01*
X182654761Y-107071428D02*
X182940476Y-107452380D01*
X182940476Y-106785714D02*
X182559523Y-107166666D01*
X188083333Y-114452380D02*
X187750000Y-113976190D01*
X187511904Y-114452380D02*
X187511904Y-113452380D01*
X187892857Y-113452380D01*
X187988095Y-113500000D01*
X188035714Y-113547619D01*
X188083333Y-113642857D01*
X188083333Y-113785714D01*
X188035714Y-113880952D01*
X187988095Y-113928571D01*
X187892857Y-113976190D01*
X187511904Y-113976190D01*
X188464285Y-113547619D02*
X188511904Y-113500000D01*
X188607142Y-113452380D01*
X188845238Y-113452380D01*
X188940476Y-113500000D01*
X188988095Y-113547619D01*
X189035714Y-113642857D01*
X189035714Y-113738095D01*
X188988095Y-113880952D01*
X188416666Y-114452380D01*
X189035714Y-114452380D01*
X182130952Y-114452380D02*
X181559523Y-114452380D01*
X181845238Y-114452380D02*
X181845238Y-113452380D01*
X181750000Y-113595238D01*
X181654761Y-113690476D01*
X181559523Y-113738095D01*
X182559523Y-114452380D02*
X182559523Y-113452380D01*
X182654761Y-114071428D02*
X182940476Y-114452380D01*
X182940476Y-113785714D02*
X182559523Y-114166666D01*
X188083333Y-100452380D02*
X187750000Y-99976190D01*
X187511904Y-100452380D02*
X187511904Y-99452380D01*
X187892857Y-99452380D01*
X187988095Y-99500000D01*
X188035714Y-99547619D01*
X188083333Y-99642857D01*
X188083333Y-99785714D01*
X188035714Y-99880952D01*
X187988095Y-99928571D01*
X187892857Y-99976190D01*
X187511904Y-99976190D01*
X189035714Y-100452380D02*
X188464285Y-100452380D01*
X188750000Y-100452380D02*
X188750000Y-99452380D01*
X188654761Y-99595238D01*
X188559523Y-99690476D01*
X188464285Y-99738095D01*
X182130952Y-100452380D02*
X181559523Y-100452380D01*
X181845238Y-100452380D02*
X181845238Y-99452380D01*
X181750000Y-99595238D01*
X181654761Y-99690476D01*
X181559523Y-99738095D01*
X182559523Y-100452380D02*
X182559523Y-99452380D01*
X182654761Y-100071428D02*
X182940476Y-100452380D01*
X182940476Y-99785714D02*
X182559523Y-100166666D01*
X107702380Y-110333333D02*
X108416666Y-110333333D01*
X108559523Y-110380952D01*
X108654761Y-110476190D01*
X108702380Y-110619047D01*
X108702380Y-110714285D01*
X108035714Y-109428571D02*
X108702380Y-109428571D01*
X107654761Y-109666666D02*
X108369047Y-109904761D01*
X108369047Y-109285714D01*
X107702380Y-104333333D02*
X108416666Y-104333333D01*
X108559523Y-104380952D01*
X108654761Y-104476190D01*
X108702380Y-104619047D01*
X108702380Y-104714285D01*
X107702380Y-103952380D02*
X107702380Y-103333333D01*
X108083333Y-103666666D01*
X108083333Y-103523809D01*
X108130952Y-103428571D01*
X108178571Y-103380952D01*
X108273809Y-103333333D01*
X108511904Y-103333333D01*
X108607142Y-103380952D01*
X108654761Y-103428571D01*
X108702380Y-103523809D01*
X108702380Y-103809523D01*
X108654761Y-103904761D01*
X108607142Y-103952380D01*
X195015714Y-104492380D02*
X195015714Y-103492380D01*
X195253809Y-103492380D01*
X195396666Y-103540000D01*
X195491904Y-103635238D01*
X195539523Y-103730476D01*
X195587142Y-103920952D01*
X195587142Y-104063809D01*
X195539523Y-104254285D01*
X195491904Y-104349523D01*
X195396666Y-104444761D01*
X195253809Y-104492380D01*
X195015714Y-104492380D01*
X196539523Y-104492380D02*
X195968095Y-104492380D01*
X196253809Y-104492380D02*
X196253809Y-103492380D01*
X196158571Y-103635238D01*
X196063333Y-103730476D01*
X195968095Y-103778095D01*
X197158571Y-103492380D02*
X197253809Y-103492380D01*
X197349047Y-103540000D01*
X197396666Y-103587619D01*
X197444285Y-103682857D01*
X197491904Y-103873333D01*
X197491904Y-104111428D01*
X197444285Y-104301904D01*
X197396666Y-104397142D01*
X197349047Y-104444761D01*
X197253809Y-104492380D01*
X197158571Y-104492380D01*
X197063333Y-104444761D01*
X197015714Y-104397142D01*
X196968095Y-104301904D01*
X196920476Y-104111428D01*
X196920476Y-103873333D01*
X196968095Y-103682857D01*
X197015714Y-103587619D01*
X197063333Y-103540000D01*
X197158571Y-103492380D01*
X195531904Y-111492380D02*
X195531904Y-110492380D01*
X195770000Y-110492380D01*
X195912857Y-110540000D01*
X196008095Y-110635238D01*
X196055714Y-110730476D01*
X196103333Y-110920952D01*
X196103333Y-111063809D01*
X196055714Y-111254285D01*
X196008095Y-111349523D01*
X195912857Y-111444761D01*
X195770000Y-111492380D01*
X195531904Y-111492380D01*
X196674761Y-110920952D02*
X196579523Y-110873333D01*
X196531904Y-110825714D01*
X196484285Y-110730476D01*
X196484285Y-110682857D01*
X196531904Y-110587619D01*
X196579523Y-110540000D01*
X196674761Y-110492380D01*
X196865238Y-110492380D01*
X196960476Y-110540000D01*
X197008095Y-110587619D01*
X197055714Y-110682857D01*
X197055714Y-110730476D01*
X197008095Y-110825714D01*
X196960476Y-110873333D01*
X196865238Y-110920952D01*
X196674761Y-110920952D01*
X196579523Y-110968571D01*
X196531904Y-111016190D01*
X196484285Y-111111428D01*
X196484285Y-111301904D01*
X196531904Y-111397142D01*
X196579523Y-111444761D01*
X196674761Y-111492380D01*
X196865238Y-111492380D01*
X196960476Y-111444761D01*
X197008095Y-111397142D01*
X197055714Y-111301904D01*
X197055714Y-111111428D01*
X197008095Y-111016190D01*
X196960476Y-110968571D01*
X196865238Y-110920952D01*
X195531904Y-97492380D02*
X195531904Y-96492380D01*
X195770000Y-96492380D01*
X195912857Y-96540000D01*
X196008095Y-96635238D01*
X196055714Y-96730476D01*
X196103333Y-96920952D01*
X196103333Y-97063809D01*
X196055714Y-97254285D01*
X196008095Y-97349523D01*
X195912857Y-97444761D01*
X195770000Y-97492380D01*
X195531904Y-97492380D01*
X196436666Y-96492380D02*
X197103333Y-96492380D01*
X196674761Y-97492380D01*
X189952380Y-122988095D02*
X188952380Y-122988095D01*
X188952380Y-122750000D01*
X189000000Y-122607142D01*
X189095238Y-122511904D01*
X189190476Y-122464285D01*
X189380952Y-122416666D01*
X189523809Y-122416666D01*
X189714285Y-122464285D01*
X189809523Y-122511904D01*
X189904761Y-122607142D01*
X189952380Y-122750000D01*
X189952380Y-122988095D01*
X188952380Y-121559523D02*
X188952380Y-121750000D01*
X189000000Y-121845238D01*
X189047619Y-121892857D01*
X189190476Y-121988095D01*
X189380952Y-122035714D01*
X189761904Y-122035714D01*
X189857142Y-121988095D01*
X189904761Y-121940476D01*
X189952380Y-121845238D01*
X189952380Y-121654761D01*
X189904761Y-121559523D01*
X189857142Y-121511904D01*
X189761904Y-121464285D01*
X189523809Y-121464285D01*
X189428571Y-121511904D01*
X189380952Y-121559523D01*
X189333333Y-121654761D01*
X189333333Y-121845238D01*
X189380952Y-121940476D01*
X189428571Y-121988095D01*
X189523809Y-122035714D01*
X187832380Y-123952857D02*
X187832380Y-124524285D01*
X187832380Y-124238571D02*
X186832380Y-124238571D01*
X186975238Y-124333809D01*
X187070476Y-124429047D01*
X187118095Y-124524285D01*
X187832380Y-123524285D02*
X186832380Y-123524285D01*
X187832380Y-122952857D01*
X186832380Y-122952857D01*
X187165714Y-122048095D02*
X187832380Y-122048095D01*
X186784761Y-122286190D02*
X187499047Y-122524285D01*
X187499047Y-121905238D01*
X186832380Y-121333809D02*
X186832380Y-121238571D01*
X186880000Y-121143333D01*
X186927619Y-121095714D01*
X187022857Y-121048095D01*
X187213333Y-121000476D01*
X187451428Y-121000476D01*
X187641904Y-121048095D01*
X187737142Y-121095714D01*
X187784761Y-121143333D01*
X187832380Y-121238571D01*
X187832380Y-121333809D01*
X187784761Y-121429047D01*
X187737142Y-121476666D01*
X187641904Y-121524285D01*
X187451428Y-121571904D01*
X187213333Y-121571904D01*
X187022857Y-121524285D01*
X186927619Y-121476666D01*
X186880000Y-121429047D01*
X186832380Y-121333809D01*
X186832380Y-120381428D02*
X186832380Y-120286190D01*
X186880000Y-120190952D01*
X186927619Y-120143333D01*
X187022857Y-120095714D01*
X187213333Y-120048095D01*
X187451428Y-120048095D01*
X187641904Y-120095714D01*
X187737142Y-120143333D01*
X187784761Y-120190952D01*
X187832380Y-120286190D01*
X187832380Y-120381428D01*
X187784761Y-120476666D01*
X187737142Y-120524285D01*
X187641904Y-120571904D01*
X187451428Y-120619523D01*
X187213333Y-120619523D01*
X187022857Y-120571904D01*
X186927619Y-120524285D01*
X186880000Y-120476666D01*
X186832380Y-120381428D01*
X187165714Y-119190952D02*
X187832380Y-119190952D01*
X186784761Y-119429047D02*
X187499047Y-119667142D01*
X187499047Y-119048095D01*
X191752380Y-118261904D02*
X190752380Y-118261904D01*
X191752380Y-117690476D02*
X191180952Y-118119047D01*
X190752380Y-117690476D02*
X191323809Y-118261904D01*
X189952380Y-93488095D02*
X188952380Y-93488095D01*
X188952380Y-93250000D01*
X189000000Y-93107142D01*
X189095238Y-93011904D01*
X189190476Y-92964285D01*
X189380952Y-92916666D01*
X189523809Y-92916666D01*
X189714285Y-92964285D01*
X189809523Y-93011904D01*
X189904761Y-93107142D01*
X189952380Y-93250000D01*
X189952380Y-93488095D01*
X188952380Y-92011904D02*
X188952380Y-92488095D01*
X189428571Y-92535714D01*
X189380952Y-92488095D01*
X189333333Y-92392857D01*
X189333333Y-92154761D01*
X189380952Y-92059523D01*
X189428571Y-92011904D01*
X189523809Y-91964285D01*
X189761904Y-91964285D01*
X189857142Y-92011904D01*
X189904761Y-92059523D01*
X189952380Y-92154761D01*
X189952380Y-92392857D01*
X189904761Y-92488095D01*
X189857142Y-92535714D01*
X187832380Y-94452857D02*
X187832380Y-95024285D01*
X187832380Y-94738571D02*
X186832380Y-94738571D01*
X186975238Y-94833809D01*
X187070476Y-94929047D01*
X187118095Y-95024285D01*
X187832380Y-94024285D02*
X186832380Y-94024285D01*
X187832380Y-93452857D01*
X186832380Y-93452857D01*
X187165714Y-92548095D02*
X187832380Y-92548095D01*
X186784761Y-92786190D02*
X187499047Y-93024285D01*
X187499047Y-92405238D01*
X186832380Y-91833809D02*
X186832380Y-91738571D01*
X186880000Y-91643333D01*
X186927619Y-91595714D01*
X187022857Y-91548095D01*
X187213333Y-91500476D01*
X187451428Y-91500476D01*
X187641904Y-91548095D01*
X187737142Y-91595714D01*
X187784761Y-91643333D01*
X187832380Y-91738571D01*
X187832380Y-91833809D01*
X187784761Y-91929047D01*
X187737142Y-91976666D01*
X187641904Y-92024285D01*
X187451428Y-92071904D01*
X187213333Y-92071904D01*
X187022857Y-92024285D01*
X186927619Y-91976666D01*
X186880000Y-91929047D01*
X186832380Y-91833809D01*
X186832380Y-90881428D02*
X186832380Y-90786190D01*
X186880000Y-90690952D01*
X186927619Y-90643333D01*
X187022857Y-90595714D01*
X187213333Y-90548095D01*
X187451428Y-90548095D01*
X187641904Y-90595714D01*
X187737142Y-90643333D01*
X187784761Y-90690952D01*
X187832380Y-90786190D01*
X187832380Y-90881428D01*
X187784761Y-90976666D01*
X187737142Y-91024285D01*
X187641904Y-91071904D01*
X187451428Y-91119523D01*
X187213333Y-91119523D01*
X187022857Y-91071904D01*
X186927619Y-91024285D01*
X186880000Y-90976666D01*
X186832380Y-90881428D01*
X187165714Y-89690952D02*
X187832380Y-89690952D01*
X186784761Y-89929047D02*
X187499047Y-90167142D01*
X187499047Y-89548095D01*
X191752380Y-88761904D02*
X190752380Y-88761904D01*
X191752380Y-88190476D02*
X191180952Y-88619047D01*
X190752380Y-88190476D02*
X191323809Y-88761904D01*
X164202380Y-118738095D02*
X163202380Y-118738095D01*
X163202380Y-118500000D01*
X163250000Y-118357142D01*
X163345238Y-118261904D01*
X163440476Y-118214285D01*
X163630952Y-118166666D01*
X163773809Y-118166666D01*
X163964285Y-118214285D01*
X164059523Y-118261904D01*
X164154761Y-118357142D01*
X164202380Y-118500000D01*
X164202380Y-118738095D01*
X163535714Y-117309523D02*
X164202380Y-117309523D01*
X163154761Y-117547619D02*
X163869047Y-117785714D01*
X163869047Y-117166666D01*
X161607142Y-112452380D02*
X161035714Y-112452380D01*
X161321428Y-112452380D02*
X161321428Y-111452380D01*
X161226190Y-111595238D01*
X161130952Y-111690476D01*
X161035714Y-111738095D01*
X162035714Y-112452380D02*
X162035714Y-111452380D01*
X162607142Y-112452380D01*
X162607142Y-111452380D01*
X163511904Y-111785714D02*
X163511904Y-112452380D01*
X163273809Y-111404761D02*
X163035714Y-112119047D01*
X163654761Y-112119047D01*
X164226190Y-111452380D02*
X164321428Y-111452380D01*
X164416666Y-111500000D01*
X164464285Y-111547619D01*
X164511904Y-111642857D01*
X164559523Y-111833333D01*
X164559523Y-112071428D01*
X164511904Y-112261904D01*
X164464285Y-112357142D01*
X164416666Y-112404761D01*
X164321428Y-112452380D01*
X164226190Y-112452380D01*
X164130952Y-112404761D01*
X164083333Y-112357142D01*
X164035714Y-112261904D01*
X163988095Y-112071428D01*
X163988095Y-111833333D01*
X164035714Y-111642857D01*
X164083333Y-111547619D01*
X164130952Y-111500000D01*
X164226190Y-111452380D01*
X165178571Y-111452380D02*
X165273809Y-111452380D01*
X165369047Y-111500000D01*
X165416666Y-111547619D01*
X165464285Y-111642857D01*
X165511904Y-111833333D01*
X165511904Y-112071428D01*
X165464285Y-112261904D01*
X165416666Y-112357142D01*
X165369047Y-112404761D01*
X165273809Y-112452380D01*
X165178571Y-112452380D01*
X165083333Y-112404761D01*
X165035714Y-112357142D01*
X164988095Y-112261904D01*
X164940476Y-112071428D01*
X164940476Y-111833333D01*
X164988095Y-111642857D01*
X165035714Y-111547619D01*
X165083333Y-111500000D01*
X165178571Y-111452380D01*
X166369047Y-111785714D02*
X166369047Y-112452380D01*
X166130952Y-111404761D02*
X165892857Y-112119047D01*
X166511904Y-112119047D01*
X166002380Y-114261904D02*
X165002380Y-114261904D01*
X166002380Y-113690476D02*
X165430952Y-114119047D01*
X165002380Y-113690476D02*
X165573809Y-114261904D01*
X164202380Y-97238095D02*
X163202380Y-97238095D01*
X163202380Y-97000000D01*
X163250000Y-96857142D01*
X163345238Y-96761904D01*
X163440476Y-96714285D01*
X163630952Y-96666666D01*
X163773809Y-96666666D01*
X163964285Y-96714285D01*
X164059523Y-96761904D01*
X164154761Y-96857142D01*
X164202380Y-97000000D01*
X164202380Y-97238095D01*
X163202380Y-96333333D02*
X163202380Y-95714285D01*
X163583333Y-96047619D01*
X163583333Y-95904761D01*
X163630952Y-95809523D01*
X163678571Y-95761904D01*
X163773809Y-95714285D01*
X164011904Y-95714285D01*
X164107142Y-95761904D01*
X164154761Y-95809523D01*
X164202380Y-95904761D01*
X164202380Y-96190476D01*
X164154761Y-96285714D01*
X164107142Y-96333333D01*
X161607142Y-102452380D02*
X161035714Y-102452380D01*
X161321428Y-102452380D02*
X161321428Y-101452380D01*
X161226190Y-101595238D01*
X161130952Y-101690476D01*
X161035714Y-101738095D01*
X162035714Y-102452380D02*
X162035714Y-101452380D01*
X162607142Y-102452380D01*
X162607142Y-101452380D01*
X163511904Y-101785714D02*
X163511904Y-102452380D01*
X163273809Y-101404761D02*
X163035714Y-102119047D01*
X163654761Y-102119047D01*
X164226190Y-101452380D02*
X164321428Y-101452380D01*
X164416666Y-101500000D01*
X164464285Y-101547619D01*
X164511904Y-101642857D01*
X164559523Y-101833333D01*
X164559523Y-102071428D01*
X164511904Y-102261904D01*
X164464285Y-102357142D01*
X164416666Y-102404761D01*
X164321428Y-102452380D01*
X164226190Y-102452380D01*
X164130952Y-102404761D01*
X164083333Y-102357142D01*
X164035714Y-102261904D01*
X163988095Y-102071428D01*
X163988095Y-101833333D01*
X164035714Y-101642857D01*
X164083333Y-101547619D01*
X164130952Y-101500000D01*
X164226190Y-101452380D01*
X165178571Y-101452380D02*
X165273809Y-101452380D01*
X165369047Y-101500000D01*
X165416666Y-101547619D01*
X165464285Y-101642857D01*
X165511904Y-101833333D01*
X165511904Y-102071428D01*
X165464285Y-102261904D01*
X165416666Y-102357142D01*
X165369047Y-102404761D01*
X165273809Y-102452380D01*
X165178571Y-102452380D01*
X165083333Y-102404761D01*
X165035714Y-102357142D01*
X164988095Y-102261904D01*
X164940476Y-102071428D01*
X164940476Y-101833333D01*
X164988095Y-101642857D01*
X165035714Y-101547619D01*
X165083333Y-101500000D01*
X165178571Y-101452380D01*
X166369047Y-101785714D02*
X166369047Y-102452380D01*
X166130952Y-101404761D02*
X165892857Y-102119047D01*
X166511904Y-102119047D01*
X166002380Y-92761904D02*
X165002380Y-92761904D01*
X166002380Y-92190476D02*
X165430952Y-92619047D01*
X165002380Y-92190476D02*
X165573809Y-92761904D01*
X113511904Y-109452380D02*
X113511904Y-108452380D01*
X113750000Y-108452380D01*
X113892857Y-108500000D01*
X113988095Y-108595238D01*
X114035714Y-108690476D01*
X114083333Y-108880952D01*
X114083333Y-109023809D01*
X114035714Y-109214285D01*
X113988095Y-109309523D01*
X113892857Y-109404761D01*
X113750000Y-109452380D01*
X113511904Y-109452380D01*
X114464285Y-108547619D02*
X114511904Y-108500000D01*
X114607142Y-108452380D01*
X114845238Y-108452380D01*
X114940476Y-108500000D01*
X114988095Y-108547619D01*
X115035714Y-108642857D01*
X115035714Y-108738095D01*
X114988095Y-108880952D01*
X114416666Y-109452380D01*
X115035714Y-109452380D01*
X120107142Y-110702380D02*
X119535714Y-110702380D01*
X119821428Y-110702380D02*
X119821428Y-109702380D01*
X119726190Y-109845238D01*
X119630952Y-109940476D01*
X119535714Y-109988095D01*
X120535714Y-110702380D02*
X120535714Y-109702380D01*
X121107142Y-110702380D01*
X121107142Y-109702380D01*
X122011904Y-110035714D02*
X122011904Y-110702380D01*
X121773809Y-109654761D02*
X121535714Y-110369047D01*
X122154761Y-110369047D01*
X122726190Y-109702380D02*
X122821428Y-109702380D01*
X122916666Y-109750000D01*
X122964285Y-109797619D01*
X123011904Y-109892857D01*
X123059523Y-110083333D01*
X123059523Y-110321428D01*
X123011904Y-110511904D01*
X122964285Y-110607142D01*
X122916666Y-110654761D01*
X122821428Y-110702380D01*
X122726190Y-110702380D01*
X122630952Y-110654761D01*
X122583333Y-110607142D01*
X122535714Y-110511904D01*
X122488095Y-110321428D01*
X122488095Y-110083333D01*
X122535714Y-109892857D01*
X122583333Y-109797619D01*
X122630952Y-109750000D01*
X122726190Y-109702380D01*
X123678571Y-109702380D02*
X123773809Y-109702380D01*
X123869047Y-109750000D01*
X123916666Y-109797619D01*
X123964285Y-109892857D01*
X124011904Y-110083333D01*
X124011904Y-110321428D01*
X123964285Y-110511904D01*
X123916666Y-110607142D01*
X123869047Y-110654761D01*
X123773809Y-110702380D01*
X123678571Y-110702380D01*
X123583333Y-110654761D01*
X123535714Y-110607142D01*
X123488095Y-110511904D01*
X123440476Y-110321428D01*
X123440476Y-110083333D01*
X123488095Y-109892857D01*
X123535714Y-109797619D01*
X123583333Y-109750000D01*
X123678571Y-109702380D01*
X124869047Y-110035714D02*
X124869047Y-110702380D01*
X124630952Y-109654761D02*
X124392857Y-110369047D01*
X125011904Y-110369047D01*
X110138095Y-107652380D02*
X110138095Y-106652380D01*
X110709523Y-107652380D02*
X110280952Y-107080952D01*
X110709523Y-106652380D02*
X110138095Y-107223809D01*
X113261904Y-105452380D02*
X113261904Y-104452380D01*
X113500000Y-104452380D01*
X113642857Y-104500000D01*
X113738095Y-104595238D01*
X113785714Y-104690476D01*
X113833333Y-104880952D01*
X113833333Y-105023809D01*
X113785714Y-105214285D01*
X113738095Y-105309523D01*
X113642857Y-105404761D01*
X113500000Y-105452380D01*
X113261904Y-105452380D01*
X114785714Y-105452380D02*
X114214285Y-105452380D01*
X114500000Y-105452380D02*
X114500000Y-104452380D01*
X114404761Y-104595238D01*
X114309523Y-104690476D01*
X114214285Y-104738095D01*
X120107142Y-104202380D02*
X119535714Y-104202380D01*
X119821428Y-104202380D02*
X119821428Y-103202380D01*
X119726190Y-103345238D01*
X119630952Y-103440476D01*
X119535714Y-103488095D01*
X120535714Y-104202380D02*
X120535714Y-103202380D01*
X121107142Y-104202380D01*
X121107142Y-103202380D01*
X122011904Y-103535714D02*
X122011904Y-104202380D01*
X121773809Y-103154761D02*
X121535714Y-103869047D01*
X122154761Y-103869047D01*
X122726190Y-103202380D02*
X122821428Y-103202380D01*
X122916666Y-103250000D01*
X122964285Y-103297619D01*
X123011904Y-103392857D01*
X123059523Y-103583333D01*
X123059523Y-103821428D01*
X123011904Y-104011904D01*
X122964285Y-104107142D01*
X122916666Y-104154761D01*
X122821428Y-104202380D01*
X122726190Y-104202380D01*
X122630952Y-104154761D01*
X122583333Y-104107142D01*
X122535714Y-104011904D01*
X122488095Y-103821428D01*
X122488095Y-103583333D01*
X122535714Y-103392857D01*
X122583333Y-103297619D01*
X122630952Y-103250000D01*
X122726190Y-103202380D01*
X123678571Y-103202380D02*
X123773809Y-103202380D01*
X123869047Y-103250000D01*
X123916666Y-103297619D01*
X123964285Y-103392857D01*
X124011904Y-103583333D01*
X124011904Y-103821428D01*
X123964285Y-104011904D01*
X123916666Y-104107142D01*
X123869047Y-104154761D01*
X123773809Y-104202380D01*
X123678571Y-104202380D01*
X123583333Y-104154761D01*
X123535714Y-104107142D01*
X123488095Y-104011904D01*
X123440476Y-103821428D01*
X123440476Y-103583333D01*
X123488095Y-103392857D01*
X123535714Y-103297619D01*
X123583333Y-103250000D01*
X123678571Y-103202380D01*
X124869047Y-103535714D02*
X124869047Y-104202380D01*
X124630952Y-103154761D02*
X124392857Y-103869047D01*
X125011904Y-103869047D01*
X117738095Y-107252380D02*
X117738095Y-106252380D01*
X118309523Y-107252380D02*
X117880952Y-106680952D01*
X118309523Y-106252380D02*
X117738095Y-106823809D01*
X123833333Y-107857142D02*
X123785714Y-107904761D01*
X123642857Y-107952380D01*
X123547619Y-107952380D01*
X123404761Y-107904761D01*
X123309523Y-107809523D01*
X123261904Y-107714285D01*
X123214285Y-107523809D01*
X123214285Y-107380952D01*
X123261904Y-107190476D01*
X123309523Y-107095238D01*
X123404761Y-107000000D01*
X123547619Y-106952380D01*
X123642857Y-106952380D01*
X123785714Y-107000000D01*
X123833333Y-107047619D01*
X124404761Y-107380952D02*
X124309523Y-107333333D01*
X124261904Y-107285714D01*
X124214285Y-107190476D01*
X124214285Y-107142857D01*
X124261904Y-107047619D01*
X124309523Y-107000000D01*
X124404761Y-106952380D01*
X124595238Y-106952380D01*
X124690476Y-107000000D01*
X124738095Y-107047619D01*
X124785714Y-107142857D01*
X124785714Y-107190476D01*
X124738095Y-107285714D01*
X124690476Y-107333333D01*
X124595238Y-107380952D01*
X124404761Y-107380952D01*
X124309523Y-107428571D01*
X124261904Y-107476190D01*
X124214285Y-107571428D01*
X124214285Y-107761904D01*
X124261904Y-107857142D01*
X124309523Y-107904761D01*
X124404761Y-107952380D01*
X124595238Y-107952380D01*
X124690476Y-107904761D01*
X124738095Y-107857142D01*
X124785714Y-107761904D01*
X124785714Y-107571428D01*
X124738095Y-107476190D01*
X124690476Y-107428571D01*
X124595238Y-107380952D01*
X128107142Y-106952380D02*
X128202380Y-106952380D01*
X128297619Y-107000000D01*
X128345238Y-107047619D01*
X128392857Y-107142857D01*
X128440476Y-107333333D01*
X128440476Y-107571428D01*
X128392857Y-107761904D01*
X128345238Y-107857142D01*
X128297619Y-107904761D01*
X128202380Y-107952380D01*
X128107142Y-107952380D01*
X128011904Y-107904761D01*
X127964285Y-107857142D01*
X127916666Y-107761904D01*
X127869047Y-107571428D01*
X127869047Y-107333333D01*
X127916666Y-107142857D01*
X127964285Y-107047619D01*
X128011904Y-107000000D01*
X128107142Y-106952380D01*
X128869047Y-107857142D02*
X128916666Y-107904761D01*
X128869047Y-107952380D01*
X128821428Y-107904761D01*
X128869047Y-107857142D01*
X128869047Y-107952380D01*
X129869047Y-107952380D02*
X129297619Y-107952380D01*
X129583333Y-107952380D02*
X129583333Y-106952380D01*
X129488095Y-107095238D01*
X129392857Y-107190476D01*
X129297619Y-107238095D01*
X130726190Y-107285714D02*
X130726190Y-107952380D01*
X130297619Y-107285714D02*
X130297619Y-107809523D01*
X130345238Y-107904761D01*
X130440476Y-107952380D01*
X130583333Y-107952380D01*
X130678571Y-107904761D01*
X130726190Y-107857142D01*
X131535714Y-107428571D02*
X131202380Y-107428571D01*
X131202380Y-107952380D02*
X131202380Y-106952380D01*
X131678571Y-106952380D01*
X143833333Y-107857142D02*
X143785714Y-107904761D01*
X143642857Y-107952380D01*
X143547619Y-107952380D01*
X143404761Y-107904761D01*
X143309523Y-107809523D01*
X143261904Y-107714285D01*
X143214285Y-107523809D01*
X143214285Y-107380952D01*
X143261904Y-107190476D01*
X143309523Y-107095238D01*
X143404761Y-107000000D01*
X143547619Y-106952380D01*
X143642857Y-106952380D01*
X143785714Y-107000000D01*
X143833333Y-107047619D01*
X144166666Y-106952380D02*
X144833333Y-106952380D01*
X144404761Y-107952380D01*
X142357142Y-109452380D02*
X142452380Y-109452380D01*
X142547619Y-109500000D01*
X142595238Y-109547619D01*
X142642857Y-109642857D01*
X142690476Y-109833333D01*
X142690476Y-110071428D01*
X142642857Y-110261904D01*
X142595238Y-110357142D01*
X142547619Y-110404761D01*
X142452380Y-110452380D01*
X142357142Y-110452380D01*
X142261904Y-110404761D01*
X142214285Y-110357142D01*
X142166666Y-110261904D01*
X142119047Y-110071428D01*
X142119047Y-109833333D01*
X142166666Y-109642857D01*
X142214285Y-109547619D01*
X142261904Y-109500000D01*
X142357142Y-109452380D01*
X143119047Y-110357142D02*
X143166666Y-110404761D01*
X143119047Y-110452380D01*
X143071428Y-110404761D01*
X143119047Y-110357142D01*
X143119047Y-110452380D01*
X144119047Y-110452380D02*
X143547619Y-110452380D01*
X143833333Y-110452380D02*
X143833333Y-109452380D01*
X143738095Y-109595238D01*
X143642857Y-109690476D01*
X143547619Y-109738095D01*
X144976190Y-109785714D02*
X144976190Y-110452380D01*
X144547619Y-109785714D02*
X144547619Y-110309523D01*
X144595238Y-110404761D01*
X144690476Y-110452380D01*
X144833333Y-110452380D01*
X144928571Y-110404761D01*
X144976190Y-110357142D01*
X145785714Y-109928571D02*
X145452380Y-109928571D01*
X145452380Y-110452380D02*
X145452380Y-109452380D01*
X145928571Y-109452380D01*
X160833333Y-126357142D02*
X160785714Y-126404761D01*
X160642857Y-126452380D01*
X160547619Y-126452380D01*
X160404761Y-126404761D01*
X160309523Y-126309523D01*
X160261904Y-126214285D01*
X160214285Y-126023809D01*
X160214285Y-125880952D01*
X160261904Y-125690476D01*
X160309523Y-125595238D01*
X160404761Y-125500000D01*
X160547619Y-125452380D01*
X160642857Y-125452380D01*
X160785714Y-125500000D01*
X160833333Y-125547619D01*
X161690476Y-125452380D02*
X161500000Y-125452380D01*
X161404761Y-125500000D01*
X161357142Y-125547619D01*
X161261904Y-125690476D01*
X161214285Y-125880952D01*
X161214285Y-126261904D01*
X161261904Y-126357142D01*
X161309523Y-126404761D01*
X161404761Y-126452380D01*
X161595238Y-126452380D01*
X161690476Y-126404761D01*
X161738095Y-126357142D01*
X161785714Y-126261904D01*
X161785714Y-126023809D01*
X161738095Y-125928571D01*
X161690476Y-125880952D01*
X161595238Y-125833333D01*
X161404761Y-125833333D01*
X161309523Y-125880952D01*
X161261904Y-125928571D01*
X161214285Y-126023809D01*
X144535714Y-121369047D02*
X145202380Y-121369047D01*
X144154761Y-121607142D02*
X144869047Y-121845238D01*
X144869047Y-121226190D01*
X144202380Y-120940476D02*
X144202380Y-120273809D01*
X145202380Y-120702380D01*
X144202380Y-119702380D02*
X144202380Y-119607142D01*
X144250000Y-119511904D01*
X144297619Y-119464285D01*
X144392857Y-119416666D01*
X144583333Y-119369047D01*
X144821428Y-119369047D01*
X145011904Y-119416666D01*
X145107142Y-119464285D01*
X145154761Y-119511904D01*
X145202380Y-119607142D01*
X145202380Y-119702380D01*
X145154761Y-119797619D01*
X145107142Y-119845238D01*
X145011904Y-119892857D01*
X144821428Y-119940476D01*
X144583333Y-119940476D01*
X144392857Y-119892857D01*
X144297619Y-119845238D01*
X144250000Y-119797619D01*
X144202380Y-119702380D01*
X144202380Y-118750000D02*
X144202380Y-118654761D01*
X144250000Y-118559523D01*
X144297619Y-118511904D01*
X144392857Y-118464285D01*
X144583333Y-118416666D01*
X144821428Y-118416666D01*
X145011904Y-118464285D01*
X145107142Y-118511904D01*
X145154761Y-118559523D01*
X145202380Y-118654761D01*
X145202380Y-118750000D01*
X145154761Y-118845238D01*
X145107142Y-118892857D01*
X145011904Y-118940476D01*
X144821428Y-118988095D01*
X144583333Y-118988095D01*
X144392857Y-118940476D01*
X144297619Y-118892857D01*
X144250000Y-118845238D01*
X144202380Y-118750000D01*
X144535714Y-117559523D02*
X145202380Y-117559523D01*
X144535714Y-117988095D02*
X145059523Y-117988095D01*
X145154761Y-117940476D01*
X145202380Y-117845238D01*
X145202380Y-117702380D01*
X145154761Y-117607142D01*
X145107142Y-117559523D01*
X144678571Y-116750000D02*
X144678571Y-117083333D01*
X145202380Y-117083333D02*
X144202380Y-117083333D01*
X144202380Y-116607142D01*
X161333333Y-89107142D02*
X161285714Y-89154761D01*
X161142857Y-89202380D01*
X161047619Y-89202380D01*
X160904761Y-89154761D01*
X160809523Y-89059523D01*
X160761904Y-88964285D01*
X160714285Y-88773809D01*
X160714285Y-88630952D01*
X160761904Y-88440476D01*
X160809523Y-88345238D01*
X160904761Y-88250000D01*
X161047619Y-88202380D01*
X161142857Y-88202380D01*
X161285714Y-88250000D01*
X161333333Y-88297619D01*
X162238095Y-88202380D02*
X161761904Y-88202380D01*
X161714285Y-88678571D01*
X161761904Y-88630952D01*
X161857142Y-88583333D01*
X162095238Y-88583333D01*
X162190476Y-88630952D01*
X162238095Y-88678571D01*
X162285714Y-88773809D01*
X162285714Y-89011904D01*
X162238095Y-89107142D01*
X162190476Y-89154761D01*
X162095238Y-89202380D01*
X161857142Y-89202380D01*
X161761904Y-89154761D01*
X161714285Y-89107142D01*
X144535714Y-96869047D02*
X145202380Y-96869047D01*
X144154761Y-97107142D02*
X144869047Y-97345238D01*
X144869047Y-96726190D01*
X144202380Y-96440476D02*
X144202380Y-95773809D01*
X145202380Y-96202380D01*
X144202380Y-95202380D02*
X144202380Y-95107142D01*
X144250000Y-95011904D01*
X144297619Y-94964285D01*
X144392857Y-94916666D01*
X144583333Y-94869047D01*
X144821428Y-94869047D01*
X145011904Y-94916666D01*
X145107142Y-94964285D01*
X145154761Y-95011904D01*
X145202380Y-95107142D01*
X145202380Y-95202380D01*
X145154761Y-95297619D01*
X145107142Y-95345238D01*
X145011904Y-95392857D01*
X144821428Y-95440476D01*
X144583333Y-95440476D01*
X144392857Y-95392857D01*
X144297619Y-95345238D01*
X144250000Y-95297619D01*
X144202380Y-95202380D01*
X144202380Y-94250000D02*
X144202380Y-94154761D01*
X144250000Y-94059523D01*
X144297619Y-94011904D01*
X144392857Y-93964285D01*
X144583333Y-93916666D01*
X144821428Y-93916666D01*
X145011904Y-93964285D01*
X145107142Y-94011904D01*
X145154761Y-94059523D01*
X145202380Y-94154761D01*
X145202380Y-94250000D01*
X145154761Y-94345238D01*
X145107142Y-94392857D01*
X145011904Y-94440476D01*
X144821428Y-94488095D01*
X144583333Y-94488095D01*
X144392857Y-94440476D01*
X144297619Y-94392857D01*
X144250000Y-94345238D01*
X144202380Y-94250000D01*
X144535714Y-93059523D02*
X145202380Y-93059523D01*
X144535714Y-93488095D02*
X145059523Y-93488095D01*
X145154761Y-93440476D01*
X145202380Y-93345238D01*
X145202380Y-93202380D01*
X145154761Y-93107142D01*
X145107142Y-93059523D01*
X144678571Y-92250000D02*
X144678571Y-92583333D01*
X145202380Y-92583333D02*
X144202380Y-92583333D01*
X144202380Y-92107142D01*
X141083333Y-126357142D02*
X141035714Y-126404761D01*
X140892857Y-126452380D01*
X140797619Y-126452380D01*
X140654761Y-126404761D01*
X140559523Y-126309523D01*
X140511904Y-126214285D01*
X140464285Y-126023809D01*
X140464285Y-125880952D01*
X140511904Y-125690476D01*
X140559523Y-125595238D01*
X140654761Y-125500000D01*
X140797619Y-125452380D01*
X140892857Y-125452380D01*
X141035714Y-125500000D01*
X141083333Y-125547619D01*
X141940476Y-125785714D02*
X141940476Y-126452380D01*
X141702380Y-125404761D02*
X141464285Y-126119047D01*
X142083333Y-126119047D01*
X124535714Y-121369047D02*
X125202380Y-121369047D01*
X124154761Y-121607142D02*
X124869047Y-121845238D01*
X124869047Y-121226190D01*
X124202380Y-120940476D02*
X124202380Y-120273809D01*
X125202380Y-120702380D01*
X124202380Y-119702380D02*
X124202380Y-119607142D01*
X124250000Y-119511904D01*
X124297619Y-119464285D01*
X124392857Y-119416666D01*
X124583333Y-119369047D01*
X124821428Y-119369047D01*
X125011904Y-119416666D01*
X125107142Y-119464285D01*
X125154761Y-119511904D01*
X125202380Y-119607142D01*
X125202380Y-119702380D01*
X125154761Y-119797619D01*
X125107142Y-119845238D01*
X125011904Y-119892857D01*
X124821428Y-119940476D01*
X124583333Y-119940476D01*
X124392857Y-119892857D01*
X124297619Y-119845238D01*
X124250000Y-119797619D01*
X124202380Y-119702380D01*
X124202380Y-118750000D02*
X124202380Y-118654761D01*
X124250000Y-118559523D01*
X124297619Y-118511904D01*
X124392857Y-118464285D01*
X124583333Y-118416666D01*
X124821428Y-118416666D01*
X125011904Y-118464285D01*
X125107142Y-118511904D01*
X125154761Y-118559523D01*
X125202380Y-118654761D01*
X125202380Y-118750000D01*
X125154761Y-118845238D01*
X125107142Y-118892857D01*
X125011904Y-118940476D01*
X124821428Y-118988095D01*
X124583333Y-118988095D01*
X124392857Y-118940476D01*
X124297619Y-118892857D01*
X124250000Y-118845238D01*
X124202380Y-118750000D01*
X124535714Y-117559523D02*
X125202380Y-117559523D01*
X124535714Y-117988095D02*
X125059523Y-117988095D01*
X125154761Y-117940476D01*
X125202380Y-117845238D01*
X125202380Y-117702380D01*
X125154761Y-117607142D01*
X125107142Y-117559523D01*
X124678571Y-116750000D02*
X124678571Y-117083333D01*
X125202380Y-117083333D02*
X124202380Y-117083333D01*
X124202380Y-116607142D01*
X141333333Y-89107142D02*
X141285714Y-89154761D01*
X141142857Y-89202380D01*
X141047619Y-89202380D01*
X140904761Y-89154761D01*
X140809523Y-89059523D01*
X140761904Y-88964285D01*
X140714285Y-88773809D01*
X140714285Y-88630952D01*
X140761904Y-88440476D01*
X140809523Y-88345238D01*
X140904761Y-88250000D01*
X141047619Y-88202380D01*
X141142857Y-88202380D01*
X141285714Y-88250000D01*
X141333333Y-88297619D01*
X141666666Y-88202380D02*
X142285714Y-88202380D01*
X141952380Y-88583333D01*
X142095238Y-88583333D01*
X142190476Y-88630952D01*
X142238095Y-88678571D01*
X142285714Y-88773809D01*
X142285714Y-89011904D01*
X142238095Y-89107142D01*
X142190476Y-89154761D01*
X142095238Y-89202380D01*
X141809523Y-89202380D01*
X141714285Y-89154761D01*
X141666666Y-89107142D01*
X124535714Y-96869047D02*
X125202380Y-96869047D01*
X124154761Y-97107142D02*
X124869047Y-97345238D01*
X124869047Y-96726190D01*
X124202380Y-96440476D02*
X124202380Y-95773809D01*
X125202380Y-96202380D01*
X124202380Y-95202380D02*
X124202380Y-95107142D01*
X124250000Y-95011904D01*
X124297619Y-94964285D01*
X124392857Y-94916666D01*
X124583333Y-94869047D01*
X124821428Y-94869047D01*
X125011904Y-94916666D01*
X125107142Y-94964285D01*
X125154761Y-95011904D01*
X125202380Y-95107142D01*
X125202380Y-95202380D01*
X125154761Y-95297619D01*
X125107142Y-95345238D01*
X125011904Y-95392857D01*
X124821428Y-95440476D01*
X124583333Y-95440476D01*
X124392857Y-95392857D01*
X124297619Y-95345238D01*
X124250000Y-95297619D01*
X124202380Y-95202380D01*
X124202380Y-94250000D02*
X124202380Y-94154761D01*
X124250000Y-94059523D01*
X124297619Y-94011904D01*
X124392857Y-93964285D01*
X124583333Y-93916666D01*
X124821428Y-93916666D01*
X125011904Y-93964285D01*
X125107142Y-94011904D01*
X125154761Y-94059523D01*
X125202380Y-94154761D01*
X125202380Y-94250000D01*
X125154761Y-94345238D01*
X125107142Y-94392857D01*
X125011904Y-94440476D01*
X124821428Y-94488095D01*
X124583333Y-94488095D01*
X124392857Y-94440476D01*
X124297619Y-94392857D01*
X124250000Y-94345238D01*
X124202380Y-94250000D01*
X124535714Y-93059523D02*
X125202380Y-93059523D01*
X124535714Y-93488095D02*
X125059523Y-93488095D01*
X125154761Y-93440476D01*
X125202380Y-93345238D01*
X125202380Y-93202380D01*
X125154761Y-93107142D01*
X125107142Y-93059523D01*
X124678571Y-92250000D02*
X124678571Y-92583333D01*
X125202380Y-92583333D02*
X124202380Y-92583333D01*
X124202380Y-92107142D01*
X120833333Y-126357142D02*
X120785714Y-126404761D01*
X120642857Y-126452380D01*
X120547619Y-126452380D01*
X120404761Y-126404761D01*
X120309523Y-126309523D01*
X120261904Y-126214285D01*
X120214285Y-126023809D01*
X120214285Y-125880952D01*
X120261904Y-125690476D01*
X120309523Y-125595238D01*
X120404761Y-125500000D01*
X120547619Y-125452380D01*
X120642857Y-125452380D01*
X120785714Y-125500000D01*
X120833333Y-125547619D01*
X121214285Y-125547619D02*
X121261904Y-125500000D01*
X121357142Y-125452380D01*
X121595238Y-125452380D01*
X121690476Y-125500000D01*
X121738095Y-125547619D01*
X121785714Y-125642857D01*
X121785714Y-125738095D01*
X121738095Y-125880952D01*
X121166666Y-126452380D01*
X121785714Y-126452380D01*
X104535714Y-121369047D02*
X105202380Y-121369047D01*
X104154761Y-121607142D02*
X104869047Y-121845238D01*
X104869047Y-121226190D01*
X104202380Y-120940476D02*
X104202380Y-120273809D01*
X105202380Y-120702380D01*
X104202380Y-119702380D02*
X104202380Y-119607142D01*
X104250000Y-119511904D01*
X104297619Y-119464285D01*
X104392857Y-119416666D01*
X104583333Y-119369047D01*
X104821428Y-119369047D01*
X105011904Y-119416666D01*
X105107142Y-119464285D01*
X105154761Y-119511904D01*
X105202380Y-119607142D01*
X105202380Y-119702380D01*
X105154761Y-119797619D01*
X105107142Y-119845238D01*
X105011904Y-119892857D01*
X104821428Y-119940476D01*
X104583333Y-119940476D01*
X104392857Y-119892857D01*
X104297619Y-119845238D01*
X104250000Y-119797619D01*
X104202380Y-119702380D01*
X104202380Y-118750000D02*
X104202380Y-118654761D01*
X104250000Y-118559523D01*
X104297619Y-118511904D01*
X104392857Y-118464285D01*
X104583333Y-118416666D01*
X104821428Y-118416666D01*
X105011904Y-118464285D01*
X105107142Y-118511904D01*
X105154761Y-118559523D01*
X105202380Y-118654761D01*
X105202380Y-118750000D01*
X105154761Y-118845238D01*
X105107142Y-118892857D01*
X105011904Y-118940476D01*
X104821428Y-118988095D01*
X104583333Y-118988095D01*
X104392857Y-118940476D01*
X104297619Y-118892857D01*
X104250000Y-118845238D01*
X104202380Y-118750000D01*
X104535714Y-117559523D02*
X105202380Y-117559523D01*
X104535714Y-117988095D02*
X105059523Y-117988095D01*
X105154761Y-117940476D01*
X105202380Y-117845238D01*
X105202380Y-117702380D01*
X105154761Y-117607142D01*
X105107142Y-117559523D01*
X104678571Y-116750000D02*
X104678571Y-117083333D01*
X105202380Y-117083333D02*
X104202380Y-117083333D01*
X104202380Y-116607142D01*
X121333333Y-89107142D02*
X121285714Y-89154761D01*
X121142857Y-89202380D01*
X121047619Y-89202380D01*
X120904761Y-89154761D01*
X120809523Y-89059523D01*
X120761904Y-88964285D01*
X120714285Y-88773809D01*
X120714285Y-88630952D01*
X120761904Y-88440476D01*
X120809523Y-88345238D01*
X120904761Y-88250000D01*
X121047619Y-88202380D01*
X121142857Y-88202380D01*
X121285714Y-88250000D01*
X121333333Y-88297619D01*
X122285714Y-89202380D02*
X121714285Y-89202380D01*
X122000000Y-89202380D02*
X122000000Y-88202380D01*
X121904761Y-88345238D01*
X121809523Y-88440476D01*
X121714285Y-88488095D01*
X104535714Y-96869047D02*
X105202380Y-96869047D01*
X104154761Y-97107142D02*
X104869047Y-97345238D01*
X104869047Y-96726190D01*
X104202380Y-96440476D02*
X104202380Y-95773809D01*
X105202380Y-96202380D01*
X104202380Y-95202380D02*
X104202380Y-95107142D01*
X104250000Y-95011904D01*
X104297619Y-94964285D01*
X104392857Y-94916666D01*
X104583333Y-94869047D01*
X104821428Y-94869047D01*
X105011904Y-94916666D01*
X105107142Y-94964285D01*
X105154761Y-95011904D01*
X105202380Y-95107142D01*
X105202380Y-95202380D01*
X105154761Y-95297619D01*
X105107142Y-95345238D01*
X105011904Y-95392857D01*
X104821428Y-95440476D01*
X104583333Y-95440476D01*
X104392857Y-95392857D01*
X104297619Y-95345238D01*
X104250000Y-95297619D01*
X104202380Y-95202380D01*
X104202380Y-94250000D02*
X104202380Y-94154761D01*
X104250000Y-94059523D01*
X104297619Y-94011904D01*
X104392857Y-93964285D01*
X104583333Y-93916666D01*
X104821428Y-93916666D01*
X105011904Y-93964285D01*
X105107142Y-94011904D01*
X105154761Y-94059523D01*
X105202380Y-94154761D01*
X105202380Y-94250000D01*
X105154761Y-94345238D01*
X105107142Y-94392857D01*
X105011904Y-94440476D01*
X104821428Y-94488095D01*
X104583333Y-94488095D01*
X104392857Y-94440476D01*
X104297619Y-94392857D01*
X104250000Y-94345238D01*
X104202380Y-94250000D01*
X104535714Y-93059523D02*
X105202380Y-93059523D01*
X104535714Y-93488095D02*
X105059523Y-93488095D01*
X105154761Y-93440476D01*
X105202380Y-93345238D01*
X105202380Y-93202380D01*
X105154761Y-93107142D01*
X105107142Y-93059523D01*
X104678571Y-92250000D02*
X104678571Y-92583333D01*
X105202380Y-92583333D02*
X104202380Y-92583333D01*
X104202380Y-92107142D01*
X202396666Y-94682380D02*
X202396666Y-95396666D01*
X202349047Y-95539523D01*
X202253809Y-95634761D01*
X202110952Y-95682380D01*
X202015714Y-95682380D01*
X203396666Y-95682380D02*
X202825238Y-95682380D01*
X203110952Y-95682380D02*
X203110952Y-94682380D01*
X203015714Y-94825238D01*
X202920476Y-94920476D01*
X202825238Y-94968095D01*
M02*
