G04 #@! TF.GenerationSoftware,KiCad,Pcbnew,(5.1.4-0-10_14)*
G04 #@! TF.CreationDate,2020-11-07T23:41:15-06:00*
G04 #@! TF.ProjectId,Eurorack_PSU,4575726f-7261-4636-9b5f-5053552e6b69,rev?*
G04 #@! TF.SameCoordinates,Original*
G04 #@! TF.FileFunction,Soldermask,Top*
G04 #@! TF.FilePolarity,Negative*
%FSLAX46Y46*%
G04 Gerber Fmt 4.6, Leading zero omitted, Abs format (unit mm)*
G04 Created by KiCad (PCBNEW (5.1.4-0-10_14)) date 2020-11-07 23:41:15*
%MOMM*%
%LPD*%
G04 APERTURE LIST*
%ADD10C,0.100000*%
G04 APERTURE END LIST*
D10*
G36*
X206302585Y-123478802D02*
G01*
X206452410Y-123508604D01*
X206734674Y-123625521D01*
X206988705Y-123795259D01*
X207204741Y-124011295D01*
X207374479Y-124265326D01*
X207491396Y-124547590D01*
X207491396Y-124547591D01*
X207545243Y-124818295D01*
X207551000Y-124847240D01*
X207551000Y-125152760D01*
X207491396Y-125452410D01*
X207374479Y-125734674D01*
X207204741Y-125988705D01*
X206988705Y-126204741D01*
X206734674Y-126374479D01*
X206452410Y-126491396D01*
X206302585Y-126521198D01*
X206152761Y-126551000D01*
X205847239Y-126551000D01*
X205697415Y-126521198D01*
X205547590Y-126491396D01*
X205265326Y-126374479D01*
X205011295Y-126204741D01*
X204795259Y-125988705D01*
X204625521Y-125734674D01*
X204508604Y-125452410D01*
X204449000Y-125152760D01*
X204449000Y-124847240D01*
X204454758Y-124818295D01*
X204508604Y-124547591D01*
X204508604Y-124547590D01*
X204625521Y-124265326D01*
X204795259Y-124011295D01*
X205011295Y-123795259D01*
X205265326Y-123625521D01*
X205547590Y-123508604D01*
X205697415Y-123478802D01*
X205847239Y-123449000D01*
X206152761Y-123449000D01*
X206302585Y-123478802D01*
X206302585Y-123478802D01*
G37*
G36*
X102302585Y-123478802D02*
G01*
X102452410Y-123508604D01*
X102734674Y-123625521D01*
X102988705Y-123795259D01*
X103204741Y-124011295D01*
X103374479Y-124265326D01*
X103491396Y-124547590D01*
X103491396Y-124547591D01*
X103545243Y-124818295D01*
X103551000Y-124847240D01*
X103551000Y-125152760D01*
X103491396Y-125452410D01*
X103374479Y-125734674D01*
X103204741Y-125988705D01*
X102988705Y-126204741D01*
X102734674Y-126374479D01*
X102452410Y-126491396D01*
X102302585Y-126521198D01*
X102152761Y-126551000D01*
X101847239Y-126551000D01*
X101697415Y-126521198D01*
X101547590Y-126491396D01*
X101265326Y-126374479D01*
X101011295Y-126204741D01*
X100795259Y-125988705D01*
X100625521Y-125734674D01*
X100508604Y-125452410D01*
X100449000Y-125152760D01*
X100449000Y-124847240D01*
X100454758Y-124818295D01*
X100508604Y-124547591D01*
X100508604Y-124547590D01*
X100625521Y-124265326D01*
X100795259Y-124011295D01*
X101011295Y-123795259D01*
X101265326Y-123625521D01*
X101547590Y-123508604D01*
X101697415Y-123478802D01*
X101847239Y-123449000D01*
X102152761Y-123449000D01*
X102302585Y-123478802D01*
X102302585Y-123478802D01*
G37*
G36*
X189666823Y-124781313D02*
G01*
X189827242Y-124829976D01*
X189959906Y-124900886D01*
X189975078Y-124908996D01*
X190104659Y-125015341D01*
X190211004Y-125144922D01*
X190211005Y-125144924D01*
X190290024Y-125292758D01*
X190338687Y-125453177D01*
X190355117Y-125620000D01*
X190338687Y-125786823D01*
X190290024Y-125947242D01*
X190219114Y-126079906D01*
X190211004Y-126095078D01*
X190104659Y-126224659D01*
X189975078Y-126331004D01*
X189975076Y-126331005D01*
X189827242Y-126410024D01*
X189666823Y-126458687D01*
X189541804Y-126471000D01*
X189458196Y-126471000D01*
X189333177Y-126458687D01*
X189172758Y-126410024D01*
X189024924Y-126331005D01*
X189024922Y-126331004D01*
X188895341Y-126224659D01*
X188788996Y-126095078D01*
X188780886Y-126079906D01*
X188709976Y-125947242D01*
X188661313Y-125786823D01*
X188644883Y-125620000D01*
X188661313Y-125453177D01*
X188709976Y-125292758D01*
X188788995Y-125144924D01*
X188788996Y-125144922D01*
X188895341Y-125015341D01*
X189024922Y-124908996D01*
X189040094Y-124900886D01*
X189172758Y-124829976D01*
X189333177Y-124781313D01*
X189458196Y-124769000D01*
X189541804Y-124769000D01*
X189666823Y-124781313D01*
X189666823Y-124781313D01*
G37*
G36*
X195748228Y-123181703D02*
G01*
X195903100Y-123245853D01*
X196042481Y-123338985D01*
X196161015Y-123457519D01*
X196254147Y-123596900D01*
X196318297Y-123751772D01*
X196351000Y-123916184D01*
X196351000Y-124083816D01*
X196318297Y-124248228D01*
X196254147Y-124403100D01*
X196161015Y-124542481D01*
X196042481Y-124661015D01*
X195903100Y-124754147D01*
X195748228Y-124818297D01*
X195583816Y-124851000D01*
X195416184Y-124851000D01*
X195251772Y-124818297D01*
X195096900Y-124754147D01*
X194957519Y-124661015D01*
X194838985Y-124542481D01*
X194745853Y-124403100D01*
X194681703Y-124248228D01*
X194649000Y-124083816D01*
X194649000Y-123916184D01*
X194681703Y-123751772D01*
X194745853Y-123596900D01*
X194838985Y-123457519D01*
X194957519Y-123338985D01*
X195096900Y-123245853D01*
X195251772Y-123181703D01*
X195416184Y-123149000D01*
X195583816Y-123149000D01*
X195748228Y-123181703D01*
X195748228Y-123181703D01*
G37*
G36*
X154210815Y-121766425D02*
G01*
X154364903Y-121797075D01*
X154592571Y-121891378D01*
X154797466Y-122028285D01*
X154971715Y-122202534D01*
X155108622Y-122407429D01*
X155108623Y-122407431D01*
X155202925Y-122635097D01*
X155251000Y-122876786D01*
X155251000Y-123123214D01*
X155208080Y-123338985D01*
X155202925Y-123364903D01*
X155108622Y-123592571D01*
X154971715Y-123797466D01*
X154797466Y-123971715D01*
X154592571Y-124108622D01*
X154592570Y-124108623D01*
X154592569Y-124108623D01*
X154364903Y-124202925D01*
X154123214Y-124251000D01*
X153876786Y-124251000D01*
X153635097Y-124202925D01*
X153407431Y-124108623D01*
X153407430Y-124108623D01*
X153407429Y-124108622D01*
X153202534Y-123971715D01*
X153028285Y-123797466D01*
X152891378Y-123592571D01*
X152797075Y-123364903D01*
X152791920Y-123338985D01*
X152749000Y-123123214D01*
X152749000Y-122876786D01*
X152797075Y-122635097D01*
X152891377Y-122407431D01*
X152891378Y-122407429D01*
X153028285Y-122202534D01*
X153202534Y-122028285D01*
X153407429Y-121891378D01*
X153635097Y-121797075D01*
X153789185Y-121766425D01*
X153876786Y-121749000D01*
X154123214Y-121749000D01*
X154210815Y-121766425D01*
X154210815Y-121766425D01*
G37*
G36*
X134210815Y-121766425D02*
G01*
X134364903Y-121797075D01*
X134592571Y-121891378D01*
X134797466Y-122028285D01*
X134971715Y-122202534D01*
X135108622Y-122407429D01*
X135108623Y-122407431D01*
X135202925Y-122635097D01*
X135251000Y-122876786D01*
X135251000Y-123123214D01*
X135208080Y-123338985D01*
X135202925Y-123364903D01*
X135108622Y-123592571D01*
X134971715Y-123797466D01*
X134797466Y-123971715D01*
X134592571Y-124108622D01*
X134592570Y-124108623D01*
X134592569Y-124108623D01*
X134364903Y-124202925D01*
X134123214Y-124251000D01*
X133876786Y-124251000D01*
X133635097Y-124202925D01*
X133407431Y-124108623D01*
X133407430Y-124108623D01*
X133407429Y-124108622D01*
X133202534Y-123971715D01*
X133028285Y-123797466D01*
X132891378Y-123592571D01*
X132797075Y-123364903D01*
X132791920Y-123338985D01*
X132749000Y-123123214D01*
X132749000Y-122876786D01*
X132797075Y-122635097D01*
X132891377Y-122407431D01*
X132891378Y-122407429D01*
X133028285Y-122202534D01*
X133202534Y-122028285D01*
X133407429Y-121891378D01*
X133635097Y-121797075D01*
X133789185Y-121766425D01*
X133876786Y-121749000D01*
X134123214Y-121749000D01*
X134210815Y-121766425D01*
X134210815Y-121766425D01*
G37*
G36*
X114210815Y-121766425D02*
G01*
X114364903Y-121797075D01*
X114592571Y-121891378D01*
X114797466Y-122028285D01*
X114971715Y-122202534D01*
X115108622Y-122407429D01*
X115108623Y-122407431D01*
X115202925Y-122635097D01*
X115251000Y-122876786D01*
X115251000Y-123123214D01*
X115208080Y-123338985D01*
X115202925Y-123364903D01*
X115108622Y-123592571D01*
X114971715Y-123797466D01*
X114797466Y-123971715D01*
X114592571Y-124108622D01*
X114592570Y-124108623D01*
X114592569Y-124108623D01*
X114364903Y-124202925D01*
X114123214Y-124251000D01*
X113876786Y-124251000D01*
X113635097Y-124202925D01*
X113407431Y-124108623D01*
X113407430Y-124108623D01*
X113407429Y-124108622D01*
X113202534Y-123971715D01*
X113028285Y-123797466D01*
X112891378Y-123592571D01*
X112797075Y-123364903D01*
X112791920Y-123338985D01*
X112749000Y-123123214D01*
X112749000Y-122876786D01*
X112797075Y-122635097D01*
X112891377Y-122407431D01*
X112891378Y-122407429D01*
X113028285Y-122202534D01*
X113202534Y-122028285D01*
X113407429Y-121891378D01*
X113635097Y-121797075D01*
X113789185Y-121766425D01*
X113876786Y-121749000D01*
X114123214Y-121749000D01*
X114210815Y-121766425D01*
X114210815Y-121766425D01*
G37*
G36*
X166936425Y-120642760D02*
G01*
X166936428Y-120642761D01*
X166936429Y-120642761D01*
X167115693Y-120697140D01*
X167115696Y-120697142D01*
X167115697Y-120697142D01*
X167280903Y-120785446D01*
X167425712Y-120904288D01*
X167544554Y-121049097D01*
X167595773Y-121144922D01*
X167632860Y-121214307D01*
X167687239Y-121393571D01*
X167687240Y-121393575D01*
X167705601Y-121580000D01*
X167687240Y-121766425D01*
X167687239Y-121766428D01*
X167687239Y-121766429D01*
X167632860Y-121945693D01*
X167632858Y-121945696D01*
X167632858Y-121945697D01*
X167544554Y-122110903D01*
X167425712Y-122255712D01*
X167280903Y-122374554D01*
X167123502Y-122458686D01*
X167115693Y-122462860D01*
X166936429Y-122517239D01*
X166936428Y-122517239D01*
X166936425Y-122517240D01*
X166796718Y-122531000D01*
X166703282Y-122531000D01*
X166563575Y-122517240D01*
X166563572Y-122517239D01*
X166563571Y-122517239D01*
X166384307Y-122462860D01*
X166376498Y-122458686D01*
X166219097Y-122374554D01*
X166074288Y-122255712D01*
X165955446Y-122110903D01*
X165867142Y-121945697D01*
X165867142Y-121945696D01*
X165867140Y-121945693D01*
X165812761Y-121766429D01*
X165812761Y-121766428D01*
X165812760Y-121766425D01*
X165794399Y-121580000D01*
X165812760Y-121393575D01*
X165812761Y-121393571D01*
X165867140Y-121214307D01*
X165904227Y-121144922D01*
X165955446Y-121049097D01*
X166074288Y-120904288D01*
X166219097Y-120785446D01*
X166384303Y-120697142D01*
X166384304Y-120697142D01*
X166384307Y-120697140D01*
X166563571Y-120642761D01*
X166563572Y-120642761D01*
X166563575Y-120642760D01*
X166703282Y-120629000D01*
X166796718Y-120629000D01*
X166936425Y-120642760D01*
X166936425Y-120642760D01*
G37*
G36*
X163916823Y-120781313D02*
G01*
X164077242Y-120829976D01*
X164209906Y-120900886D01*
X164225078Y-120908996D01*
X164354659Y-121015341D01*
X164461004Y-121144922D01*
X164461005Y-121144924D01*
X164540024Y-121292758D01*
X164588687Y-121453177D01*
X164605117Y-121620000D01*
X164588687Y-121786823D01*
X164540024Y-121947242D01*
X164469114Y-122079906D01*
X164461004Y-122095078D01*
X164354659Y-122224659D01*
X164225078Y-122331004D01*
X164225076Y-122331005D01*
X164077242Y-122410024D01*
X163916823Y-122458687D01*
X163791804Y-122471000D01*
X163708196Y-122471000D01*
X163583177Y-122458687D01*
X163422758Y-122410024D01*
X163274924Y-122331005D01*
X163274922Y-122331004D01*
X163145341Y-122224659D01*
X163038996Y-122095078D01*
X163030886Y-122079906D01*
X162959976Y-121947242D01*
X162911313Y-121786823D01*
X162894883Y-121620000D01*
X162911313Y-121453177D01*
X162959976Y-121292758D01*
X163038995Y-121144924D01*
X163038996Y-121144922D01*
X163145341Y-121015341D01*
X163274922Y-120908996D01*
X163290094Y-120900886D01*
X163422758Y-120829976D01*
X163583177Y-120781313D01*
X163708196Y-120769000D01*
X163791804Y-120769000D01*
X163916823Y-120781313D01*
X163916823Y-120781313D01*
G37*
G36*
X196351000Y-122351000D02*
G01*
X194649000Y-122351000D01*
X194649000Y-120649000D01*
X196351000Y-120649000D01*
X196351000Y-122351000D01*
X196351000Y-122351000D01*
G37*
G36*
X166936425Y-118102760D02*
G01*
X166936428Y-118102761D01*
X166936429Y-118102761D01*
X167115693Y-118157140D01*
X167115696Y-118157142D01*
X167115697Y-118157142D01*
X167280903Y-118245446D01*
X167425712Y-118364288D01*
X167544554Y-118509097D01*
X167632858Y-118674303D01*
X167632860Y-118674307D01*
X167686459Y-118851000D01*
X167687240Y-118853575D01*
X167705601Y-119040000D01*
X167687240Y-119226425D01*
X167687239Y-119226428D01*
X167687239Y-119226429D01*
X167632860Y-119405693D01*
X167632858Y-119405696D01*
X167632858Y-119405697D01*
X167544554Y-119570903D01*
X167425712Y-119715712D01*
X167280903Y-119834554D01*
X167115697Y-119922858D01*
X167115693Y-119922860D01*
X166936429Y-119977239D01*
X166936428Y-119977239D01*
X166936425Y-119977240D01*
X166796718Y-119991000D01*
X166703282Y-119991000D01*
X166563575Y-119977240D01*
X166563572Y-119977239D01*
X166563571Y-119977239D01*
X166384307Y-119922860D01*
X166384303Y-119922858D01*
X166219097Y-119834554D01*
X166074288Y-119715712D01*
X165955446Y-119570903D01*
X165867142Y-119405697D01*
X165867142Y-119405696D01*
X165867140Y-119405693D01*
X165812761Y-119226429D01*
X165812761Y-119226428D01*
X165812760Y-119226425D01*
X165794399Y-119040000D01*
X165812760Y-118853575D01*
X165813541Y-118851000D01*
X165867140Y-118674307D01*
X165867142Y-118674303D01*
X165955446Y-118509097D01*
X166074288Y-118364288D01*
X166219097Y-118245446D01*
X166384303Y-118157142D01*
X166384304Y-118157142D01*
X166384307Y-118157140D01*
X166563571Y-118102761D01*
X166563572Y-118102761D01*
X166563575Y-118102760D01*
X166703282Y-118089000D01*
X166796718Y-118089000D01*
X166936425Y-118102760D01*
X166936425Y-118102760D01*
G37*
G36*
X190351000Y-118851000D02*
G01*
X188649000Y-118851000D01*
X188649000Y-117149000D01*
X190351000Y-117149000D01*
X190351000Y-118851000D01*
X190351000Y-118851000D01*
G37*
G36*
X167701000Y-117451000D02*
G01*
X165799000Y-117451000D01*
X165799000Y-115549000D01*
X167701000Y-115549000D01*
X167701000Y-117451000D01*
X167701000Y-117451000D01*
G37*
G36*
X115251000Y-116751000D02*
G01*
X112749000Y-116751000D01*
X112749000Y-114249000D01*
X115251000Y-114249000D01*
X115251000Y-116751000D01*
X115251000Y-116751000D01*
G37*
G36*
X155251000Y-116751000D02*
G01*
X152749000Y-116751000D01*
X152749000Y-114249000D01*
X155251000Y-114249000D01*
X155251000Y-116751000D01*
X155251000Y-116751000D01*
G37*
G36*
X135251000Y-116751000D02*
G01*
X132749000Y-116751000D01*
X132749000Y-114249000D01*
X135251000Y-114249000D01*
X135251000Y-116751000D01*
X135251000Y-116751000D01*
G37*
G36*
X204110442Y-114885518D02*
G01*
X204176627Y-114892037D01*
X204346466Y-114943557D01*
X204502991Y-115027222D01*
X204538729Y-115056552D01*
X204640186Y-115139814D01*
X204723448Y-115241271D01*
X204752778Y-115277009D01*
X204836443Y-115433534D01*
X204887963Y-115603373D01*
X204905359Y-115780000D01*
X204887963Y-115956627D01*
X204836443Y-116126466D01*
X204752778Y-116282991D01*
X204723448Y-116318729D01*
X204640186Y-116420186D01*
X204538729Y-116503448D01*
X204502991Y-116532778D01*
X204346466Y-116616443D01*
X204176627Y-116667963D01*
X204110443Y-116674481D01*
X204044260Y-116681000D01*
X203955740Y-116681000D01*
X203889557Y-116674481D01*
X203823373Y-116667963D01*
X203653534Y-116616443D01*
X203497009Y-116532778D01*
X203461271Y-116503448D01*
X203359814Y-116420186D01*
X203276552Y-116318729D01*
X203247222Y-116282991D01*
X203163557Y-116126466D01*
X203112037Y-115956627D01*
X203094641Y-115780000D01*
X203112037Y-115603373D01*
X203163557Y-115433534D01*
X203247222Y-115277009D01*
X203276552Y-115241271D01*
X203359814Y-115139814D01*
X203461271Y-115056552D01*
X203497009Y-115027222D01*
X203653534Y-114943557D01*
X203823373Y-114892037D01*
X203889558Y-114885518D01*
X203955740Y-114879000D01*
X204044260Y-114879000D01*
X204110442Y-114885518D01*
X204110442Y-114885518D01*
G37*
G36*
X201570442Y-114885518D02*
G01*
X201636627Y-114892037D01*
X201806466Y-114943557D01*
X201962991Y-115027222D01*
X201998729Y-115056552D01*
X202100186Y-115139814D01*
X202183448Y-115241271D01*
X202212778Y-115277009D01*
X202296443Y-115433534D01*
X202347963Y-115603373D01*
X202365359Y-115780000D01*
X202347963Y-115956627D01*
X202296443Y-116126466D01*
X202212778Y-116282991D01*
X202183448Y-116318729D01*
X202100186Y-116420186D01*
X201998729Y-116503448D01*
X201962991Y-116532778D01*
X201806466Y-116616443D01*
X201636627Y-116667963D01*
X201570443Y-116674481D01*
X201504260Y-116681000D01*
X201415740Y-116681000D01*
X201349557Y-116674481D01*
X201283373Y-116667963D01*
X201113534Y-116616443D01*
X200957009Y-116532778D01*
X200921271Y-116503448D01*
X200819814Y-116420186D01*
X200736552Y-116318729D01*
X200707222Y-116282991D01*
X200623557Y-116126466D01*
X200572037Y-115956627D01*
X200554641Y-115780000D01*
X200572037Y-115603373D01*
X200623557Y-115433534D01*
X200707222Y-115277009D01*
X200736552Y-115241271D01*
X200819814Y-115139814D01*
X200921271Y-115056552D01*
X200957009Y-115027222D01*
X201113534Y-114943557D01*
X201283373Y-114892037D01*
X201349558Y-114885518D01*
X201415740Y-114879000D01*
X201504260Y-114879000D01*
X201570442Y-114885518D01*
X201570442Y-114885518D01*
G37*
G36*
X195951000Y-114951000D02*
G01*
X194049000Y-114951000D01*
X194049000Y-113049000D01*
X195951000Y-113049000D01*
X195951000Y-114951000D01*
X195951000Y-114951000D01*
G37*
G36*
X197817395Y-113085546D02*
G01*
X197990466Y-113157234D01*
X197996572Y-113161314D01*
X198146227Y-113261310D01*
X198278690Y-113393773D01*
X198321284Y-113457520D01*
X198382766Y-113549534D01*
X198454454Y-113722605D01*
X198491000Y-113906333D01*
X198491000Y-114093667D01*
X198454454Y-114277395D01*
X198382766Y-114450466D01*
X198382765Y-114450467D01*
X198278690Y-114606227D01*
X198146227Y-114738690D01*
X198123092Y-114754148D01*
X197990466Y-114842766D01*
X197817395Y-114914454D01*
X197633667Y-114951000D01*
X197446333Y-114951000D01*
X197262605Y-114914454D01*
X197089534Y-114842766D01*
X196956908Y-114754148D01*
X196933773Y-114738690D01*
X196801310Y-114606227D01*
X196697235Y-114450467D01*
X196697234Y-114450466D01*
X196625546Y-114277395D01*
X196589000Y-114093667D01*
X196589000Y-113906333D01*
X196625546Y-113722605D01*
X196697234Y-113549534D01*
X196758716Y-113457520D01*
X196801310Y-113393773D01*
X196933773Y-113261310D01*
X197083428Y-113161314D01*
X197089534Y-113157234D01*
X197262605Y-113085546D01*
X197446333Y-113049000D01*
X197633667Y-113049000D01*
X197817395Y-113085546D01*
X197817395Y-113085546D01*
G37*
G36*
X164601000Y-114851000D02*
G01*
X162899000Y-114851000D01*
X162899000Y-113149000D01*
X164601000Y-113149000D01*
X164601000Y-114851000D01*
X164601000Y-114851000D01*
G37*
G36*
X184546823Y-113161313D02*
G01*
X184707242Y-113209976D01*
X184774361Y-113245852D01*
X184855078Y-113288996D01*
X184984659Y-113395341D01*
X185091004Y-113524922D01*
X185091005Y-113524924D01*
X185170024Y-113672758D01*
X185218687Y-113833177D01*
X185235117Y-114000000D01*
X185218687Y-114166823D01*
X185170024Y-114327242D01*
X185129477Y-114403100D01*
X185091004Y-114475078D01*
X184984659Y-114604659D01*
X184855078Y-114711004D01*
X184855076Y-114711005D01*
X184707242Y-114790024D01*
X184546823Y-114838687D01*
X184421804Y-114851000D01*
X184338196Y-114851000D01*
X184213177Y-114838687D01*
X184052758Y-114790024D01*
X183904924Y-114711005D01*
X183904922Y-114711004D01*
X183775341Y-114604659D01*
X183668996Y-114475078D01*
X183630523Y-114403100D01*
X183589976Y-114327242D01*
X183541313Y-114166823D01*
X183524883Y-114000000D01*
X183541313Y-113833177D01*
X183589976Y-113672758D01*
X183668995Y-113524924D01*
X183668996Y-113524922D01*
X183775341Y-113395341D01*
X183904922Y-113288996D01*
X183985639Y-113245852D01*
X184052758Y-113209976D01*
X184213177Y-113161313D01*
X184338196Y-113149000D01*
X184421804Y-113149000D01*
X184546823Y-113161313D01*
X184546823Y-113161313D01*
G37*
G36*
X192248228Y-113181703D02*
G01*
X192403100Y-113245853D01*
X192542481Y-113338985D01*
X192661015Y-113457519D01*
X192754147Y-113596900D01*
X192818297Y-113751772D01*
X192851000Y-113916184D01*
X192851000Y-114083816D01*
X192818297Y-114248228D01*
X192754147Y-114403100D01*
X192661015Y-114542481D01*
X192542481Y-114661015D01*
X192403100Y-114754147D01*
X192248228Y-114818297D01*
X192083816Y-114851000D01*
X191916184Y-114851000D01*
X191751772Y-114818297D01*
X191596900Y-114754147D01*
X191457519Y-114661015D01*
X191338985Y-114542481D01*
X191245853Y-114403100D01*
X191181703Y-114248228D01*
X191149000Y-114083816D01*
X191149000Y-113916184D01*
X191181703Y-113751772D01*
X191245853Y-113596900D01*
X191338985Y-113457519D01*
X191457519Y-113338985D01*
X191596900Y-113245853D01*
X191751772Y-113181703D01*
X191916184Y-113149000D01*
X192083816Y-113149000D01*
X192248228Y-113181703D01*
X192248228Y-113181703D01*
G37*
G36*
X204110442Y-112345518D02*
G01*
X204176627Y-112352037D01*
X204346466Y-112403557D01*
X204502991Y-112487222D01*
X204538729Y-112516552D01*
X204640186Y-112599814D01*
X204723448Y-112701271D01*
X204752778Y-112737009D01*
X204836443Y-112893534D01*
X204887963Y-113063373D01*
X204905359Y-113240000D01*
X204887963Y-113416627D01*
X204836443Y-113586466D01*
X204752778Y-113742991D01*
X204723448Y-113778729D01*
X204640186Y-113880186D01*
X204538729Y-113963448D01*
X204502991Y-113992778D01*
X204346466Y-114076443D01*
X204176627Y-114127963D01*
X204110443Y-114134481D01*
X204044260Y-114141000D01*
X203955740Y-114141000D01*
X203889557Y-114134481D01*
X203823373Y-114127963D01*
X203653534Y-114076443D01*
X203497009Y-113992778D01*
X203461271Y-113963448D01*
X203359814Y-113880186D01*
X203276552Y-113778729D01*
X203247222Y-113742991D01*
X203163557Y-113586466D01*
X203112037Y-113416627D01*
X203094641Y-113240000D01*
X203112037Y-113063373D01*
X203163557Y-112893534D01*
X203247222Y-112737009D01*
X203276552Y-112701271D01*
X203359814Y-112599814D01*
X203461271Y-112516552D01*
X203497009Y-112487222D01*
X203653534Y-112403557D01*
X203823373Y-112352037D01*
X203889558Y-112345518D01*
X203955740Y-112339000D01*
X204044260Y-112339000D01*
X204110442Y-112345518D01*
X204110442Y-112345518D01*
G37*
G36*
X201570442Y-112345518D02*
G01*
X201636627Y-112352037D01*
X201806466Y-112403557D01*
X201962991Y-112487222D01*
X201998729Y-112516552D01*
X202100186Y-112599814D01*
X202183448Y-112701271D01*
X202212778Y-112737009D01*
X202296443Y-112893534D01*
X202347963Y-113063373D01*
X202365359Y-113240000D01*
X202347963Y-113416627D01*
X202296443Y-113586466D01*
X202212778Y-113742991D01*
X202183448Y-113778729D01*
X202100186Y-113880186D01*
X201998729Y-113963448D01*
X201962991Y-113992778D01*
X201806466Y-114076443D01*
X201636627Y-114127963D01*
X201570443Y-114134481D01*
X201504260Y-114141000D01*
X201415740Y-114141000D01*
X201349557Y-114134481D01*
X201283373Y-114127963D01*
X201113534Y-114076443D01*
X200957009Y-113992778D01*
X200921271Y-113963448D01*
X200819814Y-113880186D01*
X200736552Y-113778729D01*
X200707222Y-113742991D01*
X200623557Y-113586466D01*
X200572037Y-113416627D01*
X200554641Y-113240000D01*
X200572037Y-113063373D01*
X200623557Y-112893534D01*
X200707222Y-112737009D01*
X200736552Y-112701271D01*
X200819814Y-112599814D01*
X200921271Y-112516552D01*
X200957009Y-112487222D01*
X201113534Y-112403557D01*
X201283373Y-112352037D01*
X201349558Y-112345518D01*
X201415740Y-112339000D01*
X201504260Y-112339000D01*
X201570442Y-112345518D01*
X201570442Y-112345518D01*
G37*
G36*
X201570442Y-109805518D02*
G01*
X201636627Y-109812037D01*
X201806466Y-109863557D01*
X201962991Y-109947222D01*
X201998729Y-109976552D01*
X202100186Y-110059814D01*
X202183448Y-110161271D01*
X202212778Y-110197009D01*
X202296443Y-110353534D01*
X202347963Y-110523373D01*
X202365359Y-110700000D01*
X202347963Y-110876627D01*
X202296443Y-111046466D01*
X202212778Y-111202991D01*
X202183448Y-111238729D01*
X202100186Y-111340186D01*
X201998729Y-111423448D01*
X201962991Y-111452778D01*
X201806466Y-111536443D01*
X201636627Y-111587963D01*
X201570442Y-111594482D01*
X201504260Y-111601000D01*
X201415740Y-111601000D01*
X201349558Y-111594482D01*
X201283373Y-111587963D01*
X201113534Y-111536443D01*
X200957009Y-111452778D01*
X200921271Y-111423448D01*
X200819814Y-111340186D01*
X200736552Y-111238729D01*
X200707222Y-111202991D01*
X200623557Y-111046466D01*
X200572037Y-110876627D01*
X200554641Y-110700000D01*
X200572037Y-110523373D01*
X200623557Y-110353534D01*
X200707222Y-110197009D01*
X200736552Y-110161271D01*
X200819814Y-110059814D01*
X200921271Y-109976552D01*
X200957009Y-109947222D01*
X201113534Y-109863557D01*
X201283373Y-109812037D01*
X201349558Y-109805518D01*
X201415740Y-109799000D01*
X201504260Y-109799000D01*
X201570442Y-109805518D01*
X201570442Y-109805518D01*
G37*
G36*
X204110442Y-109805518D02*
G01*
X204176627Y-109812037D01*
X204346466Y-109863557D01*
X204502991Y-109947222D01*
X204538729Y-109976552D01*
X204640186Y-110059814D01*
X204723448Y-110161271D01*
X204752778Y-110197009D01*
X204836443Y-110353534D01*
X204887963Y-110523373D01*
X204905359Y-110700000D01*
X204887963Y-110876627D01*
X204836443Y-111046466D01*
X204752778Y-111202991D01*
X204723448Y-111238729D01*
X204640186Y-111340186D01*
X204538729Y-111423448D01*
X204502991Y-111452778D01*
X204346466Y-111536443D01*
X204176627Y-111587963D01*
X204110442Y-111594482D01*
X204044260Y-111601000D01*
X203955740Y-111601000D01*
X203889558Y-111594482D01*
X203823373Y-111587963D01*
X203653534Y-111536443D01*
X203497009Y-111452778D01*
X203461271Y-111423448D01*
X203359814Y-111340186D01*
X203276552Y-111238729D01*
X203247222Y-111202991D01*
X203163557Y-111046466D01*
X203112037Y-110876627D01*
X203094641Y-110700000D01*
X203112037Y-110523373D01*
X203163557Y-110353534D01*
X203247222Y-110197009D01*
X203276552Y-110161271D01*
X203359814Y-110059814D01*
X203461271Y-109976552D01*
X203497009Y-109947222D01*
X203653534Y-109863557D01*
X203823373Y-109812037D01*
X203889558Y-109805518D01*
X203955740Y-109799000D01*
X204044260Y-109799000D01*
X204110442Y-109805518D01*
X204110442Y-109805518D01*
G37*
G36*
X101306564Y-108989389D02*
G01*
X101497060Y-109068295D01*
X101497835Y-109068616D01*
X101669973Y-109183635D01*
X101816365Y-109330027D01*
X101913284Y-109475076D01*
X101931385Y-109502167D01*
X102010611Y-109693436D01*
X102051000Y-109896484D01*
X102051000Y-110103516D01*
X102010611Y-110306564D01*
X101991156Y-110353532D01*
X101931384Y-110497835D01*
X101816365Y-110669973D01*
X101669973Y-110816365D01*
X101497835Y-110931384D01*
X101497834Y-110931385D01*
X101497833Y-110931385D01*
X101306564Y-111010611D01*
X101103516Y-111051000D01*
X100896484Y-111051000D01*
X100693436Y-111010611D01*
X100502167Y-110931385D01*
X100502166Y-110931385D01*
X100502165Y-110931384D01*
X100330027Y-110816365D01*
X100183635Y-110669973D01*
X100068616Y-110497835D01*
X100008844Y-110353532D01*
X99989389Y-110306564D01*
X99949000Y-110103516D01*
X99949000Y-109896484D01*
X99989389Y-109693436D01*
X100068615Y-109502167D01*
X100086717Y-109475076D01*
X100183635Y-109330027D01*
X100330027Y-109183635D01*
X100502165Y-109068616D01*
X100502940Y-109068295D01*
X100693436Y-108989389D01*
X100896484Y-108949000D01*
X101103516Y-108949000D01*
X101306564Y-108989389D01*
X101306564Y-108989389D01*
G37*
G36*
X106401000Y-110901000D02*
G01*
X104599000Y-110901000D01*
X104599000Y-109099000D01*
X106401000Y-109099000D01*
X106401000Y-110901000D01*
X106401000Y-110901000D01*
G37*
G36*
X111251000Y-109851000D02*
G01*
X109549000Y-109851000D01*
X109549000Y-108149000D01*
X111251000Y-108149000D01*
X111251000Y-109851000D01*
X111251000Y-109851000D01*
G37*
G36*
X118186823Y-108161313D02*
G01*
X118347242Y-108209976D01*
X118479906Y-108280886D01*
X118495078Y-108288996D01*
X118624659Y-108395341D01*
X118731004Y-108524922D01*
X118731005Y-108524924D01*
X118810024Y-108672758D01*
X118858687Y-108833177D01*
X118875117Y-109000000D01*
X118858687Y-109166823D01*
X118810024Y-109327242D01*
X118808535Y-109330027D01*
X118731004Y-109475078D01*
X118624659Y-109604659D01*
X118495078Y-109711004D01*
X118495076Y-109711005D01*
X118347242Y-109790024D01*
X118186823Y-109838687D01*
X118061804Y-109851000D01*
X117978196Y-109851000D01*
X117853177Y-109838687D01*
X117692758Y-109790024D01*
X117544924Y-109711005D01*
X117544922Y-109711004D01*
X117415341Y-109604659D01*
X117308996Y-109475078D01*
X117231465Y-109330027D01*
X117229976Y-109327242D01*
X117181313Y-109166823D01*
X117164883Y-109000000D01*
X117181313Y-108833177D01*
X117229976Y-108672758D01*
X117308995Y-108524924D01*
X117308996Y-108524922D01*
X117415341Y-108395341D01*
X117544922Y-108288996D01*
X117560094Y-108280886D01*
X117692758Y-108209976D01*
X117853177Y-108161313D01*
X117978196Y-108149000D01*
X118061804Y-108149000D01*
X118186823Y-108161313D01*
X118186823Y-108161313D01*
G37*
G36*
X159748228Y-107431703D02*
G01*
X159903100Y-107495853D01*
X160042481Y-107588985D01*
X160161015Y-107707519D01*
X160254147Y-107846900D01*
X160318297Y-108001772D01*
X160351000Y-108166184D01*
X160351000Y-108333816D01*
X160318297Y-108498228D01*
X160254147Y-108653100D01*
X160161015Y-108792481D01*
X160042481Y-108911015D01*
X159903100Y-109004147D01*
X159748228Y-109068297D01*
X159583816Y-109101000D01*
X159416184Y-109101000D01*
X159251772Y-109068297D01*
X159096900Y-109004147D01*
X158957519Y-108911015D01*
X158838985Y-108792481D01*
X158745853Y-108653100D01*
X158681703Y-108498228D01*
X158649000Y-108333816D01*
X158649000Y-108166184D01*
X158681703Y-108001772D01*
X158745853Y-107846900D01*
X158838985Y-107707519D01*
X158957519Y-107588985D01*
X159096900Y-107495853D01*
X159251772Y-107431703D01*
X159416184Y-107399000D01*
X159583816Y-107399000D01*
X159748228Y-107431703D01*
X159748228Y-107431703D01*
G37*
G36*
X204110443Y-107265519D02*
G01*
X204176627Y-107272037D01*
X204346466Y-107323557D01*
X204346468Y-107323558D01*
X204353360Y-107327242D01*
X204502991Y-107407222D01*
X204513911Y-107416184D01*
X204640186Y-107519814D01*
X204711102Y-107606227D01*
X204752778Y-107657009D01*
X204836443Y-107813534D01*
X204887963Y-107983373D01*
X204905359Y-108160000D01*
X204887963Y-108336627D01*
X204836443Y-108506466D01*
X204752778Y-108662991D01*
X204723448Y-108698729D01*
X204640186Y-108800186D01*
X204538729Y-108883448D01*
X204502991Y-108912778D01*
X204346466Y-108996443D01*
X204176627Y-109047963D01*
X204110442Y-109054482D01*
X204044260Y-109061000D01*
X203955740Y-109061000D01*
X203889558Y-109054482D01*
X203823373Y-109047963D01*
X203653534Y-108996443D01*
X203497009Y-108912778D01*
X203461271Y-108883448D01*
X203359814Y-108800186D01*
X203276552Y-108698729D01*
X203247222Y-108662991D01*
X203163557Y-108506466D01*
X203112037Y-108336627D01*
X203094641Y-108160000D01*
X203112037Y-107983373D01*
X203163557Y-107813534D01*
X203247222Y-107657009D01*
X203288898Y-107606227D01*
X203359814Y-107519814D01*
X203486089Y-107416184D01*
X203497009Y-107407222D01*
X203646640Y-107327242D01*
X203653532Y-107323558D01*
X203653534Y-107323557D01*
X203823373Y-107272037D01*
X203889557Y-107265519D01*
X203955740Y-107259000D01*
X204044260Y-107259000D01*
X204110443Y-107265519D01*
X204110443Y-107265519D01*
G37*
G36*
X201570443Y-107265519D02*
G01*
X201636627Y-107272037D01*
X201806466Y-107323557D01*
X201806468Y-107323558D01*
X201813360Y-107327242D01*
X201962991Y-107407222D01*
X201973911Y-107416184D01*
X202100186Y-107519814D01*
X202171102Y-107606227D01*
X202212778Y-107657009D01*
X202296443Y-107813534D01*
X202347963Y-107983373D01*
X202365359Y-108160000D01*
X202347963Y-108336627D01*
X202296443Y-108506466D01*
X202212778Y-108662991D01*
X202183448Y-108698729D01*
X202100186Y-108800186D01*
X201998729Y-108883448D01*
X201962991Y-108912778D01*
X201806466Y-108996443D01*
X201636627Y-109047963D01*
X201570442Y-109054482D01*
X201504260Y-109061000D01*
X201415740Y-109061000D01*
X201349558Y-109054482D01*
X201283373Y-109047963D01*
X201113534Y-108996443D01*
X200957009Y-108912778D01*
X200921271Y-108883448D01*
X200819814Y-108800186D01*
X200736552Y-108698729D01*
X200707222Y-108662991D01*
X200623557Y-108506466D01*
X200572037Y-108336627D01*
X200554641Y-108160000D01*
X200572037Y-107983373D01*
X200623557Y-107813534D01*
X200707222Y-107657009D01*
X200748898Y-107606227D01*
X200819814Y-107519814D01*
X200946089Y-107416184D01*
X200957009Y-107407222D01*
X201106640Y-107327242D01*
X201113532Y-107323558D01*
X201113534Y-107323557D01*
X201283373Y-107272037D01*
X201349557Y-107265519D01*
X201415740Y-107259000D01*
X201504260Y-107259000D01*
X201570443Y-107265519D01*
X201570443Y-107265519D01*
G37*
G36*
X167087916Y-105162334D02*
G01*
X167196492Y-105195271D01*
X167196495Y-105195272D01*
X167232601Y-105214571D01*
X167296557Y-105248756D01*
X167384264Y-105320736D01*
X167456244Y-105408443D01*
X167474914Y-105443373D01*
X167509728Y-105508505D01*
X167509729Y-105508508D01*
X167542666Y-105617084D01*
X167553787Y-105730000D01*
X167542666Y-105842916D01*
X167509729Y-105951492D01*
X167509728Y-105951495D01*
X167490429Y-105987601D01*
X167456244Y-106051557D01*
X167384264Y-106139264D01*
X167296557Y-106211244D01*
X167231807Y-106245853D01*
X167215141Y-106254761D01*
X167194766Y-106268375D01*
X167177439Y-106285702D01*
X167163826Y-106306076D01*
X167154448Y-106328715D01*
X167149668Y-106352748D01*
X167149668Y-106377252D01*
X167154448Y-106401285D01*
X167163826Y-106423924D01*
X167177440Y-106444299D01*
X167194767Y-106461626D01*
X167215141Y-106475239D01*
X167296557Y-106518756D01*
X167384264Y-106590736D01*
X167456244Y-106678443D01*
X167490429Y-106742399D01*
X167509728Y-106778505D01*
X167509729Y-106778508D01*
X167542666Y-106887084D01*
X167553787Y-107000000D01*
X167542666Y-107112916D01*
X167526312Y-107166825D01*
X167509728Y-107221495D01*
X167495439Y-107248228D01*
X167456244Y-107321557D01*
X167384264Y-107409264D01*
X167307354Y-107472383D01*
X167290035Y-107489702D01*
X167276421Y-107510077D01*
X167267043Y-107532716D01*
X167262263Y-107556749D01*
X167262263Y-107581253D01*
X167267043Y-107605286D01*
X167276421Y-107627925D01*
X167290034Y-107648299D01*
X167307361Y-107665626D01*
X167327736Y-107679240D01*
X167350375Y-107688618D01*
X167374408Y-107693398D01*
X167386660Y-107694000D01*
X167551000Y-107694000D01*
X167551000Y-108846000D01*
X165949000Y-108846000D01*
X165949000Y-107694000D01*
X166113340Y-107694000D01*
X166137726Y-107691598D01*
X166161175Y-107684485D01*
X166182786Y-107672934D01*
X166201728Y-107657389D01*
X166217273Y-107638447D01*
X166228824Y-107616836D01*
X166235937Y-107593387D01*
X166238339Y-107569001D01*
X166235937Y-107544615D01*
X166228824Y-107521166D01*
X166217273Y-107499555D01*
X166201728Y-107480613D01*
X166192655Y-107472391D01*
X166115736Y-107409264D01*
X166043756Y-107321557D01*
X166004561Y-107248228D01*
X165990272Y-107221495D01*
X165973688Y-107166825D01*
X165957334Y-107112916D01*
X165946213Y-107000000D01*
X165957334Y-106887084D01*
X165990271Y-106778508D01*
X165990272Y-106778505D01*
X166009571Y-106742399D01*
X166043756Y-106678443D01*
X166115736Y-106590736D01*
X166203443Y-106518756D01*
X166284859Y-106475239D01*
X166305234Y-106461625D01*
X166322561Y-106444298D01*
X166336174Y-106423924D01*
X166345552Y-106401285D01*
X166350332Y-106377252D01*
X166350332Y-106352748D01*
X166345552Y-106328715D01*
X166336174Y-106306076D01*
X166322560Y-106285701D01*
X166305233Y-106268374D01*
X166284859Y-106254761D01*
X166268193Y-106245853D01*
X166203443Y-106211244D01*
X166115736Y-106139264D01*
X166043756Y-106051557D01*
X166009571Y-105987601D01*
X165990272Y-105951495D01*
X165990271Y-105951492D01*
X165957334Y-105842916D01*
X165946213Y-105730000D01*
X165957334Y-105617084D01*
X165990271Y-105508508D01*
X165990272Y-105508505D01*
X166025086Y-105443373D01*
X166043756Y-105408443D01*
X166115736Y-105320736D01*
X166203443Y-105248756D01*
X166267399Y-105214571D01*
X166303505Y-105195272D01*
X166303508Y-105195271D01*
X166412084Y-105162334D01*
X166496702Y-105154000D01*
X167003298Y-105154000D01*
X167087916Y-105162334D01*
X167087916Y-105162334D01*
G37*
G36*
X121748228Y-106681703D02*
G01*
X121903100Y-106745853D01*
X122042481Y-106838985D01*
X122161015Y-106957519D01*
X122254147Y-107096900D01*
X122318297Y-107251772D01*
X122351000Y-107416184D01*
X122351000Y-107583816D01*
X122318297Y-107748228D01*
X122254147Y-107903100D01*
X122161015Y-108042481D01*
X122042481Y-108161015D01*
X121903100Y-108254147D01*
X121748228Y-108318297D01*
X121583816Y-108351000D01*
X121416184Y-108351000D01*
X121251772Y-108318297D01*
X121096900Y-108254147D01*
X120957519Y-108161015D01*
X120838985Y-108042481D01*
X120745853Y-107903100D01*
X120681703Y-107748228D01*
X120649000Y-107583816D01*
X120649000Y-107416184D01*
X120681703Y-107251772D01*
X120745853Y-107096900D01*
X120838985Y-106957519D01*
X120957519Y-106838985D01*
X121096900Y-106745853D01*
X121251772Y-106681703D01*
X121416184Y-106649000D01*
X121583816Y-106649000D01*
X121748228Y-106681703D01*
X121748228Y-106681703D01*
G37*
G36*
X146748228Y-106681703D02*
G01*
X146903100Y-106745853D01*
X147042481Y-106838985D01*
X147161015Y-106957519D01*
X147254147Y-107096900D01*
X147318297Y-107251772D01*
X147351000Y-107416184D01*
X147351000Y-107583816D01*
X147318297Y-107748228D01*
X147254147Y-107903100D01*
X147161015Y-108042481D01*
X147042481Y-108161015D01*
X146903100Y-108254147D01*
X146748228Y-108318297D01*
X146583816Y-108351000D01*
X146416184Y-108351000D01*
X146251772Y-108318297D01*
X146096900Y-108254147D01*
X145957519Y-108161015D01*
X145838985Y-108042481D01*
X145745853Y-107903100D01*
X145681703Y-107748228D01*
X145649000Y-107583816D01*
X145649000Y-107416184D01*
X145681703Y-107251772D01*
X145745853Y-107096900D01*
X145838985Y-106957519D01*
X145957519Y-106838985D01*
X146096900Y-106745853D01*
X146251772Y-106681703D01*
X146416184Y-106649000D01*
X146583816Y-106649000D01*
X146748228Y-106681703D01*
X146748228Y-106681703D01*
G37*
G36*
X126748228Y-106681703D02*
G01*
X126903100Y-106745853D01*
X127042481Y-106838985D01*
X127161015Y-106957519D01*
X127254147Y-107096900D01*
X127318297Y-107251772D01*
X127351000Y-107416184D01*
X127351000Y-107583816D01*
X127318297Y-107748228D01*
X127254147Y-107903100D01*
X127161015Y-108042481D01*
X127042481Y-108161015D01*
X126903100Y-108254147D01*
X126748228Y-108318297D01*
X126583816Y-108351000D01*
X126416184Y-108351000D01*
X126251772Y-108318297D01*
X126096900Y-108254147D01*
X125957519Y-108161015D01*
X125838985Y-108042481D01*
X125745853Y-107903100D01*
X125681703Y-107748228D01*
X125649000Y-107583816D01*
X125649000Y-107416184D01*
X125681703Y-107251772D01*
X125745853Y-107096900D01*
X125838985Y-106957519D01*
X125957519Y-106838985D01*
X126096900Y-106745853D01*
X126251772Y-106681703D01*
X126416184Y-106649000D01*
X126583816Y-106649000D01*
X126748228Y-106681703D01*
X126748228Y-106681703D01*
G37*
G36*
X141748228Y-106681703D02*
G01*
X141903100Y-106745853D01*
X142042481Y-106838985D01*
X142161015Y-106957519D01*
X142254147Y-107096900D01*
X142318297Y-107251772D01*
X142351000Y-107416184D01*
X142351000Y-107583816D01*
X142318297Y-107748228D01*
X142254147Y-107903100D01*
X142161015Y-108042481D01*
X142042481Y-108161015D01*
X141903100Y-108254147D01*
X141748228Y-108318297D01*
X141583816Y-108351000D01*
X141416184Y-108351000D01*
X141251772Y-108318297D01*
X141096900Y-108254147D01*
X140957519Y-108161015D01*
X140838985Y-108042481D01*
X140745853Y-107903100D01*
X140681703Y-107748228D01*
X140649000Y-107583816D01*
X140649000Y-107416184D01*
X140681703Y-107251772D01*
X140745853Y-107096900D01*
X140838985Y-106957519D01*
X140957519Y-106838985D01*
X141096900Y-106745853D01*
X141251772Y-106681703D01*
X141416184Y-106649000D01*
X141583816Y-106649000D01*
X141748228Y-106681703D01*
X141748228Y-106681703D01*
G37*
G36*
X195911000Y-107951000D02*
G01*
X194009000Y-107951000D01*
X194009000Y-106049000D01*
X195911000Y-106049000D01*
X195911000Y-107951000D01*
X195911000Y-107951000D01*
G37*
G36*
X197777395Y-106085546D02*
G01*
X197950466Y-106157234D01*
X197956572Y-106161314D01*
X198106227Y-106261310D01*
X198238690Y-106393773D01*
X198281284Y-106457520D01*
X198342766Y-106549534D01*
X198414454Y-106722605D01*
X198451000Y-106906333D01*
X198451000Y-107093667D01*
X198414454Y-107277395D01*
X198342766Y-107450466D01*
X198342765Y-107450467D01*
X198238690Y-107606227D01*
X198106227Y-107738690D01*
X198083092Y-107754148D01*
X197950466Y-107842766D01*
X197777395Y-107914454D01*
X197593667Y-107951000D01*
X197406333Y-107951000D01*
X197222605Y-107914454D01*
X197049534Y-107842766D01*
X196916908Y-107754148D01*
X196893773Y-107738690D01*
X196761310Y-107606227D01*
X196657235Y-107450467D01*
X196657234Y-107450466D01*
X196585546Y-107277395D01*
X196549000Y-107093667D01*
X196549000Y-106906333D01*
X196585546Y-106722605D01*
X196657234Y-106549534D01*
X196718716Y-106457520D01*
X196761310Y-106393773D01*
X196893773Y-106261310D01*
X197043428Y-106161314D01*
X197049534Y-106157234D01*
X197222605Y-106085546D01*
X197406333Y-106049000D01*
X197593667Y-106049000D01*
X197777395Y-106085546D01*
X197777395Y-106085546D01*
G37*
G36*
X184748228Y-106181703D02*
G01*
X184903100Y-106245853D01*
X185042481Y-106338985D01*
X185161015Y-106457519D01*
X185254147Y-106596900D01*
X185318297Y-106751772D01*
X185351000Y-106916184D01*
X185351000Y-107083816D01*
X185318297Y-107248228D01*
X185254147Y-107403100D01*
X185161015Y-107542481D01*
X185042481Y-107661015D01*
X184903100Y-107754147D01*
X184748228Y-107818297D01*
X184583816Y-107851000D01*
X184416184Y-107851000D01*
X184251772Y-107818297D01*
X184096900Y-107754147D01*
X183957519Y-107661015D01*
X183838985Y-107542481D01*
X183745853Y-107403100D01*
X183681703Y-107248228D01*
X183649000Y-107083816D01*
X183649000Y-106916184D01*
X183681703Y-106751772D01*
X183745853Y-106596900D01*
X183838985Y-106457519D01*
X183957519Y-106338985D01*
X184096900Y-106245853D01*
X184251772Y-106181703D01*
X184416184Y-106149000D01*
X184583816Y-106149000D01*
X184748228Y-106181703D01*
X184748228Y-106181703D01*
G37*
G36*
X192286823Y-106161313D02*
G01*
X192447242Y-106209976D01*
X192556497Y-106268374D01*
X192595078Y-106288996D01*
X192724659Y-106395341D01*
X192831004Y-106524922D01*
X192831005Y-106524924D01*
X192910024Y-106672758D01*
X192910025Y-106672761D01*
X192912738Y-106681705D01*
X192958687Y-106833177D01*
X192975117Y-107000000D01*
X192958687Y-107166823D01*
X192910024Y-107327242D01*
X192869477Y-107403100D01*
X192831004Y-107475078D01*
X192724659Y-107604659D01*
X192595078Y-107711004D01*
X192595076Y-107711005D01*
X192447242Y-107790024D01*
X192286823Y-107838687D01*
X192161804Y-107851000D01*
X192078196Y-107851000D01*
X191953177Y-107838687D01*
X191792758Y-107790024D01*
X191644924Y-107711005D01*
X191644922Y-107711004D01*
X191515341Y-107604659D01*
X191408996Y-107475078D01*
X191370523Y-107403100D01*
X191329976Y-107327242D01*
X191281313Y-107166823D01*
X191264883Y-107000000D01*
X191281313Y-106833177D01*
X191327262Y-106681705D01*
X191329975Y-106672761D01*
X191329976Y-106672758D01*
X191408995Y-106524924D01*
X191408996Y-106524922D01*
X191515341Y-106395341D01*
X191644922Y-106288996D01*
X191683503Y-106268374D01*
X191792758Y-106209976D01*
X191953177Y-106161313D01*
X192078196Y-106149000D01*
X192161804Y-106149000D01*
X192286823Y-106161313D01*
X192286823Y-106161313D01*
G37*
G36*
X160351000Y-106601000D02*
G01*
X158649000Y-106601000D01*
X158649000Y-104899000D01*
X160351000Y-104899000D01*
X160351000Y-106601000D01*
X160351000Y-106601000D01*
G37*
G36*
X204110443Y-104725519D02*
G01*
X204176627Y-104732037D01*
X204346466Y-104783557D01*
X204502991Y-104867222D01*
X204538729Y-104896552D01*
X204640186Y-104979814D01*
X204723448Y-105081271D01*
X204752778Y-105117009D01*
X204836443Y-105273534D01*
X204887963Y-105443373D01*
X204905359Y-105620000D01*
X204887963Y-105796627D01*
X204836443Y-105966466D01*
X204752778Y-106122991D01*
X204739423Y-106139264D01*
X204640186Y-106260186D01*
X204556682Y-106328715D01*
X204502991Y-106372778D01*
X204346466Y-106456443D01*
X204176627Y-106507963D01*
X204110442Y-106514482D01*
X204044260Y-106521000D01*
X203955740Y-106521000D01*
X203889558Y-106514482D01*
X203823373Y-106507963D01*
X203653534Y-106456443D01*
X203497009Y-106372778D01*
X203443318Y-106328715D01*
X203359814Y-106260186D01*
X203260577Y-106139264D01*
X203247222Y-106122991D01*
X203163557Y-105966466D01*
X203112037Y-105796627D01*
X203094641Y-105620000D01*
X203112037Y-105443373D01*
X203163557Y-105273534D01*
X203247222Y-105117009D01*
X203276552Y-105081271D01*
X203359814Y-104979814D01*
X203461271Y-104896552D01*
X203497009Y-104867222D01*
X203653534Y-104783557D01*
X203823373Y-104732037D01*
X203889558Y-104725518D01*
X203955740Y-104719000D01*
X204044260Y-104719000D01*
X204110443Y-104725519D01*
X204110443Y-104725519D01*
G37*
G36*
X201570443Y-104725519D02*
G01*
X201636627Y-104732037D01*
X201806466Y-104783557D01*
X201962991Y-104867222D01*
X201998729Y-104896552D01*
X202100186Y-104979814D01*
X202183448Y-105081271D01*
X202212778Y-105117009D01*
X202296443Y-105273534D01*
X202347963Y-105443373D01*
X202365359Y-105620000D01*
X202347963Y-105796627D01*
X202296443Y-105966466D01*
X202212778Y-106122991D01*
X202199423Y-106139264D01*
X202100186Y-106260186D01*
X202016682Y-106328715D01*
X201962991Y-106372778D01*
X201806466Y-106456443D01*
X201636627Y-106507963D01*
X201570442Y-106514482D01*
X201504260Y-106521000D01*
X201415740Y-106521000D01*
X201349558Y-106514482D01*
X201283373Y-106507963D01*
X201113534Y-106456443D01*
X200957009Y-106372778D01*
X200903318Y-106328715D01*
X200819814Y-106260186D01*
X200720577Y-106139264D01*
X200707222Y-106122991D01*
X200623557Y-105966466D01*
X200572037Y-105796627D01*
X200554641Y-105620000D01*
X200572037Y-105443373D01*
X200623557Y-105273534D01*
X200707222Y-105117009D01*
X200736552Y-105081271D01*
X200819814Y-104979814D01*
X200921271Y-104896552D01*
X200957009Y-104867222D01*
X201113534Y-104783557D01*
X201283373Y-104732037D01*
X201349558Y-104725518D01*
X201415740Y-104719000D01*
X201504260Y-104719000D01*
X201570443Y-104725519D01*
X201570443Y-104725519D01*
G37*
G36*
X110546823Y-104161313D02*
G01*
X110707242Y-104209976D01*
X110839906Y-104280886D01*
X110855078Y-104288996D01*
X110984659Y-104395341D01*
X111091004Y-104524922D01*
X111091005Y-104524924D01*
X111170024Y-104672758D01*
X111218687Y-104833177D01*
X111235117Y-105000000D01*
X111218687Y-105166823D01*
X111170024Y-105327242D01*
X111099114Y-105459906D01*
X111091004Y-105475078D01*
X110984659Y-105604659D01*
X110855078Y-105711004D01*
X110855076Y-105711005D01*
X110707242Y-105790024D01*
X110546823Y-105838687D01*
X110421804Y-105851000D01*
X110338196Y-105851000D01*
X110213177Y-105838687D01*
X110052758Y-105790024D01*
X109904924Y-105711005D01*
X109904922Y-105711004D01*
X109775341Y-105604659D01*
X109668996Y-105475078D01*
X109660886Y-105459906D01*
X109589976Y-105327242D01*
X109541313Y-105166823D01*
X109524883Y-105000000D01*
X109541313Y-104833177D01*
X109589976Y-104672758D01*
X109668995Y-104524924D01*
X109668996Y-104524922D01*
X109775341Y-104395341D01*
X109904922Y-104288996D01*
X109920094Y-104280886D01*
X110052758Y-104209976D01*
X110213177Y-104161313D01*
X110338196Y-104149000D01*
X110421804Y-104149000D01*
X110546823Y-104161313D01*
X110546823Y-104161313D01*
G37*
G36*
X118851000Y-105851000D02*
G01*
X117149000Y-105851000D01*
X117149000Y-104149000D01*
X118851000Y-104149000D01*
X118851000Y-105851000D01*
X118851000Y-105851000D01*
G37*
G36*
X101306564Y-102989389D02*
G01*
X101497833Y-103068615D01*
X101497835Y-103068616D01*
X101669973Y-103183635D01*
X101816365Y-103330027D01*
X101880804Y-103426466D01*
X101931385Y-103502167D01*
X102010611Y-103693436D01*
X102051000Y-103896484D01*
X102051000Y-104103516D01*
X102010611Y-104306564D01*
X101973838Y-104395341D01*
X101931384Y-104497835D01*
X101816365Y-104669973D01*
X101669973Y-104816365D01*
X101497835Y-104931384D01*
X101497834Y-104931385D01*
X101497833Y-104931385D01*
X101306564Y-105010611D01*
X101103516Y-105051000D01*
X100896484Y-105051000D01*
X100693436Y-105010611D01*
X100502167Y-104931385D01*
X100502166Y-104931385D01*
X100502165Y-104931384D01*
X100330027Y-104816365D01*
X100183635Y-104669973D01*
X100068616Y-104497835D01*
X100026162Y-104395341D01*
X99989389Y-104306564D01*
X99949000Y-104103516D01*
X99949000Y-103896484D01*
X99989389Y-103693436D01*
X100068615Y-103502167D01*
X100119197Y-103426466D01*
X100183635Y-103330027D01*
X100330027Y-103183635D01*
X100502165Y-103068616D01*
X100502167Y-103068615D01*
X100693436Y-102989389D01*
X100896484Y-102949000D01*
X101103516Y-102949000D01*
X101306564Y-102989389D01*
X101306564Y-102989389D01*
G37*
G36*
X106401000Y-104901000D02*
G01*
X104599000Y-104901000D01*
X104599000Y-103099000D01*
X106401000Y-103099000D01*
X106401000Y-104901000D01*
X106401000Y-104901000D01*
G37*
G36*
X204110442Y-102185518D02*
G01*
X204176627Y-102192037D01*
X204346466Y-102243557D01*
X204502991Y-102327222D01*
X204538729Y-102356552D01*
X204640186Y-102439814D01*
X204723448Y-102541271D01*
X204752778Y-102577009D01*
X204836443Y-102733534D01*
X204887963Y-102903373D01*
X204905359Y-103080000D01*
X204887963Y-103256627D01*
X204836443Y-103426466D01*
X204752778Y-103582991D01*
X204723448Y-103618729D01*
X204640186Y-103720186D01*
X204538729Y-103803448D01*
X204502991Y-103832778D01*
X204346466Y-103916443D01*
X204176627Y-103967963D01*
X204110443Y-103974481D01*
X204044260Y-103981000D01*
X203955740Y-103981000D01*
X203889557Y-103974481D01*
X203823373Y-103967963D01*
X203653534Y-103916443D01*
X203497009Y-103832778D01*
X203461271Y-103803448D01*
X203359814Y-103720186D01*
X203276552Y-103618729D01*
X203247222Y-103582991D01*
X203163557Y-103426466D01*
X203112037Y-103256627D01*
X203094641Y-103080000D01*
X203112037Y-102903373D01*
X203163557Y-102733534D01*
X203247222Y-102577009D01*
X203276552Y-102541271D01*
X203359814Y-102439814D01*
X203461271Y-102356552D01*
X203497009Y-102327222D01*
X203653534Y-102243557D01*
X203823373Y-102192037D01*
X203889558Y-102185518D01*
X203955740Y-102179000D01*
X204044260Y-102179000D01*
X204110442Y-102185518D01*
X204110442Y-102185518D01*
G37*
G36*
X201570442Y-102185518D02*
G01*
X201636627Y-102192037D01*
X201806466Y-102243557D01*
X201962991Y-102327222D01*
X201998729Y-102356552D01*
X202100186Y-102439814D01*
X202183448Y-102541271D01*
X202212778Y-102577009D01*
X202296443Y-102733534D01*
X202347963Y-102903373D01*
X202365359Y-103080000D01*
X202347963Y-103256627D01*
X202296443Y-103426466D01*
X202212778Y-103582991D01*
X202183448Y-103618729D01*
X202100186Y-103720186D01*
X201998729Y-103803448D01*
X201962991Y-103832778D01*
X201806466Y-103916443D01*
X201636627Y-103967963D01*
X201570443Y-103974481D01*
X201504260Y-103981000D01*
X201415740Y-103981000D01*
X201349557Y-103974481D01*
X201283373Y-103967963D01*
X201113534Y-103916443D01*
X200957009Y-103832778D01*
X200921271Y-103803448D01*
X200819814Y-103720186D01*
X200736552Y-103618729D01*
X200707222Y-103582991D01*
X200623557Y-103426466D01*
X200572037Y-103256627D01*
X200554641Y-103080000D01*
X200572037Y-102903373D01*
X200623557Y-102733534D01*
X200707222Y-102577009D01*
X200736552Y-102541271D01*
X200819814Y-102439814D01*
X200921271Y-102356552D01*
X200957009Y-102327222D01*
X201113534Y-102243557D01*
X201283373Y-102192037D01*
X201349558Y-102185518D01*
X201415740Y-102179000D01*
X201504260Y-102179000D01*
X201570442Y-102185518D01*
X201570442Y-102185518D01*
G37*
G36*
X201570442Y-99645518D02*
G01*
X201636627Y-99652037D01*
X201806466Y-99703557D01*
X201962991Y-99787222D01*
X201969740Y-99792761D01*
X202100186Y-99899814D01*
X202182405Y-100000000D01*
X202212778Y-100037009D01*
X202296443Y-100193534D01*
X202347963Y-100363373D01*
X202365359Y-100540000D01*
X202347963Y-100716627D01*
X202296443Y-100886466D01*
X202212778Y-101042991D01*
X202183448Y-101078729D01*
X202100186Y-101180186D01*
X201998729Y-101263448D01*
X201962991Y-101292778D01*
X201806466Y-101376443D01*
X201636627Y-101427963D01*
X201570442Y-101434482D01*
X201504260Y-101441000D01*
X201415740Y-101441000D01*
X201349558Y-101434482D01*
X201283373Y-101427963D01*
X201113534Y-101376443D01*
X200957009Y-101292778D01*
X200921271Y-101263448D01*
X200819814Y-101180186D01*
X200736552Y-101078729D01*
X200707222Y-101042991D01*
X200623557Y-100886466D01*
X200572037Y-100716627D01*
X200554641Y-100540000D01*
X200572037Y-100363373D01*
X200623557Y-100193534D01*
X200707222Y-100037009D01*
X200737595Y-100000000D01*
X200819814Y-99899814D01*
X200950260Y-99792761D01*
X200957009Y-99787222D01*
X201113534Y-99703557D01*
X201283373Y-99652037D01*
X201349558Y-99645518D01*
X201415740Y-99639000D01*
X201504260Y-99639000D01*
X201570442Y-99645518D01*
X201570442Y-99645518D01*
G37*
G36*
X204110442Y-99645518D02*
G01*
X204176627Y-99652037D01*
X204346466Y-99703557D01*
X204502991Y-99787222D01*
X204509740Y-99792761D01*
X204640186Y-99899814D01*
X204722405Y-100000000D01*
X204752778Y-100037009D01*
X204836443Y-100193534D01*
X204887963Y-100363373D01*
X204905359Y-100540000D01*
X204887963Y-100716627D01*
X204836443Y-100886466D01*
X204752778Y-101042991D01*
X204723448Y-101078729D01*
X204640186Y-101180186D01*
X204538729Y-101263448D01*
X204502991Y-101292778D01*
X204346466Y-101376443D01*
X204176627Y-101427963D01*
X204110442Y-101434482D01*
X204044260Y-101441000D01*
X203955740Y-101441000D01*
X203889558Y-101434482D01*
X203823373Y-101427963D01*
X203653534Y-101376443D01*
X203497009Y-101292778D01*
X203461271Y-101263448D01*
X203359814Y-101180186D01*
X203276552Y-101078729D01*
X203247222Y-101042991D01*
X203163557Y-100886466D01*
X203112037Y-100716627D01*
X203094641Y-100540000D01*
X203112037Y-100363373D01*
X203163557Y-100193534D01*
X203247222Y-100037009D01*
X203277595Y-100000000D01*
X203359814Y-99899814D01*
X203490260Y-99792761D01*
X203497009Y-99787222D01*
X203653534Y-99703557D01*
X203823373Y-99652037D01*
X203889558Y-99645518D01*
X203955740Y-99639000D01*
X204044260Y-99639000D01*
X204110442Y-99645518D01*
X204110442Y-99645518D01*
G37*
G36*
X163916823Y-99281313D02*
G01*
X164077242Y-99329976D01*
X164196598Y-99393773D01*
X164225078Y-99408996D01*
X164354659Y-99515341D01*
X164461004Y-99644922D01*
X164461005Y-99644924D01*
X164540024Y-99792758D01*
X164588687Y-99953177D01*
X164605117Y-100120000D01*
X164588687Y-100286823D01*
X164540024Y-100447242D01*
X164469114Y-100579906D01*
X164461004Y-100595078D01*
X164354659Y-100724659D01*
X164225078Y-100831004D01*
X164225076Y-100831005D01*
X164077242Y-100910024D01*
X164077239Y-100910025D01*
X164047380Y-100919083D01*
X163916823Y-100958687D01*
X163791804Y-100971000D01*
X163708196Y-100971000D01*
X163583177Y-100958687D01*
X163452620Y-100919083D01*
X163422761Y-100910025D01*
X163422758Y-100910024D01*
X163274924Y-100831005D01*
X163274922Y-100831004D01*
X163145341Y-100724659D01*
X163038996Y-100595078D01*
X163030886Y-100579906D01*
X162959976Y-100447242D01*
X162911313Y-100286823D01*
X162894883Y-100120000D01*
X162911313Y-99953177D01*
X162959976Y-99792758D01*
X163038995Y-99644924D01*
X163038996Y-99644922D01*
X163145341Y-99515341D01*
X163274922Y-99408996D01*
X163303402Y-99393773D01*
X163422758Y-99329976D01*
X163583177Y-99281313D01*
X163708196Y-99269000D01*
X163791804Y-99269000D01*
X163916823Y-99281313D01*
X163916823Y-99281313D01*
G37*
G36*
X197817395Y-99085546D02*
G01*
X197990466Y-99157234D01*
X197996572Y-99161314D01*
X198146227Y-99261310D01*
X198278690Y-99393773D01*
X198321284Y-99457520D01*
X198382766Y-99549534D01*
X198454454Y-99722605D01*
X198491000Y-99906333D01*
X198491000Y-100093667D01*
X198454454Y-100277395D01*
X198382766Y-100450466D01*
X198382765Y-100450467D01*
X198278690Y-100606227D01*
X198146227Y-100738690D01*
X198123092Y-100754148D01*
X197990466Y-100842766D01*
X197817395Y-100914454D01*
X197633667Y-100951000D01*
X197446333Y-100951000D01*
X197262605Y-100914454D01*
X197089534Y-100842766D01*
X196956908Y-100754148D01*
X196933773Y-100738690D01*
X196801310Y-100606227D01*
X196697235Y-100450467D01*
X196697234Y-100450466D01*
X196625546Y-100277395D01*
X196589000Y-100093667D01*
X196589000Y-99906333D01*
X196625546Y-99722605D01*
X196697234Y-99549534D01*
X196758716Y-99457520D01*
X196801310Y-99393773D01*
X196933773Y-99261310D01*
X197083428Y-99161314D01*
X197089534Y-99157234D01*
X197262605Y-99085546D01*
X197446333Y-99049000D01*
X197633667Y-99049000D01*
X197817395Y-99085546D01*
X197817395Y-99085546D01*
G37*
G36*
X195951000Y-100951000D02*
G01*
X194049000Y-100951000D01*
X194049000Y-99049000D01*
X195951000Y-99049000D01*
X195951000Y-100951000D01*
X195951000Y-100951000D01*
G37*
G36*
X192286823Y-99161313D02*
G01*
X192447242Y-99209976D01*
X192514361Y-99245852D01*
X192595078Y-99288996D01*
X192724659Y-99395341D01*
X192831004Y-99524922D01*
X192831005Y-99524924D01*
X192910024Y-99672758D01*
X192958687Y-99833177D01*
X192975117Y-100000000D01*
X192958687Y-100166823D01*
X192910024Y-100327242D01*
X192869477Y-100403100D01*
X192831004Y-100475078D01*
X192724659Y-100604659D01*
X192595078Y-100711004D01*
X192595076Y-100711005D01*
X192447242Y-100790024D01*
X192286823Y-100838687D01*
X192161804Y-100851000D01*
X192078196Y-100851000D01*
X191953177Y-100838687D01*
X191792758Y-100790024D01*
X191644924Y-100711005D01*
X191644922Y-100711004D01*
X191515341Y-100604659D01*
X191408996Y-100475078D01*
X191370523Y-100403100D01*
X191329976Y-100327242D01*
X191281313Y-100166823D01*
X191264883Y-100000000D01*
X191281313Y-99833177D01*
X191329976Y-99672758D01*
X191408995Y-99524924D01*
X191408996Y-99524922D01*
X191515341Y-99395341D01*
X191644922Y-99288996D01*
X191725639Y-99245852D01*
X191792758Y-99209976D01*
X191953177Y-99161313D01*
X192078196Y-99149000D01*
X192161804Y-99149000D01*
X192286823Y-99161313D01*
X192286823Y-99161313D01*
G37*
G36*
X184748228Y-99181703D02*
G01*
X184903100Y-99245853D01*
X185042481Y-99338985D01*
X185161015Y-99457519D01*
X185254147Y-99596900D01*
X185318297Y-99751772D01*
X185351000Y-99916184D01*
X185351000Y-100083816D01*
X185318297Y-100248228D01*
X185254147Y-100403100D01*
X185161015Y-100542481D01*
X185042481Y-100661015D01*
X184903100Y-100754147D01*
X184748228Y-100818297D01*
X184583816Y-100851000D01*
X184416184Y-100851000D01*
X184251772Y-100818297D01*
X184096900Y-100754147D01*
X183957519Y-100661015D01*
X183838985Y-100542481D01*
X183745853Y-100403100D01*
X183681703Y-100248228D01*
X183649000Y-100083816D01*
X183649000Y-99916184D01*
X183681703Y-99751772D01*
X183745853Y-99596900D01*
X183838985Y-99457519D01*
X183957519Y-99338985D01*
X184096900Y-99245853D01*
X184251772Y-99181703D01*
X184416184Y-99149000D01*
X184583816Y-99149000D01*
X184748228Y-99181703D01*
X184748228Y-99181703D01*
G37*
G36*
X114364903Y-97297075D02*
G01*
X114592571Y-97391378D01*
X114797466Y-97528285D01*
X114971715Y-97702534D01*
X115108622Y-97907429D01*
X115108623Y-97907431D01*
X115202925Y-98135097D01*
X115251000Y-98376786D01*
X115251000Y-98623214D01*
X115202925Y-98864903D01*
X115111532Y-99085547D01*
X115108622Y-99092571D01*
X114971715Y-99297466D01*
X114797466Y-99471715D01*
X114592571Y-99608622D01*
X114592570Y-99608623D01*
X114592569Y-99608623D01*
X114364903Y-99702925D01*
X114123214Y-99751000D01*
X113876786Y-99751000D01*
X113635097Y-99702925D01*
X113407431Y-99608623D01*
X113407430Y-99608623D01*
X113407429Y-99608622D01*
X113202534Y-99471715D01*
X113028285Y-99297466D01*
X112891378Y-99092571D01*
X112888469Y-99085547D01*
X112797075Y-98864903D01*
X112749000Y-98623214D01*
X112749000Y-98376786D01*
X112797075Y-98135097D01*
X112891377Y-97907431D01*
X112891378Y-97907429D01*
X113028285Y-97702534D01*
X113202534Y-97528285D01*
X113407429Y-97391378D01*
X113635097Y-97297075D01*
X113876786Y-97249000D01*
X114123214Y-97249000D01*
X114364903Y-97297075D01*
X114364903Y-97297075D01*
G37*
G36*
X134364903Y-97297075D02*
G01*
X134592571Y-97391378D01*
X134797466Y-97528285D01*
X134971715Y-97702534D01*
X135108622Y-97907429D01*
X135108623Y-97907431D01*
X135202925Y-98135097D01*
X135251000Y-98376786D01*
X135251000Y-98623214D01*
X135202925Y-98864903D01*
X135111532Y-99085547D01*
X135108622Y-99092571D01*
X134971715Y-99297466D01*
X134797466Y-99471715D01*
X134592571Y-99608622D01*
X134592570Y-99608623D01*
X134592569Y-99608623D01*
X134364903Y-99702925D01*
X134123214Y-99751000D01*
X133876786Y-99751000D01*
X133635097Y-99702925D01*
X133407431Y-99608623D01*
X133407430Y-99608623D01*
X133407429Y-99608622D01*
X133202534Y-99471715D01*
X133028285Y-99297466D01*
X132891378Y-99092571D01*
X132888469Y-99085547D01*
X132797075Y-98864903D01*
X132749000Y-98623214D01*
X132749000Y-98376786D01*
X132797075Y-98135097D01*
X132891377Y-97907431D01*
X132891378Y-97907429D01*
X133028285Y-97702534D01*
X133202534Y-97528285D01*
X133407429Y-97391378D01*
X133635097Y-97297075D01*
X133876786Y-97249000D01*
X134123214Y-97249000D01*
X134364903Y-97297075D01*
X134364903Y-97297075D01*
G37*
G36*
X154364903Y-97297075D02*
G01*
X154592571Y-97391378D01*
X154797466Y-97528285D01*
X154971715Y-97702534D01*
X155108622Y-97907429D01*
X155108623Y-97907431D01*
X155202925Y-98135097D01*
X155251000Y-98376786D01*
X155251000Y-98623214D01*
X155202925Y-98864903D01*
X155111532Y-99085547D01*
X155108622Y-99092571D01*
X154971715Y-99297466D01*
X154797466Y-99471715D01*
X154592571Y-99608622D01*
X154592570Y-99608623D01*
X154592569Y-99608623D01*
X154364903Y-99702925D01*
X154123214Y-99751000D01*
X153876786Y-99751000D01*
X153635097Y-99702925D01*
X153407431Y-99608623D01*
X153407430Y-99608623D01*
X153407429Y-99608622D01*
X153202534Y-99471715D01*
X153028285Y-99297466D01*
X152891378Y-99092571D01*
X152888469Y-99085547D01*
X152797075Y-98864903D01*
X152749000Y-98623214D01*
X152749000Y-98376786D01*
X152797075Y-98135097D01*
X152891377Y-97907431D01*
X152891378Y-97907429D01*
X153028285Y-97702534D01*
X153202534Y-97528285D01*
X153407429Y-97391378D01*
X153635097Y-97297075D01*
X153876786Y-97249000D01*
X154123214Y-97249000D01*
X154364903Y-97297075D01*
X154364903Y-97297075D01*
G37*
G36*
X204901000Y-98901000D02*
G01*
X203099000Y-98901000D01*
X203099000Y-97099000D01*
X204901000Y-97099000D01*
X204901000Y-98901000D01*
X204901000Y-98901000D01*
G37*
G36*
X201570443Y-97105519D02*
G01*
X201636627Y-97112037D01*
X201806466Y-97163557D01*
X201962991Y-97247222D01*
X201965157Y-97249000D01*
X202100186Y-97359814D01*
X202183448Y-97461271D01*
X202212778Y-97497009D01*
X202296443Y-97653534D01*
X202347963Y-97823373D01*
X202365359Y-98000000D01*
X202347963Y-98176627D01*
X202296443Y-98346466D01*
X202296442Y-98346468D01*
X202280236Y-98376787D01*
X202212778Y-98502991D01*
X202201085Y-98517239D01*
X202100186Y-98640186D01*
X201998729Y-98723448D01*
X201962991Y-98752778D01*
X201806466Y-98836443D01*
X201636627Y-98887963D01*
X201570442Y-98894482D01*
X201504260Y-98901000D01*
X201415740Y-98901000D01*
X201349557Y-98894481D01*
X201283373Y-98887963D01*
X201113534Y-98836443D01*
X200957009Y-98752778D01*
X200921271Y-98723448D01*
X200819814Y-98640186D01*
X200718915Y-98517239D01*
X200707222Y-98502991D01*
X200639764Y-98376787D01*
X200623558Y-98346468D01*
X200623557Y-98346466D01*
X200572037Y-98176627D01*
X200554641Y-98000000D01*
X200572037Y-97823373D01*
X200623557Y-97653534D01*
X200707222Y-97497009D01*
X200736552Y-97461271D01*
X200819814Y-97359814D01*
X200954843Y-97249000D01*
X200957009Y-97247222D01*
X201113534Y-97163557D01*
X201283373Y-97112037D01*
X201349557Y-97105519D01*
X201415740Y-97099000D01*
X201504260Y-97099000D01*
X201570443Y-97105519D01*
X201570443Y-97105519D01*
G37*
G36*
X166936425Y-96642760D02*
G01*
X166936428Y-96642761D01*
X166936429Y-96642761D01*
X167115693Y-96697140D01*
X167115696Y-96697142D01*
X167115697Y-96697142D01*
X167280903Y-96785446D01*
X167425712Y-96904288D01*
X167544554Y-97049097D01*
X167605734Y-97163558D01*
X167632860Y-97214307D01*
X167657967Y-97297075D01*
X167687240Y-97393575D01*
X167705601Y-97580000D01*
X167687240Y-97766425D01*
X167687239Y-97766428D01*
X167687239Y-97766429D01*
X167632860Y-97945693D01*
X167632858Y-97945696D01*
X167632858Y-97945697D01*
X167544554Y-98110903D01*
X167425712Y-98255712D01*
X167280903Y-98374554D01*
X167115697Y-98462858D01*
X167115693Y-98462860D01*
X166936429Y-98517239D01*
X166936428Y-98517239D01*
X166936425Y-98517240D01*
X166796718Y-98531000D01*
X166703282Y-98531000D01*
X166563575Y-98517240D01*
X166563572Y-98517239D01*
X166563571Y-98517239D01*
X166384307Y-98462860D01*
X166384303Y-98462858D01*
X166219097Y-98374554D01*
X166074288Y-98255712D01*
X165955446Y-98110903D01*
X165867142Y-97945697D01*
X165867142Y-97945696D01*
X165867140Y-97945693D01*
X165812761Y-97766429D01*
X165812761Y-97766428D01*
X165812760Y-97766425D01*
X165794399Y-97580000D01*
X165812760Y-97393575D01*
X165842033Y-97297075D01*
X165867140Y-97214307D01*
X165894266Y-97163558D01*
X165955446Y-97049097D01*
X166074288Y-96904288D01*
X166219097Y-96785446D01*
X166384303Y-96697142D01*
X166384304Y-96697142D01*
X166384307Y-96697140D01*
X166563571Y-96642761D01*
X166563572Y-96642761D01*
X166563575Y-96642760D01*
X166703282Y-96629000D01*
X166796718Y-96629000D01*
X166936425Y-96642760D01*
X166936425Y-96642760D01*
G37*
G36*
X189666823Y-95281313D02*
G01*
X189827242Y-95329976D01*
X189959906Y-95400886D01*
X189975078Y-95408996D01*
X190104659Y-95515341D01*
X190211004Y-95644922D01*
X190211005Y-95644924D01*
X190290024Y-95792758D01*
X190338687Y-95953177D01*
X190355117Y-96120000D01*
X190338687Y-96286823D01*
X190290024Y-96447242D01*
X190219114Y-96579906D01*
X190211004Y-96595078D01*
X190104659Y-96724659D01*
X189975078Y-96831004D01*
X189975076Y-96831005D01*
X189827242Y-96910024D01*
X189666823Y-96958687D01*
X189541804Y-96971000D01*
X189458196Y-96971000D01*
X189333177Y-96958687D01*
X189172758Y-96910024D01*
X189024924Y-96831005D01*
X189024922Y-96831004D01*
X188895341Y-96724659D01*
X188788996Y-96595078D01*
X188780886Y-96579906D01*
X188709976Y-96447242D01*
X188661313Y-96286823D01*
X188644883Y-96120000D01*
X188661313Y-95953177D01*
X188709976Y-95792758D01*
X188788995Y-95644924D01*
X188788996Y-95644922D01*
X188895341Y-95515341D01*
X189024922Y-95408996D01*
X189040094Y-95400886D01*
X189172758Y-95329976D01*
X189333177Y-95281313D01*
X189458196Y-95269000D01*
X189541804Y-95269000D01*
X189666823Y-95281313D01*
X189666823Y-95281313D01*
G37*
G36*
X166936425Y-94102760D02*
G01*
X166936428Y-94102761D01*
X166936429Y-94102761D01*
X167115693Y-94157140D01*
X167115696Y-94157142D01*
X167115697Y-94157142D01*
X167280903Y-94245446D01*
X167425712Y-94364288D01*
X167544554Y-94509097D01*
X167632858Y-94674303D01*
X167632860Y-94674307D01*
X167687239Y-94853571D01*
X167687240Y-94853575D01*
X167705601Y-95040000D01*
X167687240Y-95226425D01*
X167687239Y-95226428D01*
X167687239Y-95226429D01*
X167632860Y-95405693D01*
X167632858Y-95405696D01*
X167632858Y-95405697D01*
X167544554Y-95570903D01*
X167425712Y-95715712D01*
X167280903Y-95834554D01*
X167115697Y-95922858D01*
X167115693Y-95922860D01*
X166936429Y-95977239D01*
X166936428Y-95977239D01*
X166936425Y-95977240D01*
X166796718Y-95991000D01*
X166703282Y-95991000D01*
X166563575Y-95977240D01*
X166563572Y-95977239D01*
X166563571Y-95977239D01*
X166384307Y-95922860D01*
X166384303Y-95922858D01*
X166219097Y-95834554D01*
X166074288Y-95715712D01*
X165955446Y-95570903D01*
X165867142Y-95405697D01*
X165867142Y-95405696D01*
X165867140Y-95405693D01*
X165812761Y-95226429D01*
X165812761Y-95226428D01*
X165812760Y-95226425D01*
X165794399Y-95040000D01*
X165812760Y-94853575D01*
X165812761Y-94853571D01*
X165867140Y-94674307D01*
X165867142Y-94674303D01*
X165955446Y-94509097D01*
X166074288Y-94364288D01*
X166219097Y-94245446D01*
X166384303Y-94157142D01*
X166384304Y-94157142D01*
X166384307Y-94157140D01*
X166563571Y-94102761D01*
X166563572Y-94102761D01*
X166563575Y-94102760D01*
X166703282Y-94089000D01*
X166796718Y-94089000D01*
X166936425Y-94102760D01*
X166936425Y-94102760D01*
G37*
G36*
X167701000Y-93451000D02*
G01*
X165799000Y-93451000D01*
X165799000Y-91549000D01*
X167701000Y-91549000D01*
X167701000Y-93451000D01*
X167701000Y-93451000D01*
G37*
G36*
X164601000Y-93351000D02*
G01*
X162899000Y-93351000D01*
X162899000Y-91649000D01*
X164601000Y-91649000D01*
X164601000Y-93351000D01*
X164601000Y-93351000D01*
G37*
G36*
X195748228Y-91681703D02*
G01*
X195903100Y-91745853D01*
X196042481Y-91838985D01*
X196161015Y-91957519D01*
X196254147Y-92096900D01*
X196318297Y-92251772D01*
X196351000Y-92416184D01*
X196351000Y-92583816D01*
X196318297Y-92748228D01*
X196254147Y-92903100D01*
X196161015Y-93042481D01*
X196042481Y-93161015D01*
X195903100Y-93254147D01*
X195748228Y-93318297D01*
X195583816Y-93351000D01*
X195416184Y-93351000D01*
X195251772Y-93318297D01*
X195096900Y-93254147D01*
X194957519Y-93161015D01*
X194838985Y-93042481D01*
X194745853Y-92903100D01*
X194681703Y-92748228D01*
X194649000Y-92583816D01*
X194649000Y-92416184D01*
X194681703Y-92251772D01*
X194745853Y-92096900D01*
X194838985Y-91957519D01*
X194957519Y-91838985D01*
X195096900Y-91745853D01*
X195251772Y-91681703D01*
X195416184Y-91649000D01*
X195583816Y-91649000D01*
X195748228Y-91681703D01*
X195748228Y-91681703D01*
G37*
G36*
X155251000Y-92251000D02*
G01*
X152749000Y-92251000D01*
X152749000Y-89749000D01*
X155251000Y-89749000D01*
X155251000Y-92251000D01*
X155251000Y-92251000D01*
G37*
G36*
X135251000Y-92251000D02*
G01*
X132749000Y-92251000D01*
X132749000Y-89749000D01*
X135251000Y-89749000D01*
X135251000Y-92251000D01*
X135251000Y-92251000D01*
G37*
G36*
X115251000Y-92251000D02*
G01*
X112749000Y-92251000D01*
X112749000Y-89749000D01*
X115251000Y-89749000D01*
X115251000Y-92251000D01*
X115251000Y-92251000D01*
G37*
G36*
X196351000Y-90851000D02*
G01*
X194649000Y-90851000D01*
X194649000Y-89149000D01*
X196351000Y-89149000D01*
X196351000Y-90851000D01*
X196351000Y-90851000D01*
G37*
G36*
X102302585Y-87478802D02*
G01*
X102452410Y-87508604D01*
X102734674Y-87625521D01*
X102988705Y-87795259D01*
X103204741Y-88011295D01*
X103374479Y-88265326D01*
X103491396Y-88547590D01*
X103551000Y-88847240D01*
X103551000Y-89152760D01*
X103491396Y-89452410D01*
X103374479Y-89734674D01*
X103204741Y-89988705D01*
X102988705Y-90204741D01*
X102734674Y-90374479D01*
X102452410Y-90491396D01*
X102302585Y-90521198D01*
X102152761Y-90551000D01*
X101847239Y-90551000D01*
X101697415Y-90521198D01*
X101547590Y-90491396D01*
X101265326Y-90374479D01*
X101011295Y-90204741D01*
X100795259Y-89988705D01*
X100625521Y-89734674D01*
X100508604Y-89452410D01*
X100449000Y-89152760D01*
X100449000Y-88847240D01*
X100508604Y-88547590D01*
X100625521Y-88265326D01*
X100795259Y-88011295D01*
X101011295Y-87795259D01*
X101265326Y-87625521D01*
X101547590Y-87508604D01*
X101697415Y-87478802D01*
X101847239Y-87449000D01*
X102152761Y-87449000D01*
X102302585Y-87478802D01*
X102302585Y-87478802D01*
G37*
G36*
X206302585Y-87478802D02*
G01*
X206452410Y-87508604D01*
X206734674Y-87625521D01*
X206988705Y-87795259D01*
X207204741Y-88011295D01*
X207374479Y-88265326D01*
X207491396Y-88547590D01*
X207551000Y-88847240D01*
X207551000Y-89152760D01*
X207491396Y-89452410D01*
X207374479Y-89734674D01*
X207204741Y-89988705D01*
X206988705Y-90204741D01*
X206734674Y-90374479D01*
X206452410Y-90491396D01*
X206302585Y-90521198D01*
X206152761Y-90551000D01*
X205847239Y-90551000D01*
X205697415Y-90521198D01*
X205547590Y-90491396D01*
X205265326Y-90374479D01*
X205011295Y-90204741D01*
X204795259Y-89988705D01*
X204625521Y-89734674D01*
X204508604Y-89452410D01*
X204449000Y-89152760D01*
X204449000Y-88847240D01*
X204508604Y-88547590D01*
X204625521Y-88265326D01*
X204795259Y-88011295D01*
X205011295Y-87795259D01*
X205265326Y-87625521D01*
X205547590Y-87508604D01*
X205697415Y-87478802D01*
X205847239Y-87449000D01*
X206152761Y-87449000D01*
X206302585Y-87478802D01*
X206302585Y-87478802D01*
G37*
G36*
X190351000Y-89351000D02*
G01*
X188649000Y-89351000D01*
X188649000Y-87649000D01*
X190351000Y-87649000D01*
X190351000Y-89351000D01*
X190351000Y-89351000D01*
G37*
M02*
