M48
; DRILL file {KiCad (5.1.4-0-10_14)} date Saturday, November 07, 2020 at 11:41:18 PM
; FORMAT={-:-/ absolute / inch / decimal}
; #@! TF.CreationDate,2020-11-07T23:41:18-06:00
; #@! TF.GenerationSoftware,Kicad,Pcbnew,(5.1.4-0-10_14)
; #@! TF.FileFunction,Plated,1,2,PTH
FMAT,2
INCH
T1C0.0295
T2C0.0315
T3C0.0354
T4C0.0394
T5C0.0472
%
G90
G05
T1
X6.565Y-4.1626
X6.565Y-4.2126
X6.565Y-4.2626
T2
X7.6969Y-3.5433
X7.6969Y-3.6417
X7.2638Y-3.937
X7.5638Y-3.937
X6.2795Y-4.1634
X6.2795Y-4.2618
X7.6969Y-4.7835
X7.6969Y-4.8819
X4.7835Y-4.2323
X4.9803Y-4.2323
X4.3457Y-4.1339
X4.6457Y-4.1339
X4.3465Y-4.2913
X4.6465Y-4.2913
X7.2591Y-4.4882
X7.5591Y-4.4882
X6.4469Y-3.6417
X6.4469Y-3.9417
X6.4469Y-4.4882
X6.4469Y-4.7882
X7.5638Y-4.2126
X7.4606Y-3.4843
X7.4606Y-3.7843
X7.2638Y-4.2126
X7.4606Y-4.6457
X7.4606Y-4.9457
X5.5709Y-4.2323
X5.7677Y-4.2323
T3
X7.6756Y-4.2126
X7.7756Y-4.2126
X7.6772Y-4.4882
X7.7772Y-4.4882
X7.6772Y-3.937
X7.7772Y-3.937
T4
X6.565Y-3.6417
X6.565Y-3.7417
X6.565Y-3.8417
X7.9315Y-3.8583
X7.9315Y-3.9583
X7.9315Y-4.0583
X7.9315Y-4.1583
X7.9315Y-4.2583
X7.9315Y-4.3583
X7.9315Y-4.4583
X7.9315Y-4.5583
X8.0315Y-3.8583
X8.0315Y-4.0583
X8.0315Y-4.1583
X8.0315Y-4.2583
X8.0315Y-4.3583
X8.0315Y-4.4583
X8.0315Y-4.5583
X4.1535Y-4.0945
X8.0315Y-3.9583
X6.565Y-4.5866
X6.565Y-4.6866
X6.565Y-4.7866
X4.1535Y-4.3307
T5
X6.063Y-4.5472
X6.063Y-4.8425
X5.2756Y-4.5472
X5.2756Y-4.8425
X5.2756Y-3.5827
X5.2756Y-3.878
X4.4882Y-4.5472
X4.4882Y-4.8425
X4.4882Y-3.5827
X4.4882Y-3.878
X6.063Y-3.5827
X6.063Y-3.878
T0
M30
