G04 #@! TF.GenerationSoftware,KiCad,Pcbnew,(5.1.4-0-10_14)*
G04 #@! TF.CreationDate,2020-11-15T21:12:07-06:00*
G04 #@! TF.ProjectId,CEM3340_PANEL,43454d33-3334-4305-9f50-414e454c2e6b,rev?*
G04 #@! TF.SameCoordinates,Original*
G04 #@! TF.FileFunction,Copper,L2,Bot*
G04 #@! TF.FilePolarity,Positive*
%FSLAX46Y46*%
G04 Gerber Fmt 4.6, Leading zero omitted, Abs format (unit mm)*
G04 Created by KiCad (PCBNEW (5.1.4-0-10_14)) date 2020-11-15 21:12:07*
%MOMM*%
%LPD*%
G04 APERTURE LIST*
%ADD10C,0.254000*%
G04 APERTURE END LIST*
D10*
G36*
X104640001Y-156270000D02*
G01*
X55460000Y-156270000D01*
X55460000Y-153881353D01*
X58442755Y-153881353D01*
X58443173Y-153941171D01*
X58442755Y-154000988D01*
X58443655Y-154010160D01*
X58476296Y-154320715D01*
X58488320Y-154379291D01*
X58499532Y-154438070D01*
X58502196Y-154446892D01*
X58594535Y-154745192D01*
X58617715Y-154800335D01*
X58640124Y-154855800D01*
X58644451Y-154863937D01*
X58792972Y-155138621D01*
X58826417Y-155188205D01*
X58859177Y-155238268D01*
X58865001Y-155245409D01*
X59064047Y-155486013D01*
X59106482Y-155528154D01*
X59148346Y-155570903D01*
X59155446Y-155576777D01*
X59397435Y-155774138D01*
X59447259Y-155807241D01*
X59496615Y-155841036D01*
X59504721Y-155845419D01*
X59780435Y-155992019D01*
X59835704Y-156014799D01*
X59890724Y-156038381D01*
X59899527Y-156041105D01*
X60198465Y-156131359D01*
X60257138Y-156142976D01*
X60315655Y-156155415D01*
X60324820Y-156156378D01*
X60635594Y-156186850D01*
X60635598Y-156186850D01*
X60667581Y-156190000D01*
X63932419Y-156190000D01*
X63965986Y-156186694D01*
X63986744Y-156186694D01*
X63995909Y-156185731D01*
X64306228Y-156150923D01*
X64364731Y-156138487D01*
X64423419Y-156126867D01*
X64432222Y-156124142D01*
X64729870Y-156029723D01*
X64784792Y-156006183D01*
X64840159Y-155983363D01*
X64848265Y-155978979D01*
X65121904Y-155828544D01*
X65171217Y-155794779D01*
X65221088Y-155761645D01*
X65228188Y-155755770D01*
X65467397Y-155555049D01*
X65509241Y-155512320D01*
X65551694Y-155470162D01*
X65557519Y-155463020D01*
X65753185Y-155219660D01*
X65785938Y-155169608D01*
X65819391Y-155120013D01*
X65823714Y-155111881D01*
X65823717Y-155111877D01*
X65823719Y-155111873D01*
X65968388Y-154835146D01*
X65990785Y-154779711D01*
X66013978Y-154724539D01*
X66016641Y-154715717D01*
X66104807Y-154416156D01*
X66116007Y-154357440D01*
X66128045Y-154298798D01*
X66128944Y-154289627D01*
X66157245Y-153978647D01*
X66156827Y-153918829D01*
X66157088Y-153881353D01*
X91582755Y-153881353D01*
X91583173Y-153941171D01*
X91582755Y-154000988D01*
X91583655Y-154010160D01*
X91616296Y-154320715D01*
X91628320Y-154379291D01*
X91639532Y-154438070D01*
X91642196Y-154446892D01*
X91734535Y-154745192D01*
X91757715Y-154800335D01*
X91780124Y-154855800D01*
X91784451Y-154863937D01*
X91932972Y-155138621D01*
X91966417Y-155188205D01*
X91999177Y-155238268D01*
X92005001Y-155245409D01*
X92204047Y-155486013D01*
X92246482Y-155528154D01*
X92288346Y-155570903D01*
X92295446Y-155576777D01*
X92537435Y-155774138D01*
X92587259Y-155807241D01*
X92636615Y-155841036D01*
X92644721Y-155845419D01*
X92920435Y-155992019D01*
X92975704Y-156014799D01*
X93030724Y-156038381D01*
X93039527Y-156041105D01*
X93338465Y-156131359D01*
X93397138Y-156142976D01*
X93455655Y-156155415D01*
X93464820Y-156156378D01*
X93775594Y-156186850D01*
X93775598Y-156186850D01*
X93807581Y-156190000D01*
X97072419Y-156190000D01*
X97105986Y-156186694D01*
X97126744Y-156186694D01*
X97135909Y-156185731D01*
X97446228Y-156150923D01*
X97504731Y-156138487D01*
X97563419Y-156126867D01*
X97572222Y-156124142D01*
X97869870Y-156029723D01*
X97924792Y-156006183D01*
X97980159Y-155983363D01*
X97988265Y-155978979D01*
X98261904Y-155828544D01*
X98311217Y-155794779D01*
X98361088Y-155761645D01*
X98368188Y-155755770D01*
X98607397Y-155555049D01*
X98649241Y-155512320D01*
X98691694Y-155470162D01*
X98697519Y-155463020D01*
X98893185Y-155219660D01*
X98925938Y-155169608D01*
X98959391Y-155120013D01*
X98963714Y-155111881D01*
X98963717Y-155111877D01*
X98963719Y-155111873D01*
X99108388Y-154835146D01*
X99130785Y-154779711D01*
X99153978Y-154724539D01*
X99156641Y-154715717D01*
X99244807Y-154416156D01*
X99256007Y-154357440D01*
X99268045Y-154298798D01*
X99268944Y-154289627D01*
X99297245Y-153978647D01*
X99296827Y-153918829D01*
X99297245Y-153859012D01*
X99296345Y-153849841D01*
X99263704Y-153539285D01*
X99251680Y-153480709D01*
X99240468Y-153421930D01*
X99237804Y-153413108D01*
X99145465Y-153114808D01*
X99122280Y-153059653D01*
X99099876Y-153004200D01*
X99095549Y-152996064D01*
X99095549Y-152996063D01*
X99095546Y-152996059D01*
X98947028Y-152721379D01*
X98913583Y-152671795D01*
X98880823Y-152621732D01*
X98874999Y-152614591D01*
X98675954Y-152373987D01*
X98633535Y-152331863D01*
X98591655Y-152289097D01*
X98584554Y-152283223D01*
X98342565Y-152085862D01*
X98292741Y-152052759D01*
X98243385Y-152018964D01*
X98235279Y-152014581D01*
X97959566Y-151867981D01*
X97904269Y-151845189D01*
X97849275Y-151821619D01*
X97840472Y-151818895D01*
X97541535Y-151728641D01*
X97482862Y-151717024D01*
X97424345Y-151704585D01*
X97415180Y-151703622D01*
X97104405Y-151673150D01*
X97104402Y-151673150D01*
X97072419Y-151670000D01*
X93807581Y-151670000D01*
X93774014Y-151673306D01*
X93753256Y-151673306D01*
X93744091Y-151674269D01*
X93433771Y-151709077D01*
X93375298Y-151721506D01*
X93316581Y-151733132D01*
X93307778Y-151735858D01*
X93010130Y-151830277D01*
X92955147Y-151853843D01*
X92899841Y-151876638D01*
X92891735Y-151881021D01*
X92618095Y-152031456D01*
X92568748Y-152065245D01*
X92518913Y-152098355D01*
X92511812Y-152104229D01*
X92272603Y-152304951D01*
X92230759Y-152347681D01*
X92188305Y-152389839D01*
X92182481Y-152396980D01*
X91986814Y-152640340D01*
X91954055Y-152690400D01*
X91920609Y-152739986D01*
X91916283Y-152748123D01*
X91771612Y-153024854D01*
X91749215Y-153080289D01*
X91726022Y-153135461D01*
X91723359Y-153144283D01*
X91635193Y-153443844D01*
X91623993Y-153502560D01*
X91611955Y-153561202D01*
X91611056Y-153570373D01*
X91582755Y-153881353D01*
X66157088Y-153881353D01*
X66157245Y-153859012D01*
X66156345Y-153849841D01*
X66123704Y-153539285D01*
X66111680Y-153480709D01*
X66100468Y-153421930D01*
X66097804Y-153413108D01*
X66005465Y-153114808D01*
X65982280Y-153059653D01*
X65959876Y-153004200D01*
X65955549Y-152996064D01*
X65955549Y-152996063D01*
X65955546Y-152996059D01*
X65807028Y-152721379D01*
X65773583Y-152671795D01*
X65740823Y-152621732D01*
X65734999Y-152614591D01*
X65535954Y-152373987D01*
X65493535Y-152331863D01*
X65451655Y-152289097D01*
X65444554Y-152283223D01*
X65202565Y-152085862D01*
X65152741Y-152052759D01*
X65103385Y-152018964D01*
X65095279Y-152014581D01*
X64819566Y-151867981D01*
X64764269Y-151845189D01*
X64709275Y-151821619D01*
X64700472Y-151818895D01*
X64401535Y-151728641D01*
X64342862Y-151717024D01*
X64284345Y-151704585D01*
X64275180Y-151703622D01*
X63964405Y-151673150D01*
X63964402Y-151673150D01*
X63932419Y-151670000D01*
X60667581Y-151670000D01*
X60634014Y-151673306D01*
X60613256Y-151673306D01*
X60604091Y-151674269D01*
X60293771Y-151709077D01*
X60235298Y-151721506D01*
X60176581Y-151733132D01*
X60167778Y-151735858D01*
X59870130Y-151830277D01*
X59815147Y-151853843D01*
X59759841Y-151876638D01*
X59751735Y-151881021D01*
X59478095Y-152031456D01*
X59428748Y-152065245D01*
X59378913Y-152098355D01*
X59371812Y-152104229D01*
X59132603Y-152304951D01*
X59090759Y-152347681D01*
X59048305Y-152389839D01*
X59042481Y-152396980D01*
X58846814Y-152640340D01*
X58814055Y-152690400D01*
X58780609Y-152739986D01*
X58776283Y-152748123D01*
X58631612Y-153024854D01*
X58609215Y-153080289D01*
X58586022Y-153135461D01*
X58583359Y-153144283D01*
X58495193Y-153443844D01*
X58483993Y-153502560D01*
X58471955Y-153561202D01*
X58471056Y-153570373D01*
X58442755Y-153881353D01*
X55460000Y-153881353D01*
X55460000Y-138695866D01*
X58172889Y-138695866D01*
X58172889Y-139424134D01*
X58314967Y-140138408D01*
X58593663Y-140811239D01*
X58998266Y-141416771D01*
X59513229Y-141931734D01*
X60118761Y-142336337D01*
X60791592Y-142615033D01*
X61505866Y-142757111D01*
X62234134Y-142757111D01*
X62948408Y-142615033D01*
X63621239Y-142336337D01*
X64226771Y-141931734D01*
X64741734Y-141416771D01*
X65146337Y-140811239D01*
X65425033Y-140138408D01*
X65567111Y-139424134D01*
X65567111Y-138695866D01*
X70292889Y-138695866D01*
X70292889Y-139424134D01*
X70434967Y-140138408D01*
X70713663Y-140811239D01*
X71118266Y-141416771D01*
X71633229Y-141931734D01*
X72238761Y-142336337D01*
X72911592Y-142615033D01*
X73625866Y-142757111D01*
X74354134Y-142757111D01*
X75068408Y-142615033D01*
X75741239Y-142336337D01*
X76346771Y-141931734D01*
X76861734Y-141416771D01*
X77266337Y-140811239D01*
X77545033Y-140138408D01*
X77687111Y-139424134D01*
X77687111Y-138695866D01*
X82412889Y-138695866D01*
X82412889Y-139424134D01*
X82554967Y-140138408D01*
X82833663Y-140811239D01*
X83238266Y-141416771D01*
X83753229Y-141931734D01*
X84358761Y-142336337D01*
X85031592Y-142615033D01*
X85745866Y-142757111D01*
X86474134Y-142757111D01*
X87188408Y-142615033D01*
X87861239Y-142336337D01*
X88466771Y-141931734D01*
X88981734Y-141416771D01*
X89386337Y-140811239D01*
X89665033Y-140138408D01*
X89807111Y-139424134D01*
X89807111Y-138695866D01*
X94532889Y-138695866D01*
X94532889Y-139424134D01*
X94674967Y-140138408D01*
X94953663Y-140811239D01*
X95358266Y-141416771D01*
X95873229Y-141931734D01*
X96478761Y-142336337D01*
X97151592Y-142615033D01*
X97865866Y-142757111D01*
X98594134Y-142757111D01*
X99308408Y-142615033D01*
X99981239Y-142336337D01*
X100586771Y-141931734D01*
X101101734Y-141416771D01*
X101506337Y-140811239D01*
X101785033Y-140138408D01*
X101927111Y-139424134D01*
X101927111Y-138695866D01*
X101785033Y-137981592D01*
X101506337Y-137308761D01*
X101101734Y-136703229D01*
X100586771Y-136188266D01*
X99981239Y-135783663D01*
X99308408Y-135504967D01*
X98594134Y-135362889D01*
X97865866Y-135362889D01*
X97151592Y-135504967D01*
X96478761Y-135783663D01*
X95873229Y-136188266D01*
X95358266Y-136703229D01*
X94953663Y-137308761D01*
X94674967Y-137981592D01*
X94532889Y-138695866D01*
X89807111Y-138695866D01*
X89665033Y-137981592D01*
X89386337Y-137308761D01*
X88981734Y-136703229D01*
X88466771Y-136188266D01*
X87861239Y-135783663D01*
X87188408Y-135504967D01*
X86474134Y-135362889D01*
X85745866Y-135362889D01*
X85031592Y-135504967D01*
X84358761Y-135783663D01*
X83753229Y-136188266D01*
X83238266Y-136703229D01*
X82833663Y-137308761D01*
X82554967Y-137981592D01*
X82412889Y-138695866D01*
X77687111Y-138695866D01*
X77545033Y-137981592D01*
X77266337Y-137308761D01*
X76861734Y-136703229D01*
X76346771Y-136188266D01*
X75741239Y-135783663D01*
X75068408Y-135504967D01*
X74354134Y-135362889D01*
X73625866Y-135362889D01*
X72911592Y-135504967D01*
X72238761Y-135783663D01*
X71633229Y-136188266D01*
X71118266Y-136703229D01*
X70713663Y-137308761D01*
X70434967Y-137981592D01*
X70292889Y-138695866D01*
X65567111Y-138695866D01*
X65425033Y-137981592D01*
X65146337Y-137308761D01*
X64741734Y-136703229D01*
X64226771Y-136188266D01*
X63621239Y-135783663D01*
X62948408Y-135504967D01*
X62234134Y-135362889D01*
X61505866Y-135362889D01*
X60791592Y-135504967D01*
X60118761Y-135783663D01*
X59513229Y-136188266D01*
X58998266Y-136703229D01*
X58593663Y-137308761D01*
X58314967Y-137981592D01*
X58172889Y-138695866D01*
X55460000Y-138695866D01*
X55460000Y-118375866D01*
X58172889Y-118375866D01*
X58172889Y-119104134D01*
X58314967Y-119818408D01*
X58593663Y-120491239D01*
X58998266Y-121096771D01*
X59513229Y-121611734D01*
X60118761Y-122016337D01*
X60791592Y-122295033D01*
X61505866Y-122437111D01*
X62234134Y-122437111D01*
X62948408Y-122295033D01*
X63621239Y-122016337D01*
X64226771Y-121611734D01*
X64741734Y-121096771D01*
X65146337Y-120491239D01*
X65425033Y-119818408D01*
X65567111Y-119104134D01*
X65567111Y-118375866D01*
X70292889Y-118375866D01*
X70292889Y-119104134D01*
X70434967Y-119818408D01*
X70713663Y-120491239D01*
X71118266Y-121096771D01*
X71633229Y-121611734D01*
X72238761Y-122016337D01*
X72911592Y-122295033D01*
X73625866Y-122437111D01*
X74354134Y-122437111D01*
X75068408Y-122295033D01*
X75741239Y-122016337D01*
X76346771Y-121611734D01*
X76861734Y-121096771D01*
X77266337Y-120491239D01*
X77545033Y-119818408D01*
X77687111Y-119104134D01*
X77687111Y-118375866D01*
X82412889Y-118375866D01*
X82412889Y-119104134D01*
X82554967Y-119818408D01*
X82833663Y-120491239D01*
X83238266Y-121096771D01*
X83753229Y-121611734D01*
X84358761Y-122016337D01*
X85031592Y-122295033D01*
X85745866Y-122437111D01*
X86474134Y-122437111D01*
X87188408Y-122295033D01*
X87861239Y-122016337D01*
X88466771Y-121611734D01*
X88981734Y-121096771D01*
X89386337Y-120491239D01*
X89665033Y-119818408D01*
X89807111Y-119104134D01*
X89807111Y-118375866D01*
X94532889Y-118375866D01*
X94532889Y-119104134D01*
X94674967Y-119818408D01*
X94953663Y-120491239D01*
X95358266Y-121096771D01*
X95873229Y-121611734D01*
X96478761Y-122016337D01*
X97151592Y-122295033D01*
X97865866Y-122437111D01*
X98594134Y-122437111D01*
X99308408Y-122295033D01*
X99981239Y-122016337D01*
X100586771Y-121611734D01*
X101101734Y-121096771D01*
X101506337Y-120491239D01*
X101785033Y-119818408D01*
X101927111Y-119104134D01*
X101927111Y-118375866D01*
X101785033Y-117661592D01*
X101506337Y-116988761D01*
X101101734Y-116383229D01*
X100586771Y-115868266D01*
X99981239Y-115463663D01*
X99308408Y-115184967D01*
X98594134Y-115042889D01*
X97865866Y-115042889D01*
X97151592Y-115184967D01*
X96478761Y-115463663D01*
X95873229Y-115868266D01*
X95358266Y-116383229D01*
X94953663Y-116988761D01*
X94674967Y-117661592D01*
X94532889Y-118375866D01*
X89807111Y-118375866D01*
X89665033Y-117661592D01*
X89386337Y-116988761D01*
X88981734Y-116383229D01*
X88466771Y-115868266D01*
X87861239Y-115463663D01*
X87188408Y-115184967D01*
X86474134Y-115042889D01*
X85745866Y-115042889D01*
X85031592Y-115184967D01*
X84358761Y-115463663D01*
X83753229Y-115868266D01*
X83238266Y-116383229D01*
X82833663Y-116988761D01*
X82554967Y-117661592D01*
X82412889Y-118375866D01*
X77687111Y-118375866D01*
X77545033Y-117661592D01*
X77266337Y-116988761D01*
X76861734Y-116383229D01*
X76346771Y-115868266D01*
X75741239Y-115463663D01*
X75068408Y-115184967D01*
X74354134Y-115042889D01*
X73625866Y-115042889D01*
X72911592Y-115184967D01*
X72238761Y-115463663D01*
X71633229Y-115868266D01*
X71118266Y-116383229D01*
X70713663Y-116988761D01*
X70434967Y-117661592D01*
X70292889Y-118375866D01*
X65567111Y-118375866D01*
X65425033Y-117661592D01*
X65146337Y-116988761D01*
X64741734Y-116383229D01*
X64226771Y-115868266D01*
X63621239Y-115463663D01*
X62948408Y-115184967D01*
X62234134Y-115042889D01*
X61505866Y-115042889D01*
X60791592Y-115184967D01*
X60118761Y-115463663D01*
X59513229Y-115868266D01*
X58998266Y-116383229D01*
X58593663Y-116988761D01*
X58314967Y-117661592D01*
X58172889Y-118375866D01*
X55460000Y-118375866D01*
X55460000Y-96716858D01*
X62605296Y-96716858D01*
X62605296Y-97543142D01*
X62766496Y-98353550D01*
X63082702Y-99116937D01*
X63541761Y-99803968D01*
X64126032Y-100388239D01*
X64813063Y-100847298D01*
X65576450Y-101163504D01*
X66386858Y-101324704D01*
X67213142Y-101324704D01*
X68023550Y-101163504D01*
X68786937Y-100847298D01*
X69473968Y-100388239D01*
X70058239Y-99803968D01*
X70517298Y-99116937D01*
X70833504Y-98353550D01*
X70994704Y-97543142D01*
X70994704Y-96716858D01*
X89105296Y-96716858D01*
X89105296Y-97543142D01*
X89266496Y-98353550D01*
X89582702Y-99116937D01*
X90041761Y-99803968D01*
X90626032Y-100388239D01*
X91313063Y-100847298D01*
X92076450Y-101163504D01*
X92886858Y-101324704D01*
X93713142Y-101324704D01*
X94523550Y-101163504D01*
X95286937Y-100847298D01*
X95973968Y-100388239D01*
X96558239Y-99803968D01*
X97017298Y-99116937D01*
X97333504Y-98353550D01*
X97494704Y-97543142D01*
X97494704Y-96716858D01*
X97333504Y-95906450D01*
X97017298Y-95143063D01*
X96558239Y-94456032D01*
X95973968Y-93871761D01*
X95286937Y-93412702D01*
X94523550Y-93096496D01*
X93713142Y-92935296D01*
X92886858Y-92935296D01*
X92076450Y-93096496D01*
X91313063Y-93412702D01*
X90626032Y-93871761D01*
X90041761Y-94456032D01*
X89582702Y-95143063D01*
X89266496Y-95906450D01*
X89105296Y-96716858D01*
X70994704Y-96716858D01*
X70833504Y-95906450D01*
X70517298Y-95143063D01*
X70058239Y-94456032D01*
X69473968Y-93871761D01*
X68786937Y-93412702D01*
X68023550Y-93096496D01*
X67213142Y-92935296D01*
X66386858Y-92935296D01*
X65576450Y-93096496D01*
X64813063Y-93412702D01*
X64126032Y-93871761D01*
X63541761Y-94456032D01*
X63082702Y-95143063D01*
X62766496Y-95906450D01*
X62605296Y-96716858D01*
X55460000Y-96716858D01*
X55460000Y-71296858D01*
X62605296Y-71296858D01*
X62605296Y-72123142D01*
X62766496Y-72933550D01*
X63082702Y-73696937D01*
X63541761Y-74383968D01*
X64126032Y-74968239D01*
X64813063Y-75427298D01*
X65576450Y-75743504D01*
X66386858Y-75904704D01*
X67213142Y-75904704D01*
X68023550Y-75743504D01*
X68786937Y-75427298D01*
X69473968Y-74968239D01*
X70058239Y-74383968D01*
X70517298Y-73696937D01*
X70833504Y-72933550D01*
X70994704Y-72123142D01*
X70994704Y-71336065D01*
X89503370Y-71336065D01*
X89503370Y-72083935D01*
X89649273Y-72817436D01*
X89935470Y-73508379D01*
X90350965Y-74130210D01*
X90879790Y-74659035D01*
X91501621Y-75074530D01*
X92192564Y-75360727D01*
X92926065Y-75506630D01*
X93673935Y-75506630D01*
X94407436Y-75360727D01*
X95098379Y-75074530D01*
X95720210Y-74659035D01*
X96249035Y-74130210D01*
X96664530Y-73508379D01*
X96950727Y-72817436D01*
X97096630Y-72083935D01*
X97096630Y-71336065D01*
X96950727Y-70602564D01*
X96664530Y-69911621D01*
X96249035Y-69289790D01*
X95720210Y-68760965D01*
X95098379Y-68345470D01*
X94407436Y-68059273D01*
X93673935Y-67913370D01*
X92926065Y-67913370D01*
X92192564Y-68059273D01*
X91501621Y-68345470D01*
X90879790Y-68760965D01*
X90350965Y-69289790D01*
X89935470Y-69911621D01*
X89649273Y-70602564D01*
X89503370Y-71336065D01*
X70994704Y-71336065D01*
X70994704Y-71296858D01*
X70833504Y-70486450D01*
X70517298Y-69723063D01*
X70058239Y-69036032D01*
X69473968Y-68451761D01*
X68786937Y-67992702D01*
X68023550Y-67676496D01*
X67213142Y-67515296D01*
X66386858Y-67515296D01*
X65576450Y-67676496D01*
X64813063Y-67992702D01*
X64126032Y-68451761D01*
X63541761Y-69036032D01*
X63082702Y-69723063D01*
X62766496Y-70486450D01*
X62605296Y-71296858D01*
X55460000Y-71296858D01*
X55460000Y-47916858D01*
X75855296Y-47916858D01*
X75855296Y-48743142D01*
X76016496Y-49553550D01*
X76332702Y-50316937D01*
X76791761Y-51003968D01*
X77376032Y-51588239D01*
X78063063Y-52047298D01*
X78826450Y-52363504D01*
X79636858Y-52524704D01*
X80463142Y-52524704D01*
X81273550Y-52363504D01*
X82036937Y-52047298D01*
X82723968Y-51588239D01*
X83308239Y-51003968D01*
X83767298Y-50316937D01*
X84083504Y-49553550D01*
X84244704Y-48743142D01*
X84244704Y-47916858D01*
X84083504Y-47106450D01*
X83767298Y-46343063D01*
X83308239Y-45656032D01*
X82723968Y-45071761D01*
X82036937Y-44612702D01*
X81273550Y-44296496D01*
X80463142Y-44135296D01*
X79636858Y-44135296D01*
X78826450Y-44296496D01*
X78063063Y-44612702D01*
X77376032Y-45071761D01*
X76791761Y-45656032D01*
X76332702Y-46343063D01*
X76016496Y-47106450D01*
X75855296Y-47916858D01*
X55460000Y-47916858D01*
X55460000Y-31381353D01*
X58442755Y-31381353D01*
X58443173Y-31441171D01*
X58442755Y-31500988D01*
X58443655Y-31510160D01*
X58476296Y-31820715D01*
X58488320Y-31879291D01*
X58499532Y-31938070D01*
X58502196Y-31946892D01*
X58594535Y-32245192D01*
X58617715Y-32300335D01*
X58640124Y-32355800D01*
X58644451Y-32363937D01*
X58792972Y-32638621D01*
X58826417Y-32688205D01*
X58859177Y-32738268D01*
X58865001Y-32745409D01*
X59064047Y-32986013D01*
X59106482Y-33028154D01*
X59148346Y-33070903D01*
X59155446Y-33076777D01*
X59397435Y-33274138D01*
X59447259Y-33307241D01*
X59496615Y-33341036D01*
X59504721Y-33345419D01*
X59780435Y-33492019D01*
X59835704Y-33514799D01*
X59890724Y-33538381D01*
X59899527Y-33541105D01*
X60198465Y-33631359D01*
X60257138Y-33642976D01*
X60315655Y-33655415D01*
X60324820Y-33656378D01*
X60635594Y-33686850D01*
X60635598Y-33686850D01*
X60667581Y-33690000D01*
X63932419Y-33690000D01*
X63965986Y-33686694D01*
X63986744Y-33686694D01*
X63995909Y-33685731D01*
X64306228Y-33650923D01*
X64364731Y-33638487D01*
X64423419Y-33626867D01*
X64432222Y-33624142D01*
X64729870Y-33529723D01*
X64784792Y-33506183D01*
X64840159Y-33483363D01*
X64848265Y-33478979D01*
X65121904Y-33328544D01*
X65171217Y-33294779D01*
X65221088Y-33261645D01*
X65228188Y-33255770D01*
X65467397Y-33055049D01*
X65509241Y-33012320D01*
X65551694Y-32970162D01*
X65557519Y-32963020D01*
X65753185Y-32719660D01*
X65785938Y-32669608D01*
X65819391Y-32620013D01*
X65823714Y-32611881D01*
X65823717Y-32611877D01*
X65823719Y-32611873D01*
X65968388Y-32335146D01*
X65990785Y-32279711D01*
X66013978Y-32224539D01*
X66016641Y-32215717D01*
X66104807Y-31916156D01*
X66116007Y-31857440D01*
X66128045Y-31798798D01*
X66128944Y-31789627D01*
X66157245Y-31478647D01*
X66156827Y-31418829D01*
X66157088Y-31381353D01*
X91582755Y-31381353D01*
X91583173Y-31441171D01*
X91582755Y-31500988D01*
X91583655Y-31510160D01*
X91616296Y-31820715D01*
X91628320Y-31879291D01*
X91639532Y-31938070D01*
X91642196Y-31946892D01*
X91734535Y-32245192D01*
X91757715Y-32300335D01*
X91780124Y-32355800D01*
X91784451Y-32363937D01*
X91932972Y-32638621D01*
X91966417Y-32688205D01*
X91999177Y-32738268D01*
X92005001Y-32745409D01*
X92204047Y-32986013D01*
X92246482Y-33028154D01*
X92288346Y-33070903D01*
X92295446Y-33076777D01*
X92537435Y-33274138D01*
X92587259Y-33307241D01*
X92636615Y-33341036D01*
X92644721Y-33345419D01*
X92920435Y-33492019D01*
X92975704Y-33514799D01*
X93030724Y-33538381D01*
X93039527Y-33541105D01*
X93338465Y-33631359D01*
X93397138Y-33642976D01*
X93455655Y-33655415D01*
X93464820Y-33656378D01*
X93775594Y-33686850D01*
X93775598Y-33686850D01*
X93807581Y-33690000D01*
X97072419Y-33690000D01*
X97105986Y-33686694D01*
X97126744Y-33686694D01*
X97135909Y-33685731D01*
X97446228Y-33650923D01*
X97504731Y-33638487D01*
X97563419Y-33626867D01*
X97572222Y-33624142D01*
X97869870Y-33529723D01*
X97924792Y-33506183D01*
X97980159Y-33483363D01*
X97988265Y-33478979D01*
X98261904Y-33328544D01*
X98311217Y-33294779D01*
X98361088Y-33261645D01*
X98368188Y-33255770D01*
X98607397Y-33055049D01*
X98649241Y-33012320D01*
X98691694Y-32970162D01*
X98697519Y-32963020D01*
X98893185Y-32719660D01*
X98925938Y-32669608D01*
X98959391Y-32620013D01*
X98963714Y-32611881D01*
X98963717Y-32611877D01*
X98963719Y-32611873D01*
X99108388Y-32335146D01*
X99130785Y-32279711D01*
X99153978Y-32224539D01*
X99156641Y-32215717D01*
X99244807Y-31916156D01*
X99256007Y-31857440D01*
X99268045Y-31798798D01*
X99268944Y-31789627D01*
X99297245Y-31478647D01*
X99296827Y-31418830D01*
X99297245Y-31359012D01*
X99296345Y-31349841D01*
X99263704Y-31039285D01*
X99251680Y-30980709D01*
X99240468Y-30921930D01*
X99237804Y-30913108D01*
X99145465Y-30614808D01*
X99122280Y-30559653D01*
X99099876Y-30504200D01*
X99095549Y-30496064D01*
X99095549Y-30496063D01*
X99095546Y-30496059D01*
X98947028Y-30221379D01*
X98913583Y-30171795D01*
X98880823Y-30121732D01*
X98874999Y-30114591D01*
X98675954Y-29873987D01*
X98633535Y-29831863D01*
X98591655Y-29789097D01*
X98584554Y-29783223D01*
X98342565Y-29585862D01*
X98292741Y-29552759D01*
X98243385Y-29518964D01*
X98235279Y-29514581D01*
X97959566Y-29367981D01*
X97904269Y-29345189D01*
X97849275Y-29321619D01*
X97840472Y-29318895D01*
X97541535Y-29228641D01*
X97482862Y-29217024D01*
X97424345Y-29204585D01*
X97415180Y-29203622D01*
X97104405Y-29173150D01*
X97104402Y-29173150D01*
X97072419Y-29170000D01*
X93807581Y-29170000D01*
X93774014Y-29173306D01*
X93753256Y-29173306D01*
X93744091Y-29174269D01*
X93433771Y-29209077D01*
X93375298Y-29221506D01*
X93316581Y-29233132D01*
X93307778Y-29235858D01*
X93010130Y-29330277D01*
X92955147Y-29353843D01*
X92899841Y-29376638D01*
X92891735Y-29381021D01*
X92618095Y-29531456D01*
X92568748Y-29565245D01*
X92518913Y-29598355D01*
X92511812Y-29604229D01*
X92272603Y-29804951D01*
X92230759Y-29847681D01*
X92188305Y-29889839D01*
X92182481Y-29896980D01*
X91986814Y-30140340D01*
X91954055Y-30190400D01*
X91920609Y-30239986D01*
X91916283Y-30248123D01*
X91771612Y-30524854D01*
X91749215Y-30580289D01*
X91726022Y-30635461D01*
X91723359Y-30644283D01*
X91635193Y-30943844D01*
X91623993Y-31002560D01*
X91611955Y-31061202D01*
X91611056Y-31070373D01*
X91582755Y-31381353D01*
X66157088Y-31381353D01*
X66157245Y-31359012D01*
X66156345Y-31349841D01*
X66123704Y-31039285D01*
X66111680Y-30980709D01*
X66100468Y-30921930D01*
X66097804Y-30913108D01*
X66005465Y-30614808D01*
X65982280Y-30559653D01*
X65959876Y-30504200D01*
X65955549Y-30496064D01*
X65955549Y-30496063D01*
X65955546Y-30496059D01*
X65807028Y-30221379D01*
X65773583Y-30171795D01*
X65740823Y-30121732D01*
X65734999Y-30114591D01*
X65535954Y-29873987D01*
X65493535Y-29831863D01*
X65451655Y-29789097D01*
X65444554Y-29783223D01*
X65202565Y-29585862D01*
X65152741Y-29552759D01*
X65103385Y-29518964D01*
X65095279Y-29514581D01*
X64819566Y-29367981D01*
X64764269Y-29345189D01*
X64709275Y-29321619D01*
X64700472Y-29318895D01*
X64401535Y-29228641D01*
X64342862Y-29217024D01*
X64284345Y-29204585D01*
X64275180Y-29203622D01*
X63964405Y-29173150D01*
X63964402Y-29173150D01*
X63932419Y-29170000D01*
X60667581Y-29170000D01*
X60634014Y-29173306D01*
X60613256Y-29173306D01*
X60604091Y-29174269D01*
X60293771Y-29209077D01*
X60235298Y-29221506D01*
X60176581Y-29233132D01*
X60167778Y-29235858D01*
X59870130Y-29330277D01*
X59815147Y-29353843D01*
X59759841Y-29376638D01*
X59751735Y-29381021D01*
X59478095Y-29531456D01*
X59428748Y-29565245D01*
X59378913Y-29598355D01*
X59371812Y-29604229D01*
X59132603Y-29804951D01*
X59090759Y-29847681D01*
X59048305Y-29889839D01*
X59042481Y-29896980D01*
X58846814Y-30140340D01*
X58814055Y-30190400D01*
X58780609Y-30239986D01*
X58776283Y-30248123D01*
X58631612Y-30524854D01*
X58609215Y-30580289D01*
X58586022Y-30635461D01*
X58583359Y-30644283D01*
X58495193Y-30943844D01*
X58483993Y-31002560D01*
X58471955Y-31061202D01*
X58471056Y-31070373D01*
X58442755Y-31381353D01*
X55460000Y-31381353D01*
X55460000Y-29090000D01*
X104640000Y-29090000D01*
X104640001Y-156270000D01*
X104640001Y-156270000D01*
G37*
X104640001Y-156270000D02*
X55460000Y-156270000D01*
X55460000Y-153881353D01*
X58442755Y-153881353D01*
X58443173Y-153941171D01*
X58442755Y-154000988D01*
X58443655Y-154010160D01*
X58476296Y-154320715D01*
X58488320Y-154379291D01*
X58499532Y-154438070D01*
X58502196Y-154446892D01*
X58594535Y-154745192D01*
X58617715Y-154800335D01*
X58640124Y-154855800D01*
X58644451Y-154863937D01*
X58792972Y-155138621D01*
X58826417Y-155188205D01*
X58859177Y-155238268D01*
X58865001Y-155245409D01*
X59064047Y-155486013D01*
X59106482Y-155528154D01*
X59148346Y-155570903D01*
X59155446Y-155576777D01*
X59397435Y-155774138D01*
X59447259Y-155807241D01*
X59496615Y-155841036D01*
X59504721Y-155845419D01*
X59780435Y-155992019D01*
X59835704Y-156014799D01*
X59890724Y-156038381D01*
X59899527Y-156041105D01*
X60198465Y-156131359D01*
X60257138Y-156142976D01*
X60315655Y-156155415D01*
X60324820Y-156156378D01*
X60635594Y-156186850D01*
X60635598Y-156186850D01*
X60667581Y-156190000D01*
X63932419Y-156190000D01*
X63965986Y-156186694D01*
X63986744Y-156186694D01*
X63995909Y-156185731D01*
X64306228Y-156150923D01*
X64364731Y-156138487D01*
X64423419Y-156126867D01*
X64432222Y-156124142D01*
X64729870Y-156029723D01*
X64784792Y-156006183D01*
X64840159Y-155983363D01*
X64848265Y-155978979D01*
X65121904Y-155828544D01*
X65171217Y-155794779D01*
X65221088Y-155761645D01*
X65228188Y-155755770D01*
X65467397Y-155555049D01*
X65509241Y-155512320D01*
X65551694Y-155470162D01*
X65557519Y-155463020D01*
X65753185Y-155219660D01*
X65785938Y-155169608D01*
X65819391Y-155120013D01*
X65823714Y-155111881D01*
X65823717Y-155111877D01*
X65823719Y-155111873D01*
X65968388Y-154835146D01*
X65990785Y-154779711D01*
X66013978Y-154724539D01*
X66016641Y-154715717D01*
X66104807Y-154416156D01*
X66116007Y-154357440D01*
X66128045Y-154298798D01*
X66128944Y-154289627D01*
X66157245Y-153978647D01*
X66156827Y-153918829D01*
X66157088Y-153881353D01*
X91582755Y-153881353D01*
X91583173Y-153941171D01*
X91582755Y-154000988D01*
X91583655Y-154010160D01*
X91616296Y-154320715D01*
X91628320Y-154379291D01*
X91639532Y-154438070D01*
X91642196Y-154446892D01*
X91734535Y-154745192D01*
X91757715Y-154800335D01*
X91780124Y-154855800D01*
X91784451Y-154863937D01*
X91932972Y-155138621D01*
X91966417Y-155188205D01*
X91999177Y-155238268D01*
X92005001Y-155245409D01*
X92204047Y-155486013D01*
X92246482Y-155528154D01*
X92288346Y-155570903D01*
X92295446Y-155576777D01*
X92537435Y-155774138D01*
X92587259Y-155807241D01*
X92636615Y-155841036D01*
X92644721Y-155845419D01*
X92920435Y-155992019D01*
X92975704Y-156014799D01*
X93030724Y-156038381D01*
X93039527Y-156041105D01*
X93338465Y-156131359D01*
X93397138Y-156142976D01*
X93455655Y-156155415D01*
X93464820Y-156156378D01*
X93775594Y-156186850D01*
X93775598Y-156186850D01*
X93807581Y-156190000D01*
X97072419Y-156190000D01*
X97105986Y-156186694D01*
X97126744Y-156186694D01*
X97135909Y-156185731D01*
X97446228Y-156150923D01*
X97504731Y-156138487D01*
X97563419Y-156126867D01*
X97572222Y-156124142D01*
X97869870Y-156029723D01*
X97924792Y-156006183D01*
X97980159Y-155983363D01*
X97988265Y-155978979D01*
X98261904Y-155828544D01*
X98311217Y-155794779D01*
X98361088Y-155761645D01*
X98368188Y-155755770D01*
X98607397Y-155555049D01*
X98649241Y-155512320D01*
X98691694Y-155470162D01*
X98697519Y-155463020D01*
X98893185Y-155219660D01*
X98925938Y-155169608D01*
X98959391Y-155120013D01*
X98963714Y-155111881D01*
X98963717Y-155111877D01*
X98963719Y-155111873D01*
X99108388Y-154835146D01*
X99130785Y-154779711D01*
X99153978Y-154724539D01*
X99156641Y-154715717D01*
X99244807Y-154416156D01*
X99256007Y-154357440D01*
X99268045Y-154298798D01*
X99268944Y-154289627D01*
X99297245Y-153978647D01*
X99296827Y-153918829D01*
X99297245Y-153859012D01*
X99296345Y-153849841D01*
X99263704Y-153539285D01*
X99251680Y-153480709D01*
X99240468Y-153421930D01*
X99237804Y-153413108D01*
X99145465Y-153114808D01*
X99122280Y-153059653D01*
X99099876Y-153004200D01*
X99095549Y-152996064D01*
X99095549Y-152996063D01*
X99095546Y-152996059D01*
X98947028Y-152721379D01*
X98913583Y-152671795D01*
X98880823Y-152621732D01*
X98874999Y-152614591D01*
X98675954Y-152373987D01*
X98633535Y-152331863D01*
X98591655Y-152289097D01*
X98584554Y-152283223D01*
X98342565Y-152085862D01*
X98292741Y-152052759D01*
X98243385Y-152018964D01*
X98235279Y-152014581D01*
X97959566Y-151867981D01*
X97904269Y-151845189D01*
X97849275Y-151821619D01*
X97840472Y-151818895D01*
X97541535Y-151728641D01*
X97482862Y-151717024D01*
X97424345Y-151704585D01*
X97415180Y-151703622D01*
X97104405Y-151673150D01*
X97104402Y-151673150D01*
X97072419Y-151670000D01*
X93807581Y-151670000D01*
X93774014Y-151673306D01*
X93753256Y-151673306D01*
X93744091Y-151674269D01*
X93433771Y-151709077D01*
X93375298Y-151721506D01*
X93316581Y-151733132D01*
X93307778Y-151735858D01*
X93010130Y-151830277D01*
X92955147Y-151853843D01*
X92899841Y-151876638D01*
X92891735Y-151881021D01*
X92618095Y-152031456D01*
X92568748Y-152065245D01*
X92518913Y-152098355D01*
X92511812Y-152104229D01*
X92272603Y-152304951D01*
X92230759Y-152347681D01*
X92188305Y-152389839D01*
X92182481Y-152396980D01*
X91986814Y-152640340D01*
X91954055Y-152690400D01*
X91920609Y-152739986D01*
X91916283Y-152748123D01*
X91771612Y-153024854D01*
X91749215Y-153080289D01*
X91726022Y-153135461D01*
X91723359Y-153144283D01*
X91635193Y-153443844D01*
X91623993Y-153502560D01*
X91611955Y-153561202D01*
X91611056Y-153570373D01*
X91582755Y-153881353D01*
X66157088Y-153881353D01*
X66157245Y-153859012D01*
X66156345Y-153849841D01*
X66123704Y-153539285D01*
X66111680Y-153480709D01*
X66100468Y-153421930D01*
X66097804Y-153413108D01*
X66005465Y-153114808D01*
X65982280Y-153059653D01*
X65959876Y-153004200D01*
X65955549Y-152996064D01*
X65955549Y-152996063D01*
X65955546Y-152996059D01*
X65807028Y-152721379D01*
X65773583Y-152671795D01*
X65740823Y-152621732D01*
X65734999Y-152614591D01*
X65535954Y-152373987D01*
X65493535Y-152331863D01*
X65451655Y-152289097D01*
X65444554Y-152283223D01*
X65202565Y-152085862D01*
X65152741Y-152052759D01*
X65103385Y-152018964D01*
X65095279Y-152014581D01*
X64819566Y-151867981D01*
X64764269Y-151845189D01*
X64709275Y-151821619D01*
X64700472Y-151818895D01*
X64401535Y-151728641D01*
X64342862Y-151717024D01*
X64284345Y-151704585D01*
X64275180Y-151703622D01*
X63964405Y-151673150D01*
X63964402Y-151673150D01*
X63932419Y-151670000D01*
X60667581Y-151670000D01*
X60634014Y-151673306D01*
X60613256Y-151673306D01*
X60604091Y-151674269D01*
X60293771Y-151709077D01*
X60235298Y-151721506D01*
X60176581Y-151733132D01*
X60167778Y-151735858D01*
X59870130Y-151830277D01*
X59815147Y-151853843D01*
X59759841Y-151876638D01*
X59751735Y-151881021D01*
X59478095Y-152031456D01*
X59428748Y-152065245D01*
X59378913Y-152098355D01*
X59371812Y-152104229D01*
X59132603Y-152304951D01*
X59090759Y-152347681D01*
X59048305Y-152389839D01*
X59042481Y-152396980D01*
X58846814Y-152640340D01*
X58814055Y-152690400D01*
X58780609Y-152739986D01*
X58776283Y-152748123D01*
X58631612Y-153024854D01*
X58609215Y-153080289D01*
X58586022Y-153135461D01*
X58583359Y-153144283D01*
X58495193Y-153443844D01*
X58483993Y-153502560D01*
X58471955Y-153561202D01*
X58471056Y-153570373D01*
X58442755Y-153881353D01*
X55460000Y-153881353D01*
X55460000Y-138695866D01*
X58172889Y-138695866D01*
X58172889Y-139424134D01*
X58314967Y-140138408D01*
X58593663Y-140811239D01*
X58998266Y-141416771D01*
X59513229Y-141931734D01*
X60118761Y-142336337D01*
X60791592Y-142615033D01*
X61505866Y-142757111D01*
X62234134Y-142757111D01*
X62948408Y-142615033D01*
X63621239Y-142336337D01*
X64226771Y-141931734D01*
X64741734Y-141416771D01*
X65146337Y-140811239D01*
X65425033Y-140138408D01*
X65567111Y-139424134D01*
X65567111Y-138695866D01*
X70292889Y-138695866D01*
X70292889Y-139424134D01*
X70434967Y-140138408D01*
X70713663Y-140811239D01*
X71118266Y-141416771D01*
X71633229Y-141931734D01*
X72238761Y-142336337D01*
X72911592Y-142615033D01*
X73625866Y-142757111D01*
X74354134Y-142757111D01*
X75068408Y-142615033D01*
X75741239Y-142336337D01*
X76346771Y-141931734D01*
X76861734Y-141416771D01*
X77266337Y-140811239D01*
X77545033Y-140138408D01*
X77687111Y-139424134D01*
X77687111Y-138695866D01*
X82412889Y-138695866D01*
X82412889Y-139424134D01*
X82554967Y-140138408D01*
X82833663Y-140811239D01*
X83238266Y-141416771D01*
X83753229Y-141931734D01*
X84358761Y-142336337D01*
X85031592Y-142615033D01*
X85745866Y-142757111D01*
X86474134Y-142757111D01*
X87188408Y-142615033D01*
X87861239Y-142336337D01*
X88466771Y-141931734D01*
X88981734Y-141416771D01*
X89386337Y-140811239D01*
X89665033Y-140138408D01*
X89807111Y-139424134D01*
X89807111Y-138695866D01*
X94532889Y-138695866D01*
X94532889Y-139424134D01*
X94674967Y-140138408D01*
X94953663Y-140811239D01*
X95358266Y-141416771D01*
X95873229Y-141931734D01*
X96478761Y-142336337D01*
X97151592Y-142615033D01*
X97865866Y-142757111D01*
X98594134Y-142757111D01*
X99308408Y-142615033D01*
X99981239Y-142336337D01*
X100586771Y-141931734D01*
X101101734Y-141416771D01*
X101506337Y-140811239D01*
X101785033Y-140138408D01*
X101927111Y-139424134D01*
X101927111Y-138695866D01*
X101785033Y-137981592D01*
X101506337Y-137308761D01*
X101101734Y-136703229D01*
X100586771Y-136188266D01*
X99981239Y-135783663D01*
X99308408Y-135504967D01*
X98594134Y-135362889D01*
X97865866Y-135362889D01*
X97151592Y-135504967D01*
X96478761Y-135783663D01*
X95873229Y-136188266D01*
X95358266Y-136703229D01*
X94953663Y-137308761D01*
X94674967Y-137981592D01*
X94532889Y-138695866D01*
X89807111Y-138695866D01*
X89665033Y-137981592D01*
X89386337Y-137308761D01*
X88981734Y-136703229D01*
X88466771Y-136188266D01*
X87861239Y-135783663D01*
X87188408Y-135504967D01*
X86474134Y-135362889D01*
X85745866Y-135362889D01*
X85031592Y-135504967D01*
X84358761Y-135783663D01*
X83753229Y-136188266D01*
X83238266Y-136703229D01*
X82833663Y-137308761D01*
X82554967Y-137981592D01*
X82412889Y-138695866D01*
X77687111Y-138695866D01*
X77545033Y-137981592D01*
X77266337Y-137308761D01*
X76861734Y-136703229D01*
X76346771Y-136188266D01*
X75741239Y-135783663D01*
X75068408Y-135504967D01*
X74354134Y-135362889D01*
X73625866Y-135362889D01*
X72911592Y-135504967D01*
X72238761Y-135783663D01*
X71633229Y-136188266D01*
X71118266Y-136703229D01*
X70713663Y-137308761D01*
X70434967Y-137981592D01*
X70292889Y-138695866D01*
X65567111Y-138695866D01*
X65425033Y-137981592D01*
X65146337Y-137308761D01*
X64741734Y-136703229D01*
X64226771Y-136188266D01*
X63621239Y-135783663D01*
X62948408Y-135504967D01*
X62234134Y-135362889D01*
X61505866Y-135362889D01*
X60791592Y-135504967D01*
X60118761Y-135783663D01*
X59513229Y-136188266D01*
X58998266Y-136703229D01*
X58593663Y-137308761D01*
X58314967Y-137981592D01*
X58172889Y-138695866D01*
X55460000Y-138695866D01*
X55460000Y-118375866D01*
X58172889Y-118375866D01*
X58172889Y-119104134D01*
X58314967Y-119818408D01*
X58593663Y-120491239D01*
X58998266Y-121096771D01*
X59513229Y-121611734D01*
X60118761Y-122016337D01*
X60791592Y-122295033D01*
X61505866Y-122437111D01*
X62234134Y-122437111D01*
X62948408Y-122295033D01*
X63621239Y-122016337D01*
X64226771Y-121611734D01*
X64741734Y-121096771D01*
X65146337Y-120491239D01*
X65425033Y-119818408D01*
X65567111Y-119104134D01*
X65567111Y-118375866D01*
X70292889Y-118375866D01*
X70292889Y-119104134D01*
X70434967Y-119818408D01*
X70713663Y-120491239D01*
X71118266Y-121096771D01*
X71633229Y-121611734D01*
X72238761Y-122016337D01*
X72911592Y-122295033D01*
X73625866Y-122437111D01*
X74354134Y-122437111D01*
X75068408Y-122295033D01*
X75741239Y-122016337D01*
X76346771Y-121611734D01*
X76861734Y-121096771D01*
X77266337Y-120491239D01*
X77545033Y-119818408D01*
X77687111Y-119104134D01*
X77687111Y-118375866D01*
X82412889Y-118375866D01*
X82412889Y-119104134D01*
X82554967Y-119818408D01*
X82833663Y-120491239D01*
X83238266Y-121096771D01*
X83753229Y-121611734D01*
X84358761Y-122016337D01*
X85031592Y-122295033D01*
X85745866Y-122437111D01*
X86474134Y-122437111D01*
X87188408Y-122295033D01*
X87861239Y-122016337D01*
X88466771Y-121611734D01*
X88981734Y-121096771D01*
X89386337Y-120491239D01*
X89665033Y-119818408D01*
X89807111Y-119104134D01*
X89807111Y-118375866D01*
X94532889Y-118375866D01*
X94532889Y-119104134D01*
X94674967Y-119818408D01*
X94953663Y-120491239D01*
X95358266Y-121096771D01*
X95873229Y-121611734D01*
X96478761Y-122016337D01*
X97151592Y-122295033D01*
X97865866Y-122437111D01*
X98594134Y-122437111D01*
X99308408Y-122295033D01*
X99981239Y-122016337D01*
X100586771Y-121611734D01*
X101101734Y-121096771D01*
X101506337Y-120491239D01*
X101785033Y-119818408D01*
X101927111Y-119104134D01*
X101927111Y-118375866D01*
X101785033Y-117661592D01*
X101506337Y-116988761D01*
X101101734Y-116383229D01*
X100586771Y-115868266D01*
X99981239Y-115463663D01*
X99308408Y-115184967D01*
X98594134Y-115042889D01*
X97865866Y-115042889D01*
X97151592Y-115184967D01*
X96478761Y-115463663D01*
X95873229Y-115868266D01*
X95358266Y-116383229D01*
X94953663Y-116988761D01*
X94674967Y-117661592D01*
X94532889Y-118375866D01*
X89807111Y-118375866D01*
X89665033Y-117661592D01*
X89386337Y-116988761D01*
X88981734Y-116383229D01*
X88466771Y-115868266D01*
X87861239Y-115463663D01*
X87188408Y-115184967D01*
X86474134Y-115042889D01*
X85745866Y-115042889D01*
X85031592Y-115184967D01*
X84358761Y-115463663D01*
X83753229Y-115868266D01*
X83238266Y-116383229D01*
X82833663Y-116988761D01*
X82554967Y-117661592D01*
X82412889Y-118375866D01*
X77687111Y-118375866D01*
X77545033Y-117661592D01*
X77266337Y-116988761D01*
X76861734Y-116383229D01*
X76346771Y-115868266D01*
X75741239Y-115463663D01*
X75068408Y-115184967D01*
X74354134Y-115042889D01*
X73625866Y-115042889D01*
X72911592Y-115184967D01*
X72238761Y-115463663D01*
X71633229Y-115868266D01*
X71118266Y-116383229D01*
X70713663Y-116988761D01*
X70434967Y-117661592D01*
X70292889Y-118375866D01*
X65567111Y-118375866D01*
X65425033Y-117661592D01*
X65146337Y-116988761D01*
X64741734Y-116383229D01*
X64226771Y-115868266D01*
X63621239Y-115463663D01*
X62948408Y-115184967D01*
X62234134Y-115042889D01*
X61505866Y-115042889D01*
X60791592Y-115184967D01*
X60118761Y-115463663D01*
X59513229Y-115868266D01*
X58998266Y-116383229D01*
X58593663Y-116988761D01*
X58314967Y-117661592D01*
X58172889Y-118375866D01*
X55460000Y-118375866D01*
X55460000Y-96716858D01*
X62605296Y-96716858D01*
X62605296Y-97543142D01*
X62766496Y-98353550D01*
X63082702Y-99116937D01*
X63541761Y-99803968D01*
X64126032Y-100388239D01*
X64813063Y-100847298D01*
X65576450Y-101163504D01*
X66386858Y-101324704D01*
X67213142Y-101324704D01*
X68023550Y-101163504D01*
X68786937Y-100847298D01*
X69473968Y-100388239D01*
X70058239Y-99803968D01*
X70517298Y-99116937D01*
X70833504Y-98353550D01*
X70994704Y-97543142D01*
X70994704Y-96716858D01*
X89105296Y-96716858D01*
X89105296Y-97543142D01*
X89266496Y-98353550D01*
X89582702Y-99116937D01*
X90041761Y-99803968D01*
X90626032Y-100388239D01*
X91313063Y-100847298D01*
X92076450Y-101163504D01*
X92886858Y-101324704D01*
X93713142Y-101324704D01*
X94523550Y-101163504D01*
X95286937Y-100847298D01*
X95973968Y-100388239D01*
X96558239Y-99803968D01*
X97017298Y-99116937D01*
X97333504Y-98353550D01*
X97494704Y-97543142D01*
X97494704Y-96716858D01*
X97333504Y-95906450D01*
X97017298Y-95143063D01*
X96558239Y-94456032D01*
X95973968Y-93871761D01*
X95286937Y-93412702D01*
X94523550Y-93096496D01*
X93713142Y-92935296D01*
X92886858Y-92935296D01*
X92076450Y-93096496D01*
X91313063Y-93412702D01*
X90626032Y-93871761D01*
X90041761Y-94456032D01*
X89582702Y-95143063D01*
X89266496Y-95906450D01*
X89105296Y-96716858D01*
X70994704Y-96716858D01*
X70833504Y-95906450D01*
X70517298Y-95143063D01*
X70058239Y-94456032D01*
X69473968Y-93871761D01*
X68786937Y-93412702D01*
X68023550Y-93096496D01*
X67213142Y-92935296D01*
X66386858Y-92935296D01*
X65576450Y-93096496D01*
X64813063Y-93412702D01*
X64126032Y-93871761D01*
X63541761Y-94456032D01*
X63082702Y-95143063D01*
X62766496Y-95906450D01*
X62605296Y-96716858D01*
X55460000Y-96716858D01*
X55460000Y-71296858D01*
X62605296Y-71296858D01*
X62605296Y-72123142D01*
X62766496Y-72933550D01*
X63082702Y-73696937D01*
X63541761Y-74383968D01*
X64126032Y-74968239D01*
X64813063Y-75427298D01*
X65576450Y-75743504D01*
X66386858Y-75904704D01*
X67213142Y-75904704D01*
X68023550Y-75743504D01*
X68786937Y-75427298D01*
X69473968Y-74968239D01*
X70058239Y-74383968D01*
X70517298Y-73696937D01*
X70833504Y-72933550D01*
X70994704Y-72123142D01*
X70994704Y-71336065D01*
X89503370Y-71336065D01*
X89503370Y-72083935D01*
X89649273Y-72817436D01*
X89935470Y-73508379D01*
X90350965Y-74130210D01*
X90879790Y-74659035D01*
X91501621Y-75074530D01*
X92192564Y-75360727D01*
X92926065Y-75506630D01*
X93673935Y-75506630D01*
X94407436Y-75360727D01*
X95098379Y-75074530D01*
X95720210Y-74659035D01*
X96249035Y-74130210D01*
X96664530Y-73508379D01*
X96950727Y-72817436D01*
X97096630Y-72083935D01*
X97096630Y-71336065D01*
X96950727Y-70602564D01*
X96664530Y-69911621D01*
X96249035Y-69289790D01*
X95720210Y-68760965D01*
X95098379Y-68345470D01*
X94407436Y-68059273D01*
X93673935Y-67913370D01*
X92926065Y-67913370D01*
X92192564Y-68059273D01*
X91501621Y-68345470D01*
X90879790Y-68760965D01*
X90350965Y-69289790D01*
X89935470Y-69911621D01*
X89649273Y-70602564D01*
X89503370Y-71336065D01*
X70994704Y-71336065D01*
X70994704Y-71296858D01*
X70833504Y-70486450D01*
X70517298Y-69723063D01*
X70058239Y-69036032D01*
X69473968Y-68451761D01*
X68786937Y-67992702D01*
X68023550Y-67676496D01*
X67213142Y-67515296D01*
X66386858Y-67515296D01*
X65576450Y-67676496D01*
X64813063Y-67992702D01*
X64126032Y-68451761D01*
X63541761Y-69036032D01*
X63082702Y-69723063D01*
X62766496Y-70486450D01*
X62605296Y-71296858D01*
X55460000Y-71296858D01*
X55460000Y-47916858D01*
X75855296Y-47916858D01*
X75855296Y-48743142D01*
X76016496Y-49553550D01*
X76332702Y-50316937D01*
X76791761Y-51003968D01*
X77376032Y-51588239D01*
X78063063Y-52047298D01*
X78826450Y-52363504D01*
X79636858Y-52524704D01*
X80463142Y-52524704D01*
X81273550Y-52363504D01*
X82036937Y-52047298D01*
X82723968Y-51588239D01*
X83308239Y-51003968D01*
X83767298Y-50316937D01*
X84083504Y-49553550D01*
X84244704Y-48743142D01*
X84244704Y-47916858D01*
X84083504Y-47106450D01*
X83767298Y-46343063D01*
X83308239Y-45656032D01*
X82723968Y-45071761D01*
X82036937Y-44612702D01*
X81273550Y-44296496D01*
X80463142Y-44135296D01*
X79636858Y-44135296D01*
X78826450Y-44296496D01*
X78063063Y-44612702D01*
X77376032Y-45071761D01*
X76791761Y-45656032D01*
X76332702Y-46343063D01*
X76016496Y-47106450D01*
X75855296Y-47916858D01*
X55460000Y-47916858D01*
X55460000Y-31381353D01*
X58442755Y-31381353D01*
X58443173Y-31441171D01*
X58442755Y-31500988D01*
X58443655Y-31510160D01*
X58476296Y-31820715D01*
X58488320Y-31879291D01*
X58499532Y-31938070D01*
X58502196Y-31946892D01*
X58594535Y-32245192D01*
X58617715Y-32300335D01*
X58640124Y-32355800D01*
X58644451Y-32363937D01*
X58792972Y-32638621D01*
X58826417Y-32688205D01*
X58859177Y-32738268D01*
X58865001Y-32745409D01*
X59064047Y-32986013D01*
X59106482Y-33028154D01*
X59148346Y-33070903D01*
X59155446Y-33076777D01*
X59397435Y-33274138D01*
X59447259Y-33307241D01*
X59496615Y-33341036D01*
X59504721Y-33345419D01*
X59780435Y-33492019D01*
X59835704Y-33514799D01*
X59890724Y-33538381D01*
X59899527Y-33541105D01*
X60198465Y-33631359D01*
X60257138Y-33642976D01*
X60315655Y-33655415D01*
X60324820Y-33656378D01*
X60635594Y-33686850D01*
X60635598Y-33686850D01*
X60667581Y-33690000D01*
X63932419Y-33690000D01*
X63965986Y-33686694D01*
X63986744Y-33686694D01*
X63995909Y-33685731D01*
X64306228Y-33650923D01*
X64364731Y-33638487D01*
X64423419Y-33626867D01*
X64432222Y-33624142D01*
X64729870Y-33529723D01*
X64784792Y-33506183D01*
X64840159Y-33483363D01*
X64848265Y-33478979D01*
X65121904Y-33328544D01*
X65171217Y-33294779D01*
X65221088Y-33261645D01*
X65228188Y-33255770D01*
X65467397Y-33055049D01*
X65509241Y-33012320D01*
X65551694Y-32970162D01*
X65557519Y-32963020D01*
X65753185Y-32719660D01*
X65785938Y-32669608D01*
X65819391Y-32620013D01*
X65823714Y-32611881D01*
X65823717Y-32611877D01*
X65823719Y-32611873D01*
X65968388Y-32335146D01*
X65990785Y-32279711D01*
X66013978Y-32224539D01*
X66016641Y-32215717D01*
X66104807Y-31916156D01*
X66116007Y-31857440D01*
X66128045Y-31798798D01*
X66128944Y-31789627D01*
X66157245Y-31478647D01*
X66156827Y-31418829D01*
X66157088Y-31381353D01*
X91582755Y-31381353D01*
X91583173Y-31441171D01*
X91582755Y-31500988D01*
X91583655Y-31510160D01*
X91616296Y-31820715D01*
X91628320Y-31879291D01*
X91639532Y-31938070D01*
X91642196Y-31946892D01*
X91734535Y-32245192D01*
X91757715Y-32300335D01*
X91780124Y-32355800D01*
X91784451Y-32363937D01*
X91932972Y-32638621D01*
X91966417Y-32688205D01*
X91999177Y-32738268D01*
X92005001Y-32745409D01*
X92204047Y-32986013D01*
X92246482Y-33028154D01*
X92288346Y-33070903D01*
X92295446Y-33076777D01*
X92537435Y-33274138D01*
X92587259Y-33307241D01*
X92636615Y-33341036D01*
X92644721Y-33345419D01*
X92920435Y-33492019D01*
X92975704Y-33514799D01*
X93030724Y-33538381D01*
X93039527Y-33541105D01*
X93338465Y-33631359D01*
X93397138Y-33642976D01*
X93455655Y-33655415D01*
X93464820Y-33656378D01*
X93775594Y-33686850D01*
X93775598Y-33686850D01*
X93807581Y-33690000D01*
X97072419Y-33690000D01*
X97105986Y-33686694D01*
X97126744Y-33686694D01*
X97135909Y-33685731D01*
X97446228Y-33650923D01*
X97504731Y-33638487D01*
X97563419Y-33626867D01*
X97572222Y-33624142D01*
X97869870Y-33529723D01*
X97924792Y-33506183D01*
X97980159Y-33483363D01*
X97988265Y-33478979D01*
X98261904Y-33328544D01*
X98311217Y-33294779D01*
X98361088Y-33261645D01*
X98368188Y-33255770D01*
X98607397Y-33055049D01*
X98649241Y-33012320D01*
X98691694Y-32970162D01*
X98697519Y-32963020D01*
X98893185Y-32719660D01*
X98925938Y-32669608D01*
X98959391Y-32620013D01*
X98963714Y-32611881D01*
X98963717Y-32611877D01*
X98963719Y-32611873D01*
X99108388Y-32335146D01*
X99130785Y-32279711D01*
X99153978Y-32224539D01*
X99156641Y-32215717D01*
X99244807Y-31916156D01*
X99256007Y-31857440D01*
X99268045Y-31798798D01*
X99268944Y-31789627D01*
X99297245Y-31478647D01*
X99296827Y-31418830D01*
X99297245Y-31359012D01*
X99296345Y-31349841D01*
X99263704Y-31039285D01*
X99251680Y-30980709D01*
X99240468Y-30921930D01*
X99237804Y-30913108D01*
X99145465Y-30614808D01*
X99122280Y-30559653D01*
X99099876Y-30504200D01*
X99095549Y-30496064D01*
X99095549Y-30496063D01*
X99095546Y-30496059D01*
X98947028Y-30221379D01*
X98913583Y-30171795D01*
X98880823Y-30121732D01*
X98874999Y-30114591D01*
X98675954Y-29873987D01*
X98633535Y-29831863D01*
X98591655Y-29789097D01*
X98584554Y-29783223D01*
X98342565Y-29585862D01*
X98292741Y-29552759D01*
X98243385Y-29518964D01*
X98235279Y-29514581D01*
X97959566Y-29367981D01*
X97904269Y-29345189D01*
X97849275Y-29321619D01*
X97840472Y-29318895D01*
X97541535Y-29228641D01*
X97482862Y-29217024D01*
X97424345Y-29204585D01*
X97415180Y-29203622D01*
X97104405Y-29173150D01*
X97104402Y-29173150D01*
X97072419Y-29170000D01*
X93807581Y-29170000D01*
X93774014Y-29173306D01*
X93753256Y-29173306D01*
X93744091Y-29174269D01*
X93433771Y-29209077D01*
X93375298Y-29221506D01*
X93316581Y-29233132D01*
X93307778Y-29235858D01*
X93010130Y-29330277D01*
X92955147Y-29353843D01*
X92899841Y-29376638D01*
X92891735Y-29381021D01*
X92618095Y-29531456D01*
X92568748Y-29565245D01*
X92518913Y-29598355D01*
X92511812Y-29604229D01*
X92272603Y-29804951D01*
X92230759Y-29847681D01*
X92188305Y-29889839D01*
X92182481Y-29896980D01*
X91986814Y-30140340D01*
X91954055Y-30190400D01*
X91920609Y-30239986D01*
X91916283Y-30248123D01*
X91771612Y-30524854D01*
X91749215Y-30580289D01*
X91726022Y-30635461D01*
X91723359Y-30644283D01*
X91635193Y-30943844D01*
X91623993Y-31002560D01*
X91611955Y-31061202D01*
X91611056Y-31070373D01*
X91582755Y-31381353D01*
X66157088Y-31381353D01*
X66157245Y-31359012D01*
X66156345Y-31349841D01*
X66123704Y-31039285D01*
X66111680Y-30980709D01*
X66100468Y-30921930D01*
X66097804Y-30913108D01*
X66005465Y-30614808D01*
X65982280Y-30559653D01*
X65959876Y-30504200D01*
X65955549Y-30496064D01*
X65955549Y-30496063D01*
X65955546Y-30496059D01*
X65807028Y-30221379D01*
X65773583Y-30171795D01*
X65740823Y-30121732D01*
X65734999Y-30114591D01*
X65535954Y-29873987D01*
X65493535Y-29831863D01*
X65451655Y-29789097D01*
X65444554Y-29783223D01*
X65202565Y-29585862D01*
X65152741Y-29552759D01*
X65103385Y-29518964D01*
X65095279Y-29514581D01*
X64819566Y-29367981D01*
X64764269Y-29345189D01*
X64709275Y-29321619D01*
X64700472Y-29318895D01*
X64401535Y-29228641D01*
X64342862Y-29217024D01*
X64284345Y-29204585D01*
X64275180Y-29203622D01*
X63964405Y-29173150D01*
X63964402Y-29173150D01*
X63932419Y-29170000D01*
X60667581Y-29170000D01*
X60634014Y-29173306D01*
X60613256Y-29173306D01*
X60604091Y-29174269D01*
X60293771Y-29209077D01*
X60235298Y-29221506D01*
X60176581Y-29233132D01*
X60167778Y-29235858D01*
X59870130Y-29330277D01*
X59815147Y-29353843D01*
X59759841Y-29376638D01*
X59751735Y-29381021D01*
X59478095Y-29531456D01*
X59428748Y-29565245D01*
X59378913Y-29598355D01*
X59371812Y-29604229D01*
X59132603Y-29804951D01*
X59090759Y-29847681D01*
X59048305Y-29889839D01*
X59042481Y-29896980D01*
X58846814Y-30140340D01*
X58814055Y-30190400D01*
X58780609Y-30239986D01*
X58776283Y-30248123D01*
X58631612Y-30524854D01*
X58609215Y-30580289D01*
X58586022Y-30635461D01*
X58583359Y-30644283D01*
X58495193Y-30943844D01*
X58483993Y-31002560D01*
X58471955Y-31061202D01*
X58471056Y-31070373D01*
X58442755Y-31381353D01*
X55460000Y-31381353D01*
X55460000Y-29090000D01*
X104640000Y-29090000D01*
X104640001Y-156270000D01*
M02*
