G04 #@! TF.GenerationSoftware,KiCad,Pcbnew,(5.1.4-0-10_14)*
G04 #@! TF.CreationDate,2020-11-15T21:12:07-06:00*
G04 #@! TF.ProjectId,CEM3340_PANEL,43454d33-3334-4305-9f50-414e454c2e6b,rev?*
G04 #@! TF.SameCoordinates,Original*
G04 #@! TF.FileFunction,Profile,NP*
%FSLAX46Y46*%
G04 Gerber Fmt 4.6, Leading zero omitted, Abs format (unit mm)*
G04 Created by KiCad (PCBNEW (5.1.4-0-10_14)) date 2020-11-15 21:12:07*
%MOMM*%
%LPD*%
G04 APERTURE LIST*
%ADD10C,0.050000*%
%ADD11C,0.120000*%
G04 APERTURE END LIST*
D10*
X93840000Y-29830000D02*
X97040000Y-29830000D01*
X97040000Y-29830000D02*
G75*
G02X97040000Y-33030000I0J-1600000D01*
G01*
X93840000Y-33030000D02*
G75*
G02X93840000Y-29830000I0J1600000D01*
G01*
X93840000Y-33030000D02*
X97040000Y-33030000D01*
X60700000Y-29830000D02*
X63900000Y-29830000D01*
X63900000Y-29830000D02*
G75*
G02X63900000Y-33030000I0J-1600000D01*
G01*
X60700000Y-33030000D02*
G75*
G02X60700000Y-29830000I0J1600000D01*
G01*
X60700000Y-33030000D02*
X63900000Y-33030000D01*
X93840000Y-152330000D02*
X97040000Y-152330000D01*
X97040000Y-152330000D02*
G75*
G02X97040000Y-155530000I0J-1600000D01*
G01*
X93840000Y-155530000D02*
G75*
G02X93840000Y-152330000I0J1600000D01*
G01*
X93840000Y-155530000D02*
X97040000Y-155530000D01*
X60700000Y-155530000D02*
G75*
G02X60700000Y-152330000I0J1600000D01*
G01*
X63900000Y-152330000D02*
G75*
G02X63900000Y-155530000I0J-1600000D01*
G01*
X60700000Y-155530000D02*
X63900000Y-155530000D01*
X60700000Y-152330000D02*
X63900000Y-152330000D01*
D11*
X83550000Y-48330000D02*
G75*
G03X83550000Y-48330000I-3500000J0D01*
G01*
X96400000Y-71710000D02*
G75*
G03X96400000Y-71710000I-3100000J0D01*
G01*
X64870000Y-118740000D02*
G75*
G03X64870000Y-118740000I-3000000J0D01*
G01*
X76990000Y-118740000D02*
G75*
G03X76990000Y-118740000I-3000000J0D01*
G01*
X89110000Y-118740000D02*
G75*
G03X89110000Y-118740000I-3000000J0D01*
G01*
X101230000Y-118740000D02*
G75*
G03X101230000Y-118740000I-3000000J0D01*
G01*
X64870000Y-139060000D02*
G75*
G03X64870000Y-139060000I-3000000J0D01*
G01*
X76990000Y-139060000D02*
G75*
G03X76990000Y-139060000I-3000000J0D01*
G01*
X89110000Y-139060000D02*
G75*
G03X89110000Y-139060000I-3000000J0D01*
G01*
X101230000Y-139060000D02*
G75*
G03X101230000Y-139060000I-3000000J0D01*
G01*
X70300000Y-97130000D02*
G75*
G03X70300000Y-97130000I-3500000J0D01*
G01*
X96800000Y-97130000D02*
G75*
G03X96800000Y-97130000I-3500000J0D01*
G01*
X70300000Y-71710000D02*
G75*
G03X70300000Y-71710000I-3500000J0D01*
G01*
D10*
X105300000Y-28430000D02*
X105300000Y-156930000D01*
X54800000Y-28430000D02*
X54800000Y-156930000D01*
X54800000Y-156930000D02*
X105300000Y-156930000D01*
X54800000Y-28430000D02*
X105300000Y-28430000D01*
M02*
