M48
; DRILL file {KiCad (5.1.4-0-10_14)} date Sunday, November 15, 2020 at 10:06:38 PM
; FORMAT={-:-/ absolute / inch / decimal}
; #@! TF.CreationDate,2020-11-15T22:06:38-06:00
; #@! TF.GenerationSoftware,Kicad,Pcbnew,(5.1.4-0-10_14)
; #@! TF.FileFunction,Plated,1,2,PTH
FMAT,2
INCH
T1C0.0157
T2C0.0295
T3C0.0315
T4C0.0394
%
G90
G05
T1
X5.5035Y-3.4457
X5.5661Y-1.7807
X5.5839Y-2.5071
X5.6315Y-3.4457
X5.672Y-2.1669
X5.7185Y-3.9551
X5.7594Y-3.4457
X5.8193Y-3.7669
X5.8201Y-3.2646
X5.8646Y-1.9063
X5.8965Y-2.098
X5.8965Y-2.1673
X5.9472Y-3.4339
X5.976Y-2.2622
X5.9772Y-2.637
X6.0169Y-2.8669
X6.0626Y-3.128
X6.0752Y-3.9094
X6.1169Y-2.3681
X6.1177Y-2.1827
X6.1177Y-2.265
X6.1228Y-3.0504
X6.1232Y-2.9547
X6.2031Y-2.5197
X6.2504Y-4.1189
X6.3504Y-4.1189
X6.3614Y-2.6031
X6.4504Y-4.1189
X6.4606Y-3.5256
X6.4606Y-3.6535
X6.5291Y-2.5354
X6.5646Y-2.1146
X6.602Y-3.2965
X6.7Y-3.7496
X6.7126Y-2.4445
X6.7268Y-2.8417
X6.8776Y-1.9701
X6.9189Y-3.2362
X7.0142Y-3.7512
X7.1461Y-1.6886
X7.1461Y-2.2437
X7.1831Y-2.3776
X7.1843Y-4.2909
X7.248Y-3.1594
T2
X5.6685Y-3.8953
X5.7185Y-3.8953
X5.7685Y-3.8953
X7.1055Y-3.0681
X7.1555Y-3.0681
X7.2055Y-3.0681
X7.1055Y-3.2638
X7.1555Y-3.2638
X7.2055Y-3.2638
T3
X6.6626Y-2.9965
X6.6626Y-3.2965
X6.0077Y-3.5256
X6.3077Y-3.5256
X6.7677Y-4.2811
X7.0677Y-4.2811
X5.7594Y-2.7543
X5.7594Y-3.0543
X5.5429Y-2.5476
X5.6429Y-2.5476
X5.7429Y-2.5476
X6.9185Y-2.3776
X7.0783Y-2.2437
X5.7618Y-2.098
X6.0618Y-2.098
X6.0618Y-1.9701
X6.4002Y-3.5256
X6.7002Y-3.5256
X6.6626Y-2.9039
X6.5039Y-2.6988
X6.2039Y-3.2988
X6.5039Y-2.7988
X6.2039Y-3.1988
X6.5039Y-2.8988
X6.2039Y-3.0988
X6.5039Y-2.9988
X6.2039Y-2.9988
X6.5039Y-3.0988
X6.2039Y-2.8988
X6.5039Y-3.1988
X6.2039Y-2.7988
X6.5039Y-3.2988
X6.2039Y-2.6988
X6.6626Y-2.6039
X5.7618Y-1.9701
X5.5429Y-2.3264
X7.0783Y-2.0469
X6.7906Y-2.9039
X7.0465Y-2.9039
X7.0465Y-2.6039
X6.7906Y-2.6039
X6.6449Y-2.226
X6.9449Y-2.226
X6.9449Y-1.9701
X5.7429Y-2.3264
X5.6429Y-2.3264
X6.6449Y-1.9701
X7.1154Y-2.3776
X6.2039Y-1.7146
X6.2039Y-1.8146
X6.2039Y-1.9146
X6.2039Y-2.0146
X6.2039Y-2.1146
X6.2039Y-2.2146
X6.2039Y-2.3146
X6.2039Y-2.4146
X6.5039Y-1.7146
X6.5039Y-1.8146
X6.5039Y-1.9146
X6.5039Y-2.0146
X6.5039Y-2.1146
X6.5039Y-2.2146
X6.5039Y-2.3146
X6.5039Y-2.4146
X6.7909Y-2.9965
X6.7909Y-3.2965
X6.6449Y-2.3461
X6.6449Y-2.4445
X6.9189Y-2.9965
X6.9189Y-3.2965
X6.2559Y-3.8248
X6.4528Y-3.8248
X6.9638Y-3.4622
X7.0783Y-1.6886
X7.0783Y-1.8854
X7.1638Y-3.4622
X5.7618Y-1.7142
X6.0618Y-1.7142
X5.7618Y-1.8421
X6.0618Y-1.8421
X7.0638Y-3.4622
X6.9449Y-1.8421
X5.8874Y-3.2059
X5.8874Y-3.5059
X5.6315Y-3.5059
X5.5035Y-3.2059
X5.5035Y-3.5059
X6.6449Y-1.8421
X5.6315Y-3.2059
X6.0077Y-3.6535
X5.8874Y-3.0543
X5.7594Y-3.2059
X5.7594Y-3.5059
X7.0677Y-4.1531
X6.4002Y-3.6535
X6.7002Y-3.6535
X5.6315Y-2.7543
X5.6315Y-3.0543
X6.6449Y-2.098
X6.9449Y-2.098
X6.3077Y-3.6535
X5.8874Y-2.7543
X5.5035Y-2.7543
X5.5035Y-3.0543
X6.7677Y-4.1531
X6.7002Y-3.811
X6.6449Y-1.7142
X6.9449Y-1.7142
X6.0618Y-2.6984
X6.0618Y-2.7969
X6.7002Y-3.9094
X6.0077Y-3.811
X6.0077Y-3.9094
X5.6224Y-3.6992
X5.8193Y-3.6992
X6.9638Y-3.6945
X7.0638Y-3.6945
X7.1638Y-3.6945
X6.9185Y-2.6039
X6.0622Y-3.2004
X6.0622Y-3.2988
X6.9185Y-2.9039
T4
X5.4602Y-1.6787
X5.4602Y-1.7787
X5.4602Y-1.8787
X5.4602Y-1.9787
X7.2476Y-1.6787
X7.2476Y-1.7787
X7.2476Y-1.8787
X7.2476Y-1.9787
X7.2476Y-2.0787
X6.1504Y-4.1807
X6.1504Y-4.2807
X6.2504Y-4.1807
X6.2504Y-4.2807
X6.3504Y-4.1807
X6.3504Y-4.2807
X6.4504Y-4.1807
X6.4504Y-4.2807
X6.5504Y-4.1807
X6.5504Y-4.2807
X7.2476Y-3.8913
X7.2476Y-3.9913
X7.2476Y-4.0913
X7.2476Y-4.1913
X7.2476Y-4.2913
X5.4602Y-3.8913
X5.4602Y-2.0787
X5.4602Y-3.9913
X5.4602Y-4.0913
X5.4602Y-4.1913
X5.4602Y-4.2913
T0
M30
