M48
; DRILL file {KiCad (5.1.4-0-10_14)} date Sunday, November 15, 2020 at 10:02:47 PM
; FORMAT={-:-/ absolute / inch / decimal}
; #@! TF.CreationDate,2020-11-15T22:02:47-06:00
; #@! TF.GenerationSoftware,Kicad,Pcbnew,(5.1.4-0-10_14)
; #@! TF.FileFunction,Plated,1,2,PTH
FMAT,2
INCH
T1C0.0157
T2C0.0315
T3C0.0394
T4C0.0480
T5C0.0512
T6C0.0559
T7C0.0563
T8C0.0709
%
G90
G05
T1
X3.7071Y-3.7181
X3.7394Y-1.4055
X3.8252Y-3.8138
X3.8252Y-4.6138
X3.9201Y-2.5134
X3.9201Y-3.5134
X4.2346Y-3.8791
X4.3024Y-4.6138
X4.4295Y-2.9134
X4.4433Y-1.5925
X4.4528Y-3.8795
X4.5868Y-2.422
X4.7118Y-3.8791
X4.7795Y-4.6138
X4.8398Y-2.2807
X4.9638Y-3.5138
X5.2567Y-3.8138
X5.2567Y-4.6138
T2
X4.6301Y-4.55
X4.9301Y-4.55
X5.1075Y-4.55
X5.4075Y-4.55
X4.8657Y-2.8661
X5.0626Y-2.8661
X4.4295Y-2.7096
X4.7295Y-2.7096
X4.1526Y-4.55
X4.4526Y-4.55
X4.0024Y-3.7531
X4.3024Y-3.7531
X4.8657Y-2.672
X5.0626Y-2.672
X4.4295Y-2.4231
X4.7295Y-2.4231
X4.4295Y-2.9961
X4.7295Y-2.9961
X4.4295Y-2.8528
X4.7295Y-2.8528
X4.4295Y-2.1366
X4.7295Y-2.1366
X4.4295Y-2.5663
X4.7295Y-2.5663
X4.4295Y-2.2799
X4.7295Y-2.2799
X3.6752Y-4.55
X3.9752Y-4.55
T3
X3.9201Y-3.5783
X4.0185Y-3.5783
X4.1169Y-3.5783
X5.4346Y-3.3181
X5.4346Y-3.4181
X5.4346Y-3.5181
X5.4346Y-3.6181
X5.4346Y-3.7181
X5.4346Y-1.1055
X5.4346Y-1.2055
X5.4346Y-1.3055
X5.4346Y-1.4055
X5.4346Y-1.5055
X3.6441Y-3.3181
X3.6441Y-3.4181
X3.6441Y-3.5181
X3.6441Y-3.6181
X3.6441Y-3.7181
X3.6453Y-1.1055
X3.6453Y-1.2055
X3.6453Y-1.3055
X3.6453Y-1.4055
X3.6453Y-1.5055
X3.9201Y-2.578
X4.0185Y-2.578
X4.1169Y-2.578
X4.9638Y-3.5787
X5.0622Y-3.5787
X5.1606Y-3.5787
X4.4433Y-1.6571
X4.5417Y-1.6571
X4.6402Y-1.6571
T4
X5.2567Y-3.8791
X3.8252Y-4.6791
X3.8252Y-3.8791
X5.2567Y-4.6791
X4.7795Y-4.6791
X4.3024Y-4.6791
X4.7795Y-3.8791
X4.3024Y-3.8791
T6
X4.7795Y-4.0012
X5.2567Y-4.0012
X3.8252Y-4.8012
X3.8252Y-4.0012
X4.7795Y-4.8012
X5.2567Y-4.8012
X4.3024Y-4.8012
X4.3024Y-4.0012
T7
X4.7795Y-4.328
X5.2567Y-4.328
X3.8252Y-4.328
X3.8252Y-5.128
X5.2567Y-5.128
X4.7795Y-5.128
X4.3024Y-5.128
X4.3024Y-4.328
T8
X3.8295Y-2.2827
X4.2075Y-2.2827
X4.3528Y-1.3618
X4.7307Y-1.3618
X4.8732Y-3.2835
X5.2512Y-3.2835
X3.8295Y-3.2831
X4.2075Y-3.2831
T5
G00X5.0902Y-2.0972
M15
G01X5.035Y-2.0972
M16
G05
G00X5.0902Y-2.2823
M15
G01X5.035Y-2.2823
M16
G05
G00X5.0902Y-2.4673
M15
G01X5.035Y-2.4673
M16
G05
T0
M30
