G04 #@! TF.GenerationSoftware,KiCad,Pcbnew,(5.1.4-0-10_14)*
G04 #@! TF.CreationDate,2020-11-15T22:02:50-06:00*
G04 #@! TF.ProjectId,CEM3340_VCO,43454d33-3334-4305-9f56-434f2e6b6963,rev?*
G04 #@! TF.SameCoordinates,Original*
G04 #@! TF.FileFunction,Copper,L1,Top*
G04 #@! TF.FilePolarity,Positive*
%FSLAX46Y46*%
G04 Gerber Fmt 4.6, Leading zero omitted, Abs format (unit mm)*
G04 Created by KiCad (PCBNEW (5.1.4-0-10_14)) date 2020-11-15 22:02:50*
%MOMM*%
%LPD*%
G04 APERTURE LIST*
%ADD10C,0.100000*%
%ADD11C,2.850000*%
%ADD12C,3.240000*%
%ADD13C,1.800000*%
%ADD14R,1.800000X1.800000*%
%ADD15C,2.130000*%
%ADD16R,1.930000X1.830000*%
%ADD17C,1.600000*%
%ADD18O,1.700000X1.700000*%
%ADD19R,1.700000X1.700000*%
%ADD20O,1.600000X1.600000*%
%ADD21C,0.800000*%
%ADD22C,0.500000*%
%ADD23C,0.250000*%
%ADD24C,0.254000*%
G04 APERTURE END LIST*
D10*
G36*
X129547337Y-61248431D02*
G01*
X129616502Y-61258690D01*
X129684328Y-61275680D01*
X129750162Y-61299236D01*
X129813370Y-61329131D01*
X129873344Y-61365078D01*
X129929505Y-61406730D01*
X129981314Y-61453686D01*
X130028270Y-61505495D01*
X130069922Y-61561656D01*
X130105869Y-61621630D01*
X130135764Y-61684838D01*
X130159320Y-61750672D01*
X130176310Y-61818498D01*
X130186569Y-61887663D01*
X130190000Y-61957500D01*
X130190000Y-63382500D01*
X130186569Y-63452337D01*
X130176310Y-63521502D01*
X130159320Y-63589328D01*
X130135764Y-63655162D01*
X130105869Y-63718370D01*
X130069922Y-63778344D01*
X130028270Y-63834505D01*
X129981314Y-63886314D01*
X129929505Y-63933270D01*
X129873344Y-63974922D01*
X129813370Y-64010869D01*
X129750162Y-64040764D01*
X129684328Y-64064320D01*
X129616502Y-64081310D01*
X129547337Y-64091569D01*
X129477500Y-64095000D01*
X127702500Y-64095000D01*
X127632663Y-64091569D01*
X127563498Y-64081310D01*
X127495672Y-64064320D01*
X127429838Y-64040764D01*
X127366630Y-64010869D01*
X127306656Y-63974922D01*
X127250495Y-63933270D01*
X127198686Y-63886314D01*
X127151730Y-63834505D01*
X127110078Y-63778344D01*
X127074131Y-63718370D01*
X127044236Y-63655162D01*
X127020680Y-63589328D01*
X127003690Y-63521502D01*
X126993431Y-63452337D01*
X126990000Y-63382500D01*
X126990000Y-61957500D01*
X126993431Y-61887663D01*
X127003690Y-61818498D01*
X127020680Y-61750672D01*
X127044236Y-61684838D01*
X127074131Y-61621630D01*
X127110078Y-61561656D01*
X127151730Y-61505495D01*
X127198686Y-61453686D01*
X127250495Y-61406730D01*
X127306656Y-61365078D01*
X127366630Y-61329131D01*
X127429838Y-61299236D01*
X127495672Y-61275680D01*
X127563498Y-61258690D01*
X127632663Y-61248431D01*
X127702500Y-61245000D01*
X129477500Y-61245000D01*
X129547337Y-61248431D01*
X129547337Y-61248431D01*
G37*
D11*
X128590000Y-62670000D03*
D10*
G36*
X129547337Y-56548431D02*
G01*
X129616502Y-56558690D01*
X129684328Y-56575680D01*
X129750162Y-56599236D01*
X129813370Y-56629131D01*
X129873344Y-56665078D01*
X129929505Y-56706730D01*
X129981314Y-56753686D01*
X130028270Y-56805495D01*
X130069922Y-56861656D01*
X130105869Y-56921630D01*
X130135764Y-56984838D01*
X130159320Y-57050672D01*
X130176310Y-57118498D01*
X130186569Y-57187663D01*
X130190000Y-57257500D01*
X130190000Y-58682500D01*
X130186569Y-58752337D01*
X130176310Y-58821502D01*
X130159320Y-58889328D01*
X130135764Y-58955162D01*
X130105869Y-59018370D01*
X130069922Y-59078344D01*
X130028270Y-59134505D01*
X129981314Y-59186314D01*
X129929505Y-59233270D01*
X129873344Y-59274922D01*
X129813370Y-59310869D01*
X129750162Y-59340764D01*
X129684328Y-59364320D01*
X129616502Y-59381310D01*
X129547337Y-59391569D01*
X129477500Y-59395000D01*
X127702500Y-59395000D01*
X127632663Y-59391569D01*
X127563498Y-59381310D01*
X127495672Y-59364320D01*
X127429838Y-59340764D01*
X127366630Y-59310869D01*
X127306656Y-59274922D01*
X127250495Y-59233270D01*
X127198686Y-59186314D01*
X127151730Y-59134505D01*
X127110078Y-59078344D01*
X127074131Y-59018370D01*
X127044236Y-58955162D01*
X127020680Y-58889328D01*
X127003690Y-58821502D01*
X126993431Y-58752337D01*
X126990000Y-58682500D01*
X126990000Y-57257500D01*
X126993431Y-57187663D01*
X127003690Y-57118498D01*
X127020680Y-57050672D01*
X127044236Y-56984838D01*
X127074131Y-56921630D01*
X127110078Y-56861656D01*
X127151730Y-56805495D01*
X127198686Y-56753686D01*
X127250495Y-56706730D01*
X127306656Y-56665078D01*
X127366630Y-56629131D01*
X127429838Y-56599236D01*
X127495672Y-56575680D01*
X127563498Y-56558690D01*
X127632663Y-56548431D01*
X127702500Y-56545000D01*
X129477500Y-56545000D01*
X129547337Y-56548431D01*
X129547337Y-56548431D01*
G37*
D11*
X128590000Y-57970000D03*
D10*
G36*
X129547337Y-51848431D02*
G01*
X129616502Y-51858690D01*
X129684328Y-51875680D01*
X129750162Y-51899236D01*
X129813370Y-51929131D01*
X129873344Y-51965078D01*
X129929505Y-52006730D01*
X129981314Y-52053686D01*
X130028270Y-52105495D01*
X130069922Y-52161656D01*
X130105869Y-52221630D01*
X130135764Y-52284838D01*
X130159320Y-52350672D01*
X130176310Y-52418498D01*
X130186569Y-52487663D01*
X130190000Y-52557500D01*
X130190000Y-53982500D01*
X130186569Y-54052337D01*
X130176310Y-54121502D01*
X130159320Y-54189328D01*
X130135764Y-54255162D01*
X130105869Y-54318370D01*
X130069922Y-54378344D01*
X130028270Y-54434505D01*
X129981314Y-54486314D01*
X129929505Y-54533270D01*
X129873344Y-54574922D01*
X129813370Y-54610869D01*
X129750162Y-54640764D01*
X129684328Y-54664320D01*
X129616502Y-54681310D01*
X129547337Y-54691569D01*
X129477500Y-54695000D01*
X127702500Y-54695000D01*
X127632663Y-54691569D01*
X127563498Y-54681310D01*
X127495672Y-54664320D01*
X127429838Y-54640764D01*
X127366630Y-54610869D01*
X127306656Y-54574922D01*
X127250495Y-54533270D01*
X127198686Y-54486314D01*
X127151730Y-54434505D01*
X127110078Y-54378344D01*
X127074131Y-54318370D01*
X127044236Y-54255162D01*
X127020680Y-54189328D01*
X127003690Y-54121502D01*
X126993431Y-54052337D01*
X126990000Y-53982500D01*
X126990000Y-52557500D01*
X126993431Y-52487663D01*
X127003690Y-52418498D01*
X127020680Y-52350672D01*
X127044236Y-52284838D01*
X127074131Y-52221630D01*
X127110078Y-52161656D01*
X127151730Y-52105495D01*
X127198686Y-52053686D01*
X127250495Y-52006730D01*
X127306656Y-51965078D01*
X127366630Y-51929131D01*
X127429838Y-51899236D01*
X127495672Y-51875680D01*
X127563498Y-51858690D01*
X127632663Y-51848431D01*
X127702500Y-51845000D01*
X129477500Y-51845000D01*
X129547337Y-51848431D01*
X129547337Y-51848431D01*
G37*
D11*
X128590000Y-53270000D03*
D12*
X110560000Y-34590000D03*
X120160000Y-34590000D03*
D13*
X117860000Y-42090000D03*
X115360000Y-42090000D03*
D14*
X112860000Y-42090000D03*
D15*
X133520000Y-109930000D03*
D16*
X133520000Y-98530000D03*
D15*
X133520000Y-101630000D03*
X121400000Y-109930000D03*
D16*
X121400000Y-98530000D03*
D15*
X121400000Y-101630000D03*
X97160000Y-109930000D03*
D16*
X97160000Y-98530000D03*
D15*
X97160000Y-101630000D03*
X97160000Y-130250000D03*
D16*
X97160000Y-118850000D03*
D15*
X97160000Y-121950000D03*
X109280000Y-130250000D03*
D16*
X109280000Y-118850000D03*
D15*
X109280000Y-121950000D03*
X133520000Y-130250000D03*
D16*
X133520000Y-118850000D03*
D15*
X133520000Y-121950000D03*
X121400000Y-130250000D03*
D16*
X121400000Y-118850000D03*
D15*
X121400000Y-121950000D03*
D17*
X123590000Y-67870000D03*
X128590000Y-67870000D03*
X123590000Y-72800000D03*
X128590000Y-72800000D03*
D18*
X138040000Y-84280000D03*
X138040000Y-86820000D03*
X138040000Y-89360000D03*
X138040000Y-91900000D03*
D19*
X138040000Y-94440000D03*
D18*
X92560000Y-84280000D03*
X92560000Y-86820000D03*
X92560000Y-89360000D03*
X92560000Y-91900000D03*
D19*
X92560000Y-94440000D03*
D18*
X138040000Y-38240000D03*
X138040000Y-35700000D03*
X138040000Y-33160000D03*
X138040000Y-30620000D03*
D19*
X138040000Y-28080000D03*
D18*
X92590000Y-38240000D03*
X92590000Y-35700000D03*
X92590000Y-33160000D03*
X92590000Y-30620000D03*
D19*
X92590000Y-28080000D03*
D12*
X123780000Y-83400000D03*
X133380000Y-83400000D03*
D13*
X131080000Y-90900000D03*
X128580000Y-90900000D03*
D14*
X126080000Y-90900000D03*
D12*
X97270000Y-83390000D03*
X106870000Y-83390000D03*
D13*
X104570000Y-90890000D03*
X102070000Y-90890000D03*
D14*
X99570000Y-90890000D03*
D20*
X120130000Y-68823332D03*
D17*
X112510000Y-68823332D03*
D20*
X120130000Y-65184999D03*
D17*
X112510000Y-65184999D03*
D20*
X112510000Y-72461665D03*
D17*
X120130000Y-72461665D03*
D20*
X113096666Y-115570000D03*
D17*
X105476666Y-115570000D03*
D20*
X137350000Y-115570000D03*
D17*
X129730000Y-115570000D03*
D15*
X109280000Y-109930000D03*
D16*
X109280000Y-98530000D03*
D15*
X109280000Y-101630000D03*
D20*
X120130000Y-76100000D03*
D17*
X112510000Y-76100000D03*
D20*
X109280000Y-95330000D03*
D17*
X101660000Y-95330000D03*
D20*
X112510000Y-61546666D03*
D17*
X120130000Y-61546666D03*
D20*
X112510000Y-54270000D03*
D17*
X120130000Y-54270000D03*
D20*
X112510000Y-57908333D03*
D17*
X120130000Y-57908333D03*
D20*
X100970000Y-115570000D03*
D17*
X93350000Y-115570000D03*
D20*
X125223332Y-115570000D03*
D17*
X117603332Y-115570000D03*
D12*
X97270000Y-57980000D03*
X106870000Y-57980000D03*
D13*
X104570000Y-65480000D03*
X102070000Y-65480000D03*
D14*
X99570000Y-65480000D03*
D21*
X112860000Y-40450000D03*
X99570000Y-63840000D03*
X99570000Y-89240000D03*
X94160000Y-94440000D03*
X97160000Y-96870000D03*
X107560000Y-98530000D03*
X119680000Y-98530000D03*
X133520000Y-96870000D03*
X126080000Y-89250000D03*
X97160000Y-117190000D03*
X109280000Y-117190000D03*
X121400000Y-117190000D03*
X133520000Y-117190000D03*
X94980000Y-35700000D03*
X122930000Y-57930000D03*
X112510000Y-74000000D03*
X113100000Y-98540000D03*
X116504990Y-61519998D03*
D22*
X104570000Y-64848333D02*
X104570000Y-65480000D01*
X138040000Y-45390000D02*
X138040000Y-84280000D01*
X136140000Y-42090000D02*
X138040000Y-43990000D01*
X138040000Y-43990000D02*
X138040000Y-45390000D01*
X117860000Y-42090000D02*
X136140000Y-42090000D01*
X104865001Y-65184999D02*
X104570000Y-65480000D01*
X112510000Y-65184999D02*
X104865001Y-65184999D01*
X112510000Y-57908333D02*
X113768333Y-57908333D01*
X115330000Y-57910000D02*
X115328333Y-57908333D01*
X113768333Y-57908333D02*
X115328333Y-57908333D01*
X114210000Y-101630000D02*
X115330000Y-100510000D01*
X109280000Y-101630000D02*
X114210000Y-101630000D01*
X117580000Y-55660000D02*
X117580000Y-42370000D01*
X117580000Y-42370000D02*
X117860000Y-42090000D01*
X115330000Y-57910000D02*
X117580000Y-55660000D01*
X115324999Y-65184999D02*
X115330000Y-65190000D01*
X112510000Y-65184999D02*
X115324999Y-65184999D01*
X115330000Y-65190000D02*
X115330000Y-57910000D01*
X115330000Y-100510000D02*
X115330000Y-65190000D01*
D23*
X115360000Y-42090000D02*
X114850000Y-42600000D01*
X115360000Y-42090000D02*
X115360000Y-53540000D01*
X114630000Y-54270000D02*
X112510000Y-54270000D01*
X115360000Y-53540000D02*
X114630000Y-54270000D01*
X113100000Y-80410000D02*
X113100000Y-98540000D01*
X111640000Y-78950000D02*
X113100000Y-80410000D01*
X93730000Y-78950000D02*
X111640000Y-78950000D01*
X92560000Y-80120000D02*
X93730000Y-78950000D01*
X92560000Y-84280000D02*
X92560000Y-80120000D01*
X116504990Y-105665010D02*
X116504990Y-61519998D01*
X114940000Y-107230000D02*
X116504990Y-105665010D01*
X103850000Y-107230000D02*
X114940000Y-107230000D01*
X100970000Y-110110000D02*
X103850000Y-107230000D01*
X100970000Y-115570000D02*
X100970000Y-110110000D01*
X125223332Y-100976668D02*
X125223332Y-115570000D01*
X133950000Y-92250000D02*
X125223332Y-100976668D01*
X133950000Y-92247919D02*
X133950000Y-92250000D01*
X136837919Y-89360000D02*
X133950000Y-92247919D01*
X138040000Y-89360000D02*
X136837919Y-89360000D01*
X137350000Y-95130000D02*
X138040000Y-94440000D01*
X137350000Y-115570000D02*
X137350000Y-95130000D01*
D24*
G36*
X136835506Y-26699463D02*
G01*
X136738815Y-26778815D01*
X136659463Y-26875506D01*
X136600498Y-26985820D01*
X136564188Y-27105518D01*
X136551928Y-27230000D01*
X136551928Y-28930000D01*
X136564188Y-29054482D01*
X136600498Y-29174180D01*
X136659463Y-29284494D01*
X136738815Y-29381185D01*
X136835506Y-29460537D01*
X136945820Y-29519502D01*
X137014687Y-29540393D01*
X136984866Y-29564866D01*
X136799294Y-29790986D01*
X136661401Y-30048966D01*
X136576487Y-30328889D01*
X136547815Y-30620000D01*
X136576487Y-30911111D01*
X136661401Y-31191034D01*
X136799294Y-31449014D01*
X136984866Y-31675134D01*
X137210986Y-31860706D01*
X137265791Y-31890000D01*
X137210986Y-31919294D01*
X136984866Y-32104866D01*
X136799294Y-32330986D01*
X136661401Y-32588966D01*
X136576487Y-32868889D01*
X136547815Y-33160000D01*
X136576487Y-33451111D01*
X136661401Y-33731034D01*
X136799294Y-33989014D01*
X136984866Y-34215134D01*
X137210986Y-34400706D01*
X137265791Y-34430000D01*
X137210986Y-34459294D01*
X136984866Y-34644866D01*
X136799294Y-34870986D01*
X136661401Y-35128966D01*
X136576487Y-35408889D01*
X136547815Y-35700000D01*
X136576487Y-35991111D01*
X136661401Y-36271034D01*
X136799294Y-36529014D01*
X136984866Y-36755134D01*
X137210986Y-36940706D01*
X137265791Y-36970000D01*
X137210986Y-36999294D01*
X136984866Y-37184866D01*
X136799294Y-37410986D01*
X136661401Y-37668966D01*
X136576487Y-37948889D01*
X136547815Y-38240000D01*
X136576487Y-38531111D01*
X136661401Y-38811034D01*
X136799294Y-39069014D01*
X136984866Y-39295134D01*
X137210986Y-39480706D01*
X137468966Y-39618599D01*
X137748889Y-39703513D01*
X137967050Y-39725000D01*
X138112950Y-39725000D01*
X138331111Y-39703513D01*
X138611034Y-39618599D01*
X138869014Y-39480706D01*
X139095134Y-39295134D01*
X139280706Y-39069014D01*
X139418599Y-38811034D01*
X139430000Y-38773450D01*
X139430001Y-83746552D01*
X139418599Y-83708966D01*
X139280706Y-83450986D01*
X139095134Y-83224866D01*
X138925000Y-83085241D01*
X138925000Y-44033469D01*
X138929281Y-43990000D01*
X138925000Y-43946531D01*
X138925000Y-43946523D01*
X138912195Y-43816510D01*
X138861589Y-43649687D01*
X138779411Y-43495941D01*
X138668817Y-43361183D01*
X138635050Y-43333471D01*
X136796534Y-41494956D01*
X136768817Y-41461183D01*
X136634059Y-41350589D01*
X136480313Y-41268411D01*
X136313490Y-41217805D01*
X136183477Y-41205000D01*
X136183469Y-41205000D01*
X136140000Y-41200719D01*
X136096531Y-41205000D01*
X119114790Y-41205000D01*
X119052312Y-41111495D01*
X118838505Y-40897688D01*
X118587095Y-40729701D01*
X118307743Y-40613989D01*
X118011184Y-40555000D01*
X117708816Y-40555000D01*
X117412257Y-40613989D01*
X117132905Y-40729701D01*
X116881495Y-40897688D01*
X116667688Y-41111495D01*
X116610000Y-41197831D01*
X116552312Y-41111495D01*
X116338505Y-40897688D01*
X116087095Y-40729701D01*
X115807743Y-40613989D01*
X115511184Y-40555000D01*
X115208816Y-40555000D01*
X114912257Y-40613989D01*
X114632905Y-40729701D01*
X114381495Y-40897688D01*
X114343880Y-40935303D01*
X114290537Y-40835506D01*
X114211185Y-40738815D01*
X114114494Y-40659463D01*
X114004180Y-40600498D01*
X113884482Y-40564188D01*
X113760000Y-40551928D01*
X113145750Y-40555000D01*
X112987000Y-40713750D01*
X112987000Y-41963000D01*
X113007000Y-41963000D01*
X113007000Y-42217000D01*
X112987000Y-42217000D01*
X112987000Y-43466250D01*
X113145750Y-43625000D01*
X113760000Y-43628072D01*
X113884482Y-43615812D01*
X114004180Y-43579502D01*
X114114494Y-43520537D01*
X114211185Y-43441185D01*
X114290537Y-43344494D01*
X114343880Y-43244697D01*
X114381495Y-43282312D01*
X114600000Y-43428313D01*
X114600001Y-53225197D01*
X114315199Y-53510000D01*
X113730901Y-53510000D01*
X113708932Y-53468899D01*
X113529608Y-53250392D01*
X113311101Y-53071068D01*
X113061808Y-52937818D01*
X112791309Y-52855764D01*
X112580492Y-52835000D01*
X112439508Y-52835000D01*
X112228691Y-52855764D01*
X111958192Y-52937818D01*
X111708899Y-53071068D01*
X111490392Y-53250392D01*
X111311068Y-53468899D01*
X111177818Y-53718192D01*
X111095764Y-53988691D01*
X111068057Y-54270000D01*
X111095764Y-54551309D01*
X111177818Y-54821808D01*
X111311068Y-55071101D01*
X111490392Y-55289608D01*
X111708899Y-55468932D01*
X111958192Y-55602182D01*
X112228691Y-55684236D01*
X112439508Y-55705000D01*
X112580492Y-55705000D01*
X112791309Y-55684236D01*
X113061808Y-55602182D01*
X113311101Y-55468932D01*
X113529608Y-55289608D01*
X113708932Y-55071101D01*
X113730901Y-55030000D01*
X114592678Y-55030000D01*
X114630000Y-55033676D01*
X114667322Y-55030000D01*
X114667333Y-55030000D01*
X114778986Y-55019003D01*
X114922247Y-54975546D01*
X115054276Y-54904974D01*
X115170001Y-54810001D01*
X115193803Y-54780998D01*
X115871002Y-54103799D01*
X115900001Y-54080001D01*
X115926332Y-54047917D01*
X115994974Y-53964277D01*
X116065546Y-53832247D01*
X116087765Y-53758998D01*
X116109003Y-53688986D01*
X116120000Y-53577333D01*
X116120000Y-53577323D01*
X116123676Y-53540000D01*
X116120000Y-53502677D01*
X116120000Y-43428313D01*
X116338505Y-43282312D01*
X116552312Y-43068505D01*
X116610000Y-42982169D01*
X116667688Y-43068505D01*
X116695001Y-43095818D01*
X116695000Y-55293421D01*
X114965089Y-57023333D01*
X113640078Y-57023333D01*
X113529608Y-56888725D01*
X113311101Y-56709401D01*
X113061808Y-56576151D01*
X112791309Y-56494097D01*
X112580492Y-56473333D01*
X112439508Y-56473333D01*
X112228691Y-56494097D01*
X111958192Y-56576151D01*
X111708899Y-56709401D01*
X111490392Y-56888725D01*
X111311068Y-57107232D01*
X111177818Y-57356525D01*
X111095764Y-57627024D01*
X111068057Y-57908333D01*
X111095764Y-58189642D01*
X111177818Y-58460141D01*
X111311068Y-58709434D01*
X111490392Y-58927941D01*
X111708899Y-59107265D01*
X111958192Y-59240515D01*
X112228691Y-59322569D01*
X112439508Y-59343333D01*
X112580492Y-59343333D01*
X112791309Y-59322569D01*
X113061808Y-59240515D01*
X113311101Y-59107265D01*
X113529608Y-58927941D01*
X113640078Y-58793333D01*
X114445001Y-58793333D01*
X114445000Y-64299999D01*
X113644521Y-64299999D01*
X113624637Y-64270240D01*
X113424759Y-64070362D01*
X113189727Y-63913319D01*
X112928574Y-63805146D01*
X112651335Y-63749999D01*
X112368665Y-63749999D01*
X112091426Y-63805146D01*
X111830273Y-63913319D01*
X111595241Y-64070362D01*
X111395363Y-64270240D01*
X111375479Y-64299999D01*
X105560816Y-64299999D01*
X105548505Y-64287688D01*
X105297095Y-64119701D01*
X105017743Y-64003989D01*
X104721184Y-63945000D01*
X104418816Y-63945000D01*
X104122257Y-64003989D01*
X103842905Y-64119701D01*
X103591495Y-64287688D01*
X103377688Y-64501495D01*
X103320000Y-64587831D01*
X103262312Y-64501495D01*
X103048505Y-64287688D01*
X102797095Y-64119701D01*
X102517743Y-64003989D01*
X102221184Y-63945000D01*
X101918816Y-63945000D01*
X101622257Y-64003989D01*
X101342905Y-64119701D01*
X101091495Y-64287688D01*
X101053880Y-64325303D01*
X101000537Y-64225506D01*
X100921185Y-64128815D01*
X100824494Y-64049463D01*
X100714180Y-63990498D01*
X100594482Y-63954188D01*
X100470000Y-63941928D01*
X99855750Y-63945000D01*
X99697000Y-64103750D01*
X99697000Y-65353000D01*
X99717000Y-65353000D01*
X99717000Y-65607000D01*
X99697000Y-65607000D01*
X99697000Y-66856250D01*
X99855750Y-67015000D01*
X100470000Y-67018072D01*
X100594482Y-67005812D01*
X100714180Y-66969502D01*
X100824494Y-66910537D01*
X100921185Y-66831185D01*
X101000537Y-66734494D01*
X101053880Y-66634697D01*
X101091495Y-66672312D01*
X101342905Y-66840299D01*
X101622257Y-66956011D01*
X101918816Y-67015000D01*
X102221184Y-67015000D01*
X102517743Y-66956011D01*
X102797095Y-66840299D01*
X103048505Y-66672312D01*
X103262312Y-66458505D01*
X103320000Y-66372169D01*
X103377688Y-66458505D01*
X103591495Y-66672312D01*
X103842905Y-66840299D01*
X104122257Y-66956011D01*
X104418816Y-67015000D01*
X104721184Y-67015000D01*
X105017743Y-66956011D01*
X105297095Y-66840299D01*
X105548505Y-66672312D01*
X105762312Y-66458505D01*
X105930299Y-66207095D01*
X105987086Y-66069999D01*
X111375479Y-66069999D01*
X111395363Y-66099758D01*
X111595241Y-66299636D01*
X111830273Y-66456679D01*
X112091426Y-66564852D01*
X112368665Y-66619999D01*
X112651335Y-66619999D01*
X112928574Y-66564852D01*
X113189727Y-66456679D01*
X113424759Y-66299636D01*
X113624637Y-66099758D01*
X113644521Y-66069999D01*
X114445001Y-66069999D01*
X114445000Y-100143421D01*
X113843422Y-100745000D01*
X110733235Y-100745000D01*
X110600477Y-100546313D01*
X110363687Y-100309523D01*
X110085252Y-100123479D01*
X109984860Y-100081895D01*
X110245000Y-100083072D01*
X110369482Y-100070812D01*
X110489180Y-100034502D01*
X110599494Y-99975537D01*
X110696185Y-99896185D01*
X110775537Y-99799494D01*
X110834502Y-99689180D01*
X110870812Y-99569482D01*
X110883072Y-99445000D01*
X110880000Y-98815750D01*
X110721250Y-98657000D01*
X109407000Y-98657000D01*
X109407000Y-98677000D01*
X109153000Y-98677000D01*
X109153000Y-98657000D01*
X107838750Y-98657000D01*
X107680000Y-98815750D01*
X107676928Y-99445000D01*
X107689188Y-99569482D01*
X107725498Y-99689180D01*
X107784463Y-99799494D01*
X107863815Y-99896185D01*
X107960506Y-99975537D01*
X108070820Y-100034502D01*
X108190518Y-100070812D01*
X108315000Y-100083072D01*
X108575140Y-100081895D01*
X108474748Y-100123479D01*
X108196313Y-100309523D01*
X107959523Y-100546313D01*
X107773479Y-100824748D01*
X107645330Y-101134128D01*
X107580000Y-101462565D01*
X107580000Y-101797435D01*
X107645330Y-102125872D01*
X107773479Y-102435252D01*
X107959523Y-102713687D01*
X108196313Y-102950477D01*
X108474748Y-103136521D01*
X108784128Y-103264670D01*
X109112565Y-103330000D01*
X109447435Y-103330000D01*
X109775872Y-103264670D01*
X110085252Y-103136521D01*
X110363687Y-102950477D01*
X110600477Y-102713687D01*
X110733235Y-102515000D01*
X114166531Y-102515000D01*
X114210000Y-102519281D01*
X114253469Y-102515000D01*
X114253477Y-102515000D01*
X114383490Y-102502195D01*
X114550313Y-102451589D01*
X114704059Y-102369411D01*
X114838817Y-102258817D01*
X114866534Y-102225044D01*
X115744990Y-101346589D01*
X115744990Y-105350208D01*
X114625199Y-106470000D01*
X103887322Y-106470000D01*
X103849999Y-106466324D01*
X103812676Y-106470000D01*
X103812667Y-106470000D01*
X103701014Y-106480997D01*
X103557753Y-106524454D01*
X103425723Y-106595026D01*
X103342083Y-106663668D01*
X103309999Y-106689999D01*
X103286201Y-106718997D01*
X100458998Y-109546201D01*
X100430000Y-109569999D01*
X100406202Y-109598997D01*
X100406201Y-109598998D01*
X100335026Y-109685724D01*
X100264454Y-109817754D01*
X100220998Y-109961015D01*
X100206324Y-110110000D01*
X100210001Y-110147332D01*
X100210000Y-114349099D01*
X100168899Y-114371068D01*
X99950392Y-114550392D01*
X99771068Y-114768899D01*
X99637818Y-115018192D01*
X99555764Y-115288691D01*
X99528057Y-115570000D01*
X99555764Y-115851309D01*
X99637818Y-116121808D01*
X99771068Y-116371101D01*
X99950392Y-116589608D01*
X100168899Y-116768932D01*
X100418192Y-116902182D01*
X100688691Y-116984236D01*
X100899508Y-117005000D01*
X101040492Y-117005000D01*
X101251309Y-116984236D01*
X101521808Y-116902182D01*
X101771101Y-116768932D01*
X101989608Y-116589608D01*
X102168932Y-116371101D01*
X102302182Y-116121808D01*
X102384236Y-115851309D01*
X102411943Y-115570000D01*
X102398023Y-115428665D01*
X104041666Y-115428665D01*
X104041666Y-115711335D01*
X104096813Y-115988574D01*
X104204986Y-116249727D01*
X104362029Y-116484759D01*
X104561907Y-116684637D01*
X104796939Y-116841680D01*
X105058092Y-116949853D01*
X105335331Y-117005000D01*
X105618001Y-117005000D01*
X105895240Y-116949853D01*
X106156393Y-116841680D01*
X106391425Y-116684637D01*
X106591303Y-116484759D01*
X106748346Y-116249727D01*
X106856519Y-115988574D01*
X106911666Y-115711335D01*
X106911666Y-115570000D01*
X111654723Y-115570000D01*
X111682430Y-115851309D01*
X111764484Y-116121808D01*
X111897734Y-116371101D01*
X112077058Y-116589608D01*
X112295565Y-116768932D01*
X112544858Y-116902182D01*
X112815357Y-116984236D01*
X113026174Y-117005000D01*
X113167158Y-117005000D01*
X113377975Y-116984236D01*
X113648474Y-116902182D01*
X113897767Y-116768932D01*
X114116274Y-116589608D01*
X114295598Y-116371101D01*
X114428848Y-116121808D01*
X114510902Y-115851309D01*
X114538609Y-115570000D01*
X114524689Y-115428665D01*
X116168332Y-115428665D01*
X116168332Y-115711335D01*
X116223479Y-115988574D01*
X116331652Y-116249727D01*
X116488695Y-116484759D01*
X116688573Y-116684637D01*
X116923605Y-116841680D01*
X117184758Y-116949853D01*
X117461997Y-117005000D01*
X117744667Y-117005000D01*
X118021906Y-116949853D01*
X118283059Y-116841680D01*
X118518091Y-116684637D01*
X118717969Y-116484759D01*
X118875012Y-116249727D01*
X118983185Y-115988574D01*
X119038332Y-115711335D01*
X119038332Y-115428665D01*
X118983185Y-115151426D01*
X118875012Y-114890273D01*
X118717969Y-114655241D01*
X118518091Y-114455363D01*
X118283059Y-114298320D01*
X118021906Y-114190147D01*
X117744667Y-114135000D01*
X117461997Y-114135000D01*
X117184758Y-114190147D01*
X116923605Y-114298320D01*
X116688573Y-114455363D01*
X116488695Y-114655241D01*
X116331652Y-114890273D01*
X116223479Y-115151426D01*
X116168332Y-115428665D01*
X114524689Y-115428665D01*
X114510902Y-115288691D01*
X114428848Y-115018192D01*
X114295598Y-114768899D01*
X114116274Y-114550392D01*
X113897767Y-114371068D01*
X113648474Y-114237818D01*
X113377975Y-114155764D01*
X113167158Y-114135000D01*
X113026174Y-114135000D01*
X112815357Y-114155764D01*
X112544858Y-114237818D01*
X112295565Y-114371068D01*
X112077058Y-114550392D01*
X111897734Y-114768899D01*
X111764484Y-115018192D01*
X111682430Y-115288691D01*
X111654723Y-115570000D01*
X106911666Y-115570000D01*
X106911666Y-115428665D01*
X106856519Y-115151426D01*
X106748346Y-114890273D01*
X106591303Y-114655241D01*
X106391425Y-114455363D01*
X106156393Y-114298320D01*
X105895240Y-114190147D01*
X105618001Y-114135000D01*
X105335331Y-114135000D01*
X105058092Y-114190147D01*
X104796939Y-114298320D01*
X104561907Y-114455363D01*
X104362029Y-114655241D01*
X104204986Y-114890273D01*
X104096813Y-115151426D01*
X104041666Y-115428665D01*
X102398023Y-115428665D01*
X102384236Y-115288691D01*
X102302182Y-115018192D01*
X102168932Y-114768899D01*
X101989608Y-114550392D01*
X101771101Y-114371068D01*
X101730000Y-114349099D01*
X101730000Y-110424801D01*
X102392236Y-109762565D01*
X107580000Y-109762565D01*
X107580000Y-110097435D01*
X107645330Y-110425872D01*
X107773479Y-110735252D01*
X107959523Y-111013687D01*
X108196313Y-111250477D01*
X108474748Y-111436521D01*
X108784128Y-111564670D01*
X109112565Y-111630000D01*
X109447435Y-111630000D01*
X109775872Y-111564670D01*
X110085252Y-111436521D01*
X110363687Y-111250477D01*
X110600477Y-111013687D01*
X110786521Y-110735252D01*
X110914670Y-110425872D01*
X110980000Y-110097435D01*
X110980000Y-109762565D01*
X119700000Y-109762565D01*
X119700000Y-110097435D01*
X119765330Y-110425872D01*
X119893479Y-110735252D01*
X120079523Y-111013687D01*
X120316313Y-111250477D01*
X120594748Y-111436521D01*
X120904128Y-111564670D01*
X121232565Y-111630000D01*
X121567435Y-111630000D01*
X121895872Y-111564670D01*
X122205252Y-111436521D01*
X122483687Y-111250477D01*
X122720477Y-111013687D01*
X122906521Y-110735252D01*
X123034670Y-110425872D01*
X123100000Y-110097435D01*
X123100000Y-109762565D01*
X123034670Y-109434128D01*
X122906521Y-109124748D01*
X122720477Y-108846313D01*
X122483687Y-108609523D01*
X122205252Y-108423479D01*
X121895872Y-108295330D01*
X121567435Y-108230000D01*
X121232565Y-108230000D01*
X120904128Y-108295330D01*
X120594748Y-108423479D01*
X120316313Y-108609523D01*
X120079523Y-108846313D01*
X119893479Y-109124748D01*
X119765330Y-109434128D01*
X119700000Y-109762565D01*
X110980000Y-109762565D01*
X110914670Y-109434128D01*
X110786521Y-109124748D01*
X110600477Y-108846313D01*
X110363687Y-108609523D01*
X110085252Y-108423479D01*
X109775872Y-108295330D01*
X109447435Y-108230000D01*
X109112565Y-108230000D01*
X108784128Y-108295330D01*
X108474748Y-108423479D01*
X108196313Y-108609523D01*
X107959523Y-108846313D01*
X107773479Y-109124748D01*
X107645330Y-109434128D01*
X107580000Y-109762565D01*
X102392236Y-109762565D01*
X104164802Y-107990000D01*
X114902678Y-107990000D01*
X114940000Y-107993676D01*
X114977322Y-107990000D01*
X114977333Y-107990000D01*
X115088986Y-107979003D01*
X115232247Y-107935546D01*
X115364276Y-107864974D01*
X115480001Y-107770001D01*
X115503804Y-107740997D01*
X117015994Y-106228808D01*
X117044991Y-106205011D01*
X117071322Y-106172927D01*
X117139964Y-106089287D01*
X117210536Y-105957257D01*
X117210536Y-105957256D01*
X117253993Y-105813996D01*
X117264990Y-105702343D01*
X117264990Y-105702334D01*
X117268666Y-105665011D01*
X117264990Y-105627688D01*
X117264990Y-101462565D01*
X119700000Y-101462565D01*
X119700000Y-101797435D01*
X119765330Y-102125872D01*
X119893479Y-102435252D01*
X120079523Y-102713687D01*
X120316313Y-102950477D01*
X120594748Y-103136521D01*
X120904128Y-103264670D01*
X121232565Y-103330000D01*
X121567435Y-103330000D01*
X121895872Y-103264670D01*
X122205252Y-103136521D01*
X122483687Y-102950477D01*
X122720477Y-102713687D01*
X122906521Y-102435252D01*
X123034670Y-102125872D01*
X123100000Y-101797435D01*
X123100000Y-101462565D01*
X123034670Y-101134128D01*
X122906521Y-100824748D01*
X122720477Y-100546313D01*
X122483687Y-100309523D01*
X122205252Y-100123479D01*
X122104860Y-100081895D01*
X122365000Y-100083072D01*
X122489482Y-100070812D01*
X122609180Y-100034502D01*
X122719494Y-99975537D01*
X122816185Y-99896185D01*
X122895537Y-99799494D01*
X122954502Y-99689180D01*
X122990812Y-99569482D01*
X123003072Y-99445000D01*
X123000000Y-98815750D01*
X122841250Y-98657000D01*
X121527000Y-98657000D01*
X121527000Y-98677000D01*
X121273000Y-98677000D01*
X121273000Y-98657000D01*
X119958750Y-98657000D01*
X119800000Y-98815750D01*
X119796928Y-99445000D01*
X119809188Y-99569482D01*
X119845498Y-99689180D01*
X119904463Y-99799494D01*
X119983815Y-99896185D01*
X120080506Y-99975537D01*
X120190820Y-100034502D01*
X120310518Y-100070812D01*
X120435000Y-100083072D01*
X120695140Y-100081895D01*
X120594748Y-100123479D01*
X120316313Y-100309523D01*
X120079523Y-100546313D01*
X119893479Y-100824748D01*
X119765330Y-101134128D01*
X119700000Y-101462565D01*
X117264990Y-101462565D01*
X117264990Y-97615000D01*
X119796928Y-97615000D01*
X119800000Y-98244250D01*
X119958750Y-98403000D01*
X121273000Y-98403000D01*
X121273000Y-97138750D01*
X121527000Y-97138750D01*
X121527000Y-98403000D01*
X122841250Y-98403000D01*
X123000000Y-98244250D01*
X123003072Y-97615000D01*
X122990812Y-97490518D01*
X122954502Y-97370820D01*
X122895537Y-97260506D01*
X122816185Y-97163815D01*
X122719494Y-97084463D01*
X122609180Y-97025498D01*
X122489482Y-96989188D01*
X122365000Y-96976928D01*
X121685750Y-96980000D01*
X121527000Y-97138750D01*
X121273000Y-97138750D01*
X121114250Y-96980000D01*
X120435000Y-96976928D01*
X120310518Y-96989188D01*
X120190820Y-97025498D01*
X120080506Y-97084463D01*
X119983815Y-97163815D01*
X119904463Y-97260506D01*
X119845498Y-97370820D01*
X119809188Y-97490518D01*
X119796928Y-97615000D01*
X117264990Y-97615000D01*
X117264990Y-91800000D01*
X124541928Y-91800000D01*
X124554188Y-91924482D01*
X124590498Y-92044180D01*
X124649463Y-92154494D01*
X124728815Y-92251185D01*
X124825506Y-92330537D01*
X124935820Y-92389502D01*
X125055518Y-92425812D01*
X125180000Y-92438072D01*
X125794250Y-92435000D01*
X125953000Y-92276250D01*
X125953000Y-91027000D01*
X124703750Y-91027000D01*
X124545000Y-91185750D01*
X124541928Y-91800000D01*
X117264990Y-91800000D01*
X117264990Y-90000000D01*
X124541928Y-90000000D01*
X124545000Y-90614250D01*
X124703750Y-90773000D01*
X125953000Y-90773000D01*
X125953000Y-89523750D01*
X126207000Y-89523750D01*
X126207000Y-90773000D01*
X126227000Y-90773000D01*
X126227000Y-91027000D01*
X126207000Y-91027000D01*
X126207000Y-92276250D01*
X126365750Y-92435000D01*
X126980000Y-92438072D01*
X127104482Y-92425812D01*
X127224180Y-92389502D01*
X127334494Y-92330537D01*
X127431185Y-92251185D01*
X127510537Y-92154494D01*
X127563880Y-92054697D01*
X127601495Y-92092312D01*
X127852905Y-92260299D01*
X128132257Y-92376011D01*
X128428816Y-92435000D01*
X128731184Y-92435000D01*
X129027743Y-92376011D01*
X129307095Y-92260299D01*
X129558505Y-92092312D01*
X129772312Y-91878505D01*
X129830000Y-91792169D01*
X129887688Y-91878505D01*
X130101495Y-92092312D01*
X130352905Y-92260299D01*
X130632257Y-92376011D01*
X130928816Y-92435000D01*
X131231184Y-92435000D01*
X131527743Y-92376011D01*
X131807095Y-92260299D01*
X132058505Y-92092312D01*
X132272312Y-91878505D01*
X132440299Y-91627095D01*
X132556011Y-91347743D01*
X132615000Y-91051184D01*
X132615000Y-90748816D01*
X132556011Y-90452257D01*
X132440299Y-90172905D01*
X132272312Y-89921495D01*
X132058505Y-89707688D01*
X131807095Y-89539701D01*
X131527743Y-89423989D01*
X131231184Y-89365000D01*
X130928816Y-89365000D01*
X130632257Y-89423989D01*
X130352905Y-89539701D01*
X130101495Y-89707688D01*
X129887688Y-89921495D01*
X129830000Y-90007831D01*
X129772312Y-89921495D01*
X129558505Y-89707688D01*
X129307095Y-89539701D01*
X129027743Y-89423989D01*
X128731184Y-89365000D01*
X128428816Y-89365000D01*
X128132257Y-89423989D01*
X127852905Y-89539701D01*
X127601495Y-89707688D01*
X127563880Y-89745303D01*
X127510537Y-89645506D01*
X127431185Y-89548815D01*
X127334494Y-89469463D01*
X127224180Y-89410498D01*
X127104482Y-89374188D01*
X126980000Y-89361928D01*
X126365750Y-89365000D01*
X126207000Y-89523750D01*
X125953000Y-89523750D01*
X125794250Y-89365000D01*
X125180000Y-89361928D01*
X125055518Y-89374188D01*
X124935820Y-89410498D01*
X124825506Y-89469463D01*
X124728815Y-89548815D01*
X124649463Y-89645506D01*
X124590498Y-89755820D01*
X124554188Y-89875518D01*
X124541928Y-90000000D01*
X117264990Y-90000000D01*
X117264990Y-83177902D01*
X121525000Y-83177902D01*
X121525000Y-83622098D01*
X121611658Y-84057759D01*
X121781645Y-84468143D01*
X122028427Y-84837479D01*
X122342521Y-85151573D01*
X122711857Y-85398355D01*
X123122241Y-85568342D01*
X123557902Y-85655000D01*
X124002098Y-85655000D01*
X124437759Y-85568342D01*
X124848143Y-85398355D01*
X125217479Y-85151573D01*
X125531573Y-84837479D01*
X125778355Y-84468143D01*
X125948342Y-84057759D01*
X126035000Y-83622098D01*
X126035000Y-83177902D01*
X131125000Y-83177902D01*
X131125000Y-83622098D01*
X131211658Y-84057759D01*
X131381645Y-84468143D01*
X131628427Y-84837479D01*
X131942521Y-85151573D01*
X132311857Y-85398355D01*
X132722241Y-85568342D01*
X133157902Y-85655000D01*
X133602098Y-85655000D01*
X134037759Y-85568342D01*
X134448143Y-85398355D01*
X134817479Y-85151573D01*
X135131573Y-84837479D01*
X135378355Y-84468143D01*
X135548342Y-84057759D01*
X135635000Y-83622098D01*
X135635000Y-83177902D01*
X135548342Y-82742241D01*
X135378355Y-82331857D01*
X135131573Y-81962521D01*
X134817479Y-81648427D01*
X134448143Y-81401645D01*
X134037759Y-81231658D01*
X133602098Y-81145000D01*
X133157902Y-81145000D01*
X132722241Y-81231658D01*
X132311857Y-81401645D01*
X131942521Y-81648427D01*
X131628427Y-81962521D01*
X131381645Y-82331857D01*
X131211658Y-82742241D01*
X131125000Y-83177902D01*
X126035000Y-83177902D01*
X125948342Y-82742241D01*
X125778355Y-82331857D01*
X125531573Y-81962521D01*
X125217479Y-81648427D01*
X124848143Y-81401645D01*
X124437759Y-81231658D01*
X124002098Y-81145000D01*
X123557902Y-81145000D01*
X123122241Y-81231658D01*
X122711857Y-81401645D01*
X122342521Y-81648427D01*
X122028427Y-81962521D01*
X121781645Y-82331857D01*
X121611658Y-82742241D01*
X121525000Y-83177902D01*
X117264990Y-83177902D01*
X117264990Y-76100000D01*
X118688057Y-76100000D01*
X118715764Y-76381309D01*
X118797818Y-76651808D01*
X118931068Y-76901101D01*
X119110392Y-77119608D01*
X119328899Y-77298932D01*
X119578192Y-77432182D01*
X119848691Y-77514236D01*
X120059508Y-77535000D01*
X120200492Y-77535000D01*
X120411309Y-77514236D01*
X120681808Y-77432182D01*
X120931101Y-77298932D01*
X121149608Y-77119608D01*
X121328932Y-76901101D01*
X121462182Y-76651808D01*
X121544236Y-76381309D01*
X121571943Y-76100000D01*
X121544236Y-75818691D01*
X121462182Y-75548192D01*
X121328932Y-75298899D01*
X121149608Y-75080392D01*
X120931101Y-74901068D01*
X120681808Y-74767818D01*
X120411309Y-74685764D01*
X120200492Y-74665000D01*
X120059508Y-74665000D01*
X119848691Y-74685764D01*
X119578192Y-74767818D01*
X119328899Y-74901068D01*
X119110392Y-75080392D01*
X118931068Y-75298899D01*
X118797818Y-75548192D01*
X118715764Y-75818691D01*
X118688057Y-76100000D01*
X117264990Y-76100000D01*
X117264990Y-72320330D01*
X118695000Y-72320330D01*
X118695000Y-72603000D01*
X118750147Y-72880239D01*
X118858320Y-73141392D01*
X119015363Y-73376424D01*
X119215241Y-73576302D01*
X119450273Y-73733345D01*
X119711426Y-73841518D01*
X119988665Y-73896665D01*
X120271335Y-73896665D01*
X120548574Y-73841518D01*
X120809727Y-73733345D01*
X121044759Y-73576302D01*
X121244637Y-73376424D01*
X121401680Y-73141392D01*
X121509853Y-72880239D01*
X121553927Y-72658665D01*
X122155000Y-72658665D01*
X122155000Y-72941335D01*
X122210147Y-73218574D01*
X122318320Y-73479727D01*
X122475363Y-73714759D01*
X122675241Y-73914637D01*
X122910273Y-74071680D01*
X123171426Y-74179853D01*
X123448665Y-74235000D01*
X123731335Y-74235000D01*
X124008574Y-74179853D01*
X124269727Y-74071680D01*
X124504759Y-73914637D01*
X124704637Y-73714759D01*
X124861680Y-73479727D01*
X124969853Y-73218574D01*
X125025000Y-72941335D01*
X125025000Y-72658665D01*
X127155000Y-72658665D01*
X127155000Y-72941335D01*
X127210147Y-73218574D01*
X127318320Y-73479727D01*
X127475363Y-73714759D01*
X127675241Y-73914637D01*
X127910273Y-74071680D01*
X128171426Y-74179853D01*
X128448665Y-74235000D01*
X128731335Y-74235000D01*
X129008574Y-74179853D01*
X129269727Y-74071680D01*
X129504759Y-73914637D01*
X129704637Y-73714759D01*
X129861680Y-73479727D01*
X129969853Y-73218574D01*
X130025000Y-72941335D01*
X130025000Y-72658665D01*
X129969853Y-72381426D01*
X129861680Y-72120273D01*
X129704637Y-71885241D01*
X129504759Y-71685363D01*
X129269727Y-71528320D01*
X129008574Y-71420147D01*
X128731335Y-71365000D01*
X128448665Y-71365000D01*
X128171426Y-71420147D01*
X127910273Y-71528320D01*
X127675241Y-71685363D01*
X127475363Y-71885241D01*
X127318320Y-72120273D01*
X127210147Y-72381426D01*
X127155000Y-72658665D01*
X125025000Y-72658665D01*
X124969853Y-72381426D01*
X124861680Y-72120273D01*
X124704637Y-71885241D01*
X124504759Y-71685363D01*
X124269727Y-71528320D01*
X124008574Y-71420147D01*
X123731335Y-71365000D01*
X123448665Y-71365000D01*
X123171426Y-71420147D01*
X122910273Y-71528320D01*
X122675241Y-71685363D01*
X122475363Y-71885241D01*
X122318320Y-72120273D01*
X122210147Y-72381426D01*
X122155000Y-72658665D01*
X121553927Y-72658665D01*
X121565000Y-72603000D01*
X121565000Y-72320330D01*
X121509853Y-72043091D01*
X121401680Y-71781938D01*
X121244637Y-71546906D01*
X121044759Y-71347028D01*
X120809727Y-71189985D01*
X120548574Y-71081812D01*
X120271335Y-71026665D01*
X119988665Y-71026665D01*
X119711426Y-71081812D01*
X119450273Y-71189985D01*
X119215241Y-71347028D01*
X119015363Y-71546906D01*
X118858320Y-71781938D01*
X118750147Y-72043091D01*
X118695000Y-72320330D01*
X117264990Y-72320330D01*
X117264990Y-68823332D01*
X118688057Y-68823332D01*
X118715764Y-69104641D01*
X118797818Y-69375140D01*
X118931068Y-69624433D01*
X119110392Y-69842940D01*
X119328899Y-70022264D01*
X119578192Y-70155514D01*
X119848691Y-70237568D01*
X120059508Y-70258332D01*
X120200492Y-70258332D01*
X120411309Y-70237568D01*
X120681808Y-70155514D01*
X120931101Y-70022264D01*
X121149608Y-69842940D01*
X121328932Y-69624433D01*
X121462182Y-69375140D01*
X121544236Y-69104641D01*
X121571943Y-68823332D01*
X121544236Y-68542023D01*
X121462182Y-68271524D01*
X121328932Y-68022231D01*
X121149608Y-67803724D01*
X121058149Y-67728665D01*
X122155000Y-67728665D01*
X122155000Y-68011335D01*
X122210147Y-68288574D01*
X122318320Y-68549727D01*
X122475363Y-68784759D01*
X122675241Y-68984637D01*
X122910273Y-69141680D01*
X123171426Y-69249853D01*
X123448665Y-69305000D01*
X123731335Y-69305000D01*
X124008574Y-69249853D01*
X124269727Y-69141680D01*
X124504759Y-68984637D01*
X124704637Y-68784759D01*
X124861680Y-68549727D01*
X124969853Y-68288574D01*
X125025000Y-68011335D01*
X125025000Y-67728665D01*
X127155000Y-67728665D01*
X127155000Y-68011335D01*
X127210147Y-68288574D01*
X127318320Y-68549727D01*
X127475363Y-68784759D01*
X127675241Y-68984637D01*
X127910273Y-69141680D01*
X128171426Y-69249853D01*
X128448665Y-69305000D01*
X128731335Y-69305000D01*
X129008574Y-69249853D01*
X129269727Y-69141680D01*
X129504759Y-68984637D01*
X129704637Y-68784759D01*
X129861680Y-68549727D01*
X129969853Y-68288574D01*
X130025000Y-68011335D01*
X130025000Y-67728665D01*
X129969853Y-67451426D01*
X129861680Y-67190273D01*
X129704637Y-66955241D01*
X129504759Y-66755363D01*
X129269727Y-66598320D01*
X129008574Y-66490147D01*
X128731335Y-66435000D01*
X128448665Y-66435000D01*
X128171426Y-66490147D01*
X127910273Y-66598320D01*
X127675241Y-66755363D01*
X127475363Y-66955241D01*
X127318320Y-67190273D01*
X127210147Y-67451426D01*
X127155000Y-67728665D01*
X125025000Y-67728665D01*
X124969853Y-67451426D01*
X124861680Y-67190273D01*
X124704637Y-66955241D01*
X124504759Y-66755363D01*
X124269727Y-66598320D01*
X124008574Y-66490147D01*
X123731335Y-66435000D01*
X123448665Y-66435000D01*
X123171426Y-66490147D01*
X122910273Y-66598320D01*
X122675241Y-66755363D01*
X122475363Y-66955241D01*
X122318320Y-67190273D01*
X122210147Y-67451426D01*
X122155000Y-67728665D01*
X121058149Y-67728665D01*
X120931101Y-67624400D01*
X120681808Y-67491150D01*
X120411309Y-67409096D01*
X120200492Y-67388332D01*
X120059508Y-67388332D01*
X119848691Y-67409096D01*
X119578192Y-67491150D01*
X119328899Y-67624400D01*
X119110392Y-67803724D01*
X118931068Y-68022231D01*
X118797818Y-68271524D01*
X118715764Y-68542023D01*
X118688057Y-68823332D01*
X117264990Y-68823332D01*
X117264990Y-65184999D01*
X118688057Y-65184999D01*
X118715764Y-65466308D01*
X118797818Y-65736807D01*
X118931068Y-65986100D01*
X119110392Y-66204607D01*
X119328899Y-66383931D01*
X119578192Y-66517181D01*
X119848691Y-66599235D01*
X120059508Y-66619999D01*
X120200492Y-66619999D01*
X120411309Y-66599235D01*
X120681808Y-66517181D01*
X120931101Y-66383931D01*
X121149608Y-66204607D01*
X121328932Y-65986100D01*
X121462182Y-65736807D01*
X121544236Y-65466308D01*
X121571943Y-65184999D01*
X121544236Y-64903690D01*
X121462182Y-64633191D01*
X121328932Y-64383898D01*
X121149608Y-64165391D01*
X120931101Y-63986067D01*
X120681808Y-63852817D01*
X120411309Y-63770763D01*
X120200492Y-63749999D01*
X120059508Y-63749999D01*
X119848691Y-63770763D01*
X119578192Y-63852817D01*
X119328899Y-63986067D01*
X119110392Y-64165391D01*
X118931068Y-64383898D01*
X118797818Y-64633191D01*
X118715764Y-64903690D01*
X118688057Y-65184999D01*
X117264990Y-65184999D01*
X117264990Y-62223709D01*
X117308927Y-62179772D01*
X117422195Y-62010254D01*
X117500216Y-61821896D01*
X117539990Y-61621937D01*
X117539990Y-61418059D01*
X117537459Y-61405331D01*
X118695000Y-61405331D01*
X118695000Y-61688001D01*
X118750147Y-61965240D01*
X118858320Y-62226393D01*
X119015363Y-62461425D01*
X119215241Y-62661303D01*
X119450273Y-62818346D01*
X119711426Y-62926519D01*
X119988665Y-62981666D01*
X120271335Y-62981666D01*
X120548574Y-62926519D01*
X120809727Y-62818346D01*
X121044759Y-62661303D01*
X121244637Y-62461425D01*
X121401680Y-62226393D01*
X121509853Y-61965240D01*
X121511392Y-61957500D01*
X126351928Y-61957500D01*
X126351928Y-63382500D01*
X126377879Y-63645984D01*
X126454734Y-63899342D01*
X126579540Y-64132838D01*
X126747501Y-64337499D01*
X126952162Y-64505460D01*
X127185658Y-64630266D01*
X127439016Y-64707121D01*
X127702500Y-64733072D01*
X129477500Y-64733072D01*
X129740984Y-64707121D01*
X129994342Y-64630266D01*
X130227838Y-64505460D01*
X130432499Y-64337499D01*
X130600460Y-64132838D01*
X130725266Y-63899342D01*
X130802121Y-63645984D01*
X130828072Y-63382500D01*
X130828072Y-61957500D01*
X130802121Y-61694016D01*
X130725266Y-61440658D01*
X130600460Y-61207162D01*
X130432499Y-61002501D01*
X130227838Y-60834540D01*
X129994342Y-60709734D01*
X129740984Y-60632879D01*
X129477500Y-60606928D01*
X127702500Y-60606928D01*
X127439016Y-60632879D01*
X127185658Y-60709734D01*
X126952162Y-60834540D01*
X126747501Y-61002501D01*
X126579540Y-61207162D01*
X126454734Y-61440658D01*
X126377879Y-61694016D01*
X126351928Y-61957500D01*
X121511392Y-61957500D01*
X121565000Y-61688001D01*
X121565000Y-61405331D01*
X121509853Y-61128092D01*
X121401680Y-60866939D01*
X121244637Y-60631907D01*
X121044759Y-60432029D01*
X120809727Y-60274986D01*
X120548574Y-60166813D01*
X120271335Y-60111666D01*
X119988665Y-60111666D01*
X119711426Y-60166813D01*
X119450273Y-60274986D01*
X119215241Y-60432029D01*
X119015363Y-60631907D01*
X118858320Y-60866939D01*
X118750147Y-61128092D01*
X118695000Y-61405331D01*
X117537459Y-61405331D01*
X117500216Y-61218100D01*
X117422195Y-61029742D01*
X117308927Y-60860224D01*
X117164764Y-60716061D01*
X116995246Y-60602793D01*
X116806888Y-60524772D01*
X116606929Y-60484998D01*
X116403051Y-60484998D01*
X116215000Y-60522403D01*
X116215000Y-58276578D01*
X116724580Y-57766998D01*
X118695000Y-57766998D01*
X118695000Y-58049668D01*
X118750147Y-58326907D01*
X118858320Y-58588060D01*
X119015363Y-58823092D01*
X119215241Y-59022970D01*
X119450273Y-59180013D01*
X119711426Y-59288186D01*
X119988665Y-59343333D01*
X120271335Y-59343333D01*
X120548574Y-59288186D01*
X120809727Y-59180013D01*
X121044759Y-59022970D01*
X121244637Y-58823092D01*
X121401680Y-58588060D01*
X121509853Y-58326907D01*
X121565000Y-58049668D01*
X121565000Y-57766998D01*
X121509853Y-57489759D01*
X121413649Y-57257500D01*
X126351928Y-57257500D01*
X126351928Y-58682500D01*
X126377879Y-58945984D01*
X126454734Y-59199342D01*
X126579540Y-59432838D01*
X126747501Y-59637499D01*
X126952162Y-59805460D01*
X127185658Y-59930266D01*
X127439016Y-60007121D01*
X127702500Y-60033072D01*
X129477500Y-60033072D01*
X129740984Y-60007121D01*
X129994342Y-59930266D01*
X130227838Y-59805460D01*
X130432499Y-59637499D01*
X130600460Y-59432838D01*
X130725266Y-59199342D01*
X130802121Y-58945984D01*
X130828072Y-58682500D01*
X130828072Y-57257500D01*
X130802121Y-56994016D01*
X130725266Y-56740658D01*
X130600460Y-56507162D01*
X130432499Y-56302501D01*
X130227838Y-56134540D01*
X129994342Y-56009734D01*
X129740984Y-55932879D01*
X129477500Y-55906928D01*
X127702500Y-55906928D01*
X127439016Y-55932879D01*
X127185658Y-56009734D01*
X126952162Y-56134540D01*
X126747501Y-56302501D01*
X126579540Y-56507162D01*
X126454734Y-56740658D01*
X126377879Y-56994016D01*
X126351928Y-57257500D01*
X121413649Y-57257500D01*
X121401680Y-57228606D01*
X121244637Y-56993574D01*
X121044759Y-56793696D01*
X120809727Y-56636653D01*
X120548574Y-56528480D01*
X120271335Y-56473333D01*
X119988665Y-56473333D01*
X119711426Y-56528480D01*
X119450273Y-56636653D01*
X119215241Y-56793696D01*
X119015363Y-56993574D01*
X118858320Y-57228606D01*
X118750147Y-57489759D01*
X118695000Y-57766998D01*
X116724580Y-57766998D01*
X118175050Y-56316529D01*
X118208817Y-56288817D01*
X118258379Y-56228427D01*
X118319411Y-56154059D01*
X118401589Y-56000314D01*
X118452195Y-55833490D01*
X118462880Y-55725000D01*
X118465000Y-55703477D01*
X118465000Y-55703469D01*
X118469281Y-55660000D01*
X118465000Y-55616531D01*
X118465000Y-54128665D01*
X118695000Y-54128665D01*
X118695000Y-54411335D01*
X118750147Y-54688574D01*
X118858320Y-54949727D01*
X119015363Y-55184759D01*
X119215241Y-55384637D01*
X119450273Y-55541680D01*
X119711426Y-55649853D01*
X119988665Y-55705000D01*
X120271335Y-55705000D01*
X120548574Y-55649853D01*
X120809727Y-55541680D01*
X121044759Y-55384637D01*
X121244637Y-55184759D01*
X121401680Y-54949727D01*
X121509853Y-54688574D01*
X121565000Y-54411335D01*
X121565000Y-54128665D01*
X121509853Y-53851426D01*
X121401680Y-53590273D01*
X121244637Y-53355241D01*
X121044759Y-53155363D01*
X120809727Y-52998320D01*
X120548574Y-52890147D01*
X120271335Y-52835000D01*
X119988665Y-52835000D01*
X119711426Y-52890147D01*
X119450273Y-52998320D01*
X119215241Y-53155363D01*
X119015363Y-53355241D01*
X118858320Y-53590273D01*
X118750147Y-53851426D01*
X118695000Y-54128665D01*
X118465000Y-54128665D01*
X118465000Y-52557500D01*
X126351928Y-52557500D01*
X126351928Y-53982500D01*
X126377879Y-54245984D01*
X126454734Y-54499342D01*
X126579540Y-54732838D01*
X126747501Y-54937499D01*
X126952162Y-55105460D01*
X127185658Y-55230266D01*
X127439016Y-55307121D01*
X127702500Y-55333072D01*
X129477500Y-55333072D01*
X129740984Y-55307121D01*
X129994342Y-55230266D01*
X130227838Y-55105460D01*
X130432499Y-54937499D01*
X130600460Y-54732838D01*
X130725266Y-54499342D01*
X130802121Y-54245984D01*
X130828072Y-53982500D01*
X130828072Y-52557500D01*
X130802121Y-52294016D01*
X130725266Y-52040658D01*
X130600460Y-51807162D01*
X130432499Y-51602501D01*
X130227838Y-51434540D01*
X129994342Y-51309734D01*
X129740984Y-51232879D01*
X129477500Y-51206928D01*
X127702500Y-51206928D01*
X127439016Y-51232879D01*
X127185658Y-51309734D01*
X126952162Y-51434540D01*
X126747501Y-51602501D01*
X126579540Y-51807162D01*
X126454734Y-52040658D01*
X126377879Y-52294016D01*
X126351928Y-52557500D01*
X118465000Y-52557500D01*
X118465000Y-43500873D01*
X118587095Y-43450299D01*
X118838505Y-43282312D01*
X119052312Y-43068505D01*
X119114790Y-42975000D01*
X135773422Y-42975000D01*
X137155000Y-44356579D01*
X137155001Y-45346514D01*
X137155000Y-45346524D01*
X137155001Y-83085240D01*
X136984866Y-83224866D01*
X136799294Y-83450986D01*
X136661401Y-83708966D01*
X136576487Y-83988889D01*
X136547815Y-84280000D01*
X136576487Y-84571111D01*
X136661401Y-84851034D01*
X136799294Y-85109014D01*
X136984866Y-85335134D01*
X137210986Y-85520706D01*
X137265791Y-85550000D01*
X137210986Y-85579294D01*
X136984866Y-85764866D01*
X136799294Y-85990986D01*
X136661401Y-86248966D01*
X136576487Y-86528889D01*
X136547815Y-86820000D01*
X136576487Y-87111111D01*
X136661401Y-87391034D01*
X136799294Y-87649014D01*
X136984866Y-87875134D01*
X137210986Y-88060706D01*
X137265791Y-88090000D01*
X137210986Y-88119294D01*
X136984866Y-88304866D01*
X136799294Y-88530986D01*
X136760284Y-88603969D01*
X136688933Y-88610997D01*
X136545672Y-88654454D01*
X136413643Y-88725026D01*
X136297918Y-88819999D01*
X136274120Y-88848997D01*
X133439003Y-91684115D01*
X133409999Y-91707918D01*
X133376679Y-91748519D01*
X124712335Y-100412864D01*
X124683331Y-100436667D01*
X124628203Y-100503842D01*
X124588358Y-100552392D01*
X124518285Y-100683489D01*
X124517786Y-100684422D01*
X124474329Y-100827683D01*
X124463332Y-100939336D01*
X124463332Y-100939346D01*
X124459656Y-100976668D01*
X124463332Y-101013990D01*
X124463333Y-114349099D01*
X124422231Y-114371068D01*
X124203724Y-114550392D01*
X124024400Y-114768899D01*
X123891150Y-115018192D01*
X123809096Y-115288691D01*
X123781389Y-115570000D01*
X123809096Y-115851309D01*
X123891150Y-116121808D01*
X124024400Y-116371101D01*
X124203724Y-116589608D01*
X124422231Y-116768932D01*
X124671524Y-116902182D01*
X124942023Y-116984236D01*
X125152840Y-117005000D01*
X125293824Y-117005000D01*
X125504641Y-116984236D01*
X125775140Y-116902182D01*
X126024433Y-116768932D01*
X126242940Y-116589608D01*
X126422264Y-116371101D01*
X126555514Y-116121808D01*
X126637568Y-115851309D01*
X126665275Y-115570000D01*
X126651355Y-115428665D01*
X128295000Y-115428665D01*
X128295000Y-115711335D01*
X128350147Y-115988574D01*
X128458320Y-116249727D01*
X128615363Y-116484759D01*
X128815241Y-116684637D01*
X129050273Y-116841680D01*
X129311426Y-116949853D01*
X129588665Y-117005000D01*
X129871335Y-117005000D01*
X130148574Y-116949853D01*
X130409727Y-116841680D01*
X130644759Y-116684637D01*
X130844637Y-116484759D01*
X131001680Y-116249727D01*
X131109853Y-115988574D01*
X131165000Y-115711335D01*
X131165000Y-115428665D01*
X131109853Y-115151426D01*
X131001680Y-114890273D01*
X130844637Y-114655241D01*
X130644759Y-114455363D01*
X130409727Y-114298320D01*
X130148574Y-114190147D01*
X129871335Y-114135000D01*
X129588665Y-114135000D01*
X129311426Y-114190147D01*
X129050273Y-114298320D01*
X128815241Y-114455363D01*
X128615363Y-114655241D01*
X128458320Y-114890273D01*
X128350147Y-115151426D01*
X128295000Y-115428665D01*
X126651355Y-115428665D01*
X126637568Y-115288691D01*
X126555514Y-115018192D01*
X126422264Y-114768899D01*
X126242940Y-114550392D01*
X126024433Y-114371068D01*
X125983332Y-114349099D01*
X125983332Y-109762565D01*
X131820000Y-109762565D01*
X131820000Y-110097435D01*
X131885330Y-110425872D01*
X132013479Y-110735252D01*
X132199523Y-111013687D01*
X132436313Y-111250477D01*
X132714748Y-111436521D01*
X133024128Y-111564670D01*
X133352565Y-111630000D01*
X133687435Y-111630000D01*
X134015872Y-111564670D01*
X134325252Y-111436521D01*
X134603687Y-111250477D01*
X134840477Y-111013687D01*
X135026521Y-110735252D01*
X135154670Y-110425872D01*
X135220000Y-110097435D01*
X135220000Y-109762565D01*
X135154670Y-109434128D01*
X135026521Y-109124748D01*
X134840477Y-108846313D01*
X134603687Y-108609523D01*
X134325252Y-108423479D01*
X134015872Y-108295330D01*
X133687435Y-108230000D01*
X133352565Y-108230000D01*
X133024128Y-108295330D01*
X132714748Y-108423479D01*
X132436313Y-108609523D01*
X132199523Y-108846313D01*
X132013479Y-109124748D01*
X131885330Y-109434128D01*
X131820000Y-109762565D01*
X125983332Y-109762565D01*
X125983332Y-101462565D01*
X131820000Y-101462565D01*
X131820000Y-101797435D01*
X131885330Y-102125872D01*
X132013479Y-102435252D01*
X132199523Y-102713687D01*
X132436313Y-102950477D01*
X132714748Y-103136521D01*
X133024128Y-103264670D01*
X133352565Y-103330000D01*
X133687435Y-103330000D01*
X134015872Y-103264670D01*
X134325252Y-103136521D01*
X134603687Y-102950477D01*
X134840477Y-102713687D01*
X135026521Y-102435252D01*
X135154670Y-102125872D01*
X135220000Y-101797435D01*
X135220000Y-101462565D01*
X135154670Y-101134128D01*
X135026521Y-100824748D01*
X134840477Y-100546313D01*
X134603687Y-100309523D01*
X134325252Y-100123479D01*
X134224860Y-100081895D01*
X134485000Y-100083072D01*
X134609482Y-100070812D01*
X134729180Y-100034502D01*
X134839494Y-99975537D01*
X134936185Y-99896185D01*
X135015537Y-99799494D01*
X135074502Y-99689180D01*
X135110812Y-99569482D01*
X135123072Y-99445000D01*
X135120000Y-98815750D01*
X134961250Y-98657000D01*
X133647000Y-98657000D01*
X133647000Y-98677000D01*
X133393000Y-98677000D01*
X133393000Y-98657000D01*
X132078750Y-98657000D01*
X131920000Y-98815750D01*
X131916928Y-99445000D01*
X131929188Y-99569482D01*
X131965498Y-99689180D01*
X132024463Y-99799494D01*
X132103815Y-99896185D01*
X132200506Y-99975537D01*
X132310820Y-100034502D01*
X132430518Y-100070812D01*
X132555000Y-100083072D01*
X132815140Y-100081895D01*
X132714748Y-100123479D01*
X132436313Y-100309523D01*
X132199523Y-100546313D01*
X132013479Y-100824748D01*
X131885330Y-101134128D01*
X131820000Y-101462565D01*
X125983332Y-101462565D01*
X125983332Y-101291469D01*
X129659801Y-97615000D01*
X131916928Y-97615000D01*
X131920000Y-98244250D01*
X132078750Y-98403000D01*
X133393000Y-98403000D01*
X133393000Y-97138750D01*
X133647000Y-97138750D01*
X133647000Y-98403000D01*
X134961250Y-98403000D01*
X135120000Y-98244250D01*
X135123072Y-97615000D01*
X135110812Y-97490518D01*
X135074502Y-97370820D01*
X135015537Y-97260506D01*
X134936185Y-97163815D01*
X134839494Y-97084463D01*
X134729180Y-97025498D01*
X134609482Y-96989188D01*
X134485000Y-96976928D01*
X133805750Y-96980000D01*
X133647000Y-97138750D01*
X133393000Y-97138750D01*
X133234250Y-96980000D01*
X132555000Y-96976928D01*
X132430518Y-96989188D01*
X132310820Y-97025498D01*
X132200506Y-97084463D01*
X132103815Y-97163815D01*
X132024463Y-97260506D01*
X131965498Y-97370820D01*
X131929188Y-97490518D01*
X131916928Y-97615000D01*
X129659801Y-97615000D01*
X134461003Y-92813799D01*
X134490001Y-92790001D01*
X134513799Y-92761003D01*
X134523327Y-92749393D01*
X136927494Y-90345226D01*
X136984866Y-90415134D01*
X137210986Y-90600706D01*
X137265791Y-90630000D01*
X137210986Y-90659294D01*
X136984866Y-90844866D01*
X136799294Y-91070986D01*
X136661401Y-91328966D01*
X136576487Y-91608889D01*
X136547815Y-91900000D01*
X136576487Y-92191111D01*
X136661401Y-92471034D01*
X136799294Y-92729014D01*
X136984866Y-92955134D01*
X137014687Y-92979607D01*
X136945820Y-93000498D01*
X136835506Y-93059463D01*
X136738815Y-93138815D01*
X136659463Y-93235506D01*
X136600498Y-93345820D01*
X136564188Y-93465518D01*
X136551928Y-93590000D01*
X136551928Y-95290000D01*
X136564188Y-95414482D01*
X136590001Y-95499576D01*
X136590000Y-114349099D01*
X136548899Y-114371068D01*
X136330392Y-114550392D01*
X136151068Y-114768899D01*
X136017818Y-115018192D01*
X135935764Y-115288691D01*
X135908057Y-115570000D01*
X135935764Y-115851309D01*
X136017818Y-116121808D01*
X136151068Y-116371101D01*
X136330392Y-116589608D01*
X136548899Y-116768932D01*
X136798192Y-116902182D01*
X137068691Y-116984236D01*
X137279508Y-117005000D01*
X137420492Y-117005000D01*
X137631309Y-116984236D01*
X137901808Y-116902182D01*
X138151101Y-116768932D01*
X138369608Y-116589608D01*
X138548932Y-116371101D01*
X138682182Y-116121808D01*
X138764236Y-115851309D01*
X138791943Y-115570000D01*
X138764236Y-115288691D01*
X138682182Y-115018192D01*
X138548932Y-114768899D01*
X138369608Y-114550392D01*
X138151101Y-114371068D01*
X138110000Y-114349099D01*
X138110000Y-95928072D01*
X138890000Y-95928072D01*
X139014482Y-95915812D01*
X139134180Y-95879502D01*
X139244494Y-95820537D01*
X139341185Y-95741185D01*
X139420537Y-95644494D01*
X139430001Y-95626789D01*
X139430001Y-131870000D01*
X134051289Y-131870000D01*
X134325252Y-131756521D01*
X134603687Y-131570477D01*
X134840477Y-131333687D01*
X135026521Y-131055252D01*
X135154670Y-130745872D01*
X135220000Y-130417435D01*
X135220000Y-130082565D01*
X135154670Y-129754128D01*
X135026521Y-129444748D01*
X134840477Y-129166313D01*
X134603687Y-128929523D01*
X134325252Y-128743479D01*
X134015872Y-128615330D01*
X133687435Y-128550000D01*
X133352565Y-128550000D01*
X133024128Y-128615330D01*
X132714748Y-128743479D01*
X132436313Y-128929523D01*
X132199523Y-129166313D01*
X132013479Y-129444748D01*
X131885330Y-129754128D01*
X131820000Y-130082565D01*
X131820000Y-130417435D01*
X131885330Y-130745872D01*
X132013479Y-131055252D01*
X132199523Y-131333687D01*
X132436313Y-131570477D01*
X132714748Y-131756521D01*
X132988711Y-131870000D01*
X121931289Y-131870000D01*
X122205252Y-131756521D01*
X122483687Y-131570477D01*
X122720477Y-131333687D01*
X122906521Y-131055252D01*
X123034670Y-130745872D01*
X123100000Y-130417435D01*
X123100000Y-130082565D01*
X123034670Y-129754128D01*
X122906521Y-129444748D01*
X122720477Y-129166313D01*
X122483687Y-128929523D01*
X122205252Y-128743479D01*
X121895872Y-128615330D01*
X121567435Y-128550000D01*
X121232565Y-128550000D01*
X120904128Y-128615330D01*
X120594748Y-128743479D01*
X120316313Y-128929523D01*
X120079523Y-129166313D01*
X119893479Y-129444748D01*
X119765330Y-129754128D01*
X119700000Y-130082565D01*
X119700000Y-130417435D01*
X119765330Y-130745872D01*
X119893479Y-131055252D01*
X120079523Y-131333687D01*
X120316313Y-131570477D01*
X120594748Y-131756521D01*
X120868711Y-131870000D01*
X109811289Y-131870000D01*
X110085252Y-131756521D01*
X110363687Y-131570477D01*
X110600477Y-131333687D01*
X110786521Y-131055252D01*
X110914670Y-130745872D01*
X110980000Y-130417435D01*
X110980000Y-130082565D01*
X110914670Y-129754128D01*
X110786521Y-129444748D01*
X110600477Y-129166313D01*
X110363687Y-128929523D01*
X110085252Y-128743479D01*
X109775872Y-128615330D01*
X109447435Y-128550000D01*
X109112565Y-128550000D01*
X108784128Y-128615330D01*
X108474748Y-128743479D01*
X108196313Y-128929523D01*
X107959523Y-129166313D01*
X107773479Y-129444748D01*
X107645330Y-129754128D01*
X107580000Y-130082565D01*
X107580000Y-130417435D01*
X107645330Y-130745872D01*
X107773479Y-131055252D01*
X107959523Y-131333687D01*
X108196313Y-131570477D01*
X108474748Y-131756521D01*
X108748711Y-131870000D01*
X97691289Y-131870000D01*
X97965252Y-131756521D01*
X98243687Y-131570477D01*
X98480477Y-131333687D01*
X98666521Y-131055252D01*
X98794670Y-130745872D01*
X98860000Y-130417435D01*
X98860000Y-130082565D01*
X98794670Y-129754128D01*
X98666521Y-129444748D01*
X98480477Y-129166313D01*
X98243687Y-128929523D01*
X97965252Y-128743479D01*
X97655872Y-128615330D01*
X97327435Y-128550000D01*
X96992565Y-128550000D01*
X96664128Y-128615330D01*
X96354748Y-128743479D01*
X96076313Y-128929523D01*
X95839523Y-129166313D01*
X95653479Y-129444748D01*
X95525330Y-129754128D01*
X95460000Y-130082565D01*
X95460000Y-130417435D01*
X95525330Y-130745872D01*
X95653479Y-131055252D01*
X95839523Y-131333687D01*
X96076313Y-131570477D01*
X96354748Y-131756521D01*
X96628711Y-131870000D01*
X91250000Y-131870000D01*
X91250000Y-121782565D01*
X95460000Y-121782565D01*
X95460000Y-122117435D01*
X95525330Y-122445872D01*
X95653479Y-122755252D01*
X95839523Y-123033687D01*
X96076313Y-123270477D01*
X96354748Y-123456521D01*
X96664128Y-123584670D01*
X96992565Y-123650000D01*
X97327435Y-123650000D01*
X97655872Y-123584670D01*
X97965252Y-123456521D01*
X98243687Y-123270477D01*
X98480477Y-123033687D01*
X98666521Y-122755252D01*
X98794670Y-122445872D01*
X98860000Y-122117435D01*
X98860000Y-121782565D01*
X107580000Y-121782565D01*
X107580000Y-122117435D01*
X107645330Y-122445872D01*
X107773479Y-122755252D01*
X107959523Y-123033687D01*
X108196313Y-123270477D01*
X108474748Y-123456521D01*
X108784128Y-123584670D01*
X109112565Y-123650000D01*
X109447435Y-123650000D01*
X109775872Y-123584670D01*
X110085252Y-123456521D01*
X110363687Y-123270477D01*
X110600477Y-123033687D01*
X110786521Y-122755252D01*
X110914670Y-122445872D01*
X110980000Y-122117435D01*
X110980000Y-121782565D01*
X119700000Y-121782565D01*
X119700000Y-122117435D01*
X119765330Y-122445872D01*
X119893479Y-122755252D01*
X120079523Y-123033687D01*
X120316313Y-123270477D01*
X120594748Y-123456521D01*
X120904128Y-123584670D01*
X121232565Y-123650000D01*
X121567435Y-123650000D01*
X121895872Y-123584670D01*
X122205252Y-123456521D01*
X122483687Y-123270477D01*
X122720477Y-123033687D01*
X122906521Y-122755252D01*
X123034670Y-122445872D01*
X123100000Y-122117435D01*
X123100000Y-121782565D01*
X131820000Y-121782565D01*
X131820000Y-122117435D01*
X131885330Y-122445872D01*
X132013479Y-122755252D01*
X132199523Y-123033687D01*
X132436313Y-123270477D01*
X132714748Y-123456521D01*
X133024128Y-123584670D01*
X133352565Y-123650000D01*
X133687435Y-123650000D01*
X134015872Y-123584670D01*
X134325252Y-123456521D01*
X134603687Y-123270477D01*
X134840477Y-123033687D01*
X135026521Y-122755252D01*
X135154670Y-122445872D01*
X135220000Y-122117435D01*
X135220000Y-121782565D01*
X135154670Y-121454128D01*
X135026521Y-121144748D01*
X134840477Y-120866313D01*
X134603687Y-120629523D01*
X134325252Y-120443479D01*
X134224860Y-120401895D01*
X134485000Y-120403072D01*
X134609482Y-120390812D01*
X134729180Y-120354502D01*
X134839494Y-120295537D01*
X134936185Y-120216185D01*
X135015537Y-120119494D01*
X135074502Y-120009180D01*
X135110812Y-119889482D01*
X135123072Y-119765000D01*
X135120000Y-119135750D01*
X134961250Y-118977000D01*
X133647000Y-118977000D01*
X133647000Y-118997000D01*
X133393000Y-118997000D01*
X133393000Y-118977000D01*
X132078750Y-118977000D01*
X131920000Y-119135750D01*
X131916928Y-119765000D01*
X131929188Y-119889482D01*
X131965498Y-120009180D01*
X132024463Y-120119494D01*
X132103815Y-120216185D01*
X132200506Y-120295537D01*
X132310820Y-120354502D01*
X132430518Y-120390812D01*
X132555000Y-120403072D01*
X132815140Y-120401895D01*
X132714748Y-120443479D01*
X132436313Y-120629523D01*
X132199523Y-120866313D01*
X132013479Y-121144748D01*
X131885330Y-121454128D01*
X131820000Y-121782565D01*
X123100000Y-121782565D01*
X123034670Y-121454128D01*
X122906521Y-121144748D01*
X122720477Y-120866313D01*
X122483687Y-120629523D01*
X122205252Y-120443479D01*
X122104860Y-120401895D01*
X122365000Y-120403072D01*
X122489482Y-120390812D01*
X122609180Y-120354502D01*
X122719494Y-120295537D01*
X122816185Y-120216185D01*
X122895537Y-120119494D01*
X122954502Y-120009180D01*
X122990812Y-119889482D01*
X123003072Y-119765000D01*
X123000000Y-119135750D01*
X122841250Y-118977000D01*
X121527000Y-118977000D01*
X121527000Y-118997000D01*
X121273000Y-118997000D01*
X121273000Y-118977000D01*
X119958750Y-118977000D01*
X119800000Y-119135750D01*
X119796928Y-119765000D01*
X119809188Y-119889482D01*
X119845498Y-120009180D01*
X119904463Y-120119494D01*
X119983815Y-120216185D01*
X120080506Y-120295537D01*
X120190820Y-120354502D01*
X120310518Y-120390812D01*
X120435000Y-120403072D01*
X120695140Y-120401895D01*
X120594748Y-120443479D01*
X120316313Y-120629523D01*
X120079523Y-120866313D01*
X119893479Y-121144748D01*
X119765330Y-121454128D01*
X119700000Y-121782565D01*
X110980000Y-121782565D01*
X110914670Y-121454128D01*
X110786521Y-121144748D01*
X110600477Y-120866313D01*
X110363687Y-120629523D01*
X110085252Y-120443479D01*
X109984860Y-120401895D01*
X110245000Y-120403072D01*
X110369482Y-120390812D01*
X110489180Y-120354502D01*
X110599494Y-120295537D01*
X110696185Y-120216185D01*
X110775537Y-120119494D01*
X110834502Y-120009180D01*
X110870812Y-119889482D01*
X110883072Y-119765000D01*
X110880000Y-119135750D01*
X110721250Y-118977000D01*
X109407000Y-118977000D01*
X109407000Y-118997000D01*
X109153000Y-118997000D01*
X109153000Y-118977000D01*
X107838750Y-118977000D01*
X107680000Y-119135750D01*
X107676928Y-119765000D01*
X107689188Y-119889482D01*
X107725498Y-120009180D01*
X107784463Y-120119494D01*
X107863815Y-120216185D01*
X107960506Y-120295537D01*
X108070820Y-120354502D01*
X108190518Y-120390812D01*
X108315000Y-120403072D01*
X108575140Y-120401895D01*
X108474748Y-120443479D01*
X108196313Y-120629523D01*
X107959523Y-120866313D01*
X107773479Y-121144748D01*
X107645330Y-121454128D01*
X107580000Y-121782565D01*
X98860000Y-121782565D01*
X98794670Y-121454128D01*
X98666521Y-121144748D01*
X98480477Y-120866313D01*
X98243687Y-120629523D01*
X97965252Y-120443479D01*
X97864860Y-120401895D01*
X98125000Y-120403072D01*
X98249482Y-120390812D01*
X98369180Y-120354502D01*
X98479494Y-120295537D01*
X98576185Y-120216185D01*
X98655537Y-120119494D01*
X98714502Y-120009180D01*
X98750812Y-119889482D01*
X98763072Y-119765000D01*
X98760000Y-119135750D01*
X98601250Y-118977000D01*
X97287000Y-118977000D01*
X97287000Y-118997000D01*
X97033000Y-118997000D01*
X97033000Y-118977000D01*
X95718750Y-118977000D01*
X95560000Y-119135750D01*
X95556928Y-119765000D01*
X95569188Y-119889482D01*
X95605498Y-120009180D01*
X95664463Y-120119494D01*
X95743815Y-120216185D01*
X95840506Y-120295537D01*
X95950820Y-120354502D01*
X96070518Y-120390812D01*
X96195000Y-120403072D01*
X96455140Y-120401895D01*
X96354748Y-120443479D01*
X96076313Y-120629523D01*
X95839523Y-120866313D01*
X95653479Y-121144748D01*
X95525330Y-121454128D01*
X95460000Y-121782565D01*
X91250000Y-121782565D01*
X91250000Y-117935000D01*
X95556928Y-117935000D01*
X95560000Y-118564250D01*
X95718750Y-118723000D01*
X97033000Y-118723000D01*
X97033000Y-117458750D01*
X97287000Y-117458750D01*
X97287000Y-118723000D01*
X98601250Y-118723000D01*
X98760000Y-118564250D01*
X98763072Y-117935000D01*
X107676928Y-117935000D01*
X107680000Y-118564250D01*
X107838750Y-118723000D01*
X109153000Y-118723000D01*
X109153000Y-117458750D01*
X109407000Y-117458750D01*
X109407000Y-118723000D01*
X110721250Y-118723000D01*
X110880000Y-118564250D01*
X110883072Y-117935000D01*
X119796928Y-117935000D01*
X119800000Y-118564250D01*
X119958750Y-118723000D01*
X121273000Y-118723000D01*
X121273000Y-117458750D01*
X121527000Y-117458750D01*
X121527000Y-118723000D01*
X122841250Y-118723000D01*
X123000000Y-118564250D01*
X123003072Y-117935000D01*
X131916928Y-117935000D01*
X131920000Y-118564250D01*
X132078750Y-118723000D01*
X133393000Y-118723000D01*
X133393000Y-117458750D01*
X133647000Y-117458750D01*
X133647000Y-118723000D01*
X134961250Y-118723000D01*
X135120000Y-118564250D01*
X135123072Y-117935000D01*
X135110812Y-117810518D01*
X135074502Y-117690820D01*
X135015537Y-117580506D01*
X134936185Y-117483815D01*
X134839494Y-117404463D01*
X134729180Y-117345498D01*
X134609482Y-117309188D01*
X134485000Y-117296928D01*
X133805750Y-117300000D01*
X133647000Y-117458750D01*
X133393000Y-117458750D01*
X133234250Y-117300000D01*
X132555000Y-117296928D01*
X132430518Y-117309188D01*
X132310820Y-117345498D01*
X132200506Y-117404463D01*
X132103815Y-117483815D01*
X132024463Y-117580506D01*
X131965498Y-117690820D01*
X131929188Y-117810518D01*
X131916928Y-117935000D01*
X123003072Y-117935000D01*
X122990812Y-117810518D01*
X122954502Y-117690820D01*
X122895537Y-117580506D01*
X122816185Y-117483815D01*
X122719494Y-117404463D01*
X122609180Y-117345498D01*
X122489482Y-117309188D01*
X122365000Y-117296928D01*
X121685750Y-117300000D01*
X121527000Y-117458750D01*
X121273000Y-117458750D01*
X121114250Y-117300000D01*
X120435000Y-117296928D01*
X120310518Y-117309188D01*
X120190820Y-117345498D01*
X120080506Y-117404463D01*
X119983815Y-117483815D01*
X119904463Y-117580506D01*
X119845498Y-117690820D01*
X119809188Y-117810518D01*
X119796928Y-117935000D01*
X110883072Y-117935000D01*
X110870812Y-117810518D01*
X110834502Y-117690820D01*
X110775537Y-117580506D01*
X110696185Y-117483815D01*
X110599494Y-117404463D01*
X110489180Y-117345498D01*
X110369482Y-117309188D01*
X110245000Y-117296928D01*
X109565750Y-117300000D01*
X109407000Y-117458750D01*
X109153000Y-117458750D01*
X108994250Y-117300000D01*
X108315000Y-117296928D01*
X108190518Y-117309188D01*
X108070820Y-117345498D01*
X107960506Y-117404463D01*
X107863815Y-117483815D01*
X107784463Y-117580506D01*
X107725498Y-117690820D01*
X107689188Y-117810518D01*
X107676928Y-117935000D01*
X98763072Y-117935000D01*
X98750812Y-117810518D01*
X98714502Y-117690820D01*
X98655537Y-117580506D01*
X98576185Y-117483815D01*
X98479494Y-117404463D01*
X98369180Y-117345498D01*
X98249482Y-117309188D01*
X98125000Y-117296928D01*
X97445750Y-117300000D01*
X97287000Y-117458750D01*
X97033000Y-117458750D01*
X96874250Y-117300000D01*
X96195000Y-117296928D01*
X96070518Y-117309188D01*
X95950820Y-117345498D01*
X95840506Y-117404463D01*
X95743815Y-117483815D01*
X95664463Y-117580506D01*
X95605498Y-117690820D01*
X95569188Y-117810518D01*
X95556928Y-117935000D01*
X91250000Y-117935000D01*
X91250000Y-115428665D01*
X91915000Y-115428665D01*
X91915000Y-115711335D01*
X91970147Y-115988574D01*
X92078320Y-116249727D01*
X92235363Y-116484759D01*
X92435241Y-116684637D01*
X92670273Y-116841680D01*
X92931426Y-116949853D01*
X93208665Y-117005000D01*
X93491335Y-117005000D01*
X93768574Y-116949853D01*
X94029727Y-116841680D01*
X94264759Y-116684637D01*
X94464637Y-116484759D01*
X94621680Y-116249727D01*
X94729853Y-115988574D01*
X94785000Y-115711335D01*
X94785000Y-115428665D01*
X94729853Y-115151426D01*
X94621680Y-114890273D01*
X94464637Y-114655241D01*
X94264759Y-114455363D01*
X94029727Y-114298320D01*
X93768574Y-114190147D01*
X93491335Y-114135000D01*
X93208665Y-114135000D01*
X92931426Y-114190147D01*
X92670273Y-114298320D01*
X92435241Y-114455363D01*
X92235363Y-114655241D01*
X92078320Y-114890273D01*
X91970147Y-115151426D01*
X91915000Y-115428665D01*
X91250000Y-115428665D01*
X91250000Y-109762565D01*
X95460000Y-109762565D01*
X95460000Y-110097435D01*
X95525330Y-110425872D01*
X95653479Y-110735252D01*
X95839523Y-111013687D01*
X96076313Y-111250477D01*
X96354748Y-111436521D01*
X96664128Y-111564670D01*
X96992565Y-111630000D01*
X97327435Y-111630000D01*
X97655872Y-111564670D01*
X97965252Y-111436521D01*
X98243687Y-111250477D01*
X98480477Y-111013687D01*
X98666521Y-110735252D01*
X98794670Y-110425872D01*
X98860000Y-110097435D01*
X98860000Y-109762565D01*
X98794670Y-109434128D01*
X98666521Y-109124748D01*
X98480477Y-108846313D01*
X98243687Y-108609523D01*
X97965252Y-108423479D01*
X97655872Y-108295330D01*
X97327435Y-108230000D01*
X96992565Y-108230000D01*
X96664128Y-108295330D01*
X96354748Y-108423479D01*
X96076313Y-108609523D01*
X95839523Y-108846313D01*
X95653479Y-109124748D01*
X95525330Y-109434128D01*
X95460000Y-109762565D01*
X91250000Y-109762565D01*
X91250000Y-101462565D01*
X95460000Y-101462565D01*
X95460000Y-101797435D01*
X95525330Y-102125872D01*
X95653479Y-102435252D01*
X95839523Y-102713687D01*
X96076313Y-102950477D01*
X96354748Y-103136521D01*
X96664128Y-103264670D01*
X96992565Y-103330000D01*
X97327435Y-103330000D01*
X97655872Y-103264670D01*
X97965252Y-103136521D01*
X98243687Y-102950477D01*
X98480477Y-102713687D01*
X98666521Y-102435252D01*
X98794670Y-102125872D01*
X98860000Y-101797435D01*
X98860000Y-101462565D01*
X98794670Y-101134128D01*
X98666521Y-100824748D01*
X98480477Y-100546313D01*
X98243687Y-100309523D01*
X97965252Y-100123479D01*
X97864860Y-100081895D01*
X98125000Y-100083072D01*
X98249482Y-100070812D01*
X98369180Y-100034502D01*
X98479494Y-99975537D01*
X98576185Y-99896185D01*
X98655537Y-99799494D01*
X98714502Y-99689180D01*
X98750812Y-99569482D01*
X98763072Y-99445000D01*
X98760000Y-98815750D01*
X98601250Y-98657000D01*
X97287000Y-98657000D01*
X97287000Y-98677000D01*
X97033000Y-98677000D01*
X97033000Y-98657000D01*
X95718750Y-98657000D01*
X95560000Y-98815750D01*
X95556928Y-99445000D01*
X95569188Y-99569482D01*
X95605498Y-99689180D01*
X95664463Y-99799494D01*
X95743815Y-99896185D01*
X95840506Y-99975537D01*
X95950820Y-100034502D01*
X96070518Y-100070812D01*
X96195000Y-100083072D01*
X96455140Y-100081895D01*
X96354748Y-100123479D01*
X96076313Y-100309523D01*
X95839523Y-100546313D01*
X95653479Y-100824748D01*
X95525330Y-101134128D01*
X95460000Y-101462565D01*
X91250000Y-101462565D01*
X91250000Y-97615000D01*
X95556928Y-97615000D01*
X95560000Y-98244250D01*
X95718750Y-98403000D01*
X97033000Y-98403000D01*
X97033000Y-97138750D01*
X97287000Y-97138750D01*
X97287000Y-98403000D01*
X98601250Y-98403000D01*
X98760000Y-98244250D01*
X98763072Y-97615000D01*
X107676928Y-97615000D01*
X107680000Y-98244250D01*
X107838750Y-98403000D01*
X109153000Y-98403000D01*
X109153000Y-97138750D01*
X109407000Y-97138750D01*
X109407000Y-98403000D01*
X110721250Y-98403000D01*
X110880000Y-98244250D01*
X110883072Y-97615000D01*
X110870812Y-97490518D01*
X110834502Y-97370820D01*
X110775537Y-97260506D01*
X110696185Y-97163815D01*
X110599494Y-97084463D01*
X110489180Y-97025498D01*
X110369482Y-96989188D01*
X110245000Y-96976928D01*
X109565750Y-96980000D01*
X109407000Y-97138750D01*
X109153000Y-97138750D01*
X108994250Y-96980000D01*
X108315000Y-96976928D01*
X108190518Y-96989188D01*
X108070820Y-97025498D01*
X107960506Y-97084463D01*
X107863815Y-97163815D01*
X107784463Y-97260506D01*
X107725498Y-97370820D01*
X107689188Y-97490518D01*
X107676928Y-97615000D01*
X98763072Y-97615000D01*
X98750812Y-97490518D01*
X98714502Y-97370820D01*
X98655537Y-97260506D01*
X98576185Y-97163815D01*
X98479494Y-97084463D01*
X98369180Y-97025498D01*
X98249482Y-96989188D01*
X98125000Y-96976928D01*
X97445750Y-96980000D01*
X97287000Y-97138750D01*
X97033000Y-97138750D01*
X96874250Y-96980000D01*
X96195000Y-96976928D01*
X96070518Y-96989188D01*
X95950820Y-97025498D01*
X95840506Y-97084463D01*
X95743815Y-97163815D01*
X95664463Y-97260506D01*
X95605498Y-97370820D01*
X95569188Y-97490518D01*
X95556928Y-97615000D01*
X91250000Y-97615000D01*
X91250000Y-95730444D01*
X91258815Y-95741185D01*
X91355506Y-95820537D01*
X91465820Y-95879502D01*
X91585518Y-95915812D01*
X91710000Y-95928072D01*
X92274250Y-95925000D01*
X92433000Y-95766250D01*
X92433000Y-94567000D01*
X92687000Y-94567000D01*
X92687000Y-95766250D01*
X92845750Y-95925000D01*
X93410000Y-95928072D01*
X93534482Y-95915812D01*
X93654180Y-95879502D01*
X93764494Y-95820537D01*
X93861185Y-95741185D01*
X93940537Y-95644494D01*
X93999502Y-95534180D01*
X94035812Y-95414482D01*
X94048072Y-95290000D01*
X94047521Y-95188665D01*
X100225000Y-95188665D01*
X100225000Y-95471335D01*
X100280147Y-95748574D01*
X100388320Y-96009727D01*
X100545363Y-96244759D01*
X100745241Y-96444637D01*
X100980273Y-96601680D01*
X101241426Y-96709853D01*
X101518665Y-96765000D01*
X101801335Y-96765000D01*
X102078574Y-96709853D01*
X102339727Y-96601680D01*
X102574759Y-96444637D01*
X102774637Y-96244759D01*
X102931680Y-96009727D01*
X103039853Y-95748574D01*
X103095000Y-95471335D01*
X103095000Y-95330000D01*
X107838057Y-95330000D01*
X107865764Y-95611309D01*
X107947818Y-95881808D01*
X108081068Y-96131101D01*
X108260392Y-96349608D01*
X108478899Y-96528932D01*
X108728192Y-96662182D01*
X108998691Y-96744236D01*
X109209508Y-96765000D01*
X109350492Y-96765000D01*
X109561309Y-96744236D01*
X109831808Y-96662182D01*
X110081101Y-96528932D01*
X110299608Y-96349608D01*
X110478932Y-96131101D01*
X110612182Y-95881808D01*
X110694236Y-95611309D01*
X110721943Y-95330000D01*
X110694236Y-95048691D01*
X110612182Y-94778192D01*
X110478932Y-94528899D01*
X110299608Y-94310392D01*
X110081101Y-94131068D01*
X109831808Y-93997818D01*
X109561309Y-93915764D01*
X109350492Y-93895000D01*
X109209508Y-93895000D01*
X108998691Y-93915764D01*
X108728192Y-93997818D01*
X108478899Y-94131068D01*
X108260392Y-94310392D01*
X108081068Y-94528899D01*
X107947818Y-94778192D01*
X107865764Y-95048691D01*
X107838057Y-95330000D01*
X103095000Y-95330000D01*
X103095000Y-95188665D01*
X103039853Y-94911426D01*
X102931680Y-94650273D01*
X102774637Y-94415241D01*
X102574759Y-94215363D01*
X102339727Y-94058320D01*
X102078574Y-93950147D01*
X101801335Y-93895000D01*
X101518665Y-93895000D01*
X101241426Y-93950147D01*
X100980273Y-94058320D01*
X100745241Y-94215363D01*
X100545363Y-94415241D01*
X100388320Y-94650273D01*
X100280147Y-94911426D01*
X100225000Y-95188665D01*
X94047521Y-95188665D01*
X94045000Y-94725750D01*
X93886250Y-94567000D01*
X92687000Y-94567000D01*
X92433000Y-94567000D01*
X92413000Y-94567000D01*
X92413000Y-94313000D01*
X92433000Y-94313000D01*
X92433000Y-94293000D01*
X92687000Y-94293000D01*
X92687000Y-94313000D01*
X93886250Y-94313000D01*
X94045000Y-94154250D01*
X94048072Y-93590000D01*
X94035812Y-93465518D01*
X93999502Y-93345820D01*
X93940537Y-93235506D01*
X93861185Y-93138815D01*
X93764494Y-93059463D01*
X93654180Y-93000498D01*
X93585313Y-92979607D01*
X93615134Y-92955134D01*
X93800706Y-92729014D01*
X93938599Y-92471034D01*
X94023513Y-92191111D01*
X94052185Y-91900000D01*
X94041351Y-91790000D01*
X98031928Y-91790000D01*
X98044188Y-91914482D01*
X98080498Y-92034180D01*
X98139463Y-92144494D01*
X98218815Y-92241185D01*
X98315506Y-92320537D01*
X98425820Y-92379502D01*
X98545518Y-92415812D01*
X98670000Y-92428072D01*
X99284250Y-92425000D01*
X99443000Y-92266250D01*
X99443000Y-91017000D01*
X98193750Y-91017000D01*
X98035000Y-91175750D01*
X98031928Y-91790000D01*
X94041351Y-91790000D01*
X94023513Y-91608889D01*
X93938599Y-91328966D01*
X93800706Y-91070986D01*
X93615134Y-90844866D01*
X93389014Y-90659294D01*
X93334209Y-90630000D01*
X93389014Y-90600706D01*
X93615134Y-90415134D01*
X93800706Y-90189014D01*
X93907081Y-89990000D01*
X98031928Y-89990000D01*
X98035000Y-90604250D01*
X98193750Y-90763000D01*
X99443000Y-90763000D01*
X99443000Y-89513750D01*
X99697000Y-89513750D01*
X99697000Y-90763000D01*
X99717000Y-90763000D01*
X99717000Y-91017000D01*
X99697000Y-91017000D01*
X99697000Y-92266250D01*
X99855750Y-92425000D01*
X100470000Y-92428072D01*
X100594482Y-92415812D01*
X100714180Y-92379502D01*
X100824494Y-92320537D01*
X100921185Y-92241185D01*
X101000537Y-92144494D01*
X101053880Y-92044697D01*
X101091495Y-92082312D01*
X101342905Y-92250299D01*
X101622257Y-92366011D01*
X101918816Y-92425000D01*
X102221184Y-92425000D01*
X102517743Y-92366011D01*
X102797095Y-92250299D01*
X103048505Y-92082312D01*
X103262312Y-91868505D01*
X103320000Y-91782169D01*
X103377688Y-91868505D01*
X103591495Y-92082312D01*
X103842905Y-92250299D01*
X104122257Y-92366011D01*
X104418816Y-92425000D01*
X104721184Y-92425000D01*
X105017743Y-92366011D01*
X105297095Y-92250299D01*
X105548505Y-92082312D01*
X105762312Y-91868505D01*
X105930299Y-91617095D01*
X106046011Y-91337743D01*
X106105000Y-91041184D01*
X106105000Y-90738816D01*
X106046011Y-90442257D01*
X105930299Y-90162905D01*
X105762312Y-89911495D01*
X105548505Y-89697688D01*
X105297095Y-89529701D01*
X105017743Y-89413989D01*
X104721184Y-89355000D01*
X104418816Y-89355000D01*
X104122257Y-89413989D01*
X103842905Y-89529701D01*
X103591495Y-89697688D01*
X103377688Y-89911495D01*
X103320000Y-89997831D01*
X103262312Y-89911495D01*
X103048505Y-89697688D01*
X102797095Y-89529701D01*
X102517743Y-89413989D01*
X102221184Y-89355000D01*
X101918816Y-89355000D01*
X101622257Y-89413989D01*
X101342905Y-89529701D01*
X101091495Y-89697688D01*
X101053880Y-89735303D01*
X101000537Y-89635506D01*
X100921185Y-89538815D01*
X100824494Y-89459463D01*
X100714180Y-89400498D01*
X100594482Y-89364188D01*
X100470000Y-89351928D01*
X99855750Y-89355000D01*
X99697000Y-89513750D01*
X99443000Y-89513750D01*
X99284250Y-89355000D01*
X98670000Y-89351928D01*
X98545518Y-89364188D01*
X98425820Y-89400498D01*
X98315506Y-89459463D01*
X98218815Y-89538815D01*
X98139463Y-89635506D01*
X98080498Y-89745820D01*
X98044188Y-89865518D01*
X98031928Y-89990000D01*
X93907081Y-89990000D01*
X93938599Y-89931034D01*
X94023513Y-89651111D01*
X94052185Y-89360000D01*
X94023513Y-89068889D01*
X93938599Y-88788966D01*
X93800706Y-88530986D01*
X93615134Y-88304866D01*
X93389014Y-88119294D01*
X93334209Y-88090000D01*
X93389014Y-88060706D01*
X93615134Y-87875134D01*
X93800706Y-87649014D01*
X93938599Y-87391034D01*
X94023513Y-87111111D01*
X94052185Y-86820000D01*
X94023513Y-86528889D01*
X93938599Y-86248966D01*
X93800706Y-85990986D01*
X93615134Y-85764866D01*
X93389014Y-85579294D01*
X93334209Y-85550000D01*
X93389014Y-85520706D01*
X93615134Y-85335134D01*
X93800706Y-85109014D01*
X93938599Y-84851034D01*
X94023513Y-84571111D01*
X94052185Y-84280000D01*
X94023513Y-83988889D01*
X93938599Y-83708966D01*
X93800706Y-83450986D01*
X93615134Y-83224866D01*
X93545724Y-83167902D01*
X95015000Y-83167902D01*
X95015000Y-83612098D01*
X95101658Y-84047759D01*
X95271645Y-84458143D01*
X95518427Y-84827479D01*
X95832521Y-85141573D01*
X96201857Y-85388355D01*
X96612241Y-85558342D01*
X97047902Y-85645000D01*
X97492098Y-85645000D01*
X97927759Y-85558342D01*
X98338143Y-85388355D01*
X98707479Y-85141573D01*
X99021573Y-84827479D01*
X99268355Y-84458143D01*
X99438342Y-84047759D01*
X99525000Y-83612098D01*
X99525000Y-83167902D01*
X104615000Y-83167902D01*
X104615000Y-83612098D01*
X104701658Y-84047759D01*
X104871645Y-84458143D01*
X105118427Y-84827479D01*
X105432521Y-85141573D01*
X105801857Y-85388355D01*
X106212241Y-85558342D01*
X106647902Y-85645000D01*
X107092098Y-85645000D01*
X107527759Y-85558342D01*
X107938143Y-85388355D01*
X108307479Y-85141573D01*
X108621573Y-84827479D01*
X108868355Y-84458143D01*
X109038342Y-84047759D01*
X109125000Y-83612098D01*
X109125000Y-83167902D01*
X109038342Y-82732241D01*
X108868355Y-82321857D01*
X108621573Y-81952521D01*
X108307479Y-81638427D01*
X107938143Y-81391645D01*
X107527759Y-81221658D01*
X107092098Y-81135000D01*
X106647902Y-81135000D01*
X106212241Y-81221658D01*
X105801857Y-81391645D01*
X105432521Y-81638427D01*
X105118427Y-81952521D01*
X104871645Y-82321857D01*
X104701658Y-82732241D01*
X104615000Y-83167902D01*
X99525000Y-83167902D01*
X99438342Y-82732241D01*
X99268355Y-82321857D01*
X99021573Y-81952521D01*
X98707479Y-81638427D01*
X98338143Y-81391645D01*
X97927759Y-81221658D01*
X97492098Y-81135000D01*
X97047902Y-81135000D01*
X96612241Y-81221658D01*
X96201857Y-81391645D01*
X95832521Y-81638427D01*
X95518427Y-81952521D01*
X95271645Y-82321857D01*
X95101658Y-82732241D01*
X95015000Y-83167902D01*
X93545724Y-83167902D01*
X93389014Y-83039294D01*
X93320000Y-83002405D01*
X93320000Y-80434801D01*
X94044802Y-79710000D01*
X111325199Y-79710000D01*
X112340000Y-80724802D01*
X112340001Y-97836288D01*
X112296063Y-97880226D01*
X112182795Y-98049744D01*
X112104774Y-98238102D01*
X112065000Y-98438061D01*
X112065000Y-98641939D01*
X112104774Y-98841898D01*
X112182795Y-99030256D01*
X112296063Y-99199774D01*
X112440226Y-99343937D01*
X112609744Y-99457205D01*
X112798102Y-99535226D01*
X112998061Y-99575000D01*
X113201939Y-99575000D01*
X113401898Y-99535226D01*
X113590256Y-99457205D01*
X113759774Y-99343937D01*
X113903937Y-99199774D01*
X114017205Y-99030256D01*
X114095226Y-98841898D01*
X114135000Y-98641939D01*
X114135000Y-98438061D01*
X114095226Y-98238102D01*
X114017205Y-98049744D01*
X113903937Y-97880226D01*
X113860000Y-97836289D01*
X113860000Y-80447323D01*
X113863676Y-80410000D01*
X113860000Y-80372677D01*
X113860000Y-80372667D01*
X113849003Y-80261014D01*
X113805546Y-80117753D01*
X113734974Y-79985724D01*
X113640001Y-79869999D01*
X113611004Y-79846202D01*
X112203804Y-78439003D01*
X112180001Y-78409999D01*
X112064276Y-78315026D01*
X111932247Y-78244454D01*
X111788986Y-78200997D01*
X111677333Y-78190000D01*
X111677322Y-78190000D01*
X111640000Y-78186324D01*
X111602678Y-78190000D01*
X93767323Y-78190000D01*
X93730000Y-78186324D01*
X93692677Y-78190000D01*
X93692667Y-78190000D01*
X93581014Y-78200997D01*
X93437753Y-78244454D01*
X93305724Y-78315026D01*
X93189999Y-78409999D01*
X93166201Y-78438997D01*
X92048998Y-79556201D01*
X92020000Y-79579999D01*
X91996202Y-79608997D01*
X91996201Y-79608998D01*
X91925026Y-79695724D01*
X91854454Y-79827754D01*
X91810998Y-79971015D01*
X91796324Y-80120000D01*
X91800001Y-80157332D01*
X91800000Y-83002405D01*
X91730986Y-83039294D01*
X91504866Y-83224866D01*
X91319294Y-83450986D01*
X91250000Y-83580626D01*
X91250000Y-75958665D01*
X111075000Y-75958665D01*
X111075000Y-76241335D01*
X111130147Y-76518574D01*
X111238320Y-76779727D01*
X111395363Y-77014759D01*
X111595241Y-77214637D01*
X111830273Y-77371680D01*
X112091426Y-77479853D01*
X112368665Y-77535000D01*
X112651335Y-77535000D01*
X112928574Y-77479853D01*
X113189727Y-77371680D01*
X113424759Y-77214637D01*
X113624637Y-77014759D01*
X113781680Y-76779727D01*
X113889853Y-76518574D01*
X113945000Y-76241335D01*
X113945000Y-75958665D01*
X113889853Y-75681426D01*
X113781680Y-75420273D01*
X113624637Y-75185241D01*
X113424759Y-74985363D01*
X113189727Y-74828320D01*
X112928574Y-74720147D01*
X112651335Y-74665000D01*
X112368665Y-74665000D01*
X112091426Y-74720147D01*
X111830273Y-74828320D01*
X111595241Y-74985363D01*
X111395363Y-75185241D01*
X111238320Y-75420273D01*
X111130147Y-75681426D01*
X111075000Y-75958665D01*
X91250000Y-75958665D01*
X91250000Y-72810704D01*
X111118096Y-72810704D01*
X111158754Y-72944752D01*
X111278963Y-73199085D01*
X111446481Y-73425079D01*
X111654869Y-73614050D01*
X111896119Y-73758735D01*
X112160960Y-73853574D01*
X112383000Y-73732289D01*
X112383000Y-72588665D01*
X112637000Y-72588665D01*
X112637000Y-73732289D01*
X112859040Y-73853574D01*
X113123881Y-73758735D01*
X113365131Y-73614050D01*
X113573519Y-73425079D01*
X113741037Y-73199085D01*
X113861246Y-72944752D01*
X113901904Y-72810704D01*
X113779915Y-72588665D01*
X112637000Y-72588665D01*
X112383000Y-72588665D01*
X111240085Y-72588665D01*
X111118096Y-72810704D01*
X91250000Y-72810704D01*
X91250000Y-72112626D01*
X111118096Y-72112626D01*
X111240085Y-72334665D01*
X112383000Y-72334665D01*
X112383000Y-71191041D01*
X112637000Y-71191041D01*
X112637000Y-72334665D01*
X113779915Y-72334665D01*
X113901904Y-72112626D01*
X113861246Y-71978578D01*
X113741037Y-71724245D01*
X113573519Y-71498251D01*
X113365131Y-71309280D01*
X113123881Y-71164595D01*
X112859040Y-71069756D01*
X112637000Y-71191041D01*
X112383000Y-71191041D01*
X112160960Y-71069756D01*
X111896119Y-71164595D01*
X111654869Y-71309280D01*
X111446481Y-71498251D01*
X111278963Y-71724245D01*
X111158754Y-71978578D01*
X111118096Y-72112626D01*
X91250000Y-72112626D01*
X91250000Y-68681997D01*
X111075000Y-68681997D01*
X111075000Y-68964667D01*
X111130147Y-69241906D01*
X111238320Y-69503059D01*
X111395363Y-69738091D01*
X111595241Y-69937969D01*
X111830273Y-70095012D01*
X112091426Y-70203185D01*
X112368665Y-70258332D01*
X112651335Y-70258332D01*
X112928574Y-70203185D01*
X113189727Y-70095012D01*
X113424759Y-69937969D01*
X113624637Y-69738091D01*
X113781680Y-69503059D01*
X113889853Y-69241906D01*
X113945000Y-68964667D01*
X113945000Y-68681997D01*
X113889853Y-68404758D01*
X113781680Y-68143605D01*
X113624637Y-67908573D01*
X113424759Y-67708695D01*
X113189727Y-67551652D01*
X112928574Y-67443479D01*
X112651335Y-67388332D01*
X112368665Y-67388332D01*
X112091426Y-67443479D01*
X111830273Y-67551652D01*
X111595241Y-67708695D01*
X111395363Y-67908573D01*
X111238320Y-68143605D01*
X111130147Y-68404758D01*
X111075000Y-68681997D01*
X91250000Y-68681997D01*
X91250000Y-66380000D01*
X98031928Y-66380000D01*
X98044188Y-66504482D01*
X98080498Y-66624180D01*
X98139463Y-66734494D01*
X98218815Y-66831185D01*
X98315506Y-66910537D01*
X98425820Y-66969502D01*
X98545518Y-67005812D01*
X98670000Y-67018072D01*
X99284250Y-67015000D01*
X99443000Y-66856250D01*
X99443000Y-65607000D01*
X98193750Y-65607000D01*
X98035000Y-65765750D01*
X98031928Y-66380000D01*
X91250000Y-66380000D01*
X91250000Y-64580000D01*
X98031928Y-64580000D01*
X98035000Y-65194250D01*
X98193750Y-65353000D01*
X99443000Y-65353000D01*
X99443000Y-64103750D01*
X99284250Y-63945000D01*
X98670000Y-63941928D01*
X98545518Y-63954188D01*
X98425820Y-63990498D01*
X98315506Y-64049463D01*
X98218815Y-64128815D01*
X98139463Y-64225506D01*
X98080498Y-64335820D01*
X98044188Y-64455518D01*
X98031928Y-64580000D01*
X91250000Y-64580000D01*
X91250000Y-61546666D01*
X111068057Y-61546666D01*
X111095764Y-61827975D01*
X111177818Y-62098474D01*
X111311068Y-62347767D01*
X111490392Y-62566274D01*
X111708899Y-62745598D01*
X111958192Y-62878848D01*
X112228691Y-62960902D01*
X112439508Y-62981666D01*
X112580492Y-62981666D01*
X112791309Y-62960902D01*
X113061808Y-62878848D01*
X113311101Y-62745598D01*
X113529608Y-62566274D01*
X113708932Y-62347767D01*
X113842182Y-62098474D01*
X113924236Y-61827975D01*
X113951943Y-61546666D01*
X113924236Y-61265357D01*
X113842182Y-60994858D01*
X113708932Y-60745565D01*
X113529608Y-60527058D01*
X113311101Y-60347734D01*
X113061808Y-60214484D01*
X112791309Y-60132430D01*
X112580492Y-60111666D01*
X112439508Y-60111666D01*
X112228691Y-60132430D01*
X111958192Y-60214484D01*
X111708899Y-60347734D01*
X111490392Y-60527058D01*
X111311068Y-60745565D01*
X111177818Y-60994858D01*
X111095764Y-61265357D01*
X111068057Y-61546666D01*
X91250000Y-61546666D01*
X91250000Y-57757902D01*
X95015000Y-57757902D01*
X95015000Y-58202098D01*
X95101658Y-58637759D01*
X95271645Y-59048143D01*
X95518427Y-59417479D01*
X95832521Y-59731573D01*
X96201857Y-59978355D01*
X96612241Y-60148342D01*
X97047902Y-60235000D01*
X97492098Y-60235000D01*
X97927759Y-60148342D01*
X98338143Y-59978355D01*
X98707479Y-59731573D01*
X99021573Y-59417479D01*
X99268355Y-59048143D01*
X99438342Y-58637759D01*
X99525000Y-58202098D01*
X99525000Y-57757902D01*
X104615000Y-57757902D01*
X104615000Y-58202098D01*
X104701658Y-58637759D01*
X104871645Y-59048143D01*
X105118427Y-59417479D01*
X105432521Y-59731573D01*
X105801857Y-59978355D01*
X106212241Y-60148342D01*
X106647902Y-60235000D01*
X107092098Y-60235000D01*
X107527759Y-60148342D01*
X107938143Y-59978355D01*
X108307479Y-59731573D01*
X108621573Y-59417479D01*
X108868355Y-59048143D01*
X109038342Y-58637759D01*
X109125000Y-58202098D01*
X109125000Y-57757902D01*
X109038342Y-57322241D01*
X108868355Y-56911857D01*
X108621573Y-56542521D01*
X108307479Y-56228427D01*
X107938143Y-55981645D01*
X107527759Y-55811658D01*
X107092098Y-55725000D01*
X106647902Y-55725000D01*
X106212241Y-55811658D01*
X105801857Y-55981645D01*
X105432521Y-56228427D01*
X105118427Y-56542521D01*
X104871645Y-56911857D01*
X104701658Y-57322241D01*
X104615000Y-57757902D01*
X99525000Y-57757902D01*
X99438342Y-57322241D01*
X99268355Y-56911857D01*
X99021573Y-56542521D01*
X98707479Y-56228427D01*
X98338143Y-55981645D01*
X97927759Y-55811658D01*
X97492098Y-55725000D01*
X97047902Y-55725000D01*
X96612241Y-55811658D01*
X96201857Y-55981645D01*
X95832521Y-56228427D01*
X95518427Y-56542521D01*
X95271645Y-56911857D01*
X95101658Y-57322241D01*
X95015000Y-57757902D01*
X91250000Y-57757902D01*
X91250000Y-42990000D01*
X111321928Y-42990000D01*
X111334188Y-43114482D01*
X111370498Y-43234180D01*
X111429463Y-43344494D01*
X111508815Y-43441185D01*
X111605506Y-43520537D01*
X111715820Y-43579502D01*
X111835518Y-43615812D01*
X111960000Y-43628072D01*
X112574250Y-43625000D01*
X112733000Y-43466250D01*
X112733000Y-42217000D01*
X111483750Y-42217000D01*
X111325000Y-42375750D01*
X111321928Y-42990000D01*
X91250000Y-42990000D01*
X91250000Y-41190000D01*
X111321928Y-41190000D01*
X111325000Y-41804250D01*
X111483750Y-41963000D01*
X112733000Y-41963000D01*
X112733000Y-40713750D01*
X112574250Y-40555000D01*
X111960000Y-40551928D01*
X111835518Y-40564188D01*
X111715820Y-40600498D01*
X111605506Y-40659463D01*
X111508815Y-40738815D01*
X111429463Y-40835506D01*
X111370498Y-40945820D01*
X111334188Y-41065518D01*
X111321928Y-41190000D01*
X91250000Y-41190000D01*
X91250000Y-38883248D01*
X91349294Y-39069014D01*
X91534866Y-39295134D01*
X91760986Y-39480706D01*
X92018966Y-39618599D01*
X92298889Y-39703513D01*
X92517050Y-39725000D01*
X92662950Y-39725000D01*
X92881111Y-39703513D01*
X93161034Y-39618599D01*
X93419014Y-39480706D01*
X93645134Y-39295134D01*
X93830706Y-39069014D01*
X93968599Y-38811034D01*
X94053513Y-38531111D01*
X94082185Y-38240000D01*
X94053513Y-37948889D01*
X93968599Y-37668966D01*
X93830706Y-37410986D01*
X93645134Y-37184866D01*
X93419014Y-36999294D01*
X93364209Y-36970000D01*
X93419014Y-36940706D01*
X93645134Y-36755134D01*
X93830706Y-36529014D01*
X93968599Y-36271034D01*
X94053513Y-35991111D01*
X94082185Y-35700000D01*
X94053513Y-35408889D01*
X93968599Y-35128966D01*
X93830706Y-34870986D01*
X93645134Y-34644866D01*
X93419014Y-34459294D01*
X93364209Y-34430000D01*
X93419014Y-34400706D01*
X93458985Y-34367902D01*
X108305000Y-34367902D01*
X108305000Y-34812098D01*
X108391658Y-35247759D01*
X108561645Y-35658143D01*
X108808427Y-36027479D01*
X109122521Y-36341573D01*
X109491857Y-36588355D01*
X109902241Y-36758342D01*
X110337902Y-36845000D01*
X110782098Y-36845000D01*
X111217759Y-36758342D01*
X111628143Y-36588355D01*
X111997479Y-36341573D01*
X112311573Y-36027479D01*
X112558355Y-35658143D01*
X112728342Y-35247759D01*
X112815000Y-34812098D01*
X112815000Y-34367902D01*
X117905000Y-34367902D01*
X117905000Y-34812098D01*
X117991658Y-35247759D01*
X118161645Y-35658143D01*
X118408427Y-36027479D01*
X118722521Y-36341573D01*
X119091857Y-36588355D01*
X119502241Y-36758342D01*
X119937902Y-36845000D01*
X120382098Y-36845000D01*
X120817759Y-36758342D01*
X121228143Y-36588355D01*
X121597479Y-36341573D01*
X121911573Y-36027479D01*
X122158355Y-35658143D01*
X122328342Y-35247759D01*
X122415000Y-34812098D01*
X122415000Y-34367902D01*
X122328342Y-33932241D01*
X122158355Y-33521857D01*
X121911573Y-33152521D01*
X121597479Y-32838427D01*
X121228143Y-32591645D01*
X120817759Y-32421658D01*
X120382098Y-32335000D01*
X119937902Y-32335000D01*
X119502241Y-32421658D01*
X119091857Y-32591645D01*
X118722521Y-32838427D01*
X118408427Y-33152521D01*
X118161645Y-33521857D01*
X117991658Y-33932241D01*
X117905000Y-34367902D01*
X112815000Y-34367902D01*
X112728342Y-33932241D01*
X112558355Y-33521857D01*
X112311573Y-33152521D01*
X111997479Y-32838427D01*
X111628143Y-32591645D01*
X111217759Y-32421658D01*
X110782098Y-32335000D01*
X110337902Y-32335000D01*
X109902241Y-32421658D01*
X109491857Y-32591645D01*
X109122521Y-32838427D01*
X108808427Y-33152521D01*
X108561645Y-33521857D01*
X108391658Y-33932241D01*
X108305000Y-34367902D01*
X93458985Y-34367902D01*
X93645134Y-34215134D01*
X93830706Y-33989014D01*
X93968599Y-33731034D01*
X94053513Y-33451111D01*
X94082185Y-33160000D01*
X94053513Y-32868889D01*
X93968599Y-32588966D01*
X93830706Y-32330986D01*
X93645134Y-32104866D01*
X93419014Y-31919294D01*
X93364209Y-31890000D01*
X93419014Y-31860706D01*
X93645134Y-31675134D01*
X93830706Y-31449014D01*
X93968599Y-31191034D01*
X94053513Y-30911111D01*
X94082185Y-30620000D01*
X94053513Y-30328889D01*
X93968599Y-30048966D01*
X93830706Y-29790986D01*
X93645134Y-29564866D01*
X93615313Y-29540393D01*
X93684180Y-29519502D01*
X93794494Y-29460537D01*
X93891185Y-29381185D01*
X93970537Y-29284494D01*
X94029502Y-29174180D01*
X94065812Y-29054482D01*
X94078072Y-28930000D01*
X94078072Y-27230000D01*
X94065812Y-27105518D01*
X94029502Y-26985820D01*
X93970537Y-26875506D01*
X93891185Y-26778815D01*
X93794494Y-26699463D01*
X93776790Y-26690000D01*
X136853210Y-26690000D01*
X136835506Y-26699463D01*
X136835506Y-26699463D01*
G37*
X136835506Y-26699463D02*
X136738815Y-26778815D01*
X136659463Y-26875506D01*
X136600498Y-26985820D01*
X136564188Y-27105518D01*
X136551928Y-27230000D01*
X136551928Y-28930000D01*
X136564188Y-29054482D01*
X136600498Y-29174180D01*
X136659463Y-29284494D01*
X136738815Y-29381185D01*
X136835506Y-29460537D01*
X136945820Y-29519502D01*
X137014687Y-29540393D01*
X136984866Y-29564866D01*
X136799294Y-29790986D01*
X136661401Y-30048966D01*
X136576487Y-30328889D01*
X136547815Y-30620000D01*
X136576487Y-30911111D01*
X136661401Y-31191034D01*
X136799294Y-31449014D01*
X136984866Y-31675134D01*
X137210986Y-31860706D01*
X137265791Y-31890000D01*
X137210986Y-31919294D01*
X136984866Y-32104866D01*
X136799294Y-32330986D01*
X136661401Y-32588966D01*
X136576487Y-32868889D01*
X136547815Y-33160000D01*
X136576487Y-33451111D01*
X136661401Y-33731034D01*
X136799294Y-33989014D01*
X136984866Y-34215134D01*
X137210986Y-34400706D01*
X137265791Y-34430000D01*
X137210986Y-34459294D01*
X136984866Y-34644866D01*
X136799294Y-34870986D01*
X136661401Y-35128966D01*
X136576487Y-35408889D01*
X136547815Y-35700000D01*
X136576487Y-35991111D01*
X136661401Y-36271034D01*
X136799294Y-36529014D01*
X136984866Y-36755134D01*
X137210986Y-36940706D01*
X137265791Y-36970000D01*
X137210986Y-36999294D01*
X136984866Y-37184866D01*
X136799294Y-37410986D01*
X136661401Y-37668966D01*
X136576487Y-37948889D01*
X136547815Y-38240000D01*
X136576487Y-38531111D01*
X136661401Y-38811034D01*
X136799294Y-39069014D01*
X136984866Y-39295134D01*
X137210986Y-39480706D01*
X137468966Y-39618599D01*
X137748889Y-39703513D01*
X137967050Y-39725000D01*
X138112950Y-39725000D01*
X138331111Y-39703513D01*
X138611034Y-39618599D01*
X138869014Y-39480706D01*
X139095134Y-39295134D01*
X139280706Y-39069014D01*
X139418599Y-38811034D01*
X139430000Y-38773450D01*
X139430001Y-83746552D01*
X139418599Y-83708966D01*
X139280706Y-83450986D01*
X139095134Y-83224866D01*
X138925000Y-83085241D01*
X138925000Y-44033469D01*
X138929281Y-43990000D01*
X138925000Y-43946531D01*
X138925000Y-43946523D01*
X138912195Y-43816510D01*
X138861589Y-43649687D01*
X138779411Y-43495941D01*
X138668817Y-43361183D01*
X138635050Y-43333471D01*
X136796534Y-41494956D01*
X136768817Y-41461183D01*
X136634059Y-41350589D01*
X136480313Y-41268411D01*
X136313490Y-41217805D01*
X136183477Y-41205000D01*
X136183469Y-41205000D01*
X136140000Y-41200719D01*
X136096531Y-41205000D01*
X119114790Y-41205000D01*
X119052312Y-41111495D01*
X118838505Y-40897688D01*
X118587095Y-40729701D01*
X118307743Y-40613989D01*
X118011184Y-40555000D01*
X117708816Y-40555000D01*
X117412257Y-40613989D01*
X117132905Y-40729701D01*
X116881495Y-40897688D01*
X116667688Y-41111495D01*
X116610000Y-41197831D01*
X116552312Y-41111495D01*
X116338505Y-40897688D01*
X116087095Y-40729701D01*
X115807743Y-40613989D01*
X115511184Y-40555000D01*
X115208816Y-40555000D01*
X114912257Y-40613989D01*
X114632905Y-40729701D01*
X114381495Y-40897688D01*
X114343880Y-40935303D01*
X114290537Y-40835506D01*
X114211185Y-40738815D01*
X114114494Y-40659463D01*
X114004180Y-40600498D01*
X113884482Y-40564188D01*
X113760000Y-40551928D01*
X113145750Y-40555000D01*
X112987000Y-40713750D01*
X112987000Y-41963000D01*
X113007000Y-41963000D01*
X113007000Y-42217000D01*
X112987000Y-42217000D01*
X112987000Y-43466250D01*
X113145750Y-43625000D01*
X113760000Y-43628072D01*
X113884482Y-43615812D01*
X114004180Y-43579502D01*
X114114494Y-43520537D01*
X114211185Y-43441185D01*
X114290537Y-43344494D01*
X114343880Y-43244697D01*
X114381495Y-43282312D01*
X114600000Y-43428313D01*
X114600001Y-53225197D01*
X114315199Y-53510000D01*
X113730901Y-53510000D01*
X113708932Y-53468899D01*
X113529608Y-53250392D01*
X113311101Y-53071068D01*
X113061808Y-52937818D01*
X112791309Y-52855764D01*
X112580492Y-52835000D01*
X112439508Y-52835000D01*
X112228691Y-52855764D01*
X111958192Y-52937818D01*
X111708899Y-53071068D01*
X111490392Y-53250392D01*
X111311068Y-53468899D01*
X111177818Y-53718192D01*
X111095764Y-53988691D01*
X111068057Y-54270000D01*
X111095764Y-54551309D01*
X111177818Y-54821808D01*
X111311068Y-55071101D01*
X111490392Y-55289608D01*
X111708899Y-55468932D01*
X111958192Y-55602182D01*
X112228691Y-55684236D01*
X112439508Y-55705000D01*
X112580492Y-55705000D01*
X112791309Y-55684236D01*
X113061808Y-55602182D01*
X113311101Y-55468932D01*
X113529608Y-55289608D01*
X113708932Y-55071101D01*
X113730901Y-55030000D01*
X114592678Y-55030000D01*
X114630000Y-55033676D01*
X114667322Y-55030000D01*
X114667333Y-55030000D01*
X114778986Y-55019003D01*
X114922247Y-54975546D01*
X115054276Y-54904974D01*
X115170001Y-54810001D01*
X115193803Y-54780998D01*
X115871002Y-54103799D01*
X115900001Y-54080001D01*
X115926332Y-54047917D01*
X115994974Y-53964277D01*
X116065546Y-53832247D01*
X116087765Y-53758998D01*
X116109003Y-53688986D01*
X116120000Y-53577333D01*
X116120000Y-53577323D01*
X116123676Y-53540000D01*
X116120000Y-53502677D01*
X116120000Y-43428313D01*
X116338505Y-43282312D01*
X116552312Y-43068505D01*
X116610000Y-42982169D01*
X116667688Y-43068505D01*
X116695001Y-43095818D01*
X116695000Y-55293421D01*
X114965089Y-57023333D01*
X113640078Y-57023333D01*
X113529608Y-56888725D01*
X113311101Y-56709401D01*
X113061808Y-56576151D01*
X112791309Y-56494097D01*
X112580492Y-56473333D01*
X112439508Y-56473333D01*
X112228691Y-56494097D01*
X111958192Y-56576151D01*
X111708899Y-56709401D01*
X111490392Y-56888725D01*
X111311068Y-57107232D01*
X111177818Y-57356525D01*
X111095764Y-57627024D01*
X111068057Y-57908333D01*
X111095764Y-58189642D01*
X111177818Y-58460141D01*
X111311068Y-58709434D01*
X111490392Y-58927941D01*
X111708899Y-59107265D01*
X111958192Y-59240515D01*
X112228691Y-59322569D01*
X112439508Y-59343333D01*
X112580492Y-59343333D01*
X112791309Y-59322569D01*
X113061808Y-59240515D01*
X113311101Y-59107265D01*
X113529608Y-58927941D01*
X113640078Y-58793333D01*
X114445001Y-58793333D01*
X114445000Y-64299999D01*
X113644521Y-64299999D01*
X113624637Y-64270240D01*
X113424759Y-64070362D01*
X113189727Y-63913319D01*
X112928574Y-63805146D01*
X112651335Y-63749999D01*
X112368665Y-63749999D01*
X112091426Y-63805146D01*
X111830273Y-63913319D01*
X111595241Y-64070362D01*
X111395363Y-64270240D01*
X111375479Y-64299999D01*
X105560816Y-64299999D01*
X105548505Y-64287688D01*
X105297095Y-64119701D01*
X105017743Y-64003989D01*
X104721184Y-63945000D01*
X104418816Y-63945000D01*
X104122257Y-64003989D01*
X103842905Y-64119701D01*
X103591495Y-64287688D01*
X103377688Y-64501495D01*
X103320000Y-64587831D01*
X103262312Y-64501495D01*
X103048505Y-64287688D01*
X102797095Y-64119701D01*
X102517743Y-64003989D01*
X102221184Y-63945000D01*
X101918816Y-63945000D01*
X101622257Y-64003989D01*
X101342905Y-64119701D01*
X101091495Y-64287688D01*
X101053880Y-64325303D01*
X101000537Y-64225506D01*
X100921185Y-64128815D01*
X100824494Y-64049463D01*
X100714180Y-63990498D01*
X100594482Y-63954188D01*
X100470000Y-63941928D01*
X99855750Y-63945000D01*
X99697000Y-64103750D01*
X99697000Y-65353000D01*
X99717000Y-65353000D01*
X99717000Y-65607000D01*
X99697000Y-65607000D01*
X99697000Y-66856250D01*
X99855750Y-67015000D01*
X100470000Y-67018072D01*
X100594482Y-67005812D01*
X100714180Y-66969502D01*
X100824494Y-66910537D01*
X100921185Y-66831185D01*
X101000537Y-66734494D01*
X101053880Y-66634697D01*
X101091495Y-66672312D01*
X101342905Y-66840299D01*
X101622257Y-66956011D01*
X101918816Y-67015000D01*
X102221184Y-67015000D01*
X102517743Y-66956011D01*
X102797095Y-66840299D01*
X103048505Y-66672312D01*
X103262312Y-66458505D01*
X103320000Y-66372169D01*
X103377688Y-66458505D01*
X103591495Y-66672312D01*
X103842905Y-66840299D01*
X104122257Y-66956011D01*
X104418816Y-67015000D01*
X104721184Y-67015000D01*
X105017743Y-66956011D01*
X105297095Y-66840299D01*
X105548505Y-66672312D01*
X105762312Y-66458505D01*
X105930299Y-66207095D01*
X105987086Y-66069999D01*
X111375479Y-66069999D01*
X111395363Y-66099758D01*
X111595241Y-66299636D01*
X111830273Y-66456679D01*
X112091426Y-66564852D01*
X112368665Y-66619999D01*
X112651335Y-66619999D01*
X112928574Y-66564852D01*
X113189727Y-66456679D01*
X113424759Y-66299636D01*
X113624637Y-66099758D01*
X113644521Y-66069999D01*
X114445001Y-66069999D01*
X114445000Y-100143421D01*
X113843422Y-100745000D01*
X110733235Y-100745000D01*
X110600477Y-100546313D01*
X110363687Y-100309523D01*
X110085252Y-100123479D01*
X109984860Y-100081895D01*
X110245000Y-100083072D01*
X110369482Y-100070812D01*
X110489180Y-100034502D01*
X110599494Y-99975537D01*
X110696185Y-99896185D01*
X110775537Y-99799494D01*
X110834502Y-99689180D01*
X110870812Y-99569482D01*
X110883072Y-99445000D01*
X110880000Y-98815750D01*
X110721250Y-98657000D01*
X109407000Y-98657000D01*
X109407000Y-98677000D01*
X109153000Y-98677000D01*
X109153000Y-98657000D01*
X107838750Y-98657000D01*
X107680000Y-98815750D01*
X107676928Y-99445000D01*
X107689188Y-99569482D01*
X107725498Y-99689180D01*
X107784463Y-99799494D01*
X107863815Y-99896185D01*
X107960506Y-99975537D01*
X108070820Y-100034502D01*
X108190518Y-100070812D01*
X108315000Y-100083072D01*
X108575140Y-100081895D01*
X108474748Y-100123479D01*
X108196313Y-100309523D01*
X107959523Y-100546313D01*
X107773479Y-100824748D01*
X107645330Y-101134128D01*
X107580000Y-101462565D01*
X107580000Y-101797435D01*
X107645330Y-102125872D01*
X107773479Y-102435252D01*
X107959523Y-102713687D01*
X108196313Y-102950477D01*
X108474748Y-103136521D01*
X108784128Y-103264670D01*
X109112565Y-103330000D01*
X109447435Y-103330000D01*
X109775872Y-103264670D01*
X110085252Y-103136521D01*
X110363687Y-102950477D01*
X110600477Y-102713687D01*
X110733235Y-102515000D01*
X114166531Y-102515000D01*
X114210000Y-102519281D01*
X114253469Y-102515000D01*
X114253477Y-102515000D01*
X114383490Y-102502195D01*
X114550313Y-102451589D01*
X114704059Y-102369411D01*
X114838817Y-102258817D01*
X114866534Y-102225044D01*
X115744990Y-101346589D01*
X115744990Y-105350208D01*
X114625199Y-106470000D01*
X103887322Y-106470000D01*
X103849999Y-106466324D01*
X103812676Y-106470000D01*
X103812667Y-106470000D01*
X103701014Y-106480997D01*
X103557753Y-106524454D01*
X103425723Y-106595026D01*
X103342083Y-106663668D01*
X103309999Y-106689999D01*
X103286201Y-106718997D01*
X100458998Y-109546201D01*
X100430000Y-109569999D01*
X100406202Y-109598997D01*
X100406201Y-109598998D01*
X100335026Y-109685724D01*
X100264454Y-109817754D01*
X100220998Y-109961015D01*
X100206324Y-110110000D01*
X100210001Y-110147332D01*
X100210000Y-114349099D01*
X100168899Y-114371068D01*
X99950392Y-114550392D01*
X99771068Y-114768899D01*
X99637818Y-115018192D01*
X99555764Y-115288691D01*
X99528057Y-115570000D01*
X99555764Y-115851309D01*
X99637818Y-116121808D01*
X99771068Y-116371101D01*
X99950392Y-116589608D01*
X100168899Y-116768932D01*
X100418192Y-116902182D01*
X100688691Y-116984236D01*
X100899508Y-117005000D01*
X101040492Y-117005000D01*
X101251309Y-116984236D01*
X101521808Y-116902182D01*
X101771101Y-116768932D01*
X101989608Y-116589608D01*
X102168932Y-116371101D01*
X102302182Y-116121808D01*
X102384236Y-115851309D01*
X102411943Y-115570000D01*
X102398023Y-115428665D01*
X104041666Y-115428665D01*
X104041666Y-115711335D01*
X104096813Y-115988574D01*
X104204986Y-116249727D01*
X104362029Y-116484759D01*
X104561907Y-116684637D01*
X104796939Y-116841680D01*
X105058092Y-116949853D01*
X105335331Y-117005000D01*
X105618001Y-117005000D01*
X105895240Y-116949853D01*
X106156393Y-116841680D01*
X106391425Y-116684637D01*
X106591303Y-116484759D01*
X106748346Y-116249727D01*
X106856519Y-115988574D01*
X106911666Y-115711335D01*
X106911666Y-115570000D01*
X111654723Y-115570000D01*
X111682430Y-115851309D01*
X111764484Y-116121808D01*
X111897734Y-116371101D01*
X112077058Y-116589608D01*
X112295565Y-116768932D01*
X112544858Y-116902182D01*
X112815357Y-116984236D01*
X113026174Y-117005000D01*
X113167158Y-117005000D01*
X113377975Y-116984236D01*
X113648474Y-116902182D01*
X113897767Y-116768932D01*
X114116274Y-116589608D01*
X114295598Y-116371101D01*
X114428848Y-116121808D01*
X114510902Y-115851309D01*
X114538609Y-115570000D01*
X114524689Y-115428665D01*
X116168332Y-115428665D01*
X116168332Y-115711335D01*
X116223479Y-115988574D01*
X116331652Y-116249727D01*
X116488695Y-116484759D01*
X116688573Y-116684637D01*
X116923605Y-116841680D01*
X117184758Y-116949853D01*
X117461997Y-117005000D01*
X117744667Y-117005000D01*
X118021906Y-116949853D01*
X118283059Y-116841680D01*
X118518091Y-116684637D01*
X118717969Y-116484759D01*
X118875012Y-116249727D01*
X118983185Y-115988574D01*
X119038332Y-115711335D01*
X119038332Y-115428665D01*
X118983185Y-115151426D01*
X118875012Y-114890273D01*
X118717969Y-114655241D01*
X118518091Y-114455363D01*
X118283059Y-114298320D01*
X118021906Y-114190147D01*
X117744667Y-114135000D01*
X117461997Y-114135000D01*
X117184758Y-114190147D01*
X116923605Y-114298320D01*
X116688573Y-114455363D01*
X116488695Y-114655241D01*
X116331652Y-114890273D01*
X116223479Y-115151426D01*
X116168332Y-115428665D01*
X114524689Y-115428665D01*
X114510902Y-115288691D01*
X114428848Y-115018192D01*
X114295598Y-114768899D01*
X114116274Y-114550392D01*
X113897767Y-114371068D01*
X113648474Y-114237818D01*
X113377975Y-114155764D01*
X113167158Y-114135000D01*
X113026174Y-114135000D01*
X112815357Y-114155764D01*
X112544858Y-114237818D01*
X112295565Y-114371068D01*
X112077058Y-114550392D01*
X111897734Y-114768899D01*
X111764484Y-115018192D01*
X111682430Y-115288691D01*
X111654723Y-115570000D01*
X106911666Y-115570000D01*
X106911666Y-115428665D01*
X106856519Y-115151426D01*
X106748346Y-114890273D01*
X106591303Y-114655241D01*
X106391425Y-114455363D01*
X106156393Y-114298320D01*
X105895240Y-114190147D01*
X105618001Y-114135000D01*
X105335331Y-114135000D01*
X105058092Y-114190147D01*
X104796939Y-114298320D01*
X104561907Y-114455363D01*
X104362029Y-114655241D01*
X104204986Y-114890273D01*
X104096813Y-115151426D01*
X104041666Y-115428665D01*
X102398023Y-115428665D01*
X102384236Y-115288691D01*
X102302182Y-115018192D01*
X102168932Y-114768899D01*
X101989608Y-114550392D01*
X101771101Y-114371068D01*
X101730000Y-114349099D01*
X101730000Y-110424801D01*
X102392236Y-109762565D01*
X107580000Y-109762565D01*
X107580000Y-110097435D01*
X107645330Y-110425872D01*
X107773479Y-110735252D01*
X107959523Y-111013687D01*
X108196313Y-111250477D01*
X108474748Y-111436521D01*
X108784128Y-111564670D01*
X109112565Y-111630000D01*
X109447435Y-111630000D01*
X109775872Y-111564670D01*
X110085252Y-111436521D01*
X110363687Y-111250477D01*
X110600477Y-111013687D01*
X110786521Y-110735252D01*
X110914670Y-110425872D01*
X110980000Y-110097435D01*
X110980000Y-109762565D01*
X119700000Y-109762565D01*
X119700000Y-110097435D01*
X119765330Y-110425872D01*
X119893479Y-110735252D01*
X120079523Y-111013687D01*
X120316313Y-111250477D01*
X120594748Y-111436521D01*
X120904128Y-111564670D01*
X121232565Y-111630000D01*
X121567435Y-111630000D01*
X121895872Y-111564670D01*
X122205252Y-111436521D01*
X122483687Y-111250477D01*
X122720477Y-111013687D01*
X122906521Y-110735252D01*
X123034670Y-110425872D01*
X123100000Y-110097435D01*
X123100000Y-109762565D01*
X123034670Y-109434128D01*
X122906521Y-109124748D01*
X122720477Y-108846313D01*
X122483687Y-108609523D01*
X122205252Y-108423479D01*
X121895872Y-108295330D01*
X121567435Y-108230000D01*
X121232565Y-108230000D01*
X120904128Y-108295330D01*
X120594748Y-108423479D01*
X120316313Y-108609523D01*
X120079523Y-108846313D01*
X119893479Y-109124748D01*
X119765330Y-109434128D01*
X119700000Y-109762565D01*
X110980000Y-109762565D01*
X110914670Y-109434128D01*
X110786521Y-109124748D01*
X110600477Y-108846313D01*
X110363687Y-108609523D01*
X110085252Y-108423479D01*
X109775872Y-108295330D01*
X109447435Y-108230000D01*
X109112565Y-108230000D01*
X108784128Y-108295330D01*
X108474748Y-108423479D01*
X108196313Y-108609523D01*
X107959523Y-108846313D01*
X107773479Y-109124748D01*
X107645330Y-109434128D01*
X107580000Y-109762565D01*
X102392236Y-109762565D01*
X104164802Y-107990000D01*
X114902678Y-107990000D01*
X114940000Y-107993676D01*
X114977322Y-107990000D01*
X114977333Y-107990000D01*
X115088986Y-107979003D01*
X115232247Y-107935546D01*
X115364276Y-107864974D01*
X115480001Y-107770001D01*
X115503804Y-107740997D01*
X117015994Y-106228808D01*
X117044991Y-106205011D01*
X117071322Y-106172927D01*
X117139964Y-106089287D01*
X117210536Y-105957257D01*
X117210536Y-105957256D01*
X117253993Y-105813996D01*
X117264990Y-105702343D01*
X117264990Y-105702334D01*
X117268666Y-105665011D01*
X117264990Y-105627688D01*
X117264990Y-101462565D01*
X119700000Y-101462565D01*
X119700000Y-101797435D01*
X119765330Y-102125872D01*
X119893479Y-102435252D01*
X120079523Y-102713687D01*
X120316313Y-102950477D01*
X120594748Y-103136521D01*
X120904128Y-103264670D01*
X121232565Y-103330000D01*
X121567435Y-103330000D01*
X121895872Y-103264670D01*
X122205252Y-103136521D01*
X122483687Y-102950477D01*
X122720477Y-102713687D01*
X122906521Y-102435252D01*
X123034670Y-102125872D01*
X123100000Y-101797435D01*
X123100000Y-101462565D01*
X123034670Y-101134128D01*
X122906521Y-100824748D01*
X122720477Y-100546313D01*
X122483687Y-100309523D01*
X122205252Y-100123479D01*
X122104860Y-100081895D01*
X122365000Y-100083072D01*
X122489482Y-100070812D01*
X122609180Y-100034502D01*
X122719494Y-99975537D01*
X122816185Y-99896185D01*
X122895537Y-99799494D01*
X122954502Y-99689180D01*
X122990812Y-99569482D01*
X123003072Y-99445000D01*
X123000000Y-98815750D01*
X122841250Y-98657000D01*
X121527000Y-98657000D01*
X121527000Y-98677000D01*
X121273000Y-98677000D01*
X121273000Y-98657000D01*
X119958750Y-98657000D01*
X119800000Y-98815750D01*
X119796928Y-99445000D01*
X119809188Y-99569482D01*
X119845498Y-99689180D01*
X119904463Y-99799494D01*
X119983815Y-99896185D01*
X120080506Y-99975537D01*
X120190820Y-100034502D01*
X120310518Y-100070812D01*
X120435000Y-100083072D01*
X120695140Y-100081895D01*
X120594748Y-100123479D01*
X120316313Y-100309523D01*
X120079523Y-100546313D01*
X119893479Y-100824748D01*
X119765330Y-101134128D01*
X119700000Y-101462565D01*
X117264990Y-101462565D01*
X117264990Y-97615000D01*
X119796928Y-97615000D01*
X119800000Y-98244250D01*
X119958750Y-98403000D01*
X121273000Y-98403000D01*
X121273000Y-97138750D01*
X121527000Y-97138750D01*
X121527000Y-98403000D01*
X122841250Y-98403000D01*
X123000000Y-98244250D01*
X123003072Y-97615000D01*
X122990812Y-97490518D01*
X122954502Y-97370820D01*
X122895537Y-97260506D01*
X122816185Y-97163815D01*
X122719494Y-97084463D01*
X122609180Y-97025498D01*
X122489482Y-96989188D01*
X122365000Y-96976928D01*
X121685750Y-96980000D01*
X121527000Y-97138750D01*
X121273000Y-97138750D01*
X121114250Y-96980000D01*
X120435000Y-96976928D01*
X120310518Y-96989188D01*
X120190820Y-97025498D01*
X120080506Y-97084463D01*
X119983815Y-97163815D01*
X119904463Y-97260506D01*
X119845498Y-97370820D01*
X119809188Y-97490518D01*
X119796928Y-97615000D01*
X117264990Y-97615000D01*
X117264990Y-91800000D01*
X124541928Y-91800000D01*
X124554188Y-91924482D01*
X124590498Y-92044180D01*
X124649463Y-92154494D01*
X124728815Y-92251185D01*
X124825506Y-92330537D01*
X124935820Y-92389502D01*
X125055518Y-92425812D01*
X125180000Y-92438072D01*
X125794250Y-92435000D01*
X125953000Y-92276250D01*
X125953000Y-91027000D01*
X124703750Y-91027000D01*
X124545000Y-91185750D01*
X124541928Y-91800000D01*
X117264990Y-91800000D01*
X117264990Y-90000000D01*
X124541928Y-90000000D01*
X124545000Y-90614250D01*
X124703750Y-90773000D01*
X125953000Y-90773000D01*
X125953000Y-89523750D01*
X126207000Y-89523750D01*
X126207000Y-90773000D01*
X126227000Y-90773000D01*
X126227000Y-91027000D01*
X126207000Y-91027000D01*
X126207000Y-92276250D01*
X126365750Y-92435000D01*
X126980000Y-92438072D01*
X127104482Y-92425812D01*
X127224180Y-92389502D01*
X127334494Y-92330537D01*
X127431185Y-92251185D01*
X127510537Y-92154494D01*
X127563880Y-92054697D01*
X127601495Y-92092312D01*
X127852905Y-92260299D01*
X128132257Y-92376011D01*
X128428816Y-92435000D01*
X128731184Y-92435000D01*
X129027743Y-92376011D01*
X129307095Y-92260299D01*
X129558505Y-92092312D01*
X129772312Y-91878505D01*
X129830000Y-91792169D01*
X129887688Y-91878505D01*
X130101495Y-92092312D01*
X130352905Y-92260299D01*
X130632257Y-92376011D01*
X130928816Y-92435000D01*
X131231184Y-92435000D01*
X131527743Y-92376011D01*
X131807095Y-92260299D01*
X132058505Y-92092312D01*
X132272312Y-91878505D01*
X132440299Y-91627095D01*
X132556011Y-91347743D01*
X132615000Y-91051184D01*
X132615000Y-90748816D01*
X132556011Y-90452257D01*
X132440299Y-90172905D01*
X132272312Y-89921495D01*
X132058505Y-89707688D01*
X131807095Y-89539701D01*
X131527743Y-89423989D01*
X131231184Y-89365000D01*
X130928816Y-89365000D01*
X130632257Y-89423989D01*
X130352905Y-89539701D01*
X130101495Y-89707688D01*
X129887688Y-89921495D01*
X129830000Y-90007831D01*
X129772312Y-89921495D01*
X129558505Y-89707688D01*
X129307095Y-89539701D01*
X129027743Y-89423989D01*
X128731184Y-89365000D01*
X128428816Y-89365000D01*
X128132257Y-89423989D01*
X127852905Y-89539701D01*
X127601495Y-89707688D01*
X127563880Y-89745303D01*
X127510537Y-89645506D01*
X127431185Y-89548815D01*
X127334494Y-89469463D01*
X127224180Y-89410498D01*
X127104482Y-89374188D01*
X126980000Y-89361928D01*
X126365750Y-89365000D01*
X126207000Y-89523750D01*
X125953000Y-89523750D01*
X125794250Y-89365000D01*
X125180000Y-89361928D01*
X125055518Y-89374188D01*
X124935820Y-89410498D01*
X124825506Y-89469463D01*
X124728815Y-89548815D01*
X124649463Y-89645506D01*
X124590498Y-89755820D01*
X124554188Y-89875518D01*
X124541928Y-90000000D01*
X117264990Y-90000000D01*
X117264990Y-83177902D01*
X121525000Y-83177902D01*
X121525000Y-83622098D01*
X121611658Y-84057759D01*
X121781645Y-84468143D01*
X122028427Y-84837479D01*
X122342521Y-85151573D01*
X122711857Y-85398355D01*
X123122241Y-85568342D01*
X123557902Y-85655000D01*
X124002098Y-85655000D01*
X124437759Y-85568342D01*
X124848143Y-85398355D01*
X125217479Y-85151573D01*
X125531573Y-84837479D01*
X125778355Y-84468143D01*
X125948342Y-84057759D01*
X126035000Y-83622098D01*
X126035000Y-83177902D01*
X131125000Y-83177902D01*
X131125000Y-83622098D01*
X131211658Y-84057759D01*
X131381645Y-84468143D01*
X131628427Y-84837479D01*
X131942521Y-85151573D01*
X132311857Y-85398355D01*
X132722241Y-85568342D01*
X133157902Y-85655000D01*
X133602098Y-85655000D01*
X134037759Y-85568342D01*
X134448143Y-85398355D01*
X134817479Y-85151573D01*
X135131573Y-84837479D01*
X135378355Y-84468143D01*
X135548342Y-84057759D01*
X135635000Y-83622098D01*
X135635000Y-83177902D01*
X135548342Y-82742241D01*
X135378355Y-82331857D01*
X135131573Y-81962521D01*
X134817479Y-81648427D01*
X134448143Y-81401645D01*
X134037759Y-81231658D01*
X133602098Y-81145000D01*
X133157902Y-81145000D01*
X132722241Y-81231658D01*
X132311857Y-81401645D01*
X131942521Y-81648427D01*
X131628427Y-81962521D01*
X131381645Y-82331857D01*
X131211658Y-82742241D01*
X131125000Y-83177902D01*
X126035000Y-83177902D01*
X125948342Y-82742241D01*
X125778355Y-82331857D01*
X125531573Y-81962521D01*
X125217479Y-81648427D01*
X124848143Y-81401645D01*
X124437759Y-81231658D01*
X124002098Y-81145000D01*
X123557902Y-81145000D01*
X123122241Y-81231658D01*
X122711857Y-81401645D01*
X122342521Y-81648427D01*
X122028427Y-81962521D01*
X121781645Y-82331857D01*
X121611658Y-82742241D01*
X121525000Y-83177902D01*
X117264990Y-83177902D01*
X117264990Y-76100000D01*
X118688057Y-76100000D01*
X118715764Y-76381309D01*
X118797818Y-76651808D01*
X118931068Y-76901101D01*
X119110392Y-77119608D01*
X119328899Y-77298932D01*
X119578192Y-77432182D01*
X119848691Y-77514236D01*
X120059508Y-77535000D01*
X120200492Y-77535000D01*
X120411309Y-77514236D01*
X120681808Y-77432182D01*
X120931101Y-77298932D01*
X121149608Y-77119608D01*
X121328932Y-76901101D01*
X121462182Y-76651808D01*
X121544236Y-76381309D01*
X121571943Y-76100000D01*
X121544236Y-75818691D01*
X121462182Y-75548192D01*
X121328932Y-75298899D01*
X121149608Y-75080392D01*
X120931101Y-74901068D01*
X120681808Y-74767818D01*
X120411309Y-74685764D01*
X120200492Y-74665000D01*
X120059508Y-74665000D01*
X119848691Y-74685764D01*
X119578192Y-74767818D01*
X119328899Y-74901068D01*
X119110392Y-75080392D01*
X118931068Y-75298899D01*
X118797818Y-75548192D01*
X118715764Y-75818691D01*
X118688057Y-76100000D01*
X117264990Y-76100000D01*
X117264990Y-72320330D01*
X118695000Y-72320330D01*
X118695000Y-72603000D01*
X118750147Y-72880239D01*
X118858320Y-73141392D01*
X119015363Y-73376424D01*
X119215241Y-73576302D01*
X119450273Y-73733345D01*
X119711426Y-73841518D01*
X119988665Y-73896665D01*
X120271335Y-73896665D01*
X120548574Y-73841518D01*
X120809727Y-73733345D01*
X121044759Y-73576302D01*
X121244637Y-73376424D01*
X121401680Y-73141392D01*
X121509853Y-72880239D01*
X121553927Y-72658665D01*
X122155000Y-72658665D01*
X122155000Y-72941335D01*
X122210147Y-73218574D01*
X122318320Y-73479727D01*
X122475363Y-73714759D01*
X122675241Y-73914637D01*
X122910273Y-74071680D01*
X123171426Y-74179853D01*
X123448665Y-74235000D01*
X123731335Y-74235000D01*
X124008574Y-74179853D01*
X124269727Y-74071680D01*
X124504759Y-73914637D01*
X124704637Y-73714759D01*
X124861680Y-73479727D01*
X124969853Y-73218574D01*
X125025000Y-72941335D01*
X125025000Y-72658665D01*
X127155000Y-72658665D01*
X127155000Y-72941335D01*
X127210147Y-73218574D01*
X127318320Y-73479727D01*
X127475363Y-73714759D01*
X127675241Y-73914637D01*
X127910273Y-74071680D01*
X128171426Y-74179853D01*
X128448665Y-74235000D01*
X128731335Y-74235000D01*
X129008574Y-74179853D01*
X129269727Y-74071680D01*
X129504759Y-73914637D01*
X129704637Y-73714759D01*
X129861680Y-73479727D01*
X129969853Y-73218574D01*
X130025000Y-72941335D01*
X130025000Y-72658665D01*
X129969853Y-72381426D01*
X129861680Y-72120273D01*
X129704637Y-71885241D01*
X129504759Y-71685363D01*
X129269727Y-71528320D01*
X129008574Y-71420147D01*
X128731335Y-71365000D01*
X128448665Y-71365000D01*
X128171426Y-71420147D01*
X127910273Y-71528320D01*
X127675241Y-71685363D01*
X127475363Y-71885241D01*
X127318320Y-72120273D01*
X127210147Y-72381426D01*
X127155000Y-72658665D01*
X125025000Y-72658665D01*
X124969853Y-72381426D01*
X124861680Y-72120273D01*
X124704637Y-71885241D01*
X124504759Y-71685363D01*
X124269727Y-71528320D01*
X124008574Y-71420147D01*
X123731335Y-71365000D01*
X123448665Y-71365000D01*
X123171426Y-71420147D01*
X122910273Y-71528320D01*
X122675241Y-71685363D01*
X122475363Y-71885241D01*
X122318320Y-72120273D01*
X122210147Y-72381426D01*
X122155000Y-72658665D01*
X121553927Y-72658665D01*
X121565000Y-72603000D01*
X121565000Y-72320330D01*
X121509853Y-72043091D01*
X121401680Y-71781938D01*
X121244637Y-71546906D01*
X121044759Y-71347028D01*
X120809727Y-71189985D01*
X120548574Y-71081812D01*
X120271335Y-71026665D01*
X119988665Y-71026665D01*
X119711426Y-71081812D01*
X119450273Y-71189985D01*
X119215241Y-71347028D01*
X119015363Y-71546906D01*
X118858320Y-71781938D01*
X118750147Y-72043091D01*
X118695000Y-72320330D01*
X117264990Y-72320330D01*
X117264990Y-68823332D01*
X118688057Y-68823332D01*
X118715764Y-69104641D01*
X118797818Y-69375140D01*
X118931068Y-69624433D01*
X119110392Y-69842940D01*
X119328899Y-70022264D01*
X119578192Y-70155514D01*
X119848691Y-70237568D01*
X120059508Y-70258332D01*
X120200492Y-70258332D01*
X120411309Y-70237568D01*
X120681808Y-70155514D01*
X120931101Y-70022264D01*
X121149608Y-69842940D01*
X121328932Y-69624433D01*
X121462182Y-69375140D01*
X121544236Y-69104641D01*
X121571943Y-68823332D01*
X121544236Y-68542023D01*
X121462182Y-68271524D01*
X121328932Y-68022231D01*
X121149608Y-67803724D01*
X121058149Y-67728665D01*
X122155000Y-67728665D01*
X122155000Y-68011335D01*
X122210147Y-68288574D01*
X122318320Y-68549727D01*
X122475363Y-68784759D01*
X122675241Y-68984637D01*
X122910273Y-69141680D01*
X123171426Y-69249853D01*
X123448665Y-69305000D01*
X123731335Y-69305000D01*
X124008574Y-69249853D01*
X124269727Y-69141680D01*
X124504759Y-68984637D01*
X124704637Y-68784759D01*
X124861680Y-68549727D01*
X124969853Y-68288574D01*
X125025000Y-68011335D01*
X125025000Y-67728665D01*
X127155000Y-67728665D01*
X127155000Y-68011335D01*
X127210147Y-68288574D01*
X127318320Y-68549727D01*
X127475363Y-68784759D01*
X127675241Y-68984637D01*
X127910273Y-69141680D01*
X128171426Y-69249853D01*
X128448665Y-69305000D01*
X128731335Y-69305000D01*
X129008574Y-69249853D01*
X129269727Y-69141680D01*
X129504759Y-68984637D01*
X129704637Y-68784759D01*
X129861680Y-68549727D01*
X129969853Y-68288574D01*
X130025000Y-68011335D01*
X130025000Y-67728665D01*
X129969853Y-67451426D01*
X129861680Y-67190273D01*
X129704637Y-66955241D01*
X129504759Y-66755363D01*
X129269727Y-66598320D01*
X129008574Y-66490147D01*
X128731335Y-66435000D01*
X128448665Y-66435000D01*
X128171426Y-66490147D01*
X127910273Y-66598320D01*
X127675241Y-66755363D01*
X127475363Y-66955241D01*
X127318320Y-67190273D01*
X127210147Y-67451426D01*
X127155000Y-67728665D01*
X125025000Y-67728665D01*
X124969853Y-67451426D01*
X124861680Y-67190273D01*
X124704637Y-66955241D01*
X124504759Y-66755363D01*
X124269727Y-66598320D01*
X124008574Y-66490147D01*
X123731335Y-66435000D01*
X123448665Y-66435000D01*
X123171426Y-66490147D01*
X122910273Y-66598320D01*
X122675241Y-66755363D01*
X122475363Y-66955241D01*
X122318320Y-67190273D01*
X122210147Y-67451426D01*
X122155000Y-67728665D01*
X121058149Y-67728665D01*
X120931101Y-67624400D01*
X120681808Y-67491150D01*
X120411309Y-67409096D01*
X120200492Y-67388332D01*
X120059508Y-67388332D01*
X119848691Y-67409096D01*
X119578192Y-67491150D01*
X119328899Y-67624400D01*
X119110392Y-67803724D01*
X118931068Y-68022231D01*
X118797818Y-68271524D01*
X118715764Y-68542023D01*
X118688057Y-68823332D01*
X117264990Y-68823332D01*
X117264990Y-65184999D01*
X118688057Y-65184999D01*
X118715764Y-65466308D01*
X118797818Y-65736807D01*
X118931068Y-65986100D01*
X119110392Y-66204607D01*
X119328899Y-66383931D01*
X119578192Y-66517181D01*
X119848691Y-66599235D01*
X120059508Y-66619999D01*
X120200492Y-66619999D01*
X120411309Y-66599235D01*
X120681808Y-66517181D01*
X120931101Y-66383931D01*
X121149608Y-66204607D01*
X121328932Y-65986100D01*
X121462182Y-65736807D01*
X121544236Y-65466308D01*
X121571943Y-65184999D01*
X121544236Y-64903690D01*
X121462182Y-64633191D01*
X121328932Y-64383898D01*
X121149608Y-64165391D01*
X120931101Y-63986067D01*
X120681808Y-63852817D01*
X120411309Y-63770763D01*
X120200492Y-63749999D01*
X120059508Y-63749999D01*
X119848691Y-63770763D01*
X119578192Y-63852817D01*
X119328899Y-63986067D01*
X119110392Y-64165391D01*
X118931068Y-64383898D01*
X118797818Y-64633191D01*
X118715764Y-64903690D01*
X118688057Y-65184999D01*
X117264990Y-65184999D01*
X117264990Y-62223709D01*
X117308927Y-62179772D01*
X117422195Y-62010254D01*
X117500216Y-61821896D01*
X117539990Y-61621937D01*
X117539990Y-61418059D01*
X117537459Y-61405331D01*
X118695000Y-61405331D01*
X118695000Y-61688001D01*
X118750147Y-61965240D01*
X118858320Y-62226393D01*
X119015363Y-62461425D01*
X119215241Y-62661303D01*
X119450273Y-62818346D01*
X119711426Y-62926519D01*
X119988665Y-62981666D01*
X120271335Y-62981666D01*
X120548574Y-62926519D01*
X120809727Y-62818346D01*
X121044759Y-62661303D01*
X121244637Y-62461425D01*
X121401680Y-62226393D01*
X121509853Y-61965240D01*
X121511392Y-61957500D01*
X126351928Y-61957500D01*
X126351928Y-63382500D01*
X126377879Y-63645984D01*
X126454734Y-63899342D01*
X126579540Y-64132838D01*
X126747501Y-64337499D01*
X126952162Y-64505460D01*
X127185658Y-64630266D01*
X127439016Y-64707121D01*
X127702500Y-64733072D01*
X129477500Y-64733072D01*
X129740984Y-64707121D01*
X129994342Y-64630266D01*
X130227838Y-64505460D01*
X130432499Y-64337499D01*
X130600460Y-64132838D01*
X130725266Y-63899342D01*
X130802121Y-63645984D01*
X130828072Y-63382500D01*
X130828072Y-61957500D01*
X130802121Y-61694016D01*
X130725266Y-61440658D01*
X130600460Y-61207162D01*
X130432499Y-61002501D01*
X130227838Y-60834540D01*
X129994342Y-60709734D01*
X129740984Y-60632879D01*
X129477500Y-60606928D01*
X127702500Y-60606928D01*
X127439016Y-60632879D01*
X127185658Y-60709734D01*
X126952162Y-60834540D01*
X126747501Y-61002501D01*
X126579540Y-61207162D01*
X126454734Y-61440658D01*
X126377879Y-61694016D01*
X126351928Y-61957500D01*
X121511392Y-61957500D01*
X121565000Y-61688001D01*
X121565000Y-61405331D01*
X121509853Y-61128092D01*
X121401680Y-60866939D01*
X121244637Y-60631907D01*
X121044759Y-60432029D01*
X120809727Y-60274986D01*
X120548574Y-60166813D01*
X120271335Y-60111666D01*
X119988665Y-60111666D01*
X119711426Y-60166813D01*
X119450273Y-60274986D01*
X119215241Y-60432029D01*
X119015363Y-60631907D01*
X118858320Y-60866939D01*
X118750147Y-61128092D01*
X118695000Y-61405331D01*
X117537459Y-61405331D01*
X117500216Y-61218100D01*
X117422195Y-61029742D01*
X117308927Y-60860224D01*
X117164764Y-60716061D01*
X116995246Y-60602793D01*
X116806888Y-60524772D01*
X116606929Y-60484998D01*
X116403051Y-60484998D01*
X116215000Y-60522403D01*
X116215000Y-58276578D01*
X116724580Y-57766998D01*
X118695000Y-57766998D01*
X118695000Y-58049668D01*
X118750147Y-58326907D01*
X118858320Y-58588060D01*
X119015363Y-58823092D01*
X119215241Y-59022970D01*
X119450273Y-59180013D01*
X119711426Y-59288186D01*
X119988665Y-59343333D01*
X120271335Y-59343333D01*
X120548574Y-59288186D01*
X120809727Y-59180013D01*
X121044759Y-59022970D01*
X121244637Y-58823092D01*
X121401680Y-58588060D01*
X121509853Y-58326907D01*
X121565000Y-58049668D01*
X121565000Y-57766998D01*
X121509853Y-57489759D01*
X121413649Y-57257500D01*
X126351928Y-57257500D01*
X126351928Y-58682500D01*
X126377879Y-58945984D01*
X126454734Y-59199342D01*
X126579540Y-59432838D01*
X126747501Y-59637499D01*
X126952162Y-59805460D01*
X127185658Y-59930266D01*
X127439016Y-60007121D01*
X127702500Y-60033072D01*
X129477500Y-60033072D01*
X129740984Y-60007121D01*
X129994342Y-59930266D01*
X130227838Y-59805460D01*
X130432499Y-59637499D01*
X130600460Y-59432838D01*
X130725266Y-59199342D01*
X130802121Y-58945984D01*
X130828072Y-58682500D01*
X130828072Y-57257500D01*
X130802121Y-56994016D01*
X130725266Y-56740658D01*
X130600460Y-56507162D01*
X130432499Y-56302501D01*
X130227838Y-56134540D01*
X129994342Y-56009734D01*
X129740984Y-55932879D01*
X129477500Y-55906928D01*
X127702500Y-55906928D01*
X127439016Y-55932879D01*
X127185658Y-56009734D01*
X126952162Y-56134540D01*
X126747501Y-56302501D01*
X126579540Y-56507162D01*
X126454734Y-56740658D01*
X126377879Y-56994016D01*
X126351928Y-57257500D01*
X121413649Y-57257500D01*
X121401680Y-57228606D01*
X121244637Y-56993574D01*
X121044759Y-56793696D01*
X120809727Y-56636653D01*
X120548574Y-56528480D01*
X120271335Y-56473333D01*
X119988665Y-56473333D01*
X119711426Y-56528480D01*
X119450273Y-56636653D01*
X119215241Y-56793696D01*
X119015363Y-56993574D01*
X118858320Y-57228606D01*
X118750147Y-57489759D01*
X118695000Y-57766998D01*
X116724580Y-57766998D01*
X118175050Y-56316529D01*
X118208817Y-56288817D01*
X118258379Y-56228427D01*
X118319411Y-56154059D01*
X118401589Y-56000314D01*
X118452195Y-55833490D01*
X118462880Y-55725000D01*
X118465000Y-55703477D01*
X118465000Y-55703469D01*
X118469281Y-55660000D01*
X118465000Y-55616531D01*
X118465000Y-54128665D01*
X118695000Y-54128665D01*
X118695000Y-54411335D01*
X118750147Y-54688574D01*
X118858320Y-54949727D01*
X119015363Y-55184759D01*
X119215241Y-55384637D01*
X119450273Y-55541680D01*
X119711426Y-55649853D01*
X119988665Y-55705000D01*
X120271335Y-55705000D01*
X120548574Y-55649853D01*
X120809727Y-55541680D01*
X121044759Y-55384637D01*
X121244637Y-55184759D01*
X121401680Y-54949727D01*
X121509853Y-54688574D01*
X121565000Y-54411335D01*
X121565000Y-54128665D01*
X121509853Y-53851426D01*
X121401680Y-53590273D01*
X121244637Y-53355241D01*
X121044759Y-53155363D01*
X120809727Y-52998320D01*
X120548574Y-52890147D01*
X120271335Y-52835000D01*
X119988665Y-52835000D01*
X119711426Y-52890147D01*
X119450273Y-52998320D01*
X119215241Y-53155363D01*
X119015363Y-53355241D01*
X118858320Y-53590273D01*
X118750147Y-53851426D01*
X118695000Y-54128665D01*
X118465000Y-54128665D01*
X118465000Y-52557500D01*
X126351928Y-52557500D01*
X126351928Y-53982500D01*
X126377879Y-54245984D01*
X126454734Y-54499342D01*
X126579540Y-54732838D01*
X126747501Y-54937499D01*
X126952162Y-55105460D01*
X127185658Y-55230266D01*
X127439016Y-55307121D01*
X127702500Y-55333072D01*
X129477500Y-55333072D01*
X129740984Y-55307121D01*
X129994342Y-55230266D01*
X130227838Y-55105460D01*
X130432499Y-54937499D01*
X130600460Y-54732838D01*
X130725266Y-54499342D01*
X130802121Y-54245984D01*
X130828072Y-53982500D01*
X130828072Y-52557500D01*
X130802121Y-52294016D01*
X130725266Y-52040658D01*
X130600460Y-51807162D01*
X130432499Y-51602501D01*
X130227838Y-51434540D01*
X129994342Y-51309734D01*
X129740984Y-51232879D01*
X129477500Y-51206928D01*
X127702500Y-51206928D01*
X127439016Y-51232879D01*
X127185658Y-51309734D01*
X126952162Y-51434540D01*
X126747501Y-51602501D01*
X126579540Y-51807162D01*
X126454734Y-52040658D01*
X126377879Y-52294016D01*
X126351928Y-52557500D01*
X118465000Y-52557500D01*
X118465000Y-43500873D01*
X118587095Y-43450299D01*
X118838505Y-43282312D01*
X119052312Y-43068505D01*
X119114790Y-42975000D01*
X135773422Y-42975000D01*
X137155000Y-44356579D01*
X137155001Y-45346514D01*
X137155000Y-45346524D01*
X137155001Y-83085240D01*
X136984866Y-83224866D01*
X136799294Y-83450986D01*
X136661401Y-83708966D01*
X136576487Y-83988889D01*
X136547815Y-84280000D01*
X136576487Y-84571111D01*
X136661401Y-84851034D01*
X136799294Y-85109014D01*
X136984866Y-85335134D01*
X137210986Y-85520706D01*
X137265791Y-85550000D01*
X137210986Y-85579294D01*
X136984866Y-85764866D01*
X136799294Y-85990986D01*
X136661401Y-86248966D01*
X136576487Y-86528889D01*
X136547815Y-86820000D01*
X136576487Y-87111111D01*
X136661401Y-87391034D01*
X136799294Y-87649014D01*
X136984866Y-87875134D01*
X137210986Y-88060706D01*
X137265791Y-88090000D01*
X137210986Y-88119294D01*
X136984866Y-88304866D01*
X136799294Y-88530986D01*
X136760284Y-88603969D01*
X136688933Y-88610997D01*
X136545672Y-88654454D01*
X136413643Y-88725026D01*
X136297918Y-88819999D01*
X136274120Y-88848997D01*
X133439003Y-91684115D01*
X133409999Y-91707918D01*
X133376679Y-91748519D01*
X124712335Y-100412864D01*
X124683331Y-100436667D01*
X124628203Y-100503842D01*
X124588358Y-100552392D01*
X124518285Y-100683489D01*
X124517786Y-100684422D01*
X124474329Y-100827683D01*
X124463332Y-100939336D01*
X124463332Y-100939346D01*
X124459656Y-100976668D01*
X124463332Y-101013990D01*
X124463333Y-114349099D01*
X124422231Y-114371068D01*
X124203724Y-114550392D01*
X124024400Y-114768899D01*
X123891150Y-115018192D01*
X123809096Y-115288691D01*
X123781389Y-115570000D01*
X123809096Y-115851309D01*
X123891150Y-116121808D01*
X124024400Y-116371101D01*
X124203724Y-116589608D01*
X124422231Y-116768932D01*
X124671524Y-116902182D01*
X124942023Y-116984236D01*
X125152840Y-117005000D01*
X125293824Y-117005000D01*
X125504641Y-116984236D01*
X125775140Y-116902182D01*
X126024433Y-116768932D01*
X126242940Y-116589608D01*
X126422264Y-116371101D01*
X126555514Y-116121808D01*
X126637568Y-115851309D01*
X126665275Y-115570000D01*
X126651355Y-115428665D01*
X128295000Y-115428665D01*
X128295000Y-115711335D01*
X128350147Y-115988574D01*
X128458320Y-116249727D01*
X128615363Y-116484759D01*
X128815241Y-116684637D01*
X129050273Y-116841680D01*
X129311426Y-116949853D01*
X129588665Y-117005000D01*
X129871335Y-117005000D01*
X130148574Y-116949853D01*
X130409727Y-116841680D01*
X130644759Y-116684637D01*
X130844637Y-116484759D01*
X131001680Y-116249727D01*
X131109853Y-115988574D01*
X131165000Y-115711335D01*
X131165000Y-115428665D01*
X131109853Y-115151426D01*
X131001680Y-114890273D01*
X130844637Y-114655241D01*
X130644759Y-114455363D01*
X130409727Y-114298320D01*
X130148574Y-114190147D01*
X129871335Y-114135000D01*
X129588665Y-114135000D01*
X129311426Y-114190147D01*
X129050273Y-114298320D01*
X128815241Y-114455363D01*
X128615363Y-114655241D01*
X128458320Y-114890273D01*
X128350147Y-115151426D01*
X128295000Y-115428665D01*
X126651355Y-115428665D01*
X126637568Y-115288691D01*
X126555514Y-115018192D01*
X126422264Y-114768899D01*
X126242940Y-114550392D01*
X126024433Y-114371068D01*
X125983332Y-114349099D01*
X125983332Y-109762565D01*
X131820000Y-109762565D01*
X131820000Y-110097435D01*
X131885330Y-110425872D01*
X132013479Y-110735252D01*
X132199523Y-111013687D01*
X132436313Y-111250477D01*
X132714748Y-111436521D01*
X133024128Y-111564670D01*
X133352565Y-111630000D01*
X133687435Y-111630000D01*
X134015872Y-111564670D01*
X134325252Y-111436521D01*
X134603687Y-111250477D01*
X134840477Y-111013687D01*
X135026521Y-110735252D01*
X135154670Y-110425872D01*
X135220000Y-110097435D01*
X135220000Y-109762565D01*
X135154670Y-109434128D01*
X135026521Y-109124748D01*
X134840477Y-108846313D01*
X134603687Y-108609523D01*
X134325252Y-108423479D01*
X134015872Y-108295330D01*
X133687435Y-108230000D01*
X133352565Y-108230000D01*
X133024128Y-108295330D01*
X132714748Y-108423479D01*
X132436313Y-108609523D01*
X132199523Y-108846313D01*
X132013479Y-109124748D01*
X131885330Y-109434128D01*
X131820000Y-109762565D01*
X125983332Y-109762565D01*
X125983332Y-101462565D01*
X131820000Y-101462565D01*
X131820000Y-101797435D01*
X131885330Y-102125872D01*
X132013479Y-102435252D01*
X132199523Y-102713687D01*
X132436313Y-102950477D01*
X132714748Y-103136521D01*
X133024128Y-103264670D01*
X133352565Y-103330000D01*
X133687435Y-103330000D01*
X134015872Y-103264670D01*
X134325252Y-103136521D01*
X134603687Y-102950477D01*
X134840477Y-102713687D01*
X135026521Y-102435252D01*
X135154670Y-102125872D01*
X135220000Y-101797435D01*
X135220000Y-101462565D01*
X135154670Y-101134128D01*
X135026521Y-100824748D01*
X134840477Y-100546313D01*
X134603687Y-100309523D01*
X134325252Y-100123479D01*
X134224860Y-100081895D01*
X134485000Y-100083072D01*
X134609482Y-100070812D01*
X134729180Y-100034502D01*
X134839494Y-99975537D01*
X134936185Y-99896185D01*
X135015537Y-99799494D01*
X135074502Y-99689180D01*
X135110812Y-99569482D01*
X135123072Y-99445000D01*
X135120000Y-98815750D01*
X134961250Y-98657000D01*
X133647000Y-98657000D01*
X133647000Y-98677000D01*
X133393000Y-98677000D01*
X133393000Y-98657000D01*
X132078750Y-98657000D01*
X131920000Y-98815750D01*
X131916928Y-99445000D01*
X131929188Y-99569482D01*
X131965498Y-99689180D01*
X132024463Y-99799494D01*
X132103815Y-99896185D01*
X132200506Y-99975537D01*
X132310820Y-100034502D01*
X132430518Y-100070812D01*
X132555000Y-100083072D01*
X132815140Y-100081895D01*
X132714748Y-100123479D01*
X132436313Y-100309523D01*
X132199523Y-100546313D01*
X132013479Y-100824748D01*
X131885330Y-101134128D01*
X131820000Y-101462565D01*
X125983332Y-101462565D01*
X125983332Y-101291469D01*
X129659801Y-97615000D01*
X131916928Y-97615000D01*
X131920000Y-98244250D01*
X132078750Y-98403000D01*
X133393000Y-98403000D01*
X133393000Y-97138750D01*
X133647000Y-97138750D01*
X133647000Y-98403000D01*
X134961250Y-98403000D01*
X135120000Y-98244250D01*
X135123072Y-97615000D01*
X135110812Y-97490518D01*
X135074502Y-97370820D01*
X135015537Y-97260506D01*
X134936185Y-97163815D01*
X134839494Y-97084463D01*
X134729180Y-97025498D01*
X134609482Y-96989188D01*
X134485000Y-96976928D01*
X133805750Y-96980000D01*
X133647000Y-97138750D01*
X133393000Y-97138750D01*
X133234250Y-96980000D01*
X132555000Y-96976928D01*
X132430518Y-96989188D01*
X132310820Y-97025498D01*
X132200506Y-97084463D01*
X132103815Y-97163815D01*
X132024463Y-97260506D01*
X131965498Y-97370820D01*
X131929188Y-97490518D01*
X131916928Y-97615000D01*
X129659801Y-97615000D01*
X134461003Y-92813799D01*
X134490001Y-92790001D01*
X134513799Y-92761003D01*
X134523327Y-92749393D01*
X136927494Y-90345226D01*
X136984866Y-90415134D01*
X137210986Y-90600706D01*
X137265791Y-90630000D01*
X137210986Y-90659294D01*
X136984866Y-90844866D01*
X136799294Y-91070986D01*
X136661401Y-91328966D01*
X136576487Y-91608889D01*
X136547815Y-91900000D01*
X136576487Y-92191111D01*
X136661401Y-92471034D01*
X136799294Y-92729014D01*
X136984866Y-92955134D01*
X137014687Y-92979607D01*
X136945820Y-93000498D01*
X136835506Y-93059463D01*
X136738815Y-93138815D01*
X136659463Y-93235506D01*
X136600498Y-93345820D01*
X136564188Y-93465518D01*
X136551928Y-93590000D01*
X136551928Y-95290000D01*
X136564188Y-95414482D01*
X136590001Y-95499576D01*
X136590000Y-114349099D01*
X136548899Y-114371068D01*
X136330392Y-114550392D01*
X136151068Y-114768899D01*
X136017818Y-115018192D01*
X135935764Y-115288691D01*
X135908057Y-115570000D01*
X135935764Y-115851309D01*
X136017818Y-116121808D01*
X136151068Y-116371101D01*
X136330392Y-116589608D01*
X136548899Y-116768932D01*
X136798192Y-116902182D01*
X137068691Y-116984236D01*
X137279508Y-117005000D01*
X137420492Y-117005000D01*
X137631309Y-116984236D01*
X137901808Y-116902182D01*
X138151101Y-116768932D01*
X138369608Y-116589608D01*
X138548932Y-116371101D01*
X138682182Y-116121808D01*
X138764236Y-115851309D01*
X138791943Y-115570000D01*
X138764236Y-115288691D01*
X138682182Y-115018192D01*
X138548932Y-114768899D01*
X138369608Y-114550392D01*
X138151101Y-114371068D01*
X138110000Y-114349099D01*
X138110000Y-95928072D01*
X138890000Y-95928072D01*
X139014482Y-95915812D01*
X139134180Y-95879502D01*
X139244494Y-95820537D01*
X139341185Y-95741185D01*
X139420537Y-95644494D01*
X139430001Y-95626789D01*
X139430001Y-131870000D01*
X134051289Y-131870000D01*
X134325252Y-131756521D01*
X134603687Y-131570477D01*
X134840477Y-131333687D01*
X135026521Y-131055252D01*
X135154670Y-130745872D01*
X135220000Y-130417435D01*
X135220000Y-130082565D01*
X135154670Y-129754128D01*
X135026521Y-129444748D01*
X134840477Y-129166313D01*
X134603687Y-128929523D01*
X134325252Y-128743479D01*
X134015872Y-128615330D01*
X133687435Y-128550000D01*
X133352565Y-128550000D01*
X133024128Y-128615330D01*
X132714748Y-128743479D01*
X132436313Y-128929523D01*
X132199523Y-129166313D01*
X132013479Y-129444748D01*
X131885330Y-129754128D01*
X131820000Y-130082565D01*
X131820000Y-130417435D01*
X131885330Y-130745872D01*
X132013479Y-131055252D01*
X132199523Y-131333687D01*
X132436313Y-131570477D01*
X132714748Y-131756521D01*
X132988711Y-131870000D01*
X121931289Y-131870000D01*
X122205252Y-131756521D01*
X122483687Y-131570477D01*
X122720477Y-131333687D01*
X122906521Y-131055252D01*
X123034670Y-130745872D01*
X123100000Y-130417435D01*
X123100000Y-130082565D01*
X123034670Y-129754128D01*
X122906521Y-129444748D01*
X122720477Y-129166313D01*
X122483687Y-128929523D01*
X122205252Y-128743479D01*
X121895872Y-128615330D01*
X121567435Y-128550000D01*
X121232565Y-128550000D01*
X120904128Y-128615330D01*
X120594748Y-128743479D01*
X120316313Y-128929523D01*
X120079523Y-129166313D01*
X119893479Y-129444748D01*
X119765330Y-129754128D01*
X119700000Y-130082565D01*
X119700000Y-130417435D01*
X119765330Y-130745872D01*
X119893479Y-131055252D01*
X120079523Y-131333687D01*
X120316313Y-131570477D01*
X120594748Y-131756521D01*
X120868711Y-131870000D01*
X109811289Y-131870000D01*
X110085252Y-131756521D01*
X110363687Y-131570477D01*
X110600477Y-131333687D01*
X110786521Y-131055252D01*
X110914670Y-130745872D01*
X110980000Y-130417435D01*
X110980000Y-130082565D01*
X110914670Y-129754128D01*
X110786521Y-129444748D01*
X110600477Y-129166313D01*
X110363687Y-128929523D01*
X110085252Y-128743479D01*
X109775872Y-128615330D01*
X109447435Y-128550000D01*
X109112565Y-128550000D01*
X108784128Y-128615330D01*
X108474748Y-128743479D01*
X108196313Y-128929523D01*
X107959523Y-129166313D01*
X107773479Y-129444748D01*
X107645330Y-129754128D01*
X107580000Y-130082565D01*
X107580000Y-130417435D01*
X107645330Y-130745872D01*
X107773479Y-131055252D01*
X107959523Y-131333687D01*
X108196313Y-131570477D01*
X108474748Y-131756521D01*
X108748711Y-131870000D01*
X97691289Y-131870000D01*
X97965252Y-131756521D01*
X98243687Y-131570477D01*
X98480477Y-131333687D01*
X98666521Y-131055252D01*
X98794670Y-130745872D01*
X98860000Y-130417435D01*
X98860000Y-130082565D01*
X98794670Y-129754128D01*
X98666521Y-129444748D01*
X98480477Y-129166313D01*
X98243687Y-128929523D01*
X97965252Y-128743479D01*
X97655872Y-128615330D01*
X97327435Y-128550000D01*
X96992565Y-128550000D01*
X96664128Y-128615330D01*
X96354748Y-128743479D01*
X96076313Y-128929523D01*
X95839523Y-129166313D01*
X95653479Y-129444748D01*
X95525330Y-129754128D01*
X95460000Y-130082565D01*
X95460000Y-130417435D01*
X95525330Y-130745872D01*
X95653479Y-131055252D01*
X95839523Y-131333687D01*
X96076313Y-131570477D01*
X96354748Y-131756521D01*
X96628711Y-131870000D01*
X91250000Y-131870000D01*
X91250000Y-121782565D01*
X95460000Y-121782565D01*
X95460000Y-122117435D01*
X95525330Y-122445872D01*
X95653479Y-122755252D01*
X95839523Y-123033687D01*
X96076313Y-123270477D01*
X96354748Y-123456521D01*
X96664128Y-123584670D01*
X96992565Y-123650000D01*
X97327435Y-123650000D01*
X97655872Y-123584670D01*
X97965252Y-123456521D01*
X98243687Y-123270477D01*
X98480477Y-123033687D01*
X98666521Y-122755252D01*
X98794670Y-122445872D01*
X98860000Y-122117435D01*
X98860000Y-121782565D01*
X107580000Y-121782565D01*
X107580000Y-122117435D01*
X107645330Y-122445872D01*
X107773479Y-122755252D01*
X107959523Y-123033687D01*
X108196313Y-123270477D01*
X108474748Y-123456521D01*
X108784128Y-123584670D01*
X109112565Y-123650000D01*
X109447435Y-123650000D01*
X109775872Y-123584670D01*
X110085252Y-123456521D01*
X110363687Y-123270477D01*
X110600477Y-123033687D01*
X110786521Y-122755252D01*
X110914670Y-122445872D01*
X110980000Y-122117435D01*
X110980000Y-121782565D01*
X119700000Y-121782565D01*
X119700000Y-122117435D01*
X119765330Y-122445872D01*
X119893479Y-122755252D01*
X120079523Y-123033687D01*
X120316313Y-123270477D01*
X120594748Y-123456521D01*
X120904128Y-123584670D01*
X121232565Y-123650000D01*
X121567435Y-123650000D01*
X121895872Y-123584670D01*
X122205252Y-123456521D01*
X122483687Y-123270477D01*
X122720477Y-123033687D01*
X122906521Y-122755252D01*
X123034670Y-122445872D01*
X123100000Y-122117435D01*
X123100000Y-121782565D01*
X131820000Y-121782565D01*
X131820000Y-122117435D01*
X131885330Y-122445872D01*
X132013479Y-122755252D01*
X132199523Y-123033687D01*
X132436313Y-123270477D01*
X132714748Y-123456521D01*
X133024128Y-123584670D01*
X133352565Y-123650000D01*
X133687435Y-123650000D01*
X134015872Y-123584670D01*
X134325252Y-123456521D01*
X134603687Y-123270477D01*
X134840477Y-123033687D01*
X135026521Y-122755252D01*
X135154670Y-122445872D01*
X135220000Y-122117435D01*
X135220000Y-121782565D01*
X135154670Y-121454128D01*
X135026521Y-121144748D01*
X134840477Y-120866313D01*
X134603687Y-120629523D01*
X134325252Y-120443479D01*
X134224860Y-120401895D01*
X134485000Y-120403072D01*
X134609482Y-120390812D01*
X134729180Y-120354502D01*
X134839494Y-120295537D01*
X134936185Y-120216185D01*
X135015537Y-120119494D01*
X135074502Y-120009180D01*
X135110812Y-119889482D01*
X135123072Y-119765000D01*
X135120000Y-119135750D01*
X134961250Y-118977000D01*
X133647000Y-118977000D01*
X133647000Y-118997000D01*
X133393000Y-118997000D01*
X133393000Y-118977000D01*
X132078750Y-118977000D01*
X131920000Y-119135750D01*
X131916928Y-119765000D01*
X131929188Y-119889482D01*
X131965498Y-120009180D01*
X132024463Y-120119494D01*
X132103815Y-120216185D01*
X132200506Y-120295537D01*
X132310820Y-120354502D01*
X132430518Y-120390812D01*
X132555000Y-120403072D01*
X132815140Y-120401895D01*
X132714748Y-120443479D01*
X132436313Y-120629523D01*
X132199523Y-120866313D01*
X132013479Y-121144748D01*
X131885330Y-121454128D01*
X131820000Y-121782565D01*
X123100000Y-121782565D01*
X123034670Y-121454128D01*
X122906521Y-121144748D01*
X122720477Y-120866313D01*
X122483687Y-120629523D01*
X122205252Y-120443479D01*
X122104860Y-120401895D01*
X122365000Y-120403072D01*
X122489482Y-120390812D01*
X122609180Y-120354502D01*
X122719494Y-120295537D01*
X122816185Y-120216185D01*
X122895537Y-120119494D01*
X122954502Y-120009180D01*
X122990812Y-119889482D01*
X123003072Y-119765000D01*
X123000000Y-119135750D01*
X122841250Y-118977000D01*
X121527000Y-118977000D01*
X121527000Y-118997000D01*
X121273000Y-118997000D01*
X121273000Y-118977000D01*
X119958750Y-118977000D01*
X119800000Y-119135750D01*
X119796928Y-119765000D01*
X119809188Y-119889482D01*
X119845498Y-120009180D01*
X119904463Y-120119494D01*
X119983815Y-120216185D01*
X120080506Y-120295537D01*
X120190820Y-120354502D01*
X120310518Y-120390812D01*
X120435000Y-120403072D01*
X120695140Y-120401895D01*
X120594748Y-120443479D01*
X120316313Y-120629523D01*
X120079523Y-120866313D01*
X119893479Y-121144748D01*
X119765330Y-121454128D01*
X119700000Y-121782565D01*
X110980000Y-121782565D01*
X110914670Y-121454128D01*
X110786521Y-121144748D01*
X110600477Y-120866313D01*
X110363687Y-120629523D01*
X110085252Y-120443479D01*
X109984860Y-120401895D01*
X110245000Y-120403072D01*
X110369482Y-120390812D01*
X110489180Y-120354502D01*
X110599494Y-120295537D01*
X110696185Y-120216185D01*
X110775537Y-120119494D01*
X110834502Y-120009180D01*
X110870812Y-119889482D01*
X110883072Y-119765000D01*
X110880000Y-119135750D01*
X110721250Y-118977000D01*
X109407000Y-118977000D01*
X109407000Y-118997000D01*
X109153000Y-118997000D01*
X109153000Y-118977000D01*
X107838750Y-118977000D01*
X107680000Y-119135750D01*
X107676928Y-119765000D01*
X107689188Y-119889482D01*
X107725498Y-120009180D01*
X107784463Y-120119494D01*
X107863815Y-120216185D01*
X107960506Y-120295537D01*
X108070820Y-120354502D01*
X108190518Y-120390812D01*
X108315000Y-120403072D01*
X108575140Y-120401895D01*
X108474748Y-120443479D01*
X108196313Y-120629523D01*
X107959523Y-120866313D01*
X107773479Y-121144748D01*
X107645330Y-121454128D01*
X107580000Y-121782565D01*
X98860000Y-121782565D01*
X98794670Y-121454128D01*
X98666521Y-121144748D01*
X98480477Y-120866313D01*
X98243687Y-120629523D01*
X97965252Y-120443479D01*
X97864860Y-120401895D01*
X98125000Y-120403072D01*
X98249482Y-120390812D01*
X98369180Y-120354502D01*
X98479494Y-120295537D01*
X98576185Y-120216185D01*
X98655537Y-120119494D01*
X98714502Y-120009180D01*
X98750812Y-119889482D01*
X98763072Y-119765000D01*
X98760000Y-119135750D01*
X98601250Y-118977000D01*
X97287000Y-118977000D01*
X97287000Y-118997000D01*
X97033000Y-118997000D01*
X97033000Y-118977000D01*
X95718750Y-118977000D01*
X95560000Y-119135750D01*
X95556928Y-119765000D01*
X95569188Y-119889482D01*
X95605498Y-120009180D01*
X95664463Y-120119494D01*
X95743815Y-120216185D01*
X95840506Y-120295537D01*
X95950820Y-120354502D01*
X96070518Y-120390812D01*
X96195000Y-120403072D01*
X96455140Y-120401895D01*
X96354748Y-120443479D01*
X96076313Y-120629523D01*
X95839523Y-120866313D01*
X95653479Y-121144748D01*
X95525330Y-121454128D01*
X95460000Y-121782565D01*
X91250000Y-121782565D01*
X91250000Y-117935000D01*
X95556928Y-117935000D01*
X95560000Y-118564250D01*
X95718750Y-118723000D01*
X97033000Y-118723000D01*
X97033000Y-117458750D01*
X97287000Y-117458750D01*
X97287000Y-118723000D01*
X98601250Y-118723000D01*
X98760000Y-118564250D01*
X98763072Y-117935000D01*
X107676928Y-117935000D01*
X107680000Y-118564250D01*
X107838750Y-118723000D01*
X109153000Y-118723000D01*
X109153000Y-117458750D01*
X109407000Y-117458750D01*
X109407000Y-118723000D01*
X110721250Y-118723000D01*
X110880000Y-118564250D01*
X110883072Y-117935000D01*
X119796928Y-117935000D01*
X119800000Y-118564250D01*
X119958750Y-118723000D01*
X121273000Y-118723000D01*
X121273000Y-117458750D01*
X121527000Y-117458750D01*
X121527000Y-118723000D01*
X122841250Y-118723000D01*
X123000000Y-118564250D01*
X123003072Y-117935000D01*
X131916928Y-117935000D01*
X131920000Y-118564250D01*
X132078750Y-118723000D01*
X133393000Y-118723000D01*
X133393000Y-117458750D01*
X133647000Y-117458750D01*
X133647000Y-118723000D01*
X134961250Y-118723000D01*
X135120000Y-118564250D01*
X135123072Y-117935000D01*
X135110812Y-117810518D01*
X135074502Y-117690820D01*
X135015537Y-117580506D01*
X134936185Y-117483815D01*
X134839494Y-117404463D01*
X134729180Y-117345498D01*
X134609482Y-117309188D01*
X134485000Y-117296928D01*
X133805750Y-117300000D01*
X133647000Y-117458750D01*
X133393000Y-117458750D01*
X133234250Y-117300000D01*
X132555000Y-117296928D01*
X132430518Y-117309188D01*
X132310820Y-117345498D01*
X132200506Y-117404463D01*
X132103815Y-117483815D01*
X132024463Y-117580506D01*
X131965498Y-117690820D01*
X131929188Y-117810518D01*
X131916928Y-117935000D01*
X123003072Y-117935000D01*
X122990812Y-117810518D01*
X122954502Y-117690820D01*
X122895537Y-117580506D01*
X122816185Y-117483815D01*
X122719494Y-117404463D01*
X122609180Y-117345498D01*
X122489482Y-117309188D01*
X122365000Y-117296928D01*
X121685750Y-117300000D01*
X121527000Y-117458750D01*
X121273000Y-117458750D01*
X121114250Y-117300000D01*
X120435000Y-117296928D01*
X120310518Y-117309188D01*
X120190820Y-117345498D01*
X120080506Y-117404463D01*
X119983815Y-117483815D01*
X119904463Y-117580506D01*
X119845498Y-117690820D01*
X119809188Y-117810518D01*
X119796928Y-117935000D01*
X110883072Y-117935000D01*
X110870812Y-117810518D01*
X110834502Y-117690820D01*
X110775537Y-117580506D01*
X110696185Y-117483815D01*
X110599494Y-117404463D01*
X110489180Y-117345498D01*
X110369482Y-117309188D01*
X110245000Y-117296928D01*
X109565750Y-117300000D01*
X109407000Y-117458750D01*
X109153000Y-117458750D01*
X108994250Y-117300000D01*
X108315000Y-117296928D01*
X108190518Y-117309188D01*
X108070820Y-117345498D01*
X107960506Y-117404463D01*
X107863815Y-117483815D01*
X107784463Y-117580506D01*
X107725498Y-117690820D01*
X107689188Y-117810518D01*
X107676928Y-117935000D01*
X98763072Y-117935000D01*
X98750812Y-117810518D01*
X98714502Y-117690820D01*
X98655537Y-117580506D01*
X98576185Y-117483815D01*
X98479494Y-117404463D01*
X98369180Y-117345498D01*
X98249482Y-117309188D01*
X98125000Y-117296928D01*
X97445750Y-117300000D01*
X97287000Y-117458750D01*
X97033000Y-117458750D01*
X96874250Y-117300000D01*
X96195000Y-117296928D01*
X96070518Y-117309188D01*
X95950820Y-117345498D01*
X95840506Y-117404463D01*
X95743815Y-117483815D01*
X95664463Y-117580506D01*
X95605498Y-117690820D01*
X95569188Y-117810518D01*
X95556928Y-117935000D01*
X91250000Y-117935000D01*
X91250000Y-115428665D01*
X91915000Y-115428665D01*
X91915000Y-115711335D01*
X91970147Y-115988574D01*
X92078320Y-116249727D01*
X92235363Y-116484759D01*
X92435241Y-116684637D01*
X92670273Y-116841680D01*
X92931426Y-116949853D01*
X93208665Y-117005000D01*
X93491335Y-117005000D01*
X93768574Y-116949853D01*
X94029727Y-116841680D01*
X94264759Y-116684637D01*
X94464637Y-116484759D01*
X94621680Y-116249727D01*
X94729853Y-115988574D01*
X94785000Y-115711335D01*
X94785000Y-115428665D01*
X94729853Y-115151426D01*
X94621680Y-114890273D01*
X94464637Y-114655241D01*
X94264759Y-114455363D01*
X94029727Y-114298320D01*
X93768574Y-114190147D01*
X93491335Y-114135000D01*
X93208665Y-114135000D01*
X92931426Y-114190147D01*
X92670273Y-114298320D01*
X92435241Y-114455363D01*
X92235363Y-114655241D01*
X92078320Y-114890273D01*
X91970147Y-115151426D01*
X91915000Y-115428665D01*
X91250000Y-115428665D01*
X91250000Y-109762565D01*
X95460000Y-109762565D01*
X95460000Y-110097435D01*
X95525330Y-110425872D01*
X95653479Y-110735252D01*
X95839523Y-111013687D01*
X96076313Y-111250477D01*
X96354748Y-111436521D01*
X96664128Y-111564670D01*
X96992565Y-111630000D01*
X97327435Y-111630000D01*
X97655872Y-111564670D01*
X97965252Y-111436521D01*
X98243687Y-111250477D01*
X98480477Y-111013687D01*
X98666521Y-110735252D01*
X98794670Y-110425872D01*
X98860000Y-110097435D01*
X98860000Y-109762565D01*
X98794670Y-109434128D01*
X98666521Y-109124748D01*
X98480477Y-108846313D01*
X98243687Y-108609523D01*
X97965252Y-108423479D01*
X97655872Y-108295330D01*
X97327435Y-108230000D01*
X96992565Y-108230000D01*
X96664128Y-108295330D01*
X96354748Y-108423479D01*
X96076313Y-108609523D01*
X95839523Y-108846313D01*
X95653479Y-109124748D01*
X95525330Y-109434128D01*
X95460000Y-109762565D01*
X91250000Y-109762565D01*
X91250000Y-101462565D01*
X95460000Y-101462565D01*
X95460000Y-101797435D01*
X95525330Y-102125872D01*
X95653479Y-102435252D01*
X95839523Y-102713687D01*
X96076313Y-102950477D01*
X96354748Y-103136521D01*
X96664128Y-103264670D01*
X96992565Y-103330000D01*
X97327435Y-103330000D01*
X97655872Y-103264670D01*
X97965252Y-103136521D01*
X98243687Y-102950477D01*
X98480477Y-102713687D01*
X98666521Y-102435252D01*
X98794670Y-102125872D01*
X98860000Y-101797435D01*
X98860000Y-101462565D01*
X98794670Y-101134128D01*
X98666521Y-100824748D01*
X98480477Y-100546313D01*
X98243687Y-100309523D01*
X97965252Y-100123479D01*
X97864860Y-100081895D01*
X98125000Y-100083072D01*
X98249482Y-100070812D01*
X98369180Y-100034502D01*
X98479494Y-99975537D01*
X98576185Y-99896185D01*
X98655537Y-99799494D01*
X98714502Y-99689180D01*
X98750812Y-99569482D01*
X98763072Y-99445000D01*
X98760000Y-98815750D01*
X98601250Y-98657000D01*
X97287000Y-98657000D01*
X97287000Y-98677000D01*
X97033000Y-98677000D01*
X97033000Y-98657000D01*
X95718750Y-98657000D01*
X95560000Y-98815750D01*
X95556928Y-99445000D01*
X95569188Y-99569482D01*
X95605498Y-99689180D01*
X95664463Y-99799494D01*
X95743815Y-99896185D01*
X95840506Y-99975537D01*
X95950820Y-100034502D01*
X96070518Y-100070812D01*
X96195000Y-100083072D01*
X96455140Y-100081895D01*
X96354748Y-100123479D01*
X96076313Y-100309523D01*
X95839523Y-100546313D01*
X95653479Y-100824748D01*
X95525330Y-101134128D01*
X95460000Y-101462565D01*
X91250000Y-101462565D01*
X91250000Y-97615000D01*
X95556928Y-97615000D01*
X95560000Y-98244250D01*
X95718750Y-98403000D01*
X97033000Y-98403000D01*
X97033000Y-97138750D01*
X97287000Y-97138750D01*
X97287000Y-98403000D01*
X98601250Y-98403000D01*
X98760000Y-98244250D01*
X98763072Y-97615000D01*
X107676928Y-97615000D01*
X107680000Y-98244250D01*
X107838750Y-98403000D01*
X109153000Y-98403000D01*
X109153000Y-97138750D01*
X109407000Y-97138750D01*
X109407000Y-98403000D01*
X110721250Y-98403000D01*
X110880000Y-98244250D01*
X110883072Y-97615000D01*
X110870812Y-97490518D01*
X110834502Y-97370820D01*
X110775537Y-97260506D01*
X110696185Y-97163815D01*
X110599494Y-97084463D01*
X110489180Y-97025498D01*
X110369482Y-96989188D01*
X110245000Y-96976928D01*
X109565750Y-96980000D01*
X109407000Y-97138750D01*
X109153000Y-97138750D01*
X108994250Y-96980000D01*
X108315000Y-96976928D01*
X108190518Y-96989188D01*
X108070820Y-97025498D01*
X107960506Y-97084463D01*
X107863815Y-97163815D01*
X107784463Y-97260506D01*
X107725498Y-97370820D01*
X107689188Y-97490518D01*
X107676928Y-97615000D01*
X98763072Y-97615000D01*
X98750812Y-97490518D01*
X98714502Y-97370820D01*
X98655537Y-97260506D01*
X98576185Y-97163815D01*
X98479494Y-97084463D01*
X98369180Y-97025498D01*
X98249482Y-96989188D01*
X98125000Y-96976928D01*
X97445750Y-96980000D01*
X97287000Y-97138750D01*
X97033000Y-97138750D01*
X96874250Y-96980000D01*
X96195000Y-96976928D01*
X96070518Y-96989188D01*
X95950820Y-97025498D01*
X95840506Y-97084463D01*
X95743815Y-97163815D01*
X95664463Y-97260506D01*
X95605498Y-97370820D01*
X95569188Y-97490518D01*
X95556928Y-97615000D01*
X91250000Y-97615000D01*
X91250000Y-95730444D01*
X91258815Y-95741185D01*
X91355506Y-95820537D01*
X91465820Y-95879502D01*
X91585518Y-95915812D01*
X91710000Y-95928072D01*
X92274250Y-95925000D01*
X92433000Y-95766250D01*
X92433000Y-94567000D01*
X92687000Y-94567000D01*
X92687000Y-95766250D01*
X92845750Y-95925000D01*
X93410000Y-95928072D01*
X93534482Y-95915812D01*
X93654180Y-95879502D01*
X93764494Y-95820537D01*
X93861185Y-95741185D01*
X93940537Y-95644494D01*
X93999502Y-95534180D01*
X94035812Y-95414482D01*
X94048072Y-95290000D01*
X94047521Y-95188665D01*
X100225000Y-95188665D01*
X100225000Y-95471335D01*
X100280147Y-95748574D01*
X100388320Y-96009727D01*
X100545363Y-96244759D01*
X100745241Y-96444637D01*
X100980273Y-96601680D01*
X101241426Y-96709853D01*
X101518665Y-96765000D01*
X101801335Y-96765000D01*
X102078574Y-96709853D01*
X102339727Y-96601680D01*
X102574759Y-96444637D01*
X102774637Y-96244759D01*
X102931680Y-96009727D01*
X103039853Y-95748574D01*
X103095000Y-95471335D01*
X103095000Y-95330000D01*
X107838057Y-95330000D01*
X107865764Y-95611309D01*
X107947818Y-95881808D01*
X108081068Y-96131101D01*
X108260392Y-96349608D01*
X108478899Y-96528932D01*
X108728192Y-96662182D01*
X108998691Y-96744236D01*
X109209508Y-96765000D01*
X109350492Y-96765000D01*
X109561309Y-96744236D01*
X109831808Y-96662182D01*
X110081101Y-96528932D01*
X110299608Y-96349608D01*
X110478932Y-96131101D01*
X110612182Y-95881808D01*
X110694236Y-95611309D01*
X110721943Y-95330000D01*
X110694236Y-95048691D01*
X110612182Y-94778192D01*
X110478932Y-94528899D01*
X110299608Y-94310392D01*
X110081101Y-94131068D01*
X109831808Y-93997818D01*
X109561309Y-93915764D01*
X109350492Y-93895000D01*
X109209508Y-93895000D01*
X108998691Y-93915764D01*
X108728192Y-93997818D01*
X108478899Y-94131068D01*
X108260392Y-94310392D01*
X108081068Y-94528899D01*
X107947818Y-94778192D01*
X107865764Y-95048691D01*
X107838057Y-95330000D01*
X103095000Y-95330000D01*
X103095000Y-95188665D01*
X103039853Y-94911426D01*
X102931680Y-94650273D01*
X102774637Y-94415241D01*
X102574759Y-94215363D01*
X102339727Y-94058320D01*
X102078574Y-93950147D01*
X101801335Y-93895000D01*
X101518665Y-93895000D01*
X101241426Y-93950147D01*
X100980273Y-94058320D01*
X100745241Y-94215363D01*
X100545363Y-94415241D01*
X100388320Y-94650273D01*
X100280147Y-94911426D01*
X100225000Y-95188665D01*
X94047521Y-95188665D01*
X94045000Y-94725750D01*
X93886250Y-94567000D01*
X92687000Y-94567000D01*
X92433000Y-94567000D01*
X92413000Y-94567000D01*
X92413000Y-94313000D01*
X92433000Y-94313000D01*
X92433000Y-94293000D01*
X92687000Y-94293000D01*
X92687000Y-94313000D01*
X93886250Y-94313000D01*
X94045000Y-94154250D01*
X94048072Y-93590000D01*
X94035812Y-93465518D01*
X93999502Y-93345820D01*
X93940537Y-93235506D01*
X93861185Y-93138815D01*
X93764494Y-93059463D01*
X93654180Y-93000498D01*
X93585313Y-92979607D01*
X93615134Y-92955134D01*
X93800706Y-92729014D01*
X93938599Y-92471034D01*
X94023513Y-92191111D01*
X94052185Y-91900000D01*
X94041351Y-91790000D01*
X98031928Y-91790000D01*
X98044188Y-91914482D01*
X98080498Y-92034180D01*
X98139463Y-92144494D01*
X98218815Y-92241185D01*
X98315506Y-92320537D01*
X98425820Y-92379502D01*
X98545518Y-92415812D01*
X98670000Y-92428072D01*
X99284250Y-92425000D01*
X99443000Y-92266250D01*
X99443000Y-91017000D01*
X98193750Y-91017000D01*
X98035000Y-91175750D01*
X98031928Y-91790000D01*
X94041351Y-91790000D01*
X94023513Y-91608889D01*
X93938599Y-91328966D01*
X93800706Y-91070986D01*
X93615134Y-90844866D01*
X93389014Y-90659294D01*
X93334209Y-90630000D01*
X93389014Y-90600706D01*
X93615134Y-90415134D01*
X93800706Y-90189014D01*
X93907081Y-89990000D01*
X98031928Y-89990000D01*
X98035000Y-90604250D01*
X98193750Y-90763000D01*
X99443000Y-90763000D01*
X99443000Y-89513750D01*
X99697000Y-89513750D01*
X99697000Y-90763000D01*
X99717000Y-90763000D01*
X99717000Y-91017000D01*
X99697000Y-91017000D01*
X99697000Y-92266250D01*
X99855750Y-92425000D01*
X100470000Y-92428072D01*
X100594482Y-92415812D01*
X100714180Y-92379502D01*
X100824494Y-92320537D01*
X100921185Y-92241185D01*
X101000537Y-92144494D01*
X101053880Y-92044697D01*
X101091495Y-92082312D01*
X101342905Y-92250299D01*
X101622257Y-92366011D01*
X101918816Y-92425000D01*
X102221184Y-92425000D01*
X102517743Y-92366011D01*
X102797095Y-92250299D01*
X103048505Y-92082312D01*
X103262312Y-91868505D01*
X103320000Y-91782169D01*
X103377688Y-91868505D01*
X103591495Y-92082312D01*
X103842905Y-92250299D01*
X104122257Y-92366011D01*
X104418816Y-92425000D01*
X104721184Y-92425000D01*
X105017743Y-92366011D01*
X105297095Y-92250299D01*
X105548505Y-92082312D01*
X105762312Y-91868505D01*
X105930299Y-91617095D01*
X106046011Y-91337743D01*
X106105000Y-91041184D01*
X106105000Y-90738816D01*
X106046011Y-90442257D01*
X105930299Y-90162905D01*
X105762312Y-89911495D01*
X105548505Y-89697688D01*
X105297095Y-89529701D01*
X105017743Y-89413989D01*
X104721184Y-89355000D01*
X104418816Y-89355000D01*
X104122257Y-89413989D01*
X103842905Y-89529701D01*
X103591495Y-89697688D01*
X103377688Y-89911495D01*
X103320000Y-89997831D01*
X103262312Y-89911495D01*
X103048505Y-89697688D01*
X102797095Y-89529701D01*
X102517743Y-89413989D01*
X102221184Y-89355000D01*
X101918816Y-89355000D01*
X101622257Y-89413989D01*
X101342905Y-89529701D01*
X101091495Y-89697688D01*
X101053880Y-89735303D01*
X101000537Y-89635506D01*
X100921185Y-89538815D01*
X100824494Y-89459463D01*
X100714180Y-89400498D01*
X100594482Y-89364188D01*
X100470000Y-89351928D01*
X99855750Y-89355000D01*
X99697000Y-89513750D01*
X99443000Y-89513750D01*
X99284250Y-89355000D01*
X98670000Y-89351928D01*
X98545518Y-89364188D01*
X98425820Y-89400498D01*
X98315506Y-89459463D01*
X98218815Y-89538815D01*
X98139463Y-89635506D01*
X98080498Y-89745820D01*
X98044188Y-89865518D01*
X98031928Y-89990000D01*
X93907081Y-89990000D01*
X93938599Y-89931034D01*
X94023513Y-89651111D01*
X94052185Y-89360000D01*
X94023513Y-89068889D01*
X93938599Y-88788966D01*
X93800706Y-88530986D01*
X93615134Y-88304866D01*
X93389014Y-88119294D01*
X93334209Y-88090000D01*
X93389014Y-88060706D01*
X93615134Y-87875134D01*
X93800706Y-87649014D01*
X93938599Y-87391034D01*
X94023513Y-87111111D01*
X94052185Y-86820000D01*
X94023513Y-86528889D01*
X93938599Y-86248966D01*
X93800706Y-85990986D01*
X93615134Y-85764866D01*
X93389014Y-85579294D01*
X93334209Y-85550000D01*
X93389014Y-85520706D01*
X93615134Y-85335134D01*
X93800706Y-85109014D01*
X93938599Y-84851034D01*
X94023513Y-84571111D01*
X94052185Y-84280000D01*
X94023513Y-83988889D01*
X93938599Y-83708966D01*
X93800706Y-83450986D01*
X93615134Y-83224866D01*
X93545724Y-83167902D01*
X95015000Y-83167902D01*
X95015000Y-83612098D01*
X95101658Y-84047759D01*
X95271645Y-84458143D01*
X95518427Y-84827479D01*
X95832521Y-85141573D01*
X96201857Y-85388355D01*
X96612241Y-85558342D01*
X97047902Y-85645000D01*
X97492098Y-85645000D01*
X97927759Y-85558342D01*
X98338143Y-85388355D01*
X98707479Y-85141573D01*
X99021573Y-84827479D01*
X99268355Y-84458143D01*
X99438342Y-84047759D01*
X99525000Y-83612098D01*
X99525000Y-83167902D01*
X104615000Y-83167902D01*
X104615000Y-83612098D01*
X104701658Y-84047759D01*
X104871645Y-84458143D01*
X105118427Y-84827479D01*
X105432521Y-85141573D01*
X105801857Y-85388355D01*
X106212241Y-85558342D01*
X106647902Y-85645000D01*
X107092098Y-85645000D01*
X107527759Y-85558342D01*
X107938143Y-85388355D01*
X108307479Y-85141573D01*
X108621573Y-84827479D01*
X108868355Y-84458143D01*
X109038342Y-84047759D01*
X109125000Y-83612098D01*
X109125000Y-83167902D01*
X109038342Y-82732241D01*
X108868355Y-82321857D01*
X108621573Y-81952521D01*
X108307479Y-81638427D01*
X107938143Y-81391645D01*
X107527759Y-81221658D01*
X107092098Y-81135000D01*
X106647902Y-81135000D01*
X106212241Y-81221658D01*
X105801857Y-81391645D01*
X105432521Y-81638427D01*
X105118427Y-81952521D01*
X104871645Y-82321857D01*
X104701658Y-82732241D01*
X104615000Y-83167902D01*
X99525000Y-83167902D01*
X99438342Y-82732241D01*
X99268355Y-82321857D01*
X99021573Y-81952521D01*
X98707479Y-81638427D01*
X98338143Y-81391645D01*
X97927759Y-81221658D01*
X97492098Y-81135000D01*
X97047902Y-81135000D01*
X96612241Y-81221658D01*
X96201857Y-81391645D01*
X95832521Y-81638427D01*
X95518427Y-81952521D01*
X95271645Y-82321857D01*
X95101658Y-82732241D01*
X95015000Y-83167902D01*
X93545724Y-83167902D01*
X93389014Y-83039294D01*
X93320000Y-83002405D01*
X93320000Y-80434801D01*
X94044802Y-79710000D01*
X111325199Y-79710000D01*
X112340000Y-80724802D01*
X112340001Y-97836288D01*
X112296063Y-97880226D01*
X112182795Y-98049744D01*
X112104774Y-98238102D01*
X112065000Y-98438061D01*
X112065000Y-98641939D01*
X112104774Y-98841898D01*
X112182795Y-99030256D01*
X112296063Y-99199774D01*
X112440226Y-99343937D01*
X112609744Y-99457205D01*
X112798102Y-99535226D01*
X112998061Y-99575000D01*
X113201939Y-99575000D01*
X113401898Y-99535226D01*
X113590256Y-99457205D01*
X113759774Y-99343937D01*
X113903937Y-99199774D01*
X114017205Y-99030256D01*
X114095226Y-98841898D01*
X114135000Y-98641939D01*
X114135000Y-98438061D01*
X114095226Y-98238102D01*
X114017205Y-98049744D01*
X113903937Y-97880226D01*
X113860000Y-97836289D01*
X113860000Y-80447323D01*
X113863676Y-80410000D01*
X113860000Y-80372677D01*
X113860000Y-80372667D01*
X113849003Y-80261014D01*
X113805546Y-80117753D01*
X113734974Y-79985724D01*
X113640001Y-79869999D01*
X113611004Y-79846202D01*
X112203804Y-78439003D01*
X112180001Y-78409999D01*
X112064276Y-78315026D01*
X111932247Y-78244454D01*
X111788986Y-78200997D01*
X111677333Y-78190000D01*
X111677322Y-78190000D01*
X111640000Y-78186324D01*
X111602678Y-78190000D01*
X93767323Y-78190000D01*
X93730000Y-78186324D01*
X93692677Y-78190000D01*
X93692667Y-78190000D01*
X93581014Y-78200997D01*
X93437753Y-78244454D01*
X93305724Y-78315026D01*
X93189999Y-78409999D01*
X93166201Y-78438997D01*
X92048998Y-79556201D01*
X92020000Y-79579999D01*
X91996202Y-79608997D01*
X91996201Y-79608998D01*
X91925026Y-79695724D01*
X91854454Y-79827754D01*
X91810998Y-79971015D01*
X91796324Y-80120000D01*
X91800001Y-80157332D01*
X91800000Y-83002405D01*
X91730986Y-83039294D01*
X91504866Y-83224866D01*
X91319294Y-83450986D01*
X91250000Y-83580626D01*
X91250000Y-75958665D01*
X111075000Y-75958665D01*
X111075000Y-76241335D01*
X111130147Y-76518574D01*
X111238320Y-76779727D01*
X111395363Y-77014759D01*
X111595241Y-77214637D01*
X111830273Y-77371680D01*
X112091426Y-77479853D01*
X112368665Y-77535000D01*
X112651335Y-77535000D01*
X112928574Y-77479853D01*
X113189727Y-77371680D01*
X113424759Y-77214637D01*
X113624637Y-77014759D01*
X113781680Y-76779727D01*
X113889853Y-76518574D01*
X113945000Y-76241335D01*
X113945000Y-75958665D01*
X113889853Y-75681426D01*
X113781680Y-75420273D01*
X113624637Y-75185241D01*
X113424759Y-74985363D01*
X113189727Y-74828320D01*
X112928574Y-74720147D01*
X112651335Y-74665000D01*
X112368665Y-74665000D01*
X112091426Y-74720147D01*
X111830273Y-74828320D01*
X111595241Y-74985363D01*
X111395363Y-75185241D01*
X111238320Y-75420273D01*
X111130147Y-75681426D01*
X111075000Y-75958665D01*
X91250000Y-75958665D01*
X91250000Y-72810704D01*
X111118096Y-72810704D01*
X111158754Y-72944752D01*
X111278963Y-73199085D01*
X111446481Y-73425079D01*
X111654869Y-73614050D01*
X111896119Y-73758735D01*
X112160960Y-73853574D01*
X112383000Y-73732289D01*
X112383000Y-72588665D01*
X112637000Y-72588665D01*
X112637000Y-73732289D01*
X112859040Y-73853574D01*
X113123881Y-73758735D01*
X113365131Y-73614050D01*
X113573519Y-73425079D01*
X113741037Y-73199085D01*
X113861246Y-72944752D01*
X113901904Y-72810704D01*
X113779915Y-72588665D01*
X112637000Y-72588665D01*
X112383000Y-72588665D01*
X111240085Y-72588665D01*
X111118096Y-72810704D01*
X91250000Y-72810704D01*
X91250000Y-72112626D01*
X111118096Y-72112626D01*
X111240085Y-72334665D01*
X112383000Y-72334665D01*
X112383000Y-71191041D01*
X112637000Y-71191041D01*
X112637000Y-72334665D01*
X113779915Y-72334665D01*
X113901904Y-72112626D01*
X113861246Y-71978578D01*
X113741037Y-71724245D01*
X113573519Y-71498251D01*
X113365131Y-71309280D01*
X113123881Y-71164595D01*
X112859040Y-71069756D01*
X112637000Y-71191041D01*
X112383000Y-71191041D01*
X112160960Y-71069756D01*
X111896119Y-71164595D01*
X111654869Y-71309280D01*
X111446481Y-71498251D01*
X111278963Y-71724245D01*
X111158754Y-71978578D01*
X111118096Y-72112626D01*
X91250000Y-72112626D01*
X91250000Y-68681997D01*
X111075000Y-68681997D01*
X111075000Y-68964667D01*
X111130147Y-69241906D01*
X111238320Y-69503059D01*
X111395363Y-69738091D01*
X111595241Y-69937969D01*
X111830273Y-70095012D01*
X112091426Y-70203185D01*
X112368665Y-70258332D01*
X112651335Y-70258332D01*
X112928574Y-70203185D01*
X113189727Y-70095012D01*
X113424759Y-69937969D01*
X113624637Y-69738091D01*
X113781680Y-69503059D01*
X113889853Y-69241906D01*
X113945000Y-68964667D01*
X113945000Y-68681997D01*
X113889853Y-68404758D01*
X113781680Y-68143605D01*
X113624637Y-67908573D01*
X113424759Y-67708695D01*
X113189727Y-67551652D01*
X112928574Y-67443479D01*
X112651335Y-67388332D01*
X112368665Y-67388332D01*
X112091426Y-67443479D01*
X111830273Y-67551652D01*
X111595241Y-67708695D01*
X111395363Y-67908573D01*
X111238320Y-68143605D01*
X111130147Y-68404758D01*
X111075000Y-68681997D01*
X91250000Y-68681997D01*
X91250000Y-66380000D01*
X98031928Y-66380000D01*
X98044188Y-66504482D01*
X98080498Y-66624180D01*
X98139463Y-66734494D01*
X98218815Y-66831185D01*
X98315506Y-66910537D01*
X98425820Y-66969502D01*
X98545518Y-67005812D01*
X98670000Y-67018072D01*
X99284250Y-67015000D01*
X99443000Y-66856250D01*
X99443000Y-65607000D01*
X98193750Y-65607000D01*
X98035000Y-65765750D01*
X98031928Y-66380000D01*
X91250000Y-66380000D01*
X91250000Y-64580000D01*
X98031928Y-64580000D01*
X98035000Y-65194250D01*
X98193750Y-65353000D01*
X99443000Y-65353000D01*
X99443000Y-64103750D01*
X99284250Y-63945000D01*
X98670000Y-63941928D01*
X98545518Y-63954188D01*
X98425820Y-63990498D01*
X98315506Y-64049463D01*
X98218815Y-64128815D01*
X98139463Y-64225506D01*
X98080498Y-64335820D01*
X98044188Y-64455518D01*
X98031928Y-64580000D01*
X91250000Y-64580000D01*
X91250000Y-61546666D01*
X111068057Y-61546666D01*
X111095764Y-61827975D01*
X111177818Y-62098474D01*
X111311068Y-62347767D01*
X111490392Y-62566274D01*
X111708899Y-62745598D01*
X111958192Y-62878848D01*
X112228691Y-62960902D01*
X112439508Y-62981666D01*
X112580492Y-62981666D01*
X112791309Y-62960902D01*
X113061808Y-62878848D01*
X113311101Y-62745598D01*
X113529608Y-62566274D01*
X113708932Y-62347767D01*
X113842182Y-62098474D01*
X113924236Y-61827975D01*
X113951943Y-61546666D01*
X113924236Y-61265357D01*
X113842182Y-60994858D01*
X113708932Y-60745565D01*
X113529608Y-60527058D01*
X113311101Y-60347734D01*
X113061808Y-60214484D01*
X112791309Y-60132430D01*
X112580492Y-60111666D01*
X112439508Y-60111666D01*
X112228691Y-60132430D01*
X111958192Y-60214484D01*
X111708899Y-60347734D01*
X111490392Y-60527058D01*
X111311068Y-60745565D01*
X111177818Y-60994858D01*
X111095764Y-61265357D01*
X111068057Y-61546666D01*
X91250000Y-61546666D01*
X91250000Y-57757902D01*
X95015000Y-57757902D01*
X95015000Y-58202098D01*
X95101658Y-58637759D01*
X95271645Y-59048143D01*
X95518427Y-59417479D01*
X95832521Y-59731573D01*
X96201857Y-59978355D01*
X96612241Y-60148342D01*
X97047902Y-60235000D01*
X97492098Y-60235000D01*
X97927759Y-60148342D01*
X98338143Y-59978355D01*
X98707479Y-59731573D01*
X99021573Y-59417479D01*
X99268355Y-59048143D01*
X99438342Y-58637759D01*
X99525000Y-58202098D01*
X99525000Y-57757902D01*
X104615000Y-57757902D01*
X104615000Y-58202098D01*
X104701658Y-58637759D01*
X104871645Y-59048143D01*
X105118427Y-59417479D01*
X105432521Y-59731573D01*
X105801857Y-59978355D01*
X106212241Y-60148342D01*
X106647902Y-60235000D01*
X107092098Y-60235000D01*
X107527759Y-60148342D01*
X107938143Y-59978355D01*
X108307479Y-59731573D01*
X108621573Y-59417479D01*
X108868355Y-59048143D01*
X109038342Y-58637759D01*
X109125000Y-58202098D01*
X109125000Y-57757902D01*
X109038342Y-57322241D01*
X108868355Y-56911857D01*
X108621573Y-56542521D01*
X108307479Y-56228427D01*
X107938143Y-55981645D01*
X107527759Y-55811658D01*
X107092098Y-55725000D01*
X106647902Y-55725000D01*
X106212241Y-55811658D01*
X105801857Y-55981645D01*
X105432521Y-56228427D01*
X105118427Y-56542521D01*
X104871645Y-56911857D01*
X104701658Y-57322241D01*
X104615000Y-57757902D01*
X99525000Y-57757902D01*
X99438342Y-57322241D01*
X99268355Y-56911857D01*
X99021573Y-56542521D01*
X98707479Y-56228427D01*
X98338143Y-55981645D01*
X97927759Y-55811658D01*
X97492098Y-55725000D01*
X97047902Y-55725000D01*
X96612241Y-55811658D01*
X96201857Y-55981645D01*
X95832521Y-56228427D01*
X95518427Y-56542521D01*
X95271645Y-56911857D01*
X95101658Y-57322241D01*
X95015000Y-57757902D01*
X91250000Y-57757902D01*
X91250000Y-42990000D01*
X111321928Y-42990000D01*
X111334188Y-43114482D01*
X111370498Y-43234180D01*
X111429463Y-43344494D01*
X111508815Y-43441185D01*
X111605506Y-43520537D01*
X111715820Y-43579502D01*
X111835518Y-43615812D01*
X111960000Y-43628072D01*
X112574250Y-43625000D01*
X112733000Y-43466250D01*
X112733000Y-42217000D01*
X111483750Y-42217000D01*
X111325000Y-42375750D01*
X111321928Y-42990000D01*
X91250000Y-42990000D01*
X91250000Y-41190000D01*
X111321928Y-41190000D01*
X111325000Y-41804250D01*
X111483750Y-41963000D01*
X112733000Y-41963000D01*
X112733000Y-40713750D01*
X112574250Y-40555000D01*
X111960000Y-40551928D01*
X111835518Y-40564188D01*
X111715820Y-40600498D01*
X111605506Y-40659463D01*
X111508815Y-40738815D01*
X111429463Y-40835506D01*
X111370498Y-40945820D01*
X111334188Y-41065518D01*
X111321928Y-41190000D01*
X91250000Y-41190000D01*
X91250000Y-38883248D01*
X91349294Y-39069014D01*
X91534866Y-39295134D01*
X91760986Y-39480706D01*
X92018966Y-39618599D01*
X92298889Y-39703513D01*
X92517050Y-39725000D01*
X92662950Y-39725000D01*
X92881111Y-39703513D01*
X93161034Y-39618599D01*
X93419014Y-39480706D01*
X93645134Y-39295134D01*
X93830706Y-39069014D01*
X93968599Y-38811034D01*
X94053513Y-38531111D01*
X94082185Y-38240000D01*
X94053513Y-37948889D01*
X93968599Y-37668966D01*
X93830706Y-37410986D01*
X93645134Y-37184866D01*
X93419014Y-36999294D01*
X93364209Y-36970000D01*
X93419014Y-36940706D01*
X93645134Y-36755134D01*
X93830706Y-36529014D01*
X93968599Y-36271034D01*
X94053513Y-35991111D01*
X94082185Y-35700000D01*
X94053513Y-35408889D01*
X93968599Y-35128966D01*
X93830706Y-34870986D01*
X93645134Y-34644866D01*
X93419014Y-34459294D01*
X93364209Y-34430000D01*
X93419014Y-34400706D01*
X93458985Y-34367902D01*
X108305000Y-34367902D01*
X108305000Y-34812098D01*
X108391658Y-35247759D01*
X108561645Y-35658143D01*
X108808427Y-36027479D01*
X109122521Y-36341573D01*
X109491857Y-36588355D01*
X109902241Y-36758342D01*
X110337902Y-36845000D01*
X110782098Y-36845000D01*
X111217759Y-36758342D01*
X111628143Y-36588355D01*
X111997479Y-36341573D01*
X112311573Y-36027479D01*
X112558355Y-35658143D01*
X112728342Y-35247759D01*
X112815000Y-34812098D01*
X112815000Y-34367902D01*
X117905000Y-34367902D01*
X117905000Y-34812098D01*
X117991658Y-35247759D01*
X118161645Y-35658143D01*
X118408427Y-36027479D01*
X118722521Y-36341573D01*
X119091857Y-36588355D01*
X119502241Y-36758342D01*
X119937902Y-36845000D01*
X120382098Y-36845000D01*
X120817759Y-36758342D01*
X121228143Y-36588355D01*
X121597479Y-36341573D01*
X121911573Y-36027479D01*
X122158355Y-35658143D01*
X122328342Y-35247759D01*
X122415000Y-34812098D01*
X122415000Y-34367902D01*
X122328342Y-33932241D01*
X122158355Y-33521857D01*
X121911573Y-33152521D01*
X121597479Y-32838427D01*
X121228143Y-32591645D01*
X120817759Y-32421658D01*
X120382098Y-32335000D01*
X119937902Y-32335000D01*
X119502241Y-32421658D01*
X119091857Y-32591645D01*
X118722521Y-32838427D01*
X118408427Y-33152521D01*
X118161645Y-33521857D01*
X117991658Y-33932241D01*
X117905000Y-34367902D01*
X112815000Y-34367902D01*
X112728342Y-33932241D01*
X112558355Y-33521857D01*
X112311573Y-33152521D01*
X111997479Y-32838427D01*
X111628143Y-32591645D01*
X111217759Y-32421658D01*
X110782098Y-32335000D01*
X110337902Y-32335000D01*
X109902241Y-32421658D01*
X109491857Y-32591645D01*
X109122521Y-32838427D01*
X108808427Y-33152521D01*
X108561645Y-33521857D01*
X108391658Y-33932241D01*
X108305000Y-34367902D01*
X93458985Y-34367902D01*
X93645134Y-34215134D01*
X93830706Y-33989014D01*
X93968599Y-33731034D01*
X94053513Y-33451111D01*
X94082185Y-33160000D01*
X94053513Y-32868889D01*
X93968599Y-32588966D01*
X93830706Y-32330986D01*
X93645134Y-32104866D01*
X93419014Y-31919294D01*
X93364209Y-31890000D01*
X93419014Y-31860706D01*
X93645134Y-31675134D01*
X93830706Y-31449014D01*
X93968599Y-31191034D01*
X94053513Y-30911111D01*
X94082185Y-30620000D01*
X94053513Y-30328889D01*
X93968599Y-30048966D01*
X93830706Y-29790986D01*
X93645134Y-29564866D01*
X93615313Y-29540393D01*
X93684180Y-29519502D01*
X93794494Y-29460537D01*
X93891185Y-29381185D01*
X93970537Y-29284494D01*
X94029502Y-29174180D01*
X94065812Y-29054482D01*
X94078072Y-28930000D01*
X94078072Y-27230000D01*
X94065812Y-27105518D01*
X94029502Y-26985820D01*
X93970537Y-26875506D01*
X93891185Y-26778815D01*
X93794494Y-26699463D01*
X93776790Y-26690000D01*
X136853210Y-26690000D01*
X136835506Y-26699463D01*
M02*
