G04 #@! TF.GenerationSoftware,KiCad,Pcbnew,(5.1.4-0-10_14)*
G04 #@! TF.CreationDate,2020-11-15T22:02:50-06:00*
G04 #@! TF.ProjectId,CEM3340_VCO,43454d33-3334-4305-9f56-434f2e6b6963,rev?*
G04 #@! TF.SameCoordinates,Original*
G04 #@! TF.FileFunction,Legend,Bot*
G04 #@! TF.FilePolarity,Positive*
%FSLAX46Y46*%
G04 Gerber Fmt 4.6, Leading zero omitted, Abs format (unit mm)*
G04 Created by KiCad (PCBNEW (5.1.4-0-10_14)) date 2020-11-15 22:02:50*
%MOMM*%
%LPD*%
G04 APERTURE LIST*
%ADD10C,0.120000*%
%ADD11C,0.125000*%
G04 APERTURE END LIST*
D10*
X138040000Y-95770000D02*
X139370000Y-95770000D01*
X139370000Y-95770000D02*
X139370000Y-94440000D01*
X139370000Y-93170000D02*
X139370000Y-82950000D01*
X136710000Y-82950000D02*
X139370000Y-82950000D01*
X136710000Y-93170000D02*
X136710000Y-82950000D01*
X136710000Y-93170000D02*
X139370000Y-93170000D01*
X92560000Y-95770000D02*
X93890000Y-95770000D01*
X93890000Y-95770000D02*
X93890000Y-94440000D01*
X93890000Y-93170000D02*
X93890000Y-82950000D01*
X91230000Y-82950000D02*
X93890000Y-82950000D01*
X91230000Y-93170000D02*
X91230000Y-82950000D01*
X91230000Y-93170000D02*
X93890000Y-93170000D01*
X138040000Y-26750000D02*
X136710000Y-26750000D01*
X136710000Y-26750000D02*
X136710000Y-28080000D01*
X136710000Y-29350000D02*
X136710000Y-39570000D01*
X139370000Y-39570000D02*
X136710000Y-39570000D01*
X139370000Y-29350000D02*
X139370000Y-39570000D01*
X139370000Y-29350000D02*
X136710000Y-29350000D01*
X92590000Y-26750000D02*
X91260000Y-26750000D01*
X91260000Y-26750000D02*
X91260000Y-28080000D01*
X91260000Y-29350000D02*
X91260000Y-39570000D01*
X93920000Y-39570000D02*
X91260000Y-39570000D01*
X93920000Y-29350000D02*
X93920000Y-39570000D01*
X93920000Y-29350000D02*
X91260000Y-29350000D01*
D11*
X138575714Y-96705000D02*
X138218571Y-96705000D01*
X138647142Y-96919285D02*
X138397142Y-96169285D01*
X138147142Y-96919285D01*
X137575714Y-96419285D02*
X137575714Y-96919285D01*
X137754285Y-96133571D02*
X137932857Y-96669285D01*
X137468571Y-96669285D01*
X93085714Y-96655000D02*
X92728571Y-96655000D01*
X93157142Y-96869285D02*
X92907142Y-96119285D01*
X92657142Y-96869285D01*
X92478571Y-96119285D02*
X92014285Y-96119285D01*
X92264285Y-96405000D01*
X92157142Y-96405000D01*
X92085714Y-96440714D01*
X92050000Y-96476428D01*
X92014285Y-96547857D01*
X92014285Y-96726428D01*
X92050000Y-96797857D01*
X92085714Y-96833571D01*
X92157142Y-96869285D01*
X92371428Y-96869285D01*
X92442857Y-96833571D01*
X92478571Y-96797857D01*
X138575714Y-40775000D02*
X138218571Y-40775000D01*
X138647142Y-40989285D02*
X138397142Y-40239285D01*
X138147142Y-40989285D01*
X137932857Y-40310714D02*
X137897142Y-40275000D01*
X137825714Y-40239285D01*
X137647142Y-40239285D01*
X137575714Y-40275000D01*
X137540000Y-40310714D01*
X137504285Y-40382142D01*
X137504285Y-40453571D01*
X137540000Y-40560714D01*
X137968571Y-40989285D01*
X137504285Y-40989285D01*
X93125714Y-40755000D02*
X92768571Y-40755000D01*
X93197142Y-40969285D02*
X92947142Y-40219285D01*
X92697142Y-40969285D01*
X92054285Y-40969285D02*
X92482857Y-40969285D01*
X92268571Y-40969285D02*
X92268571Y-40219285D01*
X92340000Y-40326428D01*
X92411428Y-40397857D01*
X92482857Y-40433571D01*
M02*
