G04 #@! TF.GenerationSoftware,KiCad,Pcbnew,(5.1.4-0-10_14)*
G04 #@! TF.CreationDate,2020-11-15T22:02:50-06:00*
G04 #@! TF.ProjectId,CEM3340_VCO,43454d33-3334-4305-9f56-434f2e6b6963,rev?*
G04 #@! TF.SameCoordinates,Original*
G04 #@! TF.FileFunction,Legend,Top*
G04 #@! TF.FilePolarity,Positive*
%FSLAX46Y46*%
G04 Gerber Fmt 4.6, Leading zero omitted, Abs format (unit mm)*
G04 Created by KiCad (PCBNEW (5.1.4-0-10_14)) date 2020-11-15 22:02:50*
%MOMM*%
%LPD*%
G04 APERTURE LIST*
%ADD10C,0.100000*%
%ADD11C,0.120000*%
%ADD12C,0.125000*%
%ADD13C,0.150000*%
G04 APERTURE END LIST*
D10*
X132115000Y-64420000D02*
X131765000Y-64420000D01*
X132115000Y-64045000D02*
X132115000Y-64420000D01*
X132115000Y-51520000D02*
X132115000Y-51920000D01*
X132115000Y-51520000D02*
X131740000Y-51520000D01*
X125065000Y-51520000D02*
X125490000Y-51520000D01*
X125065000Y-51520000D02*
X125065000Y-51970000D01*
X125065000Y-64395000D02*
X125065000Y-63945000D01*
X125065000Y-64420000D02*
X125490000Y-64420000D01*
D11*
X117020000Y-41210000D02*
X116190000Y-41210000D01*
X114570000Y-41210000D02*
X114040000Y-41210000D01*
X111670000Y-41210000D02*
X110490000Y-41210000D01*
X120230000Y-41210000D02*
X120230000Y-36490000D01*
X110490000Y-32680000D02*
X110490000Y-29620000D01*
X110480000Y-41210000D02*
X110480000Y-36490000D01*
X120230000Y-32680000D02*
X120230000Y-29620000D01*
X120230000Y-41210000D02*
X118740000Y-41210000D01*
X120230000Y-29620000D02*
X110490000Y-29620000D01*
X132460000Y-97530000D02*
X133320000Y-97530000D01*
X132460000Y-97530000D02*
X132460000Y-98330000D01*
X135320000Y-105010000D02*
G75*
G03X135320000Y-105010000I-1800000J0D01*
G01*
X133170000Y-100510000D02*
X129020000Y-100510000D01*
X138020000Y-100510000D02*
X133870000Y-100510000D01*
X133020000Y-111010000D02*
X129020000Y-111010000D01*
X138020000Y-111010000D02*
X134020000Y-111010000D01*
X138020000Y-100510000D02*
X138020000Y-111010000D01*
X129020000Y-100510000D02*
X129020000Y-111010000D01*
X120340000Y-97530000D02*
X121200000Y-97530000D01*
X120340000Y-97530000D02*
X120340000Y-98330000D01*
X123200000Y-105010000D02*
G75*
G03X123200000Y-105010000I-1800000J0D01*
G01*
X121050000Y-100510000D02*
X116900000Y-100510000D01*
X125900000Y-100510000D02*
X121750000Y-100510000D01*
X120900000Y-111010000D02*
X116900000Y-111010000D01*
X125900000Y-111010000D02*
X121900000Y-111010000D01*
X125900000Y-100510000D02*
X125900000Y-111010000D01*
X116900000Y-100510000D02*
X116900000Y-111010000D01*
X96100000Y-97530000D02*
X96960000Y-97530000D01*
X96100000Y-97530000D02*
X96100000Y-98330000D01*
X98960000Y-105010000D02*
G75*
G03X98960000Y-105010000I-1800000J0D01*
G01*
X96810000Y-100510000D02*
X92660000Y-100510000D01*
X101660000Y-100510000D02*
X97510000Y-100510000D01*
X96660000Y-111010000D02*
X92660000Y-111010000D01*
X101660000Y-111010000D02*
X97660000Y-111010000D01*
X101660000Y-100510000D02*
X101660000Y-111010000D01*
X92660000Y-100510000D02*
X92660000Y-111010000D01*
X96100000Y-117850000D02*
X96960000Y-117850000D01*
X96100000Y-117850000D02*
X96100000Y-118650000D01*
X98960000Y-125330000D02*
G75*
G03X98960000Y-125330000I-1800000J0D01*
G01*
X96810000Y-120830000D02*
X92660000Y-120830000D01*
X101660000Y-120830000D02*
X97510000Y-120830000D01*
X96660000Y-131330000D02*
X92660000Y-131330000D01*
X101660000Y-131330000D02*
X97660000Y-131330000D01*
X101660000Y-120830000D02*
X101660000Y-131330000D01*
X92660000Y-120830000D02*
X92660000Y-131330000D01*
X108220000Y-117850000D02*
X109080000Y-117850000D01*
X108220000Y-117850000D02*
X108220000Y-118650000D01*
X111080000Y-125330000D02*
G75*
G03X111080000Y-125330000I-1800000J0D01*
G01*
X108930000Y-120830000D02*
X104780000Y-120830000D01*
X113780000Y-120830000D02*
X109630000Y-120830000D01*
X108780000Y-131330000D02*
X104780000Y-131330000D01*
X113780000Y-131330000D02*
X109780000Y-131330000D01*
X113780000Y-120830000D02*
X113780000Y-131330000D01*
X104780000Y-120830000D02*
X104780000Y-131330000D01*
X132460000Y-117850000D02*
X133320000Y-117850000D01*
X132460000Y-117850000D02*
X132460000Y-118650000D01*
X135320000Y-125330000D02*
G75*
G03X135320000Y-125330000I-1800000J0D01*
G01*
X133170000Y-120830000D02*
X129020000Y-120830000D01*
X138020000Y-120830000D02*
X133870000Y-120830000D01*
X133020000Y-131330000D02*
X129020000Y-131330000D01*
X138020000Y-131330000D02*
X134020000Y-131330000D01*
X138020000Y-120830000D02*
X138020000Y-131330000D01*
X129020000Y-120830000D02*
X129020000Y-131330000D01*
X120340000Y-117850000D02*
X121200000Y-117850000D01*
X120340000Y-117850000D02*
X120340000Y-118650000D01*
X123200000Y-125330000D02*
G75*
G03X123200000Y-125330000I-1800000J0D01*
G01*
X121050000Y-120830000D02*
X116900000Y-120830000D01*
X125900000Y-120830000D02*
X121750000Y-120830000D01*
X120900000Y-131330000D02*
X116900000Y-131330000D01*
X125900000Y-131330000D02*
X121900000Y-131330000D01*
X125900000Y-120830000D02*
X125900000Y-131330000D01*
X116900000Y-120830000D02*
X116900000Y-131330000D01*
X123420000Y-66815000D02*
X123420000Y-66149000D01*
X123420000Y-69591000D02*
X123420000Y-68925000D01*
X128760000Y-66815000D02*
X128760000Y-66149000D01*
X128760000Y-69591000D02*
X128760000Y-68925000D01*
X128760000Y-66149000D02*
X123420000Y-66149000D01*
X128760000Y-69591000D02*
X123420000Y-69591000D01*
X123420000Y-71745000D02*
X123420000Y-71079000D01*
X123420000Y-74521000D02*
X123420000Y-73855000D01*
X128760000Y-71745000D02*
X128760000Y-71079000D01*
X128760000Y-74521000D02*
X128760000Y-73855000D01*
X128760000Y-71079000D02*
X123420000Y-71079000D01*
X128760000Y-74521000D02*
X123420000Y-74521000D01*
X130240000Y-90020000D02*
X129410000Y-90020000D01*
X127790000Y-90020000D02*
X127260000Y-90020000D01*
X124890000Y-90020000D02*
X123710000Y-90020000D01*
X133450000Y-90020000D02*
X133450000Y-85300000D01*
X123710000Y-81490000D02*
X123710000Y-78430000D01*
X123700000Y-90020000D02*
X123700000Y-85300000D01*
X133450000Y-81490000D02*
X133450000Y-78430000D01*
X133450000Y-90020000D02*
X131960000Y-90020000D01*
X133450000Y-78430000D02*
X123710000Y-78430000D01*
X103730000Y-90010000D02*
X102900000Y-90010000D01*
X101280000Y-90010000D02*
X100750000Y-90010000D01*
X98380000Y-90010000D02*
X97200000Y-90010000D01*
X106940000Y-90010000D02*
X106940000Y-85290000D01*
X97200000Y-81480000D02*
X97200000Y-78420000D01*
X97190000Y-90010000D02*
X97190000Y-85290000D01*
X106940000Y-81480000D02*
X106940000Y-78420000D01*
X106940000Y-90010000D02*
X105450000Y-90010000D01*
X106940000Y-78420000D02*
X97200000Y-78420000D01*
X119590000Y-70193332D02*
X119590000Y-69863332D01*
X113050000Y-70193332D02*
X119590000Y-70193332D01*
X113050000Y-69863332D02*
X113050000Y-70193332D01*
X119590000Y-67453332D02*
X119590000Y-67783332D01*
X113050000Y-67453332D02*
X119590000Y-67453332D01*
X113050000Y-67783332D02*
X113050000Y-67453332D01*
X119590000Y-66554999D02*
X119590000Y-66224999D01*
X113050000Y-66554999D02*
X119590000Y-66554999D01*
X113050000Y-66224999D02*
X113050000Y-66554999D01*
X119590000Y-63814999D02*
X119590000Y-64144999D01*
X113050000Y-63814999D02*
X119590000Y-63814999D01*
X113050000Y-64144999D02*
X113050000Y-63814999D01*
X113050000Y-71091665D02*
X113050000Y-71421665D01*
X119590000Y-71091665D02*
X113050000Y-71091665D01*
X119590000Y-71421665D02*
X119590000Y-71091665D01*
X113050000Y-73831665D02*
X113050000Y-73501665D01*
X119590000Y-73831665D02*
X113050000Y-73831665D01*
X119590000Y-73501665D02*
X119590000Y-73831665D01*
X112556666Y-116940000D02*
X112556666Y-116610000D01*
X106016666Y-116940000D02*
X112556666Y-116940000D01*
X106016666Y-116610000D02*
X106016666Y-116940000D01*
X112556666Y-114200000D02*
X112556666Y-114530000D01*
X106016666Y-114200000D02*
X112556666Y-114200000D01*
X106016666Y-114530000D02*
X106016666Y-114200000D01*
X136810000Y-116940000D02*
X136810000Y-116610000D01*
X130270000Y-116940000D02*
X136810000Y-116940000D01*
X130270000Y-116610000D02*
X130270000Y-116940000D01*
X136810000Y-114200000D02*
X136810000Y-114530000D01*
X130270000Y-114200000D02*
X136810000Y-114200000D01*
X130270000Y-114530000D02*
X130270000Y-114200000D01*
X108220000Y-97530000D02*
X109080000Y-97530000D01*
X108220000Y-97530000D02*
X108220000Y-98330000D01*
X111080000Y-105010000D02*
G75*
G03X111080000Y-105010000I-1800000J0D01*
G01*
X108930000Y-100510000D02*
X104780000Y-100510000D01*
X113780000Y-100510000D02*
X109630000Y-100510000D01*
X108780000Y-111010000D02*
X104780000Y-111010000D01*
X113780000Y-111010000D02*
X109780000Y-111010000D01*
X113780000Y-100510000D02*
X113780000Y-111010000D01*
X104780000Y-100510000D02*
X104780000Y-111010000D01*
X119590000Y-77470000D02*
X119590000Y-77140000D01*
X113050000Y-77470000D02*
X119590000Y-77470000D01*
X113050000Y-77140000D02*
X113050000Y-77470000D01*
X119590000Y-74730000D02*
X119590000Y-75060000D01*
X113050000Y-74730000D02*
X119590000Y-74730000D01*
X113050000Y-75060000D02*
X113050000Y-74730000D01*
X108740000Y-96700000D02*
X108740000Y-96370000D01*
X102200000Y-96700000D02*
X108740000Y-96700000D01*
X102200000Y-96370000D02*
X102200000Y-96700000D01*
X108740000Y-93960000D02*
X108740000Y-94290000D01*
X102200000Y-93960000D02*
X108740000Y-93960000D01*
X102200000Y-94290000D02*
X102200000Y-93960000D01*
X113050000Y-60176666D02*
X113050000Y-60506666D01*
X119590000Y-60176666D02*
X113050000Y-60176666D01*
X119590000Y-60506666D02*
X119590000Y-60176666D01*
X113050000Y-62916666D02*
X113050000Y-62586666D01*
X119590000Y-62916666D02*
X113050000Y-62916666D01*
X119590000Y-62586666D02*
X119590000Y-62916666D01*
X113050000Y-52900000D02*
X113050000Y-53230000D01*
X119590000Y-52900000D02*
X113050000Y-52900000D01*
X119590000Y-53230000D02*
X119590000Y-52900000D01*
X113050000Y-55640000D02*
X113050000Y-55310000D01*
X119590000Y-55640000D02*
X113050000Y-55640000D01*
X119590000Y-55310000D02*
X119590000Y-55640000D01*
X113050000Y-56538333D02*
X113050000Y-56868333D01*
X119590000Y-56538333D02*
X113050000Y-56538333D01*
X119590000Y-56868333D02*
X119590000Y-56538333D01*
X113050000Y-59278333D02*
X113050000Y-58948333D01*
X119590000Y-59278333D02*
X113050000Y-59278333D01*
X119590000Y-58948333D02*
X119590000Y-59278333D01*
X100430000Y-116940000D02*
X100430000Y-116610000D01*
X93890000Y-116940000D02*
X100430000Y-116940000D01*
X93890000Y-116610000D02*
X93890000Y-116940000D01*
X100430000Y-114200000D02*
X100430000Y-114530000D01*
X93890000Y-114200000D02*
X100430000Y-114200000D01*
X93890000Y-114530000D02*
X93890000Y-114200000D01*
X124683332Y-116940000D02*
X124683332Y-116610000D01*
X118143332Y-116940000D02*
X124683332Y-116940000D01*
X118143332Y-116610000D02*
X118143332Y-116940000D01*
X124683332Y-114200000D02*
X124683332Y-114530000D01*
X118143332Y-114200000D02*
X124683332Y-114200000D01*
X118143332Y-114530000D02*
X118143332Y-114200000D01*
X103730000Y-64600000D02*
X102900000Y-64600000D01*
X101280000Y-64600000D02*
X100750000Y-64600000D01*
X98380000Y-64600000D02*
X97200000Y-64600000D01*
X106940000Y-64600000D02*
X106940000Y-59880000D01*
X97200000Y-56070000D02*
X97200000Y-53010000D01*
X97190000Y-64600000D02*
X97190000Y-59880000D01*
X106940000Y-56070000D02*
X106940000Y-53010000D01*
X106940000Y-64600000D02*
X105450000Y-64600000D01*
X106940000Y-53010000D02*
X97200000Y-53010000D01*
D12*
X127630000Y-65563571D02*
X127737142Y-65599285D01*
X127915714Y-65599285D01*
X127987142Y-65563571D01*
X128022857Y-65527857D01*
X128058571Y-65456428D01*
X128058571Y-65385000D01*
X128022857Y-65313571D01*
X127987142Y-65277857D01*
X127915714Y-65242142D01*
X127772857Y-65206428D01*
X127701428Y-65170714D01*
X127665714Y-65135000D01*
X127630000Y-65063571D01*
X127630000Y-64992142D01*
X127665714Y-64920714D01*
X127701428Y-64885000D01*
X127772857Y-64849285D01*
X127951428Y-64849285D01*
X128058571Y-64885000D01*
X128308571Y-64849285D02*
X128487142Y-65599285D01*
X128630000Y-65063571D01*
X128772857Y-65599285D01*
X128951428Y-64849285D01*
X129630000Y-65599285D02*
X129201428Y-65599285D01*
X129415714Y-65599285D02*
X129415714Y-64849285D01*
X129344285Y-64956428D01*
X129272857Y-65027857D01*
X129201428Y-65063571D01*
X133303571Y-60401428D02*
X133339285Y-60294285D01*
X133339285Y-60115714D01*
X133303571Y-60044285D01*
X133267857Y-60008571D01*
X133196428Y-59972857D01*
X133125000Y-59972857D01*
X133053571Y-60008571D01*
X133017857Y-60044285D01*
X132982142Y-60115714D01*
X132946428Y-60258571D01*
X132910714Y-60330000D01*
X132875000Y-60365714D01*
X132803571Y-60401428D01*
X132732142Y-60401428D01*
X132660714Y-60365714D01*
X132625000Y-60330000D01*
X132589285Y-60258571D01*
X132589285Y-60080000D01*
X132625000Y-59972857D01*
X132589285Y-59722857D02*
X133339285Y-59544285D01*
X132803571Y-59401428D01*
X133339285Y-59258571D01*
X132589285Y-59080000D01*
X133410714Y-58972857D02*
X133410714Y-58401428D01*
X133303571Y-58258571D02*
X133339285Y-58151428D01*
X133339285Y-57972857D01*
X133303571Y-57901428D01*
X133267857Y-57865714D01*
X133196428Y-57830000D01*
X133125000Y-57830000D01*
X133053571Y-57865714D01*
X133017857Y-57901428D01*
X132982142Y-57972857D01*
X132946428Y-58115714D01*
X132910714Y-58187142D01*
X132875000Y-58222857D01*
X132803571Y-58258571D01*
X132732142Y-58258571D01*
X132660714Y-58222857D01*
X132625000Y-58187142D01*
X132589285Y-58115714D01*
X132589285Y-57937142D01*
X132625000Y-57830000D01*
X133339285Y-57508571D02*
X132589285Y-57508571D01*
X132589285Y-57222857D01*
X132625000Y-57151428D01*
X132660714Y-57115714D01*
X132732142Y-57080000D01*
X132839285Y-57080000D01*
X132910714Y-57115714D01*
X132946428Y-57151428D01*
X132982142Y-57222857D01*
X132982142Y-57508571D01*
X133339285Y-56758571D02*
X132589285Y-56758571D01*
X132589285Y-56580000D01*
X132625000Y-56472857D01*
X132696428Y-56401428D01*
X132767857Y-56365714D01*
X132910714Y-56330000D01*
X133017857Y-56330000D01*
X133160714Y-56365714D01*
X133232142Y-56401428D01*
X133303571Y-56472857D01*
X133339285Y-56580000D01*
X133339285Y-56758571D01*
X132589285Y-56115714D02*
X132589285Y-55687142D01*
X133339285Y-55901428D02*
X132589285Y-55901428D01*
X128893571Y-58970000D02*
X128929285Y-58862857D01*
X128929285Y-58684285D01*
X128893571Y-58612857D01*
X128857857Y-58577142D01*
X128786428Y-58541428D01*
X128715000Y-58541428D01*
X128643571Y-58577142D01*
X128607857Y-58612857D01*
X128572142Y-58684285D01*
X128536428Y-58827142D01*
X128500714Y-58898571D01*
X128465000Y-58934285D01*
X128393571Y-58970000D01*
X128322142Y-58970000D01*
X128250714Y-58934285D01*
X128215000Y-58898571D01*
X128179285Y-58827142D01*
X128179285Y-58648571D01*
X128215000Y-58541428D01*
X128179285Y-58291428D02*
X128929285Y-58112857D01*
X128393571Y-57970000D01*
X128929285Y-57827142D01*
X128179285Y-57648571D01*
X128929285Y-56970000D02*
X128929285Y-57398571D01*
X128929285Y-57184285D02*
X128179285Y-57184285D01*
X128286428Y-57255714D01*
X128357857Y-57327142D01*
X128393571Y-57398571D01*
X115729285Y-35076428D02*
X115372142Y-35326428D01*
X115729285Y-35505000D02*
X114979285Y-35505000D01*
X114979285Y-35219285D01*
X115015000Y-35147857D01*
X115050714Y-35112142D01*
X115122142Y-35076428D01*
X115229285Y-35076428D01*
X115300714Y-35112142D01*
X115336428Y-35147857D01*
X115372142Y-35219285D01*
X115372142Y-35505000D01*
X114979285Y-34862142D02*
X115729285Y-34612142D01*
X114979285Y-34362142D01*
X114979285Y-33755000D02*
X114979285Y-34112142D01*
X115336428Y-34147857D01*
X115300714Y-34112142D01*
X115265000Y-34040714D01*
X115265000Y-33862142D01*
X115300714Y-33790714D01*
X115336428Y-33755000D01*
X115407857Y-33719285D01*
X115586428Y-33719285D01*
X115657857Y-33755000D01*
X115693571Y-33790714D01*
X115729285Y-33862142D01*
X115729285Y-34040714D01*
X115693571Y-34112142D01*
X115657857Y-34147857D01*
X122916428Y-43125714D02*
X122952142Y-43018571D01*
X122987857Y-42982857D01*
X123059285Y-42947142D01*
X123166428Y-42947142D01*
X123237857Y-42982857D01*
X123273571Y-43018571D01*
X123309285Y-43090000D01*
X123309285Y-43375714D01*
X122559285Y-43375714D01*
X122559285Y-43125714D01*
X122595000Y-43054285D01*
X122630714Y-43018571D01*
X122702142Y-42982857D01*
X122773571Y-42982857D01*
X122845000Y-43018571D01*
X122880714Y-43054285D01*
X122916428Y-43125714D01*
X122916428Y-43375714D01*
X123309285Y-42232857D02*
X123309285Y-42661428D01*
X123309285Y-42447142D02*
X122559285Y-42447142D01*
X122666428Y-42518571D01*
X122737857Y-42590000D01*
X122773571Y-42661428D01*
X122559285Y-41768571D02*
X122559285Y-41697142D01*
X122595000Y-41625714D01*
X122630714Y-41590000D01*
X122702142Y-41554285D01*
X122845000Y-41518571D01*
X123023571Y-41518571D01*
X123166428Y-41554285D01*
X123237857Y-41590000D01*
X123273571Y-41625714D01*
X123309285Y-41697142D01*
X123309285Y-41768571D01*
X123273571Y-41840000D01*
X123237857Y-41875714D01*
X123166428Y-41911428D01*
X123023571Y-41947142D01*
X122845000Y-41947142D01*
X122702142Y-41911428D01*
X122630714Y-41875714D01*
X122595000Y-41840000D01*
X122559285Y-41768571D01*
X123309285Y-41197142D02*
X122559285Y-41197142D01*
X123309285Y-40768571D02*
X122880714Y-41090000D01*
X122559285Y-40768571D02*
X122987857Y-41197142D01*
D13*
X129156666Y-99062380D02*
X129156666Y-99776666D01*
X129109047Y-99919523D01*
X129013809Y-100014761D01*
X128870952Y-100062380D01*
X128775714Y-100062380D01*
X129537619Y-99062380D02*
X130204285Y-99062380D01*
X129775714Y-100062380D01*
X117036666Y-99062380D02*
X117036666Y-99776666D01*
X116989047Y-99919523D01*
X116893809Y-100014761D01*
X116750952Y-100062380D01*
X116655714Y-100062380D01*
X117941428Y-99062380D02*
X117750952Y-99062380D01*
X117655714Y-99110000D01*
X117608095Y-99157619D01*
X117512857Y-99300476D01*
X117465238Y-99490952D01*
X117465238Y-99871904D01*
X117512857Y-99967142D01*
X117560476Y-100014761D01*
X117655714Y-100062380D01*
X117846190Y-100062380D01*
X117941428Y-100014761D01*
X117989047Y-99967142D01*
X118036666Y-99871904D01*
X118036666Y-99633809D01*
X117989047Y-99538571D01*
X117941428Y-99490952D01*
X117846190Y-99443333D01*
X117655714Y-99443333D01*
X117560476Y-99490952D01*
X117512857Y-99538571D01*
X117465238Y-99633809D01*
X92796666Y-99062380D02*
X92796666Y-99776666D01*
X92749047Y-99919523D01*
X92653809Y-100014761D01*
X92510952Y-100062380D01*
X92415714Y-100062380D01*
X93749047Y-99062380D02*
X93272857Y-99062380D01*
X93225238Y-99538571D01*
X93272857Y-99490952D01*
X93368095Y-99443333D01*
X93606190Y-99443333D01*
X93701428Y-99490952D01*
X93749047Y-99538571D01*
X93796666Y-99633809D01*
X93796666Y-99871904D01*
X93749047Y-99967142D01*
X93701428Y-100014761D01*
X93606190Y-100062380D01*
X93368095Y-100062380D01*
X93272857Y-100014761D01*
X93225238Y-99967142D01*
X92796666Y-119382380D02*
X92796666Y-120096666D01*
X92749047Y-120239523D01*
X92653809Y-120334761D01*
X92510952Y-120382380D01*
X92415714Y-120382380D01*
X93701428Y-119715714D02*
X93701428Y-120382380D01*
X93463333Y-119334761D02*
X93225238Y-120049047D01*
X93844285Y-120049047D01*
X104916666Y-119382380D02*
X104916666Y-120096666D01*
X104869047Y-120239523D01*
X104773809Y-120334761D01*
X104630952Y-120382380D01*
X104535714Y-120382380D01*
X105297619Y-119382380D02*
X105916666Y-119382380D01*
X105583333Y-119763333D01*
X105726190Y-119763333D01*
X105821428Y-119810952D01*
X105869047Y-119858571D01*
X105916666Y-119953809D01*
X105916666Y-120191904D01*
X105869047Y-120287142D01*
X105821428Y-120334761D01*
X105726190Y-120382380D01*
X105440476Y-120382380D01*
X105345238Y-120334761D01*
X105297619Y-120287142D01*
X129156666Y-119382380D02*
X129156666Y-120096666D01*
X129109047Y-120239523D01*
X129013809Y-120334761D01*
X128870952Y-120382380D01*
X128775714Y-120382380D01*
X129585238Y-119477619D02*
X129632857Y-119430000D01*
X129728095Y-119382380D01*
X129966190Y-119382380D01*
X130061428Y-119430000D01*
X130109047Y-119477619D01*
X130156666Y-119572857D01*
X130156666Y-119668095D01*
X130109047Y-119810952D01*
X129537619Y-120382380D01*
X130156666Y-120382380D01*
X117036666Y-119382380D02*
X117036666Y-120096666D01*
X116989047Y-120239523D01*
X116893809Y-120334761D01*
X116750952Y-120382380D01*
X116655714Y-120382380D01*
X118036666Y-120382380D02*
X117465238Y-120382380D01*
X117750952Y-120382380D02*
X117750952Y-119382380D01*
X117655714Y-119525238D01*
X117560476Y-119620476D01*
X117465238Y-119668095D01*
D12*
X125965000Y-67117857D02*
X125929285Y-67153571D01*
X125822142Y-67189285D01*
X125750714Y-67189285D01*
X125643571Y-67153571D01*
X125572142Y-67082142D01*
X125536428Y-67010714D01*
X125500714Y-66867857D01*
X125500714Y-66760714D01*
X125536428Y-66617857D01*
X125572142Y-66546428D01*
X125643571Y-66475000D01*
X125750714Y-66439285D01*
X125822142Y-66439285D01*
X125929285Y-66475000D01*
X125965000Y-66510714D01*
X126393571Y-66760714D02*
X126322142Y-66725000D01*
X126286428Y-66689285D01*
X126250714Y-66617857D01*
X126250714Y-66582142D01*
X126286428Y-66510714D01*
X126322142Y-66475000D01*
X126393571Y-66439285D01*
X126536428Y-66439285D01*
X126607857Y-66475000D01*
X126643571Y-66510714D01*
X126679285Y-66582142D01*
X126679285Y-66617857D01*
X126643571Y-66689285D01*
X126607857Y-66725000D01*
X126536428Y-66760714D01*
X126393571Y-66760714D01*
X126322142Y-66796428D01*
X126286428Y-66832142D01*
X126250714Y-66903571D01*
X126250714Y-67046428D01*
X126286428Y-67117857D01*
X126322142Y-67153571D01*
X126393571Y-67189285D01*
X126536428Y-67189285D01*
X126607857Y-67153571D01*
X126643571Y-67117857D01*
X126679285Y-67046428D01*
X126679285Y-66903571D01*
X126643571Y-66832142D01*
X126607857Y-66796428D01*
X126536428Y-66760714D01*
X125346428Y-69309285D02*
X124917857Y-69309285D01*
X125132142Y-69309285D02*
X125132142Y-68559285D01*
X125060714Y-68666428D01*
X124989285Y-68737857D01*
X124917857Y-68773571D01*
X125810714Y-68559285D02*
X125882142Y-68559285D01*
X125953571Y-68595000D01*
X125989285Y-68630714D01*
X126025000Y-68702142D01*
X126060714Y-68845000D01*
X126060714Y-69023571D01*
X126025000Y-69166428D01*
X125989285Y-69237857D01*
X125953571Y-69273571D01*
X125882142Y-69309285D01*
X125810714Y-69309285D01*
X125739285Y-69273571D01*
X125703571Y-69237857D01*
X125667857Y-69166428D01*
X125632142Y-69023571D01*
X125632142Y-68845000D01*
X125667857Y-68702142D01*
X125703571Y-68630714D01*
X125739285Y-68595000D01*
X125810714Y-68559285D01*
X126382142Y-68809285D02*
X126382142Y-69309285D01*
X126382142Y-68880714D02*
X126417857Y-68845000D01*
X126489285Y-68809285D01*
X126596428Y-68809285D01*
X126667857Y-68845000D01*
X126703571Y-68916428D01*
X126703571Y-69309285D01*
X127310714Y-68916428D02*
X127060714Y-68916428D01*
X127060714Y-69309285D02*
X127060714Y-68559285D01*
X127417857Y-68559285D01*
X125965000Y-72057857D02*
X125929285Y-72093571D01*
X125822142Y-72129285D01*
X125750714Y-72129285D01*
X125643571Y-72093571D01*
X125572142Y-72022142D01*
X125536428Y-71950714D01*
X125500714Y-71807857D01*
X125500714Y-71700714D01*
X125536428Y-71557857D01*
X125572142Y-71486428D01*
X125643571Y-71415000D01*
X125750714Y-71379285D01*
X125822142Y-71379285D01*
X125929285Y-71415000D01*
X125965000Y-71450714D01*
X126215000Y-71379285D02*
X126715000Y-71379285D01*
X126393571Y-72129285D01*
X125286428Y-74169285D02*
X124857857Y-74169285D01*
X125072142Y-74169285D02*
X125072142Y-73419285D01*
X125000714Y-73526428D01*
X124929285Y-73597857D01*
X124857857Y-73633571D01*
X125750714Y-73419285D02*
X125822142Y-73419285D01*
X125893571Y-73455000D01*
X125929285Y-73490714D01*
X125965000Y-73562142D01*
X126000714Y-73705000D01*
X126000714Y-73883571D01*
X125965000Y-74026428D01*
X125929285Y-74097857D01*
X125893571Y-74133571D01*
X125822142Y-74169285D01*
X125750714Y-74169285D01*
X125679285Y-74133571D01*
X125643571Y-74097857D01*
X125607857Y-74026428D01*
X125572142Y-73883571D01*
X125572142Y-73705000D01*
X125607857Y-73562142D01*
X125643571Y-73490714D01*
X125679285Y-73455000D01*
X125750714Y-73419285D01*
X126322142Y-73669285D02*
X126322142Y-74169285D01*
X126322142Y-73740714D02*
X126357857Y-73705000D01*
X126429285Y-73669285D01*
X126536428Y-73669285D01*
X126607857Y-73705000D01*
X126643571Y-73776428D01*
X126643571Y-74169285D01*
X127250714Y-73776428D02*
X127000714Y-73776428D01*
X127000714Y-74169285D02*
X127000714Y-73419285D01*
X127357857Y-73419285D01*
X128949285Y-83856428D02*
X128592142Y-84106428D01*
X128949285Y-84285000D02*
X128199285Y-84285000D01*
X128199285Y-83999285D01*
X128235000Y-83927857D01*
X128270714Y-83892142D01*
X128342142Y-83856428D01*
X128449285Y-83856428D01*
X128520714Y-83892142D01*
X128556428Y-83927857D01*
X128592142Y-83999285D01*
X128592142Y-84285000D01*
X128199285Y-83642142D02*
X128949285Y-83392142D01*
X128199285Y-83142142D01*
X128949285Y-82856428D02*
X128949285Y-82713571D01*
X128913571Y-82642142D01*
X128877857Y-82606428D01*
X128770714Y-82535000D01*
X128627857Y-82499285D01*
X128342142Y-82499285D01*
X128270714Y-82535000D01*
X128235000Y-82570714D01*
X128199285Y-82642142D01*
X128199285Y-82785000D01*
X128235000Y-82856428D01*
X128270714Y-82892142D01*
X128342142Y-82927857D01*
X128520714Y-82927857D01*
X128592142Y-82892142D01*
X128627857Y-82856428D01*
X128663571Y-82785000D01*
X128663571Y-82642142D01*
X128627857Y-82570714D01*
X128592142Y-82535000D01*
X128520714Y-82499285D01*
X134396428Y-91102857D02*
X134432142Y-90995714D01*
X134467857Y-90960000D01*
X134539285Y-90924285D01*
X134646428Y-90924285D01*
X134717857Y-90960000D01*
X134753571Y-90995714D01*
X134789285Y-91067142D01*
X134789285Y-91352857D01*
X134039285Y-91352857D01*
X134039285Y-91102857D01*
X134075000Y-91031428D01*
X134110714Y-90995714D01*
X134182142Y-90960000D01*
X134253571Y-90960000D01*
X134325000Y-90995714D01*
X134360714Y-91031428D01*
X134396428Y-91102857D01*
X134396428Y-91352857D01*
X134789285Y-90210000D02*
X134789285Y-90638571D01*
X134789285Y-90424285D02*
X134039285Y-90424285D01*
X134146428Y-90495714D01*
X134217857Y-90567142D01*
X134253571Y-90638571D01*
X134039285Y-89745714D02*
X134039285Y-89674285D01*
X134075000Y-89602857D01*
X134110714Y-89567142D01*
X134182142Y-89531428D01*
X134325000Y-89495714D01*
X134503571Y-89495714D01*
X134646428Y-89531428D01*
X134717857Y-89567142D01*
X134753571Y-89602857D01*
X134789285Y-89674285D01*
X134789285Y-89745714D01*
X134753571Y-89817142D01*
X134717857Y-89852857D01*
X134646428Y-89888571D01*
X134503571Y-89924285D01*
X134325000Y-89924285D01*
X134182142Y-89888571D01*
X134110714Y-89852857D01*
X134075000Y-89817142D01*
X134039285Y-89745714D01*
X134039285Y-89031428D02*
X134039285Y-88960000D01*
X134075000Y-88888571D01*
X134110714Y-88852857D01*
X134182142Y-88817142D01*
X134325000Y-88781428D01*
X134503571Y-88781428D01*
X134646428Y-88817142D01*
X134717857Y-88852857D01*
X134753571Y-88888571D01*
X134789285Y-88960000D01*
X134789285Y-89031428D01*
X134753571Y-89102857D01*
X134717857Y-89138571D01*
X134646428Y-89174285D01*
X134503571Y-89210000D01*
X134325000Y-89210000D01*
X134182142Y-89174285D01*
X134110714Y-89138571D01*
X134075000Y-89102857D01*
X134039285Y-89031428D01*
X134789285Y-88460000D02*
X134039285Y-88460000D01*
X134789285Y-88031428D02*
X134360714Y-88352857D01*
X134039285Y-88031428D02*
X134467857Y-88460000D01*
X102399285Y-83816428D02*
X102042142Y-84066428D01*
X102399285Y-84245000D02*
X101649285Y-84245000D01*
X101649285Y-83959285D01*
X101685000Y-83887857D01*
X101720714Y-83852142D01*
X101792142Y-83816428D01*
X101899285Y-83816428D01*
X101970714Y-83852142D01*
X102006428Y-83887857D01*
X102042142Y-83959285D01*
X102042142Y-84245000D01*
X101649285Y-83602142D02*
X102399285Y-83352142D01*
X101649285Y-83102142D01*
X101649285Y-82923571D02*
X101649285Y-82423571D01*
X102399285Y-82745000D01*
X107786428Y-91132857D02*
X107822142Y-91025714D01*
X107857857Y-90990000D01*
X107929285Y-90954285D01*
X108036428Y-90954285D01*
X108107857Y-90990000D01*
X108143571Y-91025714D01*
X108179285Y-91097142D01*
X108179285Y-91382857D01*
X107429285Y-91382857D01*
X107429285Y-91132857D01*
X107465000Y-91061428D01*
X107500714Y-91025714D01*
X107572142Y-90990000D01*
X107643571Y-90990000D01*
X107715000Y-91025714D01*
X107750714Y-91061428D01*
X107786428Y-91132857D01*
X107786428Y-91382857D01*
X108179285Y-90240000D02*
X108179285Y-90668571D01*
X108179285Y-90454285D02*
X107429285Y-90454285D01*
X107536428Y-90525714D01*
X107607857Y-90597142D01*
X107643571Y-90668571D01*
X107429285Y-89775714D02*
X107429285Y-89704285D01*
X107465000Y-89632857D01*
X107500714Y-89597142D01*
X107572142Y-89561428D01*
X107715000Y-89525714D01*
X107893571Y-89525714D01*
X108036428Y-89561428D01*
X108107857Y-89597142D01*
X108143571Y-89632857D01*
X108179285Y-89704285D01*
X108179285Y-89775714D01*
X108143571Y-89847142D01*
X108107857Y-89882857D01*
X108036428Y-89918571D01*
X107893571Y-89954285D01*
X107715000Y-89954285D01*
X107572142Y-89918571D01*
X107500714Y-89882857D01*
X107465000Y-89847142D01*
X107429285Y-89775714D01*
X107429285Y-89061428D02*
X107429285Y-88990000D01*
X107465000Y-88918571D01*
X107500714Y-88882857D01*
X107572142Y-88847142D01*
X107715000Y-88811428D01*
X107893571Y-88811428D01*
X108036428Y-88847142D01*
X108107857Y-88882857D01*
X108143571Y-88918571D01*
X108179285Y-88990000D01*
X108179285Y-89061428D01*
X108143571Y-89132857D01*
X108107857Y-89168571D01*
X108036428Y-89204285D01*
X107893571Y-89240000D01*
X107715000Y-89240000D01*
X107572142Y-89204285D01*
X107500714Y-89168571D01*
X107465000Y-89132857D01*
X107429285Y-89061428D01*
X108179285Y-88490000D02*
X107429285Y-88490000D01*
X108179285Y-88061428D02*
X107750714Y-88382857D01*
X107429285Y-88061428D02*
X107857857Y-88490000D01*
X114137857Y-69149285D02*
X113887857Y-68792142D01*
X113709285Y-69149285D02*
X113709285Y-68399285D01*
X113995000Y-68399285D01*
X114066428Y-68435000D01*
X114102142Y-68470714D01*
X114137857Y-68542142D01*
X114137857Y-68649285D01*
X114102142Y-68720714D01*
X114066428Y-68756428D01*
X113995000Y-68792142D01*
X113709285Y-68792142D01*
X114780714Y-68649285D02*
X114780714Y-69149285D01*
X114602142Y-68363571D02*
X114423571Y-68899285D01*
X114887857Y-68899285D01*
X115137857Y-68470714D02*
X115173571Y-68435000D01*
X115245000Y-68399285D01*
X115423571Y-68399285D01*
X115495000Y-68435000D01*
X115530714Y-68470714D01*
X115566428Y-68542142D01*
X115566428Y-68613571D01*
X115530714Y-68720714D01*
X115102142Y-69149285D01*
X115566428Y-69149285D01*
X116815000Y-69149285D02*
X116386428Y-69149285D01*
X116600714Y-69149285D02*
X116600714Y-68399285D01*
X116529285Y-68506428D01*
X116457857Y-68577857D01*
X116386428Y-68613571D01*
X117279285Y-68399285D02*
X117350714Y-68399285D01*
X117422142Y-68435000D01*
X117457857Y-68470714D01*
X117493571Y-68542142D01*
X117529285Y-68685000D01*
X117529285Y-68863571D01*
X117493571Y-69006428D01*
X117457857Y-69077857D01*
X117422142Y-69113571D01*
X117350714Y-69149285D01*
X117279285Y-69149285D01*
X117207857Y-69113571D01*
X117172142Y-69077857D01*
X117136428Y-69006428D01*
X117100714Y-68863571D01*
X117100714Y-68685000D01*
X117136428Y-68542142D01*
X117172142Y-68470714D01*
X117207857Y-68435000D01*
X117279285Y-68399285D01*
X117993571Y-68399285D02*
X118065000Y-68399285D01*
X118136428Y-68435000D01*
X118172142Y-68470714D01*
X118207857Y-68542142D01*
X118243571Y-68685000D01*
X118243571Y-68863571D01*
X118207857Y-69006428D01*
X118172142Y-69077857D01*
X118136428Y-69113571D01*
X118065000Y-69149285D01*
X117993571Y-69149285D01*
X117922142Y-69113571D01*
X117886428Y-69077857D01*
X117850714Y-69006428D01*
X117815000Y-68863571D01*
X117815000Y-68685000D01*
X117850714Y-68542142D01*
X117886428Y-68470714D01*
X117922142Y-68435000D01*
X117993571Y-68399285D01*
X118565000Y-69149285D02*
X118565000Y-68399285D01*
X118993571Y-69149285D02*
X118672142Y-68720714D01*
X118993571Y-68399285D02*
X118565000Y-68827857D01*
X114137857Y-65529285D02*
X113887857Y-65172142D01*
X113709285Y-65529285D02*
X113709285Y-64779285D01*
X113995000Y-64779285D01*
X114066428Y-64815000D01*
X114102142Y-64850714D01*
X114137857Y-64922142D01*
X114137857Y-65029285D01*
X114102142Y-65100714D01*
X114066428Y-65136428D01*
X113995000Y-65172142D01*
X113709285Y-65172142D01*
X114780714Y-65029285D02*
X114780714Y-65529285D01*
X114602142Y-64743571D02*
X114423571Y-65279285D01*
X114887857Y-65279285D01*
X115566428Y-65529285D02*
X115137857Y-65529285D01*
X115352142Y-65529285D02*
X115352142Y-64779285D01*
X115280714Y-64886428D01*
X115209285Y-64957857D01*
X115137857Y-64993571D01*
X116675000Y-65529285D02*
X116246428Y-65529285D01*
X116460714Y-65529285D02*
X116460714Y-64779285D01*
X116389285Y-64886428D01*
X116317857Y-64957857D01*
X116246428Y-64993571D01*
X117139285Y-64779285D02*
X117210714Y-64779285D01*
X117282142Y-64815000D01*
X117317857Y-64850714D01*
X117353571Y-64922142D01*
X117389285Y-65065000D01*
X117389285Y-65243571D01*
X117353571Y-65386428D01*
X117317857Y-65457857D01*
X117282142Y-65493571D01*
X117210714Y-65529285D01*
X117139285Y-65529285D01*
X117067857Y-65493571D01*
X117032142Y-65457857D01*
X116996428Y-65386428D01*
X116960714Y-65243571D01*
X116960714Y-65065000D01*
X116996428Y-64922142D01*
X117032142Y-64850714D01*
X117067857Y-64815000D01*
X117139285Y-64779285D01*
X117853571Y-64779285D02*
X117925000Y-64779285D01*
X117996428Y-64815000D01*
X118032142Y-64850714D01*
X118067857Y-64922142D01*
X118103571Y-65065000D01*
X118103571Y-65243571D01*
X118067857Y-65386428D01*
X118032142Y-65457857D01*
X117996428Y-65493571D01*
X117925000Y-65529285D01*
X117853571Y-65529285D01*
X117782142Y-65493571D01*
X117746428Y-65457857D01*
X117710714Y-65386428D01*
X117675000Y-65243571D01*
X117675000Y-65065000D01*
X117710714Y-64922142D01*
X117746428Y-64850714D01*
X117782142Y-64815000D01*
X117853571Y-64779285D01*
X118425000Y-65529285D02*
X118425000Y-64779285D01*
X118853571Y-65529285D02*
X118532142Y-65100714D01*
X118853571Y-64779285D02*
X118425000Y-65207857D01*
X114157857Y-72819285D02*
X113907857Y-72462142D01*
X113729285Y-72819285D02*
X113729285Y-72069285D01*
X114015000Y-72069285D01*
X114086428Y-72105000D01*
X114122142Y-72140714D01*
X114157857Y-72212142D01*
X114157857Y-72319285D01*
X114122142Y-72390714D01*
X114086428Y-72426428D01*
X114015000Y-72462142D01*
X113729285Y-72462142D01*
X114800714Y-72319285D02*
X114800714Y-72819285D01*
X114622142Y-72033571D02*
X114443571Y-72569285D01*
X114907857Y-72569285D01*
X115336428Y-72069285D02*
X115407857Y-72069285D01*
X115479285Y-72105000D01*
X115515000Y-72140714D01*
X115550714Y-72212142D01*
X115586428Y-72355000D01*
X115586428Y-72533571D01*
X115550714Y-72676428D01*
X115515000Y-72747857D01*
X115479285Y-72783571D01*
X115407857Y-72819285D01*
X115336428Y-72819285D01*
X115265000Y-72783571D01*
X115229285Y-72747857D01*
X115193571Y-72676428D01*
X115157857Y-72533571D01*
X115157857Y-72355000D01*
X115193571Y-72212142D01*
X115229285Y-72140714D01*
X115265000Y-72105000D01*
X115336428Y-72069285D01*
X116336428Y-72110714D02*
X116372142Y-72075000D01*
X116443571Y-72039285D01*
X116622142Y-72039285D01*
X116693571Y-72075000D01*
X116729285Y-72110714D01*
X116765000Y-72182142D01*
X116765000Y-72253571D01*
X116729285Y-72360714D01*
X116300714Y-72789285D01*
X116765000Y-72789285D01*
X117229285Y-72039285D02*
X117300714Y-72039285D01*
X117372142Y-72075000D01*
X117407857Y-72110714D01*
X117443571Y-72182142D01*
X117479285Y-72325000D01*
X117479285Y-72503571D01*
X117443571Y-72646428D01*
X117407857Y-72717857D01*
X117372142Y-72753571D01*
X117300714Y-72789285D01*
X117229285Y-72789285D01*
X117157857Y-72753571D01*
X117122142Y-72717857D01*
X117086428Y-72646428D01*
X117050714Y-72503571D01*
X117050714Y-72325000D01*
X117086428Y-72182142D01*
X117122142Y-72110714D01*
X117157857Y-72075000D01*
X117229285Y-72039285D01*
X117943571Y-72039285D02*
X118015000Y-72039285D01*
X118086428Y-72075000D01*
X118122142Y-72110714D01*
X118157857Y-72182142D01*
X118193571Y-72325000D01*
X118193571Y-72503571D01*
X118157857Y-72646428D01*
X118122142Y-72717857D01*
X118086428Y-72753571D01*
X118015000Y-72789285D01*
X117943571Y-72789285D01*
X117872142Y-72753571D01*
X117836428Y-72717857D01*
X117800714Y-72646428D01*
X117765000Y-72503571D01*
X117765000Y-72325000D01*
X117800714Y-72182142D01*
X117836428Y-72110714D01*
X117872142Y-72075000D01*
X117943571Y-72039285D01*
X118515000Y-72789285D02*
X118515000Y-72039285D01*
X118943571Y-72789285D02*
X118622142Y-72360714D01*
X118943571Y-72039285D02*
X118515000Y-72467857D01*
X108804523Y-113539285D02*
X108554523Y-113182142D01*
X108375951Y-113539285D02*
X108375951Y-112789285D01*
X108661666Y-112789285D01*
X108733094Y-112825000D01*
X108768808Y-112860714D01*
X108804523Y-112932142D01*
X108804523Y-113039285D01*
X108768808Y-113110714D01*
X108733094Y-113146428D01*
X108661666Y-113182142D01*
X108375951Y-113182142D01*
X109054523Y-112789285D02*
X109518808Y-112789285D01*
X109268808Y-113075000D01*
X109375951Y-113075000D01*
X109447380Y-113110714D01*
X109483094Y-113146428D01*
X109518808Y-113217857D01*
X109518808Y-113396428D01*
X109483094Y-113467857D01*
X109447380Y-113503571D01*
X109375951Y-113539285D01*
X109161666Y-113539285D01*
X109090237Y-113503571D01*
X109054523Y-113467857D01*
X109875951Y-113539285D02*
X110018808Y-113539285D01*
X110090237Y-113503571D01*
X110125951Y-113467857D01*
X110197380Y-113360714D01*
X110233094Y-113217857D01*
X110233094Y-112932142D01*
X110197380Y-112860714D01*
X110161666Y-112825000D01*
X110090237Y-112789285D01*
X109947380Y-112789285D01*
X109875951Y-112825000D01*
X109840237Y-112860714D01*
X109804523Y-112932142D01*
X109804523Y-113110714D01*
X109840237Y-113182142D01*
X109875951Y-113217857D01*
X109947380Y-113253571D01*
X110090237Y-113253571D01*
X110161666Y-113217857D01*
X110197380Y-113182142D01*
X110233094Y-113110714D01*
X109125951Y-118279285D02*
X108697380Y-118279285D01*
X108911666Y-118279285D02*
X108911666Y-117529285D01*
X108840237Y-117636428D01*
X108768808Y-117707857D01*
X108697380Y-117743571D01*
X109447380Y-118279285D02*
X109447380Y-117529285D01*
X109875951Y-118279285D02*
X109554523Y-117850714D01*
X109875951Y-117529285D02*
X109447380Y-117957857D01*
X108804523Y-115909285D02*
X108554523Y-115552142D01*
X108375951Y-115909285D02*
X108375951Y-115159285D01*
X108661666Y-115159285D01*
X108733094Y-115195000D01*
X108768808Y-115230714D01*
X108804523Y-115302142D01*
X108804523Y-115409285D01*
X108768808Y-115480714D01*
X108733094Y-115516428D01*
X108661666Y-115552142D01*
X108375951Y-115552142D01*
X109054523Y-115159285D02*
X109518808Y-115159285D01*
X109268808Y-115445000D01*
X109375951Y-115445000D01*
X109447380Y-115480714D01*
X109483094Y-115516428D01*
X109518808Y-115587857D01*
X109518808Y-115766428D01*
X109483094Y-115837857D01*
X109447380Y-115873571D01*
X109375951Y-115909285D01*
X109161666Y-115909285D01*
X109090237Y-115873571D01*
X109054523Y-115837857D01*
X109875951Y-115909285D02*
X110018808Y-115909285D01*
X110090237Y-115873571D01*
X110125951Y-115837857D01*
X110197380Y-115730714D01*
X110233094Y-115587857D01*
X110233094Y-115302142D01*
X110197380Y-115230714D01*
X110161666Y-115195000D01*
X110090237Y-115159285D01*
X109947380Y-115159285D01*
X109875951Y-115195000D01*
X109840237Y-115230714D01*
X109804523Y-115302142D01*
X109804523Y-115480714D01*
X109840237Y-115552142D01*
X109875951Y-115587857D01*
X109947380Y-115623571D01*
X110090237Y-115623571D01*
X110161666Y-115587857D01*
X110197380Y-115552142D01*
X110233094Y-115480714D01*
X133057857Y-113539285D02*
X132807857Y-113182142D01*
X132629285Y-113539285D02*
X132629285Y-112789285D01*
X132915000Y-112789285D01*
X132986428Y-112825000D01*
X133022142Y-112860714D01*
X133057857Y-112932142D01*
X133057857Y-113039285D01*
X133022142Y-113110714D01*
X132986428Y-113146428D01*
X132915000Y-113182142D01*
X132629285Y-113182142D01*
X133307857Y-112789285D02*
X133772142Y-112789285D01*
X133522142Y-113075000D01*
X133629285Y-113075000D01*
X133700714Y-113110714D01*
X133736428Y-113146428D01*
X133772142Y-113217857D01*
X133772142Y-113396428D01*
X133736428Y-113467857D01*
X133700714Y-113503571D01*
X133629285Y-113539285D01*
X133415000Y-113539285D01*
X133343571Y-113503571D01*
X133307857Y-113467857D01*
X134450714Y-112789285D02*
X134093571Y-112789285D01*
X134057857Y-113146428D01*
X134093571Y-113110714D01*
X134165000Y-113075000D01*
X134343571Y-113075000D01*
X134415000Y-113110714D01*
X134450714Y-113146428D01*
X134486428Y-113217857D01*
X134486428Y-113396428D01*
X134450714Y-113467857D01*
X134415000Y-113503571D01*
X134343571Y-113539285D01*
X134165000Y-113539285D01*
X134093571Y-113503571D01*
X134057857Y-113467857D01*
X133379285Y-118279285D02*
X132950714Y-118279285D01*
X133165000Y-118279285D02*
X133165000Y-117529285D01*
X133093571Y-117636428D01*
X133022142Y-117707857D01*
X132950714Y-117743571D01*
X133700714Y-118279285D02*
X133700714Y-117529285D01*
X134129285Y-118279285D02*
X133807857Y-117850714D01*
X134129285Y-117529285D02*
X133700714Y-117957857D01*
X133057857Y-115909285D02*
X132807857Y-115552142D01*
X132629285Y-115909285D02*
X132629285Y-115159285D01*
X132915000Y-115159285D01*
X132986428Y-115195000D01*
X133022142Y-115230714D01*
X133057857Y-115302142D01*
X133057857Y-115409285D01*
X133022142Y-115480714D01*
X132986428Y-115516428D01*
X132915000Y-115552142D01*
X132629285Y-115552142D01*
X133307857Y-115159285D02*
X133772142Y-115159285D01*
X133522142Y-115445000D01*
X133629285Y-115445000D01*
X133700714Y-115480714D01*
X133736428Y-115516428D01*
X133772142Y-115587857D01*
X133772142Y-115766428D01*
X133736428Y-115837857D01*
X133700714Y-115873571D01*
X133629285Y-115909285D01*
X133415000Y-115909285D01*
X133343571Y-115873571D01*
X133307857Y-115837857D01*
X134450714Y-115159285D02*
X134093571Y-115159285D01*
X134057857Y-115516428D01*
X134093571Y-115480714D01*
X134165000Y-115445000D01*
X134343571Y-115445000D01*
X134415000Y-115480714D01*
X134450714Y-115516428D01*
X134486428Y-115587857D01*
X134486428Y-115766428D01*
X134450714Y-115837857D01*
X134415000Y-115873571D01*
X134343571Y-115909285D01*
X134165000Y-115909285D01*
X134093571Y-115873571D01*
X134057857Y-115837857D01*
X105000000Y-99199285D02*
X105000000Y-99735000D01*
X104964285Y-99842142D01*
X104892857Y-99913571D01*
X104785714Y-99949285D01*
X104714285Y-99949285D01*
X105392857Y-99949285D02*
X105535714Y-99949285D01*
X105607142Y-99913571D01*
X105642857Y-99877857D01*
X105714285Y-99770714D01*
X105750000Y-99627857D01*
X105750000Y-99342142D01*
X105714285Y-99270714D01*
X105678571Y-99235000D01*
X105607142Y-99199285D01*
X105464285Y-99199285D01*
X105392857Y-99235000D01*
X105357142Y-99270714D01*
X105321428Y-99342142D01*
X105321428Y-99520714D01*
X105357142Y-99592142D01*
X105392857Y-99627857D01*
X105464285Y-99663571D01*
X105607142Y-99663571D01*
X105678571Y-99627857D01*
X105714285Y-99592142D01*
X105750000Y-99520714D01*
X107369285Y-103869285D02*
X107369285Y-103119285D01*
X107655000Y-103119285D01*
X107726428Y-103155000D01*
X107762142Y-103190714D01*
X107797857Y-103262142D01*
X107797857Y-103369285D01*
X107762142Y-103440714D01*
X107726428Y-103476428D01*
X107655000Y-103512142D01*
X107369285Y-103512142D01*
X108047857Y-103119285D02*
X108226428Y-103869285D01*
X108369285Y-103333571D01*
X108512142Y-103869285D01*
X108690714Y-103119285D01*
X108976428Y-103869285D02*
X108976428Y-103119285D01*
X109226428Y-103655000D01*
X109476428Y-103119285D01*
X109476428Y-103869285D01*
X109655000Y-103940714D02*
X110226428Y-103940714D01*
X110405000Y-103869285D02*
X110405000Y-103119285D01*
X110762142Y-103869285D02*
X110762142Y-103119285D01*
X111190714Y-103869285D01*
X111190714Y-103119285D01*
X109030000Y-106119285D02*
X109030000Y-106655000D01*
X108994285Y-106762142D01*
X108922857Y-106833571D01*
X108815714Y-106869285D01*
X108744285Y-106869285D01*
X109422857Y-106869285D02*
X109565714Y-106869285D01*
X109637142Y-106833571D01*
X109672857Y-106797857D01*
X109744285Y-106690714D01*
X109780000Y-106547857D01*
X109780000Y-106262142D01*
X109744285Y-106190714D01*
X109708571Y-106155000D01*
X109637142Y-106119285D01*
X109494285Y-106119285D01*
X109422857Y-106155000D01*
X109387142Y-106190714D01*
X109351428Y-106262142D01*
X109351428Y-106440714D01*
X109387142Y-106512142D01*
X109422857Y-106547857D01*
X109494285Y-106583571D01*
X109637142Y-106583571D01*
X109708571Y-106547857D01*
X109744285Y-106512142D01*
X109780000Y-106440714D01*
X114217857Y-76439285D02*
X113967857Y-76082142D01*
X113789285Y-76439285D02*
X113789285Y-75689285D01*
X114075000Y-75689285D01*
X114146428Y-75725000D01*
X114182142Y-75760714D01*
X114217857Y-75832142D01*
X114217857Y-75939285D01*
X114182142Y-76010714D01*
X114146428Y-76046428D01*
X114075000Y-76082142D01*
X113789285Y-76082142D01*
X114467857Y-75689285D02*
X114932142Y-75689285D01*
X114682142Y-75975000D01*
X114789285Y-75975000D01*
X114860714Y-76010714D01*
X114896428Y-76046428D01*
X114932142Y-76117857D01*
X114932142Y-76296428D01*
X114896428Y-76367857D01*
X114860714Y-76403571D01*
X114789285Y-76439285D01*
X114575000Y-76439285D01*
X114503571Y-76403571D01*
X114467857Y-76367857D01*
X115575000Y-75939285D02*
X115575000Y-76439285D01*
X115396428Y-75653571D02*
X115217857Y-76189285D01*
X115682142Y-76189285D01*
X116723571Y-75909285D02*
X116723571Y-76409285D01*
X116545000Y-75623571D02*
X116366428Y-76159285D01*
X116830714Y-76159285D01*
X117045000Y-75659285D02*
X117545000Y-75659285D01*
X117223571Y-76409285D01*
X117973571Y-75659285D02*
X118045000Y-75659285D01*
X118116428Y-75695000D01*
X118152142Y-75730714D01*
X118187857Y-75802142D01*
X118223571Y-75945000D01*
X118223571Y-76123571D01*
X118187857Y-76266428D01*
X118152142Y-76337857D01*
X118116428Y-76373571D01*
X118045000Y-76409285D01*
X117973571Y-76409285D01*
X117902142Y-76373571D01*
X117866428Y-76337857D01*
X117830714Y-76266428D01*
X117795000Y-76123571D01*
X117795000Y-75945000D01*
X117830714Y-75802142D01*
X117866428Y-75730714D01*
X117902142Y-75695000D01*
X117973571Y-75659285D01*
X118545000Y-76409285D02*
X118545000Y-75659285D01*
X118973571Y-76409285D02*
X118652142Y-75980714D01*
X118973571Y-75659285D02*
X118545000Y-76087857D01*
X104987857Y-93299285D02*
X104737857Y-92942142D01*
X104559285Y-93299285D02*
X104559285Y-92549285D01*
X104845000Y-92549285D01*
X104916428Y-92585000D01*
X104952142Y-92620714D01*
X104987857Y-92692142D01*
X104987857Y-92799285D01*
X104952142Y-92870714D01*
X104916428Y-92906428D01*
X104845000Y-92942142D01*
X104559285Y-92942142D01*
X105237857Y-92549285D02*
X105702142Y-92549285D01*
X105452142Y-92835000D01*
X105559285Y-92835000D01*
X105630714Y-92870714D01*
X105666428Y-92906428D01*
X105702142Y-92977857D01*
X105702142Y-93156428D01*
X105666428Y-93227857D01*
X105630714Y-93263571D01*
X105559285Y-93299285D01*
X105345000Y-93299285D01*
X105273571Y-93263571D01*
X105237857Y-93227857D01*
X106166428Y-92549285D02*
X106237857Y-92549285D01*
X106309285Y-92585000D01*
X106345000Y-92620714D01*
X106380714Y-92692142D01*
X106416428Y-92835000D01*
X106416428Y-93013571D01*
X106380714Y-93156428D01*
X106345000Y-93227857D01*
X106309285Y-93263571D01*
X106237857Y-93299285D01*
X106166428Y-93299285D01*
X106095000Y-93263571D01*
X106059285Y-93227857D01*
X106023571Y-93156428D01*
X105987857Y-93013571D01*
X105987857Y-92835000D01*
X106023571Y-92692142D01*
X106059285Y-92620714D01*
X106095000Y-92585000D01*
X106166428Y-92549285D01*
X104595000Y-98039285D02*
X104166428Y-98039285D01*
X104380714Y-98039285D02*
X104380714Y-97289285D01*
X104309285Y-97396428D01*
X104237857Y-97467857D01*
X104166428Y-97503571D01*
X105059285Y-97289285D02*
X105130714Y-97289285D01*
X105202142Y-97325000D01*
X105237857Y-97360714D01*
X105273571Y-97432142D01*
X105309285Y-97575000D01*
X105309285Y-97753571D01*
X105273571Y-97896428D01*
X105237857Y-97967857D01*
X105202142Y-98003571D01*
X105130714Y-98039285D01*
X105059285Y-98039285D01*
X104987857Y-98003571D01*
X104952142Y-97967857D01*
X104916428Y-97896428D01*
X104880714Y-97753571D01*
X104880714Y-97575000D01*
X104916428Y-97432142D01*
X104952142Y-97360714D01*
X104987857Y-97325000D01*
X105059285Y-97289285D01*
X105773571Y-97289285D02*
X105845000Y-97289285D01*
X105916428Y-97325000D01*
X105952142Y-97360714D01*
X105987857Y-97432142D01*
X106023571Y-97575000D01*
X106023571Y-97753571D01*
X105987857Y-97896428D01*
X105952142Y-97967857D01*
X105916428Y-98003571D01*
X105845000Y-98039285D01*
X105773571Y-98039285D01*
X105702142Y-98003571D01*
X105666428Y-97967857D01*
X105630714Y-97896428D01*
X105595000Y-97753571D01*
X105595000Y-97575000D01*
X105630714Y-97432142D01*
X105666428Y-97360714D01*
X105702142Y-97325000D01*
X105773571Y-97289285D01*
X106345000Y-98039285D02*
X106345000Y-97289285D01*
X106773571Y-98039285D02*
X106452142Y-97610714D01*
X106773571Y-97289285D02*
X106345000Y-97717857D01*
X104987857Y-95669285D02*
X104737857Y-95312142D01*
X104559285Y-95669285D02*
X104559285Y-94919285D01*
X104845000Y-94919285D01*
X104916428Y-94955000D01*
X104952142Y-94990714D01*
X104987857Y-95062142D01*
X104987857Y-95169285D01*
X104952142Y-95240714D01*
X104916428Y-95276428D01*
X104845000Y-95312142D01*
X104559285Y-95312142D01*
X105237857Y-94919285D02*
X105702142Y-94919285D01*
X105452142Y-95205000D01*
X105559285Y-95205000D01*
X105630714Y-95240714D01*
X105666428Y-95276428D01*
X105702142Y-95347857D01*
X105702142Y-95526428D01*
X105666428Y-95597857D01*
X105630714Y-95633571D01*
X105559285Y-95669285D01*
X105345000Y-95669285D01*
X105273571Y-95633571D01*
X105237857Y-95597857D01*
X106166428Y-94919285D02*
X106237857Y-94919285D01*
X106309285Y-94955000D01*
X106345000Y-94990714D01*
X106380714Y-95062142D01*
X106416428Y-95205000D01*
X106416428Y-95383571D01*
X106380714Y-95526428D01*
X106345000Y-95597857D01*
X106309285Y-95633571D01*
X106237857Y-95669285D01*
X106166428Y-95669285D01*
X106095000Y-95633571D01*
X106059285Y-95597857D01*
X106023571Y-95526428D01*
X105987857Y-95383571D01*
X105987857Y-95205000D01*
X106023571Y-95062142D01*
X106059285Y-94990714D01*
X106095000Y-94955000D01*
X106166428Y-94919285D01*
X114177857Y-61869285D02*
X113927857Y-61512142D01*
X113749285Y-61869285D02*
X113749285Y-61119285D01*
X114035000Y-61119285D01*
X114106428Y-61155000D01*
X114142142Y-61190714D01*
X114177857Y-61262142D01*
X114177857Y-61369285D01*
X114142142Y-61440714D01*
X114106428Y-61476428D01*
X114035000Y-61512142D01*
X113749285Y-61512142D01*
X114463571Y-61190714D02*
X114499285Y-61155000D01*
X114570714Y-61119285D01*
X114749285Y-61119285D01*
X114820714Y-61155000D01*
X114856428Y-61190714D01*
X114892142Y-61262142D01*
X114892142Y-61333571D01*
X114856428Y-61440714D01*
X114427857Y-61869285D01*
X114892142Y-61869285D01*
X115249285Y-61869285D02*
X115392142Y-61869285D01*
X115463571Y-61833571D01*
X115499285Y-61797857D01*
X115570714Y-61690714D01*
X115606428Y-61547857D01*
X115606428Y-61262142D01*
X115570714Y-61190714D01*
X115535000Y-61155000D01*
X115463571Y-61119285D01*
X115320714Y-61119285D01*
X115249285Y-61155000D01*
X115213571Y-61190714D01*
X115177857Y-61262142D01*
X115177857Y-61440714D01*
X115213571Y-61512142D01*
X115249285Y-61547857D01*
X115320714Y-61583571D01*
X115463571Y-61583571D01*
X115535000Y-61547857D01*
X115570714Y-61512142D01*
X115606428Y-61440714D01*
X117448571Y-61839285D02*
X117020000Y-61839285D01*
X117234285Y-61839285D02*
X117234285Y-61089285D01*
X117162857Y-61196428D01*
X117091428Y-61267857D01*
X117020000Y-61303571D01*
X117770000Y-61839285D02*
X117770000Y-61089285D01*
X118020000Y-61625000D01*
X118270000Y-61089285D01*
X118270000Y-61839285D01*
X118984285Y-61089285D02*
X118627142Y-61089285D01*
X118591428Y-61446428D01*
X118627142Y-61410714D01*
X118698571Y-61375000D01*
X118877142Y-61375000D01*
X118948571Y-61410714D01*
X118984285Y-61446428D01*
X119020000Y-61517857D01*
X119020000Y-61696428D01*
X118984285Y-61767857D01*
X118948571Y-61803571D01*
X118877142Y-61839285D01*
X118698571Y-61839285D01*
X118627142Y-61803571D01*
X118591428Y-61767857D01*
X114197857Y-54689285D02*
X113947857Y-54332142D01*
X113769285Y-54689285D02*
X113769285Y-53939285D01*
X114055000Y-53939285D01*
X114126428Y-53975000D01*
X114162142Y-54010714D01*
X114197857Y-54082142D01*
X114197857Y-54189285D01*
X114162142Y-54260714D01*
X114126428Y-54296428D01*
X114055000Y-54332142D01*
X113769285Y-54332142D01*
X114483571Y-54010714D02*
X114519285Y-53975000D01*
X114590714Y-53939285D01*
X114769285Y-53939285D01*
X114840714Y-53975000D01*
X114876428Y-54010714D01*
X114912142Y-54082142D01*
X114912142Y-54153571D01*
X114876428Y-54260714D01*
X114447857Y-54689285D01*
X114912142Y-54689285D01*
X115340714Y-54260714D02*
X115269285Y-54225000D01*
X115233571Y-54189285D01*
X115197857Y-54117857D01*
X115197857Y-54082142D01*
X115233571Y-54010714D01*
X115269285Y-53975000D01*
X115340714Y-53939285D01*
X115483571Y-53939285D01*
X115555000Y-53975000D01*
X115590714Y-54010714D01*
X115626428Y-54082142D01*
X115626428Y-54117857D01*
X115590714Y-54189285D01*
X115555000Y-54225000D01*
X115483571Y-54260714D01*
X115340714Y-54260714D01*
X115269285Y-54296428D01*
X115233571Y-54332142D01*
X115197857Y-54403571D01*
X115197857Y-54546428D01*
X115233571Y-54617857D01*
X115269285Y-54653571D01*
X115340714Y-54689285D01*
X115483571Y-54689285D01*
X115555000Y-54653571D01*
X115590714Y-54617857D01*
X115626428Y-54546428D01*
X115626428Y-54403571D01*
X115590714Y-54332142D01*
X115555000Y-54296428D01*
X115483571Y-54260714D01*
X117410714Y-54109285D02*
X117410714Y-54609285D01*
X117232142Y-53823571D02*
X117053571Y-54359285D01*
X117517857Y-54359285D01*
X117732142Y-53859285D02*
X118232142Y-53859285D01*
X117910714Y-54609285D01*
X118517857Y-54609285D02*
X118517857Y-53859285D01*
X118946428Y-54609285D02*
X118625000Y-54180714D01*
X118946428Y-53859285D02*
X118517857Y-54287857D01*
X114147857Y-58299285D02*
X113897857Y-57942142D01*
X113719285Y-58299285D02*
X113719285Y-57549285D01*
X114005000Y-57549285D01*
X114076428Y-57585000D01*
X114112142Y-57620714D01*
X114147857Y-57692142D01*
X114147857Y-57799285D01*
X114112142Y-57870714D01*
X114076428Y-57906428D01*
X114005000Y-57942142D01*
X113719285Y-57942142D01*
X114433571Y-57620714D02*
X114469285Y-57585000D01*
X114540714Y-57549285D01*
X114719285Y-57549285D01*
X114790714Y-57585000D01*
X114826428Y-57620714D01*
X114862142Y-57692142D01*
X114862142Y-57763571D01*
X114826428Y-57870714D01*
X114397857Y-58299285D01*
X114862142Y-58299285D01*
X115112142Y-57549285D02*
X115612142Y-57549285D01*
X115290714Y-58299285D01*
X116346428Y-57600714D02*
X116382142Y-57565000D01*
X116453571Y-57529285D01*
X116632142Y-57529285D01*
X116703571Y-57565000D01*
X116739285Y-57600714D01*
X116775000Y-57672142D01*
X116775000Y-57743571D01*
X116739285Y-57850714D01*
X116310714Y-58279285D01*
X116775000Y-58279285D01*
X117060714Y-57600714D02*
X117096428Y-57565000D01*
X117167857Y-57529285D01*
X117346428Y-57529285D01*
X117417857Y-57565000D01*
X117453571Y-57600714D01*
X117489285Y-57672142D01*
X117489285Y-57743571D01*
X117453571Y-57850714D01*
X117025000Y-58279285D01*
X117489285Y-58279285D01*
X117953571Y-57529285D02*
X118025000Y-57529285D01*
X118096428Y-57565000D01*
X118132142Y-57600714D01*
X118167857Y-57672142D01*
X118203571Y-57815000D01*
X118203571Y-57993571D01*
X118167857Y-58136428D01*
X118132142Y-58207857D01*
X118096428Y-58243571D01*
X118025000Y-58279285D01*
X117953571Y-58279285D01*
X117882142Y-58243571D01*
X117846428Y-58207857D01*
X117810714Y-58136428D01*
X117775000Y-57993571D01*
X117775000Y-57815000D01*
X117810714Y-57672142D01*
X117846428Y-57600714D01*
X117882142Y-57565000D01*
X117953571Y-57529285D01*
X118525000Y-58279285D02*
X118525000Y-57529285D01*
X118953571Y-58279285D02*
X118632142Y-57850714D01*
X118953571Y-57529285D02*
X118525000Y-57957857D01*
X96677857Y-113539285D02*
X96427857Y-113182142D01*
X96249285Y-113539285D02*
X96249285Y-112789285D01*
X96535000Y-112789285D01*
X96606428Y-112825000D01*
X96642142Y-112860714D01*
X96677857Y-112932142D01*
X96677857Y-113039285D01*
X96642142Y-113110714D01*
X96606428Y-113146428D01*
X96535000Y-113182142D01*
X96249285Y-113182142D01*
X96963571Y-112860714D02*
X96999285Y-112825000D01*
X97070714Y-112789285D01*
X97249285Y-112789285D01*
X97320714Y-112825000D01*
X97356428Y-112860714D01*
X97392142Y-112932142D01*
X97392142Y-113003571D01*
X97356428Y-113110714D01*
X96927857Y-113539285D01*
X97392142Y-113539285D01*
X98070714Y-112789285D02*
X97713571Y-112789285D01*
X97677857Y-113146428D01*
X97713571Y-113110714D01*
X97785000Y-113075000D01*
X97963571Y-113075000D01*
X98035000Y-113110714D01*
X98070714Y-113146428D01*
X98106428Y-113217857D01*
X98106428Y-113396428D01*
X98070714Y-113467857D01*
X98035000Y-113503571D01*
X97963571Y-113539285D01*
X97785000Y-113539285D01*
X97713571Y-113503571D01*
X97677857Y-113467857D01*
X96999285Y-118279285D02*
X96570714Y-118279285D01*
X96785000Y-118279285D02*
X96785000Y-117529285D01*
X96713571Y-117636428D01*
X96642142Y-117707857D01*
X96570714Y-117743571D01*
X97320714Y-118279285D02*
X97320714Y-117529285D01*
X97749285Y-118279285D02*
X97427857Y-117850714D01*
X97749285Y-117529285D02*
X97320714Y-117957857D01*
X96677857Y-115909285D02*
X96427857Y-115552142D01*
X96249285Y-115909285D02*
X96249285Y-115159285D01*
X96535000Y-115159285D01*
X96606428Y-115195000D01*
X96642142Y-115230714D01*
X96677857Y-115302142D01*
X96677857Y-115409285D01*
X96642142Y-115480714D01*
X96606428Y-115516428D01*
X96535000Y-115552142D01*
X96249285Y-115552142D01*
X96963571Y-115230714D02*
X96999285Y-115195000D01*
X97070714Y-115159285D01*
X97249285Y-115159285D01*
X97320714Y-115195000D01*
X97356428Y-115230714D01*
X97392142Y-115302142D01*
X97392142Y-115373571D01*
X97356428Y-115480714D01*
X96927857Y-115909285D01*
X97392142Y-115909285D01*
X98070714Y-115159285D02*
X97713571Y-115159285D01*
X97677857Y-115516428D01*
X97713571Y-115480714D01*
X97785000Y-115445000D01*
X97963571Y-115445000D01*
X98035000Y-115480714D01*
X98070714Y-115516428D01*
X98106428Y-115587857D01*
X98106428Y-115766428D01*
X98070714Y-115837857D01*
X98035000Y-115873571D01*
X97963571Y-115909285D01*
X97785000Y-115909285D01*
X97713571Y-115873571D01*
X97677857Y-115837857D01*
X120931189Y-113539285D02*
X120681189Y-113182142D01*
X120502617Y-113539285D02*
X120502617Y-112789285D01*
X120788332Y-112789285D01*
X120859760Y-112825000D01*
X120895474Y-112860714D01*
X120931189Y-112932142D01*
X120931189Y-113039285D01*
X120895474Y-113110714D01*
X120859760Y-113146428D01*
X120788332Y-113182142D01*
X120502617Y-113182142D01*
X121645474Y-113539285D02*
X121216903Y-113539285D01*
X121431189Y-113539285D02*
X121431189Y-112789285D01*
X121359760Y-112896428D01*
X121288332Y-112967857D01*
X121216903Y-113003571D01*
X122359760Y-113539285D02*
X121931189Y-113539285D01*
X122145474Y-113539285D02*
X122145474Y-112789285D01*
X122074046Y-112896428D01*
X122002617Y-112967857D01*
X121931189Y-113003571D01*
X121252617Y-118279285D02*
X120824046Y-118279285D01*
X121038332Y-118279285D02*
X121038332Y-117529285D01*
X120966903Y-117636428D01*
X120895474Y-117707857D01*
X120824046Y-117743571D01*
X121574046Y-118279285D02*
X121574046Y-117529285D01*
X122002617Y-118279285D02*
X121681189Y-117850714D01*
X122002617Y-117529285D02*
X121574046Y-117957857D01*
X120931189Y-115909285D02*
X120681189Y-115552142D01*
X120502617Y-115909285D02*
X120502617Y-115159285D01*
X120788332Y-115159285D01*
X120859760Y-115195000D01*
X120895474Y-115230714D01*
X120931189Y-115302142D01*
X120931189Y-115409285D01*
X120895474Y-115480714D01*
X120859760Y-115516428D01*
X120788332Y-115552142D01*
X120502617Y-115552142D01*
X121645474Y-115909285D02*
X121216903Y-115909285D01*
X121431189Y-115909285D02*
X121431189Y-115159285D01*
X121359760Y-115266428D01*
X121288332Y-115337857D01*
X121216903Y-115373571D01*
X122359760Y-115909285D02*
X121931189Y-115909285D01*
X122145474Y-115909285D02*
X122145474Y-115159285D01*
X122074046Y-115266428D01*
X122002617Y-115337857D01*
X121931189Y-115373571D01*
X102409285Y-58416428D02*
X102052142Y-58666428D01*
X102409285Y-58845000D02*
X101659285Y-58845000D01*
X101659285Y-58559285D01*
X101695000Y-58487857D01*
X101730714Y-58452142D01*
X101802142Y-58416428D01*
X101909285Y-58416428D01*
X101980714Y-58452142D01*
X102016428Y-58487857D01*
X102052142Y-58559285D01*
X102052142Y-58845000D01*
X101659285Y-58202142D02*
X102409285Y-57952142D01*
X101659285Y-57702142D01*
X101659285Y-57130714D02*
X101659285Y-57273571D01*
X101695000Y-57345000D01*
X101730714Y-57380714D01*
X101837857Y-57452142D01*
X101980714Y-57487857D01*
X102266428Y-57487857D01*
X102337857Y-57452142D01*
X102373571Y-57416428D01*
X102409285Y-57345000D01*
X102409285Y-57202142D01*
X102373571Y-57130714D01*
X102337857Y-57095000D01*
X102266428Y-57059285D01*
X102087857Y-57059285D01*
X102016428Y-57095000D01*
X101980714Y-57130714D01*
X101945000Y-57202142D01*
X101945000Y-57345000D01*
X101980714Y-57416428D01*
X102016428Y-57452142D01*
X102087857Y-57487857D01*
X109626428Y-66515714D02*
X109662142Y-66408571D01*
X109697857Y-66372857D01*
X109769285Y-66337142D01*
X109876428Y-66337142D01*
X109947857Y-66372857D01*
X109983571Y-66408571D01*
X110019285Y-66480000D01*
X110019285Y-66765714D01*
X109269285Y-66765714D01*
X109269285Y-66515714D01*
X109305000Y-66444285D01*
X109340714Y-66408571D01*
X109412142Y-66372857D01*
X109483571Y-66372857D01*
X109555000Y-66408571D01*
X109590714Y-66444285D01*
X109626428Y-66515714D01*
X109626428Y-66765714D01*
X110019285Y-65622857D02*
X110019285Y-66051428D01*
X110019285Y-65837142D02*
X109269285Y-65837142D01*
X109376428Y-65908571D01*
X109447857Y-65980000D01*
X109483571Y-66051428D01*
X109269285Y-65158571D02*
X109269285Y-65087142D01*
X109305000Y-65015714D01*
X109340714Y-64980000D01*
X109412142Y-64944285D01*
X109555000Y-64908571D01*
X109733571Y-64908571D01*
X109876428Y-64944285D01*
X109947857Y-64980000D01*
X109983571Y-65015714D01*
X110019285Y-65087142D01*
X110019285Y-65158571D01*
X109983571Y-65230000D01*
X109947857Y-65265714D01*
X109876428Y-65301428D01*
X109733571Y-65337142D01*
X109555000Y-65337142D01*
X109412142Y-65301428D01*
X109340714Y-65265714D01*
X109305000Y-65230000D01*
X109269285Y-65158571D01*
X110019285Y-64587142D02*
X109269285Y-64587142D01*
X110019285Y-64158571D02*
X109590714Y-64480000D01*
X109269285Y-64158571D02*
X109697857Y-64587142D01*
M02*
